<svg width="1920" height="900" viewBox="0 0 1920 900" fill="none" xmlns="http://www.w3.org/2000/svg">
<path d="M1920 900H0V0H1920V900Z" fill="#221A50"/>
<g opacity="0.25">
<path opacity="0.55" d="M1727.63 899.533L548.082 217L1225.12 217L2405.14 900L1727.63 899.533Z" fill="url(#paint0_linear)"/>
<path opacity="0.55" d="M2370.52 899.533L1190.97 217L1225.12 217L2405.14 900L2370.52 899.533Z" fill="url(#paint1_linear)"/>
<path opacity="0.55" d="M1733.25 899.533L553.229 217L587.385 217L1767.4 900L1733.25 899.533Z" fill="url(#paint2_linear)"/>
<path opacity="0.33" d="M1466.55 899.533L287 217L746.001 217L1925.55 900L1466.55 899.533Z" fill="url(#paint3_linear)"/>
<path opacity="0.33" d="M1891.4 899.533L711.844 217L745.999 217L1925.55 900L1891.4 899.533Z" fill="url(#paint4_linear)"/>
<path opacity="0.33" d="M1467.49 899.533L287.937 217L321.625 217L1501.18 899.533L1467.49 899.533Z" fill="url(#paint5_linear)"/>
</g>
<rect x="287" y="217" width="2562" height="676.81" fill="url(#paint6_linear)"/>
<defs>
<linearGradient id="paint0_linear" x1="715.868" y1="120.258" x2="1473.97" y2="1436.14" gradientUnits="userSpaceOnUse">
<stop stop-color="#00DFFF"/>
<stop offset="0.197" stop-color="#3CD3FF"/>
<stop offset="0.4904" stop-color="#8EC3FF"/>
<stop offset="0.7315" stop-color="#CBB6FF"/>
<stop offset="0.9074" stop-color="#F1AFFF"/>
<stop offset="1" stop-color="#FFACFF"/>
</linearGradient>
<linearGradient id="paint1_linear" x1="1198.22" y1="212.885" x2="1796.05" y2="1250.58" gradientUnits="userSpaceOnUse">
<stop stop-color="#00DFFF"/>
<stop offset="0.229" stop-color="#46D2FF"/>
<stop offset="0.5085" stop-color="#94C4FF"/>
<stop offset="0.7393" stop-color="#CEB9FF"/>
<stop offset="0.9093" stop-color="#F2B2FF"/>
<stop offset="1" stop-color="#FFB0FF"/>
</linearGradient>
<linearGradient id="paint2_linear" x1="560.573" y1="212.885" x2="1158.4" y2="1250.58" gradientUnits="userSpaceOnUse">
<stop stop-color="#00DFFF"/>
<stop offset="0.1082" stop-color="#05DEFF"/>
<stop offset="0.232" stop-color="#13DCFF"/>
<stop offset="0.3635" stop-color="#2AD7FF"/>
<stop offset="0.5004" stop-color="#4AD1FF"/>
<stop offset="0.6415" stop-color="#73CAFF"/>
<stop offset="0.7861" stop-color="#A6C0FF"/>
<stop offset="0.9308" stop-color="#E0B6FF"/>
<stop offset="1" stop-color="#FFB0FF"/>
</linearGradient>
<linearGradient id="paint3_linear" x1="400.307" y1="151.723" x2="1103.96" y2="1373.1" gradientUnits="userSpaceOnUse">
<stop stop-color="#00DFFF"/>
<stop offset="0.197" stop-color="#3CD3FF"/>
<stop offset="0.4904" stop-color="#8EC3FF"/>
<stop offset="0.7315" stop-color="#CBB6FF"/>
<stop offset="0.9074" stop-color="#F1AFFF"/>
<stop offset="1" stop-color="#FFACFF"/>
</linearGradient>
<linearGradient id="paint4_linear" x1="718.806" y1="212.885" x2="1316.64" y2="1250.58" gradientUnits="userSpaceOnUse">
<stop stop-color="#00DFFF"/>
<stop offset="0.229" stop-color="#46D2FF"/>
<stop offset="0.5085" stop-color="#94C4FF"/>
<stop offset="0.7393" stop-color="#CEB9FF"/>
<stop offset="0.9093" stop-color="#F2B2FF"/>
<stop offset="1" stop-color="#FFB0FF"/>
</linearGradient>
<linearGradient id="paint5_linear" x1="294.854" y1="212.885" x2="892.592" y2="1250.42" gradientUnits="userSpaceOnUse">
<stop stop-color="#00DFFF"/>
<stop offset="0.1082" stop-color="#05DEFF"/>
<stop offset="0.232" stop-color="#13DCFF"/>
<stop offset="0.3635" stop-color="#2AD7FF"/>
<stop offset="0.5004" stop-color="#4AD1FF"/>
<stop offset="0.6415" stop-color="#73CAFF"/>
<stop offset="0.7861" stop-color="#A6C0FF"/>
<stop offset="0.9308" stop-color="#E0B6FF"/>
<stop offset="1" stop-color="#FFB0FF"/>
</linearGradient>
<linearGradient id="paint6_linear" x1="1568" y1="217" x2="1568" y2="893.81" gradientUnits="userSpaceOnUse">
<stop stop-color="#221A50"/>
<stop offset="1" stop-color="#221A50" stop-opacity="0"/>
</linearGradient>
</defs>
</svg>
