<svg width="1920" height="900" viewBox="0 0 1920 900" fill="none" xmlns="http://www.w3.org/2000/svg">
<path d="M1920 900H0V0H1920V900Z" fill="#F2F2F2"/>
<g opacity="0.25">
<path opacity="0.55" d="M185.366 0.466891L1364.92 683L687.88 683L-492.14 1.72359e-05L185.366 0.466891Z" fill="url(#paint0_linear)"/>
<path opacity="0.55" d="M-457.517 0.466891L722.035 683L687.879 683L-492.141 3.23984e-05L-457.517 0.466891Z" fill="url(#paint1_linear)"/>
<path opacity="0.55" d="M179.751 0.466891L1359.77 683L1325.62 683L145.595 3.23984e-05L179.751 0.466891Z" fill="url(#paint2_linear)"/>
<path opacity="0.33" d="M446.448 0.466891L1626 683L1167 683L-12.5524 2.23894e-05L446.448 0.466891Z" fill="url(#paint3_linear)"/>
<path opacity="0.33" d="M21.6045 0.466891L1201.16 683L1167 683L-12.5517 3.24095e-05L21.6045 0.466891Z" fill="url(#paint4_linear)"/>
<path opacity="0.33" d="M445.511 0.466891L1625.06 683L1591.37 683L411.823 0.46689L445.511 0.466891Z" fill="url(#paint5_linear)"/>
</g>
<rect x="1626" y="683" width="2562" height="676.81" transform="rotate(-180 1626 683)" fill="url(#paint6_linear)"/>
<defs>
<linearGradient id="paint0_linear" x1="1197.13" y1="779.742" x2="439.034" y2="-536.138" gradientUnits="userSpaceOnUse">
<stop stop-color="#00DFFF"/>
<stop offset="0.197" stop-color="#3CD3FF"/>
<stop offset="0.4904" stop-color="#8EC3FF"/>
<stop offset="0.7315" stop-color="#CBB6FF"/>
<stop offset="0.9074" stop-color="#F1AFFF"/>
<stop offset="1" stop-color="#FFACFF"/>
</linearGradient>
<linearGradient id="paint1_linear" x1="714.777" y1="687.115" x2="116.946" y2="-350.579" gradientUnits="userSpaceOnUse">
<stop stop-color="#00DFFF"/>
<stop offset="0.229" stop-color="#46D2FF"/>
<stop offset="0.5085" stop-color="#94C4FF"/>
<stop offset="0.7393" stop-color="#CEB9FF"/>
<stop offset="0.9093" stop-color="#F2B2FF"/>
<stop offset="1" stop-color="#FFB0FF"/>
</linearGradient>
<linearGradient id="paint2_linear" x1="1352.43" y1="687.115" x2="754.596" y2="-350.579" gradientUnits="userSpaceOnUse">
<stop stop-color="#00DFFF"/>
<stop offset="0.1082" stop-color="#05DEFF"/>
<stop offset="0.232" stop-color="#13DCFF"/>
<stop offset="0.3635" stop-color="#2AD7FF"/>
<stop offset="0.5004" stop-color="#4AD1FF"/>
<stop offset="0.6415" stop-color="#73CAFF"/>
<stop offset="0.7861" stop-color="#A6C0FF"/>
<stop offset="0.9308" stop-color="#E0B6FF"/>
<stop offset="1" stop-color="#FFB0FF"/>
</linearGradient>
<linearGradient id="paint3_linear" x1="1512.69" y1="748.277" x2="809.037" y2="-473.104" gradientUnits="userSpaceOnUse">
<stop stop-color="#00DFFF"/>
<stop offset="0.197" stop-color="#3CD3FF"/>
<stop offset="0.4904" stop-color="#8EC3FF"/>
<stop offset="0.7315" stop-color="#CBB6FF"/>
<stop offset="0.9074" stop-color="#F1AFFF"/>
<stop offset="1" stop-color="#FFACFF"/>
</linearGradient>
<linearGradient id="paint4_linear" x1="1194.19" y1="687.115" x2="596.363" y2="-350.579" gradientUnits="userSpaceOnUse">
<stop stop-color="#00DFFF"/>
<stop offset="0.229" stop-color="#46D2FF"/>
<stop offset="0.5085" stop-color="#94C4FF"/>
<stop offset="0.7393" stop-color="#CEB9FF"/>
<stop offset="0.9093" stop-color="#F2B2FF"/>
<stop offset="1" stop-color="#FFB0FF"/>
</linearGradient>
<linearGradient id="paint5_linear" x1="1618.15" y1="687.115" x2="1020.41" y2="-350.417" gradientUnits="userSpaceOnUse">
<stop stop-color="#00DFFF"/>
<stop offset="0.1082" stop-color="#05DEFF"/>
<stop offset="0.232" stop-color="#13DCFF"/>
<stop offset="0.3635" stop-color="#2AD7FF"/>
<stop offset="0.5004" stop-color="#4AD1FF"/>
<stop offset="0.6415" stop-color="#73CAFF"/>
<stop offset="0.7861" stop-color="#A6C0FF"/>
<stop offset="0.9308" stop-color="#E0B6FF"/>
<stop offset="1" stop-color="#FFB0FF"/>
</linearGradient>
<linearGradient id="paint6_linear" x1="2907" y1="683" x2="2907" y2="1359.81" gradientUnits="userSpaceOnUse">
<stop stop-color="#F2F2F2"/>
<stop offset="1" stop-color="#F2F2F2" stop-opacity="0"/>
</linearGradient>
</defs>
</svg>
