<svg width="38" height="40" viewBox="0 0 38 40" fill="none" xmlns="http://www.w3.org/2000/svg">
<path d="M19.0001 39C27.3911 39 34.1933 32.2864 34.1933 24.0048C34.1933 15.7231 27.3911 9.00952 19.0001 9.00952C10.6091 9.00952 3.80688 15.7231 3.80688 24.0048C3.80688 32.2864 10.6091 39 19.0001 39Z" stroke="#828282" stroke-miterlimit="10" stroke-linecap="round"/>
<path d="M37 24.0047C37 14.1885 28.9458 6.23926 19 6.23926C9.05424 6.23926 1 14.1885 1 24.0047" stroke="#828282" stroke-miterlimit="10" stroke-linecap="round"/>
<path d="M16.1626 6.14895V4.22185C16.1626 3.58952 16.6812 3.07764 17.3219 3.07764H20.6779C21.3185 3.07764 21.8372 3.58952 21.8372 4.22185V6.14895" stroke="#828282" stroke-miterlimit="10"/>
<path d="M31.7524 11.4185L34.5897 8.61816" stroke="#828282" stroke-miterlimit="10"/>
<path d="M33.095 7.14258L36.0848 10.0935" stroke="#828282" stroke-miterlimit="10" stroke-linecap="round"/>
<path d="M6.27795 11.4185L3.41016 8.61816" stroke="#828282" stroke-miterlimit="10"/>
<path d="M4.90512 7.14258L1.9458 10.0935" stroke="#828282" stroke-miterlimit="10" stroke-linecap="round"/>
<path d="M15.1255 1H22.8746" stroke="#828282" stroke-miterlimit="10" stroke-linecap="round"/>
<path d="M18.9999 25.8717C20.0446 25.8717 20.8914 25.0359 20.8914 24.0048C20.8914 22.9738 20.0446 22.1379 18.9999 22.1379C17.9553 22.1379 17.1084 22.9738 17.1084 24.0048C17.1084 25.0359 17.9553 25.8717 18.9999 25.8717Z" stroke="#828282" stroke-miterlimit="10" stroke-linecap="round"/>
<mask id="path-10-inside-1" fill="white">
<path d="M19.0305 13.4961H19C18.9695 13.4961 18.9695 13.4961 18.939 13.4961H19.0305Z"/>
</mask>
<path d="M19.0305 13.4961H19C18.9695 13.4961 18.9695 13.4961 18.939 13.4961H19.0305Z" fill="#35B0CB"/>
<path d="M19.0305 12.4961H19V14.4961H19.0305V12.4961ZM19 12.4961C18.9999 12.4961 18.9999 12.4961 18.9998 12.4961C18.9997 12.4961 18.9997 12.4961 18.9996 12.4961C18.9996 12.4961 18.9995 12.4961 18.9994 12.4961C18.9994 12.4961 18.9993 12.4961 18.9993 12.4961C18.9992 12.4961 18.9992 12.4961 18.9991 12.4961C18.999 12.4961 18.999 12.4961 18.9989 12.4961C18.9989 12.4961 18.9988 12.4961 18.9987 12.4961C18.9987 12.4961 18.9986 12.4961 18.9986 12.4961C18.9985 12.4961 18.9985 12.4961 18.9984 12.4961C18.9983 12.4961 18.9983 12.4961 18.9982 12.4961C18.9982 12.4961 18.9981 12.4961 18.9981 12.4961C18.998 12.4961 18.9979 12.4961 18.9979 12.4961C18.9978 12.4961 18.9978 12.4961 18.9977 12.4961C18.9977 12.4961 18.9976 12.4961 18.9975 12.4961C18.9975 12.4961 18.9974 12.4961 18.9974 12.4961C18.9973 12.4961 18.9973 12.4961 18.9972 12.4961C18.9972 12.4961 18.9971 12.4961 18.997 12.4961C18.997 12.4961 18.9969 12.4961 18.9969 12.4961C18.9968 12.4961 18.9968 12.4961 18.9967 12.4961C18.9967 12.4961 18.9966 12.4961 18.9965 12.4961C18.9965 12.4961 18.9964 12.4961 18.9964 12.4961C18.9963 12.4961 18.9963 12.4961 18.9962 12.4961C18.9962 12.4961 18.9961 12.4961 18.996 12.4961C18.996 12.4961 18.9959 12.4961 18.9959 12.4961C18.9958 12.4961 18.9958 12.4961 18.9957 12.4961C18.9957 12.4961 18.9956 12.4961 18.9956 12.4961C18.9955 12.4961 18.9955 12.4961 18.9954 12.4961C18.9953 12.4961 18.9953 12.4961 18.9952 12.4961C18.9952 12.4961 18.9951 12.4961 18.9951 12.4961C18.995 12.4961 18.995 12.4961 18.9949 12.4961C18.9949 12.4961 18.9948 12.4961 18.9948 12.4961C18.9947 12.4961 18.9947 12.4961 18.9946 12.4961C18.9946 12.4961 18.9945 12.4961 18.9944 12.4961C18.9944 12.4961 18.9943 12.4961 18.9943 12.4961C18.9942 12.4961 18.9942 12.4961 18.9941 12.4961C18.9941 12.4961 18.994 12.4961 18.994 12.4961C18.9939 12.4961 18.9939 12.4961 18.9938 12.4961C18.9938 12.4961 18.9937 12.4961 18.9937 12.4961C18.9936 12.4961 18.9936 12.4961 18.9935 12.4961C18.9935 12.4961 18.9934 12.4961 18.9934 12.4961C18.9933 12.4961 18.9933 12.4961 18.9932 12.4961C18.9932 12.4961 18.9931 12.4961 18.9931 12.4961C18.993 12.4961 18.993 12.4961 18.9929 12.4961C18.9929 12.4961 18.9928 12.4961 18.9928 12.4961C18.9927 12.4961 18.9927 12.4961 18.9926 12.4961C18.9926 12.4961 18.9925 12.4961 18.9925 12.4961C18.9924 12.4961 18.9924 12.4961 18.9923 12.4961C18.9923 12.4961 18.9922 12.4961 18.9922 12.4961C18.9921 12.4961 18.9921 12.4961 18.992 12.4961C18.992 12.4961 18.9919 12.4961 18.9919 12.4961C18.9918 12.4961 18.9918 12.4961 18.9917 12.4961C18.9917 12.4961 18.9916 12.4961 18.9916 12.4961C18.9915 12.4961 18.9915 12.4961 18.9914 12.4961C18.9914 12.4961 18.9913 12.4961 18.9913 12.4961C18.9912 12.4961 18.9912 12.4961 18.9911 12.4961C18.9911 12.4961 18.991 12.4961 18.991 12.4961C18.9909 12.4961 18.9909 12.4961 18.9908 12.4961C18.9908 12.4961 18.9907 12.4961 18.9907 12.4961C18.9907 12.4961 18.9906 12.4961 18.9906 12.4961C18.9905 12.4961 18.9905 12.4961 18.9904 12.4961C18.9904 12.4961 18.9903 12.4961 18.9903 12.4961C18.9902 12.4961 18.9902 12.4961 18.9901 12.4961C18.9901 12.4961 18.99 12.4961 18.99 12.4961C18.9899 12.4961 18.9899 12.4961 18.9899 12.4961C18.9898 12.4961 18.9898 12.4961 18.9897 12.4961C18.9897 12.4961 18.9896 12.4961 18.9896 12.4961C18.9895 12.4961 18.9895 12.4961 18.9894 12.4961C18.9894 12.4961 18.9893 12.4961 18.9893 12.4961C18.9893 12.4961 18.9892 12.4961 18.9892 12.4961C18.9891 12.4961 18.9891 12.4961 18.989 12.4961C18.989 12.4961 18.9889 12.4961 18.9889 12.4961C18.9888 12.4961 18.9888 12.4961 18.9888 12.4961C18.9887 12.4961 18.9887 12.4961 18.9886 12.4961C18.9886 12.4961 18.9885 12.4961 18.9885 12.4961C18.9884 12.4961 18.9884 12.4961 18.9883 12.4961C18.9883 12.4961 18.9883 12.4961 18.9882 12.4961C18.9882 12.4961 18.9881 12.4961 18.9881 12.4961C18.988 12.4961 18.988 12.4961 18.9879 12.4961C18.9879 12.4961 18.9879 12.4961 18.9878 12.4961C18.9878 12.4961 18.9877 12.4961 18.9877 12.4961C18.9876 12.4961 18.9876 12.4961 18.9876 12.4961C18.9875 12.4961 18.9875 12.4961 18.9874 12.4961C18.9874 12.4961 18.9873 12.4961 18.9873 12.4961C18.9872 12.4961 18.9872 12.4961 18.9872 12.4961C18.9871 12.4961 18.9871 12.4961 18.987 12.4961C18.987 12.4961 18.9869 12.4961 18.9869 12.4961C18.9869 12.4961 18.9868 12.4961 18.9868 12.4961C18.9867 12.4961 18.9867 12.4961 18.9866 12.4961C18.9866 12.4961 18.9866 12.4961 18.9865 12.4961C18.9865 12.4961 18.9864 12.4961 18.9864 12.4961C18.9863 12.4961 18.9863 12.4961 18.9863 12.4961C18.9862 12.4961 18.9862 12.4961 18.9861 12.4961C18.9861 12.4961 18.9861 12.4961 18.986 12.4961C18.986 12.4961 18.9859 12.4961 18.9859 12.4961C18.9858 12.4961 18.9858 12.4961 18.9858 12.4961C18.9857 12.4961 18.9857 12.4961 18.9856 12.4961C18.9856 12.4961 18.9856 12.4961 18.9855 12.4961C18.9855 12.4961 18.9854 12.4961 18.9854 12.4961C18.9853 12.4961 18.9853 12.4961 18.9853 12.4961C18.9852 12.4961 18.9852 12.4961 18.9851 12.4961C18.9851 12.4961 18.9851 12.4961 18.985 12.4961C18.985 12.4961 18.9849 12.4961 18.9849 12.4961C18.9849 12.4961 18.9848 12.4961 18.9848 12.4961C18.9847 12.4961 18.9847 12.4961 18.9847 12.4961C18.9846 12.4961 18.9846 12.4961 18.9845 12.4961C18.9845 12.4961 18.9845 12.4961 18.9844 12.4961C18.9844 12.4961 18.9843 12.4961 18.9843 12.4961C18.9843 12.4961 18.9842 12.4961 18.9842 12.4961C18.9841 12.4961 18.9841 12.4961 18.9841 12.4961C18.984 12.4961 18.984 12.4961 18.9839 12.4961C18.9839 12.4961 18.9839 12.4961 18.9838 12.4961C18.9838 12.4961 18.9837 12.4961 18.9837 12.4961C18.9837 12.4961 18.9836 12.4961 18.9836 12.4961C18.9835 12.4961 18.9835 12.4961 18.9835 12.4961C18.9834 12.4961 18.9834 12.4961 18.9834 12.4961C18.9833 12.4961 18.9833 12.4961 18.9832 12.4961C18.9832 12.4961 18.9832 12.4961 18.9831 12.4961C18.9831 12.4961 18.983 12.4961 18.983 12.4961C18.983 12.4961 18.9829 12.4961 18.9829 12.4961C18.9828 12.4961 18.9828 12.4961 18.9828 12.4961C18.9827 12.4961 18.9827 12.4961 18.9827 12.4961C18.9826 12.4961 18.9826 12.4961 18.9825 12.4961C18.9825 12.4961 18.9825 12.4961 18.9824 12.4961C18.9824 12.4961 18.9824 12.4961 18.9823 12.4961C18.9823 12.4961 18.9822 12.4961 18.9822 12.4961C18.9822 12.4961 18.9821 12.4961 18.9821 12.4961C18.9821 12.4961 18.982 12.4961 18.982 12.4961C18.9819 12.4961 18.9819 12.4961 18.9819 12.4961C18.9818 12.4961 18.9818 12.4961 18.9818 12.4961C18.9817 12.4961 18.9817 12.4961 18.9816 12.4961C18.9816 12.4961 18.9816 12.4961 18.9815 12.4961C18.9815 12.4961 18.9815 12.4961 18.9814 12.4961C18.9814 12.4961 18.9813 12.4961 18.9813 12.4961C18.9813 12.4961 18.9812 12.4961 18.9812 12.4961C18.9812 12.4961 18.9811 12.4961 18.9811 12.4961C18.9811 12.4961 18.981 12.4961 18.981 12.4961C18.9809 12.4961 18.9809 12.4961 18.9809 12.4961C18.9808 12.4961 18.9808 12.4961 18.9808 12.4961C18.9807 12.4961 18.9807 12.4961 18.9807 12.4961C18.9806 12.4961 18.9806 12.4961 18.9806 12.4961C18.9805 12.4961 18.9805 12.4961 18.9804 12.4961C18.9804 12.4961 18.9804 12.4961 18.9803 12.4961C18.9803 12.4961 18.9803 12.4961 18.9802 12.4961C18.9802 12.4961 18.9802 12.4961 18.9801 12.4961C18.9801 12.4961 18.9801 12.4961 18.98 12.4961C18.98 12.4961 18.9799 12.4961 18.9799 12.4961C18.9799 12.4961 18.9798 12.4961 18.9798 12.4961C18.9798 12.4961 18.9797 12.4961 18.9797 12.4961C18.9797 12.4961 18.9796 12.4961 18.9796 12.4961C18.9796 12.4961 18.9795 12.4961 18.9795 12.4961C18.9795 12.4961 18.9794 12.4961 18.9794 12.4961C18.9793 12.4961 18.9793 12.4961 18.9793 12.4961C18.9792 12.4961 18.9792 12.4961 18.9792 12.4961C18.9791 12.4961 18.9791 12.4961 18.9791 12.4961C18.979 12.4961 18.979 12.4961 18.979 12.4961C18.9789 12.4961 18.9789 12.4961 18.9789 12.4961C18.9788 12.4961 18.9788 12.4961 18.9788 12.4961C18.9787 12.4961 18.9787 12.4961 18.9787 12.4961C18.9786 12.4961 18.9786 12.4961 18.9786 12.4961C18.9785 12.4961 18.9785 12.4961 18.9785 12.4961C18.9784 12.4961 18.9784 12.4961 18.9784 12.4961C18.9783 12.4961 18.9783 12.4961 18.9783 12.4961C18.9782 12.4961 18.9782 12.4961 18.9782 12.4961C18.9781 12.4961 18.9781 12.4961 18.9781 12.4961C18.978 12.4961 18.978 12.4961 18.9779 12.4961C18.9779 12.4961 18.9779 12.4961 18.9778 12.4961C18.9778 12.4961 18.9778 12.4961 18.9777 12.4961C18.9777 12.4961 18.9777 12.4961 18.9776 12.4961C18.9776 12.4961 18.9776 12.4961 18.9775 12.4961C18.9775 12.4961 18.9775 12.4961 18.9774 12.4961C18.9774 12.4961 18.9774 12.4961 18.9774 12.4961C18.9773 12.4961 18.9773 12.4961 18.9773 12.4961C18.9772 12.4961 18.9772 12.4961 18.9772 12.4961C18.9771 12.4961 18.9771 12.4961 18.9771 12.4961C18.977 12.4961 18.977 12.4961 18.977 12.4961C18.9769 12.4961 18.9769 12.4961 18.9769 12.4961C18.9768 12.4961 18.9768 12.4961 18.9768 12.4961C18.9767 12.4961 18.9767 12.4961 18.9767 12.4961C18.9766 12.4961 18.9766 12.4961 18.9766 12.4961C18.9765 12.4961 18.9765 12.4961 18.9765 12.4961C18.9764 12.4961 18.9764 12.4961 18.9764 12.4961C18.9763 12.4961 18.9763 12.4961 18.9763 12.4961C18.9762 12.4961 18.9762 12.4961 18.9762 12.4961C18.9761 12.4961 18.9761 12.4961 18.9761 12.4961C18.976 12.4961 18.976 12.4961 18.976 12.4961C18.976 12.4961 18.9759 12.4961 18.9759 12.4961C18.9759 12.4961 18.9758 12.4961 18.9758 12.4961C18.9758 12.4961 18.9757 12.4961 18.9757 12.4961C18.9757 12.4961 18.9756 12.4961 18.9756 12.4961C18.9756 12.4961 18.9755 12.4961 18.9755 12.4961C18.9755 12.4961 18.9754 12.4961 18.9754 12.4961C18.9754 12.4961 18.9753 12.4961 18.9753 12.4961C18.9753 12.4961 18.9752 12.4961 18.9752 12.4961C18.9752 12.4961 18.9752 12.4961 18.9751 12.4961C18.9751 12.4961 18.9751 12.4961 18.975 12.4961C18.975 12.4961 18.975 12.4961 18.9749 12.4961C18.9749 12.4961 18.9749 12.4961 18.9748 12.4961C18.9748 12.4961 18.9748 12.4961 18.9747 12.4961C18.9747 12.4961 18.9747 12.4961 18.9747 12.4961C18.9746 12.4961 18.9746 12.4961 18.9746 12.4961C18.9745 12.4961 18.9745 12.4961 18.9745 12.4961C18.9744 12.4961 18.9744 12.4961 18.9744 12.4961C18.9743 12.4961 18.9743 12.4961 18.9743 12.4961C18.9742 12.4961 18.9742 12.4961 18.9742 12.4961C18.9742 12.4961 18.9741 12.4961 18.9741 12.4961C18.9741 12.4961 18.974 12.4961 18.974 12.4961C18.974 12.4961 18.9739 12.4961 18.9739 12.4961C18.9739 12.4961 18.9738 12.4961 18.9738 12.4961C18.9738 12.4961 18.9738 12.4961 18.9737 12.4961C18.9737 12.4961 18.9737 12.4961 18.9736 12.4961C18.9736 12.4961 18.9736 12.4961 18.9735 12.4961C18.9735 12.4961 18.9735 12.4961 18.9734 12.4961C18.9734 12.4961 18.9734 12.4961 18.9734 12.4961C18.9733 12.4961 18.9733 12.4961 18.9733 12.4961C18.9732 12.4961 18.9732 12.4961 18.9732 12.4961C18.9731 12.4961 18.9731 12.4961 18.9731 12.4961C18.973 12.4961 18.973 12.4961 18.973 12.4961C18.973 12.4961 18.9729 12.4961 18.9729 12.4961C18.9729 12.4961 18.9728 12.4961 18.9728 12.4961C18.9728 12.4961 18.9727 12.4961 18.9727 12.4961C18.9727 12.4961 18.9727 12.4961 18.9726 12.4961C18.9726 12.4961 18.9726 12.4961 18.9725 12.4961C18.9725 12.4961 18.9725 12.4961 18.9724 12.4961C18.9724 12.4961 18.9724 12.4961 18.9723 12.4961C18.9723 12.4961 18.9723 12.4961 18.9723 12.4961C18.9722 12.4961 18.9722 12.4961 18.9722 12.4961C18.9721 12.4961 18.9721 12.4961 18.9721 12.4961C18.972 12.4961 18.972 12.4961 18.972 12.4961C18.972 12.4961 18.9719 12.4961 18.9719 12.4961C18.9719 12.4961 18.9718 12.4961 18.9718 12.4961C18.9718 12.4961 18.9717 12.4961 18.9717 12.4961C18.9717 12.4961 18.9717 12.4961 18.9716 12.4961C18.9716 12.4961 18.9716 12.4961 18.9715 12.4961C18.9715 12.4961 18.9715 12.4961 18.9714 12.4961C18.9714 12.4961 18.9714 12.4961 18.9714 12.4961C18.9713 12.4961 18.9713 12.4961 18.9713 12.4961C18.9712 12.4961 18.9712 12.4961 18.9712 12.4961C18.9711 12.4961 18.9711 12.4961 18.9711 12.4961C18.9711 12.4961 18.971 12.4961 18.971 12.4961C18.971 12.4961 18.9709 12.4961 18.9709 12.4961C18.9709 12.4961 18.9708 12.4961 18.9708 12.4961C18.9708 12.4961 18.9708 12.4961 18.9707 12.4961C18.9707 12.4961 18.9707 12.4961 18.9706 12.4961C18.9706 12.4961 18.9706 12.4961 18.9705 12.4961C18.9705 12.4961 18.9705 12.4961 18.9705 12.4961C18.9704 12.4961 18.9704 12.4961 18.9704 12.4961C18.9703 12.4961 18.9703 12.4961 18.9703 12.4961C18.9702 12.4961 18.9702 12.4961 18.9702 12.4961C18.9702 12.4961 18.9701 12.4961 18.9701 12.4961C18.9701 12.4961 18.97 12.4961 18.97 12.4961C18.97 12.4961 18.97 12.4961 18.9699 12.4961C18.9699 12.4961 18.9699 12.4961 18.9698 12.4961C18.9698 12.4961 18.9698 12.4961 18.9697 12.4961C18.9697 12.4961 18.9697 12.4961 18.9697 12.4961C18.9696 12.4961 18.9696 12.4961 18.9696 12.4961C18.9695 12.4961 18.9695 12.4961 18.9695 12.4961C18.9694 12.4961 18.9694 12.4961 18.9694 12.4961C18.9694 12.4961 18.9693 12.4961 18.9693 12.4961C18.9693 12.4961 18.9692 12.4961 18.9692 12.4961C18.9692 12.4961 18.9691 12.4961 18.9691 12.4961C18.9691 12.4961 18.9691 12.4961 18.969 12.4961C18.969 12.4961 18.969 12.4961 18.9689 12.4961C18.9689 12.4961 18.9689 12.4961 18.9688 12.4961C18.9688 12.4961 18.9688 12.4961 18.9688 12.4961C18.9687 12.4961 18.9687 12.4961 18.9687 12.4961C18.9686 12.4961 18.9686 12.4961 18.9686 12.4961C18.9685 12.4961 18.9685 12.4961 18.9685 12.4961C18.9685 12.4961 18.9684 12.4961 18.9684 12.4961C18.9684 12.4961 18.9683 12.4961 18.9683 12.4961C18.9683 12.4961 18.9683 12.4961 18.9682 12.4961C18.9682 12.4961 18.9682 12.4961 18.9681 12.4961C18.9681 12.4961 18.9681 12.4961 18.968 12.4961C18.968 12.4961 18.968 12.4961 18.968 12.4961C18.9679 12.4961 18.9679 12.4961 18.9679 12.4961C18.9678 12.4961 18.9678 12.4961 18.9678 12.4961C18.9677 12.4961 18.9677 12.4961 18.9677 12.4961C18.9677 12.4961 18.9676 12.4961 18.9676 12.4961C18.9676 12.4961 18.9675 12.4961 18.9675 12.4961C18.9675 12.4961 18.9674 12.4961 18.9674 12.4961C18.9674 12.4961 18.9674 12.4961 18.9673 12.4961C18.9673 12.4961 18.9673 12.4961 18.9672 12.4961C18.9672 12.4961 18.9672 12.4961 18.9671 12.4961C18.9671 12.4961 18.9671 12.4961 18.9671 12.4961C18.967 12.4961 18.967 12.4961 18.967 12.4961C18.9669 12.4961 18.9669 12.4961 18.9669 12.4961C18.9668 12.4961 18.9668 12.4961 18.9668 12.4961C18.9667 12.4961 18.9667 12.4961 18.9667 12.4961C18.9667 12.4961 18.9666 12.4961 18.9666 12.4961C18.9666 12.4961 18.9665 12.4961 18.9665 12.4961C18.9665 12.4961 18.9664 12.4961 18.9664 12.4961C18.9664 12.4961 18.9664 12.4961 18.9663 12.4961C18.9663 12.4961 18.9663 12.4961 18.9662 12.4961C18.9662 12.4961 18.9662 12.4961 18.9661 12.4961C18.9661 12.4961 18.9661 12.4961 18.9661 12.4961C18.966 12.4961 18.966 12.4961 18.966 12.4961C18.9659 12.4961 18.9659 12.4961 18.9659 12.4961C18.9658 12.4961 18.9658 12.4961 18.9658 12.4961C18.9657 12.4961 18.9657 12.4961 18.9657 12.4961C18.9657 12.4961 18.9656 12.4961 18.9656 12.4961C18.9656 12.4961 18.9655 12.4961 18.9655 12.4961C18.9655 12.4961 18.9654 12.4961 18.9654 12.4961C18.9654 12.4961 18.9653 12.4961 18.9653 12.4961C18.9653 12.4961 18.9653 12.4961 18.9652 12.4961C18.9652 12.4961 18.9652 12.4961 18.9651 12.4961C18.9651 12.4961 18.9651 12.4961 18.965 12.4961C18.965 12.4961 18.965 12.4961 18.9649 12.4961C18.9649 12.4961 18.9649 12.4961 18.9649 12.4961C18.9648 12.4961 18.9648 12.4961 18.9648 12.4961C18.9647 12.4961 18.9647 12.4961 18.9647 12.4961C18.9646 12.4961 18.9646 12.4961 18.9646 12.4961C18.9645 12.4961 18.9645 12.4961 18.9645 12.4961C18.9645 12.4961 18.9644 12.4961 18.9644 12.4961C18.9644 12.4961 18.9643 12.4961 18.9643 12.4961C18.9643 12.4961 18.9642 12.4961 18.9642 12.4961C18.9642 12.4961 18.9641 12.4961 18.9641 12.4961C18.9641 12.4961 18.964 12.4961 18.964 12.4961C18.964 12.4961 18.9639 12.4961 18.9639 12.4961C18.9639 12.4961 18.9639 12.4961 18.9638 12.4961C18.9638 12.4961 18.9638 12.4961 18.9637 12.4961C18.9637 12.4961 18.9637 12.4961 18.9636 12.4961C18.9636 12.4961 18.9636 12.4961 18.9635 12.4961C18.9635 12.4961 18.9635 12.4961 18.9634 12.4961C18.9634 12.4961 18.9634 12.4961 18.9633 12.4961C18.9633 12.4961 18.9633 12.4961 18.9633 12.4961C18.9632 12.4961 18.9632 12.4961 18.9632 12.4961C18.9631 12.4961 18.9631 12.4961 18.9631 12.4961C18.963 12.4961 18.963 12.4961 18.963 12.4961C18.9629 12.4961 18.9629 12.4961 18.9629 12.4961C18.9628 12.4961 18.9628 12.4961 18.9628 12.4961C18.9627 12.4961 18.9627 12.4961 18.9627 12.4961C18.9626 12.4961 18.9626 12.4961 18.9626 12.4961C18.9625 12.4961 18.9625 12.4961 18.9625 12.4961C18.9624 12.4961 18.9624 12.4961 18.9624 12.4961C18.9624 12.4961 18.9623 12.4961 18.9623 12.4961C18.9623 12.4961 18.9622 12.4961 18.9622 12.4961C18.9622 12.4961 18.9621 12.4961 18.9621 12.4961C18.9621 12.4961 18.962 12.4961 18.962 12.4961C18.962 12.4961 18.9619 12.4961 18.9619 12.4961C18.9619 12.4961 18.9618 12.4961 18.9618 12.4961C18.9618 12.4961 18.9617 12.4961 18.9617 12.4961C18.9617 12.4961 18.9616 12.4961 18.9616 12.4961C18.9616 12.4961 18.9615 12.4961 18.9615 12.4961C18.9615 12.4961 18.9614 12.4961 18.9614 12.4961C18.9614 12.4961 18.9613 12.4961 18.9613 12.4961C18.9613 12.4961 18.9612 12.4961 18.9612 12.4961C18.9612 12.4961 18.9611 12.4961 18.9611 12.4961C18.9611 12.4961 18.961 12.4961 18.961 12.4961C18.961 12.4961 18.9609 12.4961 18.9609 12.4961C18.9609 12.4961 18.9608 12.4961 18.9608 12.4961C18.9608 12.4961 18.9607 12.4961 18.9607 12.4961C18.9607 12.4961 18.9606 12.4961 18.9606 12.4961C18.9606 12.4961 18.9605 12.4961 18.9605 12.4961C18.9605 12.4961 18.9604 12.4961 18.9604 12.4961C18.9604 12.4961 18.9603 12.4961 18.9603 12.4961C18.9603 12.4961 18.9602 12.4961 18.9602 12.4961C18.9601 12.4961 18.9601 12.4961 18.9601 12.4961C18.96 12.4961 18.96 12.4961 18.96 12.4961C18.9599 12.4961 18.9599 12.4961 18.9599 12.4961C18.9598 12.4961 18.9598 12.4961 18.9598 12.4961C18.9597 12.4961 18.9597 12.4961 18.9597 12.4961C18.9596 12.4961 18.9596 12.4961 18.9596 12.4961C18.9595 12.4961 18.9595 12.4961 18.9595 12.4961C18.9594 12.4961 18.9594 12.4961 18.9594 12.4961C18.9593 12.4961 18.9593 12.4961 18.9592 12.4961C18.9592 12.4961 18.9592 12.4961 18.9591 12.4961C18.9591 12.4961 18.9591 12.4961 18.959 12.4961C18.959 12.4961 18.959 12.4961 18.9589 12.4961C18.9589 12.4961 18.9589 12.4961 18.9588 12.4961C18.9588 12.4961 18.9588 12.4961 18.9587 12.4961C18.9587 12.4961 18.9586 12.4961 18.9586 12.4961C18.9586 12.4961 18.9585 12.4961 18.9585 12.4961C18.9585 12.4961 18.9584 12.4961 18.9584 12.4961C18.9584 12.4961 18.9583 12.4961 18.9583 12.4961C18.9583 12.4961 18.9582 12.4961 18.9582 12.4961C18.9581 12.4961 18.9581 12.4961 18.9581 12.4961C18.958 12.4961 18.958 12.4961 18.958 12.4961C18.9579 12.4961 18.9579 12.4961 18.9579 12.4961C18.9578 12.4961 18.9578 12.4961 18.9577 12.4961C18.9577 12.4961 18.9577 12.4961 18.9576 12.4961C18.9576 12.4961 18.9576 12.4961 18.9575 12.4961C18.9575 12.4961 18.9574 12.4961 18.9574 12.4961C18.9574 12.4961 18.9573 12.4961 18.9573 12.4961C18.9573 12.4961 18.9572 12.4961 18.9572 12.4961C18.9572 12.4961 18.9571 12.4961 18.9571 12.4961C18.957 12.4961 18.957 12.4961 18.957 12.4961C18.9569 12.4961 18.9569 12.4961 18.9569 12.4961C18.9568 12.4961 18.9568 12.4961 18.9567 12.4961C18.9567 12.4961 18.9567 12.4961 18.9566 12.4961C18.9566 12.4961 18.9566 12.4961 18.9565 12.4961C18.9565 12.4961 18.9564 12.4961 18.9564 12.4961C18.9564 12.4961 18.9563 12.4961 18.9563 12.4961C18.9563 12.4961 18.9562 12.4961 18.9562 12.4961C18.9561 12.4961 18.9561 12.4961 18.9561 12.4961C18.956 12.4961 18.956 12.4961 18.9559 12.4961C18.9559 12.4961 18.9559 12.4961 18.9558 12.4961C18.9558 12.4961 18.9558 12.4961 18.9557 12.4961C18.9557 12.4961 18.9556 12.4961 18.9556 12.4961C18.9556 12.4961 18.9555 12.4961 18.9555 12.4961C18.9554 12.4961 18.9554 12.4961 18.9554 12.4961C18.9553 12.4961 18.9553 12.4961 18.9552 12.4961C18.9552 12.4961 18.9552 12.4961 18.9551 12.4961C18.9551 12.4961 18.955 12.4961 18.955 12.4961C18.955 12.4961 18.9549 12.4961 18.9549 12.4961C18.9549 12.4961 18.9548 12.4961 18.9548 12.4961C18.9547 12.4961 18.9547 12.4961 18.9547 12.4961C18.9546 12.4961 18.9546 12.4961 18.9545 12.4961C18.9545 12.4961 18.9545 12.4961 18.9544 12.4961C18.9544 12.4961 18.9543 12.4961 18.9543 12.4961C18.9543 12.4961 18.9542 12.4961 18.9542 12.4961C18.9541 12.4961 18.9541 12.4961 18.954 12.4961C18.954 12.4961 18.954 12.4961 18.9539 12.4961C18.9539 12.4961 18.9538 12.4961 18.9538 12.4961C18.9538 12.4961 18.9537 12.4961 18.9537 12.4961C18.9536 12.4961 18.9536 12.4961 18.9536 12.4961C18.9535 12.4961 18.9535 12.4961 18.9534 12.4961C18.9534 12.4961 18.9534 12.4961 18.9533 12.4961C18.9533 12.4961 18.9532 12.4961 18.9532 12.4961C18.9531 12.4961 18.9531 12.4961 18.9531 12.4961C18.953 12.4961 18.953 12.4961 18.9529 12.4961C18.9529 12.4961 18.9529 12.4961 18.9528 12.4961C18.9528 12.4961 18.9527 12.4961 18.9527 12.4961C18.9526 12.4961 18.9526 12.4961 18.9526 12.4961C18.9525 12.4961 18.9525 12.4961 18.9524 12.4961C18.9524 12.4961 18.9523 12.4961 18.9523 12.4961C18.9523 12.4961 18.9522 12.4961 18.9522 12.4961C18.9521 12.4961 18.9521 12.4961 18.952 12.4961C18.952 12.4961 18.952 12.4961 18.9519 12.4961C18.9519 12.4961 18.9518 12.4961 18.9518 12.4961C18.9517 12.4961 18.9517 12.4961 18.9517 12.4961C18.9516 12.4961 18.9516 12.4961 18.9515 12.4961C18.9515 12.4961 18.9514 12.4961 18.9514 12.4961C18.9514 12.4961 18.9513 12.4961 18.9513 12.4961C18.9512 12.4961 18.9512 12.4961 18.9511 12.4961C18.9511 12.4961 18.951 12.4961 18.951 12.4961C18.951 12.4961 18.9509 12.4961 18.9509 12.4961C18.9508 12.4961 18.9508 12.4961 18.9507 12.4961C18.9507 12.4961 18.9506 12.4961 18.9506 12.4961C18.9506 12.4961 18.9505 12.4961 18.9505 12.4961C18.9504 12.4961 18.9504 12.4961 18.9503 12.4961C18.9503 12.4961 18.9502 12.4961 18.9502 12.4961C18.9502 12.4961 18.9501 12.4961 18.9501 12.4961C18.95 12.4961 18.95 12.4961 18.9499 12.4961C18.9499 12.4961 18.9498 12.4961 18.9498 12.4961C18.9497 12.4961 18.9497 12.4961 18.9496 12.4961C18.9496 12.4961 18.9496 12.4961 18.9495 12.4961C18.9495 12.4961 18.9494 12.4961 18.9494 12.4961C18.9493 12.4961 18.9493 12.4961 18.9492 12.4961C18.9492 12.4961 18.9491 12.4961 18.9491 12.4961C18.949 12.4961 18.949 12.4961 18.949 12.4961C18.9489 12.4961 18.9489 12.4961 18.9488 12.4961C18.9488 12.4961 18.9487 12.4961 18.9487 12.4961C18.9486 12.4961 18.9486 12.4961 18.9485 12.4961C18.9485 12.4961 18.9484 12.4961 18.9484 12.4961C18.9483 12.4961 18.9483 12.4961 18.9482 12.4961C18.9482 12.4961 18.9482 12.4961 18.9481 12.4961C18.9481 12.4961 18.948 12.4961 18.948 12.4961C18.9479 12.4961 18.9479 12.4961 18.9478 12.4961C18.9478 12.4961 18.9477 12.4961 18.9477 12.4961C18.9476 12.4961 18.9476 12.4961 18.9475 12.4961C18.9475 12.4961 18.9474 12.4961 18.9474 12.4961C18.9473 12.4961 18.9473 12.4961 18.9472 12.4961C18.9472 12.4961 18.9471 12.4961 18.9471 12.4961C18.947 12.4961 18.947 12.4961 18.9469 12.4961C18.9469 12.4961 18.9468 12.4961 18.9468 12.4961C18.9467 12.4961 18.9467 12.4961 18.9466 12.4961C18.9466 12.4961 18.9465 12.4961 18.9465 12.4961C18.9464 12.4961 18.9464 12.4961 18.9463 12.4961C18.9463 12.4961 18.9462 12.4961 18.9462 12.4961C18.9461 12.4961 18.9461 12.4961 18.946 12.4961C18.946 12.4961 18.9459 12.4961 18.9459 12.4961C18.9458 12.4961 18.9458 12.4961 18.9457 12.4961C18.9457 12.4961 18.9456 12.4961 18.9456 12.4961C18.9455 12.4961 18.9455 12.4961 18.9454 12.4961C18.9454 12.4961 18.9453 12.4961 18.9453 12.4961C18.9452 12.4961 18.9452 12.4961 18.9451 12.4961C18.9451 12.4961 18.945 12.4961 18.945 12.4961C18.9449 12.4961 18.9449 12.4961 18.9448 12.4961C18.9448 12.4961 18.9447 12.4961 18.9447 12.4961C18.9446 12.4961 18.9446 12.4961 18.9445 12.4961C18.9444 12.4961 18.9444 12.4961 18.9443 12.4961C18.9443 12.4961 18.9442 12.4961 18.9442 12.4961C18.9441 12.4961 18.9441 12.4961 18.944 12.4961C18.944 12.4961 18.9439 12.4961 18.9439 12.4961C18.9438 12.4961 18.9438 12.4961 18.9437 12.4961C18.9437 12.4961 18.9436 12.4961 18.9435 12.4961C18.9435 12.4961 18.9434 12.4961 18.9434 12.4961C18.9433 12.4961 18.9433 12.4961 18.9432 12.4961C18.9432 12.4961 18.9431 12.4961 18.9431 12.4961C18.943 12.4961 18.943 12.4961 18.9429 12.4961C18.9428 12.4961 18.9428 12.4961 18.9427 12.4961C18.9427 12.4961 18.9426 12.4961 18.9426 12.4961C18.9425 12.4961 18.9425 12.4961 18.9424 12.4961C18.9423 12.4961 18.9423 12.4961 18.9422 12.4961C18.9422 12.4961 18.9421 12.4961 18.9421 12.4961C18.942 12.4961 18.942 12.4961 18.9419 12.4961C18.9418 12.4961 18.9418 12.4961 18.9417 12.4961C18.9417 12.4961 18.9416 12.4961 18.9416 12.4961C18.9415 12.4961 18.9415 12.4961 18.9414 12.4961C18.9413 12.4961 18.9413 12.4961 18.9412 12.4961C18.9412 12.4961 18.9411 12.4961 18.9411 12.4961C18.941 12.4961 18.9409 12.4961 18.9409 12.4961C18.9408 12.4961 18.9408 12.4961 18.9407 12.4961C18.9407 12.4961 18.9406 12.4961 18.9405 12.4961C18.9405 12.4961 18.9404 12.4961 18.9404 12.4961C18.9403 12.4961 18.9403 12.4961 18.9402 12.4961C18.9401 12.4961 18.9401 12.4961 18.94 12.4961C18.94 12.4961 18.9399 12.4961 18.9398 12.4961C18.9398 12.4961 18.9397 12.4961 18.9397 12.4961C18.9396 12.4961 18.9396 12.4961 18.9395 12.4961C18.9394 12.4961 18.9394 12.4961 18.9393 12.4961C18.9393 12.4961 18.9392 12.4961 18.9391 12.4961C18.9391 12.4961 18.939 12.4961 18.939 12.4961V14.4961C18.939 14.4961 18.9391 14.4961 18.9391 14.4961C18.9392 14.4961 18.9393 14.4961 18.9393 14.4961C18.9394 14.4961 18.9394 14.4961 18.9395 14.4961C18.9396 14.4961 18.9396 14.4961 18.9397 14.4961C18.9397 14.4961 18.9398 14.4961 18.9398 14.4961C18.9399 14.4961 18.94 14.4961 18.94 14.4961C18.9401 14.4961 18.9401 14.4961 18.9402 14.4961C18.9403 14.4961 18.9403 14.4961 18.9404 14.4961C18.9404 14.4961 18.9405 14.4961 18.9405 14.4961C18.9406 14.4961 18.9407 14.4961 18.9407 14.4961C18.9408 14.4961 18.9408 14.4961 18.9409 14.4961C18.9409 14.4961 18.941 14.4961 18.9411 14.4961C18.9411 14.4961 18.9412 14.4961 18.9412 14.4961C18.9413 14.4961 18.9413 14.4961 18.9414 14.4961C18.9415 14.4961 18.9415 14.4961 18.9416 14.4961C18.9416 14.4961 18.9417 14.4961 18.9417 14.4961C18.9418 14.4961 18.9418 14.4961 18.9419 14.4961C18.942 14.4961 18.942 14.4961 18.9421 14.4961C18.9421 14.4961 18.9422 14.4961 18.9422 14.4961C18.9423 14.4961 18.9423 14.4961 18.9424 14.4961C18.9425 14.4961 18.9425 14.4961 18.9426 14.4961C18.9426 14.4961 18.9427 14.4961 18.9427 14.4961C18.9428 14.4961 18.9428 14.4961 18.9429 14.4961C18.943 14.4961 18.943 14.4961 18.9431 14.4961C18.9431 14.4961 18.9432 14.4961 18.9432 14.4961C18.9433 14.4961 18.9433 14.4961 18.9434 14.4961C18.9434 14.4961 18.9435 14.4961 18.9435 14.4961C18.9436 14.4961 18.9437 14.4961 18.9437 14.4961C18.9438 14.4961 18.9438 14.4961 18.9439 14.4961C18.9439 14.4961 18.944 14.4961 18.944 14.4961C18.9441 14.4961 18.9441 14.4961 18.9442 14.4961C18.9442 14.4961 18.9443 14.4961 18.9443 14.4961C18.9444 14.4961 18.9444 14.4961 18.9445 14.4961C18.9446 14.4961 18.9446 14.4961 18.9447 14.4961C18.9447 14.4961 18.9448 14.4961 18.9448 14.4961C18.9449 14.4961 18.9449 14.4961 18.945 14.4961C18.945 14.4961 18.9451 14.4961 18.9451 14.4961C18.9452 14.4961 18.9452 14.4961 18.9453 14.4961C18.9453 14.4961 18.9454 14.4961 18.9454 14.4961C18.9455 14.4961 18.9455 14.4961 18.9456 14.4961C18.9456 14.4961 18.9457 14.4961 18.9457 14.4961C18.9458 14.4961 18.9458 14.4961 18.9459 14.4961C18.9459 14.4961 18.946 14.4961 18.946 14.4961C18.9461 14.4961 18.9461 14.4961 18.9462 14.4961C18.9462 14.4961 18.9463 14.4961 18.9463 14.4961C18.9464 14.4961 18.9464 14.4961 18.9465 14.4961C18.9465 14.4961 18.9466 14.4961 18.9466 14.4961C18.9467 14.4961 18.9467 14.4961 18.9468 14.4961C18.9468 14.4961 18.9469 14.4961 18.9469 14.4961C18.947 14.4961 18.947 14.4961 18.9471 14.4961C18.9471 14.4961 18.9472 14.4961 18.9472 14.4961C18.9473 14.4961 18.9473 14.4961 18.9474 14.4961C18.9474 14.4961 18.9475 14.4961 18.9475 14.4961C18.9476 14.4961 18.9476 14.4961 18.9477 14.4961C18.9477 14.4961 18.9478 14.4961 18.9478 14.4961C18.9479 14.4961 18.9479 14.4961 18.948 14.4961C18.948 14.4961 18.9481 14.4961 18.9481 14.4961C18.9482 14.4961 18.9482 14.4961 18.9482 14.4961C18.9483 14.4961 18.9483 14.4961 18.9484 14.4961C18.9484 14.4961 18.9485 14.4961 18.9485 14.4961C18.9486 14.4961 18.9486 14.4961 18.9487 14.4961C18.9487 14.4961 18.9488 14.4961 18.9488 14.4961C18.9489 14.4961 18.9489 14.4961 18.949 14.4961C18.949 14.4961 18.949 14.4961 18.9491 14.4961C18.9491 14.4961 18.9492 14.4961 18.9492 14.4961C18.9493 14.4961 18.9493 14.4961 18.9494 14.4961C18.9494 14.4961 18.9495 14.4961 18.9495 14.4961C18.9496 14.4961 18.9496 14.4961 18.9496 14.4961C18.9497 14.4961 18.9497 14.4961 18.9498 14.4961C18.9498 14.4961 18.9499 14.4961 18.9499 14.4961C18.95 14.4961 18.95 14.4961 18.9501 14.4961C18.9501 14.4961 18.9502 14.4961 18.9502 14.4961C18.9502 14.4961 18.9503 14.4961 18.9503 14.4961C18.9504 14.4961 18.9504 14.4961 18.9505 14.4961C18.9505 14.4961 18.9506 14.4961 18.9506 14.4961C18.9506 14.4961 18.9507 14.4961 18.9507 14.4961C18.9508 14.4961 18.9508 14.4961 18.9509 14.4961C18.9509 14.4961 18.951 14.4961 18.951 14.4961C18.951 14.4961 18.9511 14.4961 18.9511 14.4961C18.9512 14.4961 18.9512 14.4961 18.9513 14.4961C18.9513 14.4961 18.9514 14.4961 18.9514 14.4961C18.9514 14.4961 18.9515 14.4961 18.9515 14.4961C18.9516 14.4961 18.9516 14.4961 18.9517 14.4961C18.9517 14.4961 18.9517 14.4961 18.9518 14.4961C18.9518 14.4961 18.9519 14.4961 18.9519 14.4961C18.952 14.4961 18.952 14.4961 18.952 14.4961C18.9521 14.4961 18.9521 14.4961 18.9522 14.4961C18.9522 14.4961 18.9523 14.4961 18.9523 14.4961C18.9523 14.4961 18.9524 14.4961 18.9524 14.4961C18.9525 14.4961 18.9525 14.4961 18.9526 14.4961C18.9526 14.4961 18.9526 14.4961 18.9527 14.4961C18.9527 14.4961 18.9528 14.4961 18.9528 14.4961C18.9529 14.4961 18.9529 14.4961 18.9529 14.4961C18.953 14.4961 18.953 14.4961 18.9531 14.4961C18.9531 14.4961 18.9531 14.4961 18.9532 14.4961C18.9532 14.4961 18.9533 14.4961 18.9533 14.4961C18.9534 14.4961 18.9534 14.4961 18.9534 14.4961C18.9535 14.4961 18.9535 14.4961 18.9536 14.4961C18.9536 14.4961 18.9536 14.4961 18.9537 14.4961C18.9537 14.4961 18.9538 14.4961 18.9538 14.4961C18.9538 14.4961 18.9539 14.4961 18.9539 14.4961C18.954 14.4961 18.954 14.4961 18.954 14.4961C18.9541 14.4961 18.9541 14.4961 18.9542 14.4961C18.9542 14.4961 18.9543 14.4961 18.9543 14.4961C18.9543 14.4961 18.9544 14.4961 18.9544 14.4961C18.9545 14.4961 18.9545 14.4961 18.9545 14.4961C18.9546 14.4961 18.9546 14.4961 18.9547 14.4961C18.9547 14.4961 18.9547 14.4961 18.9548 14.4961C18.9548 14.4961 18.9549 14.4961 18.9549 14.4961C18.9549 14.4961 18.955 14.4961 18.955 14.4961C18.955 14.4961 18.9551 14.4961 18.9551 14.4961C18.9552 14.4961 18.9552 14.4961 18.9552 14.4961C18.9553 14.4961 18.9553 14.4961 18.9554 14.4961C18.9554 14.4961 18.9554 14.4961 18.9555 14.4961C18.9555 14.4961 18.9556 14.4961 18.9556 14.4961C18.9556 14.4961 18.9557 14.4961 18.9557 14.4961C18.9558 14.4961 18.9558 14.4961 18.9558 14.4961C18.9559 14.4961 18.9559 14.4961 18.9559 14.4961C18.956 14.4961 18.956 14.4961 18.9561 14.4961C18.9561 14.4961 18.9561 14.4961 18.9562 14.4961C18.9562 14.4961 18.9563 14.4961 18.9563 14.4961C18.9563 14.4961 18.9564 14.4961 18.9564 14.4961C18.9564 14.4961 18.9565 14.4961 18.9565 14.4961C18.9566 14.4961 18.9566 14.4961 18.9566 14.4961C18.9567 14.4961 18.9567 14.4961 18.9567 14.4961C18.9568 14.4961 18.9568 14.4961 18.9569 14.4961C18.9569 14.4961 18.9569 14.4961 18.957 14.4961C18.957 14.4961 18.957 14.4961 18.9571 14.4961C18.9571 14.4961 18.9572 14.4961 18.9572 14.4961C18.9572 14.4961 18.9573 14.4961 18.9573 14.4961C18.9573 14.4961 18.9574 14.4961 18.9574 14.4961C18.9574 14.4961 18.9575 14.4961 18.9575 14.4961C18.9576 14.4961 18.9576 14.4961 18.9576 14.4961C18.9577 14.4961 18.9577 14.4961 18.9577 14.4961C18.9578 14.4961 18.9578 14.4961 18.9579 14.4961C18.9579 14.4961 18.9579 14.4961 18.958 14.4961C18.958 14.4961 18.958 14.4961 18.9581 14.4961C18.9581 14.4961 18.9581 14.4961 18.9582 14.4961C18.9582 14.4961 18.9583 14.4961 18.9583 14.4961C18.9583 14.4961 18.9584 14.4961 18.9584 14.4961C18.9584 14.4961 18.9585 14.4961 18.9585 14.4961C18.9585 14.4961 18.9586 14.4961 18.9586 14.4961C18.9586 14.4961 18.9587 14.4961 18.9587 14.4961C18.9588 14.4961 18.9588 14.4961 18.9588 14.4961C18.9589 14.4961 18.9589 14.4961 18.9589 14.4961C18.959 14.4961 18.959 14.4961 18.959 14.4961C18.9591 14.4961 18.9591 14.4961 18.9591 14.4961C18.9592 14.4961 18.9592 14.4961 18.9592 14.4961C18.9593 14.4961 18.9593 14.4961 18.9594 14.4961C18.9594 14.4961 18.9594 14.4961 18.9595 14.4961C18.9595 14.4961 18.9595 14.4961 18.9596 14.4961C18.9596 14.4961 18.9596 14.4961 18.9597 14.4961C18.9597 14.4961 18.9597 14.4961 18.9598 14.4961C18.9598 14.4961 18.9598 14.4961 18.9599 14.4961C18.9599 14.4961 18.9599 14.4961 18.96 14.4961C18.96 14.4961 18.96 14.4961 18.9601 14.4961C18.9601 14.4961 18.9601 14.4961 18.9602 14.4961C18.9602 14.4961 18.9603 14.4961 18.9603 14.4961C18.9603 14.4961 18.9604 14.4961 18.9604 14.4961C18.9604 14.4961 18.9605 14.4961 18.9605 14.4961C18.9605 14.4961 18.9606 14.4961 18.9606 14.4961C18.9606 14.4961 18.9607 14.4961 18.9607 14.4961C18.9607 14.4961 18.9608 14.4961 18.9608 14.4961C18.9608 14.4961 18.9609 14.4961 18.9609 14.4961C18.9609 14.4961 18.961 14.4961 18.961 14.4961C18.961 14.4961 18.9611 14.4961 18.9611 14.4961C18.9611 14.4961 18.9612 14.4961 18.9612 14.4961C18.9612 14.4961 18.9613 14.4961 18.9613 14.4961C18.9613 14.4961 18.9614 14.4961 18.9614 14.4961C18.9614 14.4961 18.9615 14.4961 18.9615 14.4961C18.9615 14.4961 18.9616 14.4961 18.9616 14.4961C18.9616 14.4961 18.9617 14.4961 18.9617 14.4961C18.9617 14.4961 18.9618 14.4961 18.9618 14.4961C18.9618 14.4961 18.9619 14.4961 18.9619 14.4961C18.9619 14.4961 18.962 14.4961 18.962 14.4961C18.962 14.4961 18.9621 14.4961 18.9621 14.4961C18.9621 14.4961 18.9622 14.4961 18.9622 14.4961C18.9622 14.4961 18.9623 14.4961 18.9623 14.4961C18.9623 14.4961 18.9624 14.4961 18.9624 14.4961C18.9624 14.4961 18.9624 14.4961 18.9625 14.4961C18.9625 14.4961 18.9625 14.4961 18.9626 14.4961C18.9626 14.4961 18.9626 14.4961 18.9627 14.4961C18.9627 14.4961 18.9627 14.4961 18.9628 14.4961C18.9628 14.4961 18.9628 14.4961 18.9629 14.4961C18.9629 14.4961 18.9629 14.4961 18.963 14.4961C18.963 14.4961 18.963 14.4961 18.9631 14.4961C18.9631 14.4961 18.9631 14.4961 18.9632 14.4961C18.9632 14.4961 18.9632 14.4961 18.9633 14.4961C18.9633 14.4961 18.9633 14.4961 18.9633 14.4961C18.9634 14.4961 18.9634 14.4961 18.9634 14.4961C18.9635 14.4961 18.9635 14.4961 18.9635 14.4961C18.9636 14.4961 18.9636 14.4961 18.9636 14.4961C18.9637 14.4961 18.9637 14.4961 18.9637 14.4961C18.9638 14.4961 18.9638 14.4961 18.9638 14.4961C18.9639 14.4961 18.9639 14.4961 18.9639 14.4961C18.9639 14.4961 18.964 14.4961 18.964 14.4961C18.964 14.4961 18.9641 14.4961 18.9641 14.4961C18.9641 14.4961 18.9642 14.4961 18.9642 14.4961C18.9642 14.4961 18.9643 14.4961 18.9643 14.4961C18.9643 14.4961 18.9644 14.4961 18.9644 14.4961C18.9644 14.4961 18.9645 14.4961 18.9645 14.4961C18.9645 14.4961 18.9645 14.4961 18.9646 14.4961C18.9646 14.4961 18.9646 14.4961 18.9647 14.4961C18.9647 14.4961 18.9647 14.4961 18.9648 14.4961C18.9648 14.4961 18.9648 14.4961 18.9649 14.4961C18.9649 14.4961 18.9649 14.4961 18.9649 14.4961C18.965 14.4961 18.965 14.4961 18.965 14.4961C18.9651 14.4961 18.9651 14.4961 18.9651 14.4961C18.9652 14.4961 18.9652 14.4961 18.9652 14.4961C18.9653 14.4961 18.9653 14.4961 18.9653 14.4961C18.9653 14.4961 18.9654 14.4961 18.9654 14.4961C18.9654 14.4961 18.9655 14.4961 18.9655 14.4961C18.9655 14.4961 18.9656 14.4961 18.9656 14.4961C18.9656 14.4961 18.9657 14.4961 18.9657 14.4961C18.9657 14.4961 18.9657 14.4961 18.9658 14.4961C18.9658 14.4961 18.9658 14.4961 18.9659 14.4961C18.9659 14.4961 18.9659 14.4961 18.966 14.4961C18.966 14.4961 18.966 14.4961 18.9661 14.4961C18.9661 14.4961 18.9661 14.4961 18.9661 14.4961C18.9662 14.4961 18.9662 14.4961 18.9662 14.4961C18.9663 14.4961 18.9663 14.4961 18.9663 14.4961C18.9664 14.4961 18.9664 14.4961 18.9664 14.4961C18.9664 14.4961 18.9665 14.4961 18.9665 14.4961C18.9665 14.4961 18.9666 14.4961 18.9666 14.4961C18.9666 14.4961 18.9667 14.4961 18.9667 14.4961C18.9667 14.4961 18.9667 14.4961 18.9668 14.4961C18.9668 14.4961 18.9668 14.4961 18.9669 14.4961C18.9669 14.4961 18.9669 14.4961 18.967 14.4961C18.967 14.4961 18.967 14.4961 18.9671 14.4961C18.9671 14.4961 18.9671 14.4961 18.9671 14.4961C18.9672 14.4961 18.9672 14.4961 18.9672 14.4961C18.9673 14.4961 18.9673 14.4961 18.9673 14.4961C18.9674 14.4961 18.9674 14.4961 18.9674 14.4961C18.9674 14.4961 18.9675 14.4961 18.9675 14.4961C18.9675 14.4961 18.9676 14.4961 18.9676 14.4961C18.9676 14.4961 18.9677 14.4961 18.9677 14.4961C18.9677 14.4961 18.9677 14.4961 18.9678 14.4961C18.9678 14.4961 18.9678 14.4961 18.9679 14.4961C18.9679 14.4961 18.9679 14.4961 18.968 14.4961C18.968 14.4961 18.968 14.4961 18.968 14.4961C18.9681 14.4961 18.9681 14.4961 18.9681 14.4961C18.9682 14.4961 18.9682 14.4961 18.9682 14.4961C18.9683 14.4961 18.9683 14.4961 18.9683 14.4961C18.9683 14.4961 18.9684 14.4961 18.9684 14.4961C18.9684 14.4961 18.9685 14.4961 18.9685 14.4961C18.9685 14.4961 18.9685 14.4961 18.9686 14.4961C18.9686 14.4961 18.9686 14.4961 18.9687 14.4961C18.9687 14.4961 18.9687 14.4961 18.9688 14.4961C18.9688 14.4961 18.9688 14.4961 18.9688 14.4961C18.9689 14.4961 18.9689 14.4961 18.9689 14.4961C18.969 14.4961 18.969 14.4961 18.969 14.4961C18.9691 14.4961 18.9691 14.4961 18.9691 14.4961C18.9691 14.4961 18.9692 14.4961 18.9692 14.4961C18.9692 14.4961 18.9693 14.4961 18.9693 14.4961C18.9693 14.4961 18.9694 14.4961 18.9694 14.4961C18.9694 14.4961 18.9694 14.4961 18.9695 14.4961C18.9695 14.4961 18.9695 14.4961 18.9696 14.4961C18.9696 14.4961 18.9696 14.4961 18.9697 14.4961C18.9697 14.4961 18.9697 14.4961 18.9697 14.4961C18.9698 14.4961 18.9698 14.4961 18.9698 14.4961C18.9699 14.4961 18.9699 14.4961 18.9699 14.4961C18.97 14.4961 18.97 14.4961 18.97 14.4961C18.97 14.4961 18.9701 14.4961 18.9701 14.4961C18.9701 14.4961 18.9702 14.4961 18.9702 14.4961C18.9702 14.4961 18.9702 14.4961 18.9703 14.4961C18.9703 14.4961 18.9703 14.4961 18.9704 14.4961C18.9704 14.4961 18.9704 14.4961 18.9705 14.4961C18.9705 14.4961 18.9705 14.4961 18.9705 14.4961C18.9706 14.4961 18.9706 14.4961 18.9706 14.4961C18.9707 14.4961 18.9707 14.4961 18.9707 14.4961C18.9708 14.4961 18.9708 14.4961 18.9708 14.4961C18.9708 14.4961 18.9709 14.4961 18.9709 14.4961C18.9709 14.4961 18.971 14.4961 18.971 14.4961C18.971 14.4961 18.9711 14.4961 18.9711 14.4961C18.9711 14.4961 18.9711 14.4961 18.9712 14.4961C18.9712 14.4961 18.9712 14.4961 18.9713 14.4961C18.9713 14.4961 18.9713 14.4961 18.9714 14.4961C18.9714 14.4961 18.9714 14.4961 18.9714 14.4961C18.9715 14.4961 18.9715 14.4961 18.9715 14.4961C18.9716 14.4961 18.9716 14.4961 18.9716 14.4961C18.9717 14.4961 18.9717 14.4961 18.9717 14.4961C18.9717 14.4961 18.9718 14.4961 18.9718 14.4961C18.9718 14.4961 18.9719 14.4961 18.9719 14.4961C18.9719 14.4961 18.972 14.4961 18.972 14.4961C18.972 14.4961 18.972 14.4961 18.9721 14.4961C18.9721 14.4961 18.9721 14.4961 18.9722 14.4961C18.9722 14.4961 18.9722 14.4961 18.9723 14.4961C18.9723 14.4961 18.9723 14.4961 18.9723 14.4961C18.9724 14.4961 18.9724 14.4961 18.9724 14.4961C18.9725 14.4961 18.9725 14.4961 18.9725 14.4961C18.9726 14.4961 18.9726 14.4961 18.9726 14.4961C18.9727 14.4961 18.9727 14.4961 18.9727 14.4961C18.9727 14.4961 18.9728 14.4961 18.9728 14.4961C18.9728 14.4961 18.9729 14.4961 18.9729 14.4961C18.9729 14.4961 18.973 14.4961 18.973 14.4961C18.973 14.4961 18.973 14.4961 18.9731 14.4961C18.9731 14.4961 18.9731 14.4961 18.9732 14.4961C18.9732 14.4961 18.9732 14.4961 18.9733 14.4961C18.9733 14.4961 18.9733 14.4961 18.9734 14.4961C18.9734 14.4961 18.9734 14.4961 18.9734 14.4961C18.9735 14.4961 18.9735 14.4961 18.9735 14.4961C18.9736 14.4961 18.9736 14.4961 18.9736 14.4961C18.9737 14.4961 18.9737 14.4961 18.9737 14.4961C18.9738 14.4961 18.9738 14.4961 18.9738 14.4961C18.9738 14.4961 18.9739 14.4961 18.9739 14.4961C18.9739 14.4961 18.974 14.4961 18.974 14.4961C18.974 14.4961 18.9741 14.4961 18.9741 14.4961C18.9741 14.4961 18.9742 14.4961 18.9742 14.4961C18.9742 14.4961 18.9742 14.4961 18.9743 14.4961C18.9743 14.4961 18.9743 14.4961 18.9744 14.4961C18.9744 14.4961 18.9744 14.4961 18.9745 14.4961C18.9745 14.4961 18.9745 14.4961 18.9746 14.4961C18.9746 14.4961 18.9746 14.4961 18.9747 14.4961C18.9747 14.4961 18.9747 14.4961 18.9747 14.4961C18.9748 14.4961 18.9748 14.4961 18.9748 14.4961C18.9749 14.4961 18.9749 14.4961 18.9749 14.4961C18.975 14.4961 18.975 14.4961 18.975 14.4961C18.9751 14.4961 18.9751 14.4961 18.9751 14.4961C18.9752 14.4961 18.9752 14.4961 18.9752 14.4961C18.9752 14.4961 18.9753 14.4961 18.9753 14.4961C18.9753 14.4961 18.9754 14.4961 18.9754 14.4961C18.9754 14.4961 18.9755 14.4961 18.9755 14.4961C18.9755 14.4961 18.9756 14.4961 18.9756 14.4961C18.9756 14.4961 18.9757 14.4961 18.9757 14.4961C18.9757 14.4961 18.9758 14.4961 18.9758 14.4961C18.9758 14.4961 18.9759 14.4961 18.9759 14.4961C18.9759 14.4961 18.976 14.4961 18.976 14.4961C18.976 14.4961 18.976 14.4961 18.9761 14.4961C18.9761 14.4961 18.9761 14.4961 18.9762 14.4961C18.9762 14.4961 18.9762 14.4961 18.9763 14.4961C18.9763 14.4961 18.9763 14.4961 18.9764 14.4961C18.9764 14.4961 18.9764 14.4961 18.9765 14.4961C18.9765 14.4961 18.9765 14.4961 18.9766 14.4961C18.9766 14.4961 18.9766 14.4961 18.9767 14.4961C18.9767 14.4961 18.9767 14.4961 18.9768 14.4961C18.9768 14.4961 18.9768 14.4961 18.9769 14.4961C18.9769 14.4961 18.9769 14.4961 18.977 14.4961C18.977 14.4961 18.977 14.4961 18.9771 14.4961C18.9771 14.4961 18.9771 14.4961 18.9772 14.4961C18.9772 14.4961 18.9772 14.4961 18.9773 14.4961C18.9773 14.4961 18.9773 14.4961 18.9774 14.4961C18.9774 14.4961 18.9774 14.4961 18.9774 14.4961C18.9775 14.4961 18.9775 14.4961 18.9775 14.4961C18.9776 14.4961 18.9776 14.4961 18.9776 14.4961C18.9777 14.4961 18.9777 14.4961 18.9777 14.4961C18.9778 14.4961 18.9778 14.4961 18.9778 14.4961C18.9779 14.4961 18.9779 14.4961 18.9779 14.4961C18.978 14.4961 18.978 14.4961 18.9781 14.4961C18.9781 14.4961 18.9781 14.4961 18.9782 14.4961C18.9782 14.4961 18.9782 14.4961 18.9783 14.4961C18.9783 14.4961 18.9783 14.4961 18.9784 14.4961C18.9784 14.4961 18.9784 14.4961 18.9785 14.4961C18.9785 14.4961 18.9785 14.4961 18.9786 14.4961C18.9786 14.4961 18.9786 14.4961 18.9787 14.4961C18.9787 14.4961 18.9787 14.4961 18.9788 14.4961C18.9788 14.4961 18.9788 14.4961 18.9789 14.4961C18.9789 14.4961 18.9789 14.4961 18.979 14.4961C18.979 14.4961 18.979 14.4961 18.9791 14.4961C18.9791 14.4961 18.9791 14.4961 18.9792 14.4961C18.9792 14.4961 18.9792 14.4961 18.9793 14.4961C18.9793 14.4961 18.9793 14.4961 18.9794 14.4961C18.9794 14.4961 18.9795 14.4961 18.9795 14.4961C18.9795 14.4961 18.9796 14.4961 18.9796 14.4961C18.9796 14.4961 18.9797 14.4961 18.9797 14.4961C18.9797 14.4961 18.9798 14.4961 18.9798 14.4961C18.9798 14.4961 18.9799 14.4961 18.9799 14.4961C18.9799 14.4961 18.98 14.4961 18.98 14.4961C18.9801 14.4961 18.9801 14.4961 18.9801 14.4961C18.9802 14.4961 18.9802 14.4961 18.9802 14.4961C18.9803 14.4961 18.9803 14.4961 18.9803 14.4961C18.9804 14.4961 18.9804 14.4961 18.9804 14.4961C18.9805 14.4961 18.9805 14.4961 18.9806 14.4961C18.9806 14.4961 18.9806 14.4961 18.9807 14.4961C18.9807 14.4961 18.9807 14.4961 18.9808 14.4961C18.9808 14.4961 18.9808 14.4961 18.9809 14.4961C18.9809 14.4961 18.9809 14.4961 18.981 14.4961C18.981 14.4961 18.9811 14.4961 18.9811 14.4961C18.9811 14.4961 18.9812 14.4961 18.9812 14.4961C18.9812 14.4961 18.9813 14.4961 18.9813 14.4961C18.9813 14.4961 18.9814 14.4961 18.9814 14.4961C18.9815 14.4961 18.9815 14.4961 18.9815 14.4961C18.9816 14.4961 18.9816 14.4961 18.9816 14.4961C18.9817 14.4961 18.9817 14.4961 18.9818 14.4961C18.9818 14.4961 18.9818 14.4961 18.9819 14.4961C18.9819 14.4961 18.9819 14.4961 18.982 14.4961C18.982 14.4961 18.9821 14.4961 18.9821 14.4961C18.9821 14.4961 18.9822 14.4961 18.9822 14.4961C18.9822 14.4961 18.9823 14.4961 18.9823 14.4961C18.9824 14.4961 18.9824 14.4961 18.9824 14.4961C18.9825 14.4961 18.9825 14.4961 18.9825 14.4961C18.9826 14.4961 18.9826 14.4961 18.9827 14.4961C18.9827 14.4961 18.9827 14.4961 18.9828 14.4961C18.9828 14.4961 18.9828 14.4961 18.9829 14.4961C18.9829 14.4961 18.983 14.4961 18.983 14.4961C18.983 14.4961 18.9831 14.4961 18.9831 14.4961C18.9832 14.4961 18.9832 14.4961 18.9832 14.4961C18.9833 14.4961 18.9833 14.4961 18.9834 14.4961C18.9834 14.4961 18.9834 14.4961 18.9835 14.4961C18.9835 14.4961 18.9835 14.4961 18.9836 14.4961C18.9836 14.4961 18.9837 14.4961 18.9837 14.4961C18.9837 14.4961 18.9838 14.4961 18.9838 14.4961C18.9839 14.4961 18.9839 14.4961 18.9839 14.4961C18.984 14.4961 18.984 14.4961 18.9841 14.4961C18.9841 14.4961 18.9841 14.4961 18.9842 14.4961C18.9842 14.4961 18.9843 14.4961 18.9843 14.4961C18.9843 14.4961 18.9844 14.4961 18.9844 14.4961C18.9845 14.4961 18.9845 14.4961 18.9845 14.4961C18.9846 14.4961 18.9846 14.4961 18.9847 14.4961C18.9847 14.4961 18.9847 14.4961 18.9848 14.4961C18.9848 14.4961 18.9849 14.4961 18.9849 14.4961C18.9849 14.4961 18.985 14.4961 18.985 14.4961C18.9851 14.4961 18.9851 14.4961 18.9851 14.4961C18.9852 14.4961 18.9852 14.4961 18.9853 14.4961C18.9853 14.4961 18.9853 14.4961 18.9854 14.4961C18.9854 14.4961 18.9855 14.4961 18.9855 14.4961C18.9856 14.4961 18.9856 14.4961 18.9856 14.4961C18.9857 14.4961 18.9857 14.4961 18.9858 14.4961C18.9858 14.4961 18.9858 14.4961 18.9859 14.4961C18.9859 14.4961 18.986 14.4961 18.986 14.4961C18.9861 14.4961 18.9861 14.4961 18.9861 14.4961C18.9862 14.4961 18.9862 14.4961 18.9863 14.4961C18.9863 14.4961 18.9863 14.4961 18.9864 14.4961C18.9864 14.4961 18.9865 14.4961 18.9865 14.4961C18.9866 14.4961 18.9866 14.4961 18.9866 14.4961C18.9867 14.4961 18.9867 14.4961 18.9868 14.4961C18.9868 14.4961 18.9869 14.4961 18.9869 14.4961C18.9869 14.4961 18.987 14.4961 18.987 14.4961C18.9871 14.4961 18.9871 14.4961 18.9872 14.4961C18.9872 14.4961 18.9872 14.4961 18.9873 14.4961C18.9873 14.4961 18.9874 14.4961 18.9874 14.4961C18.9875 14.4961 18.9875 14.4961 18.9876 14.4961C18.9876 14.4961 18.9876 14.4961 18.9877 14.4961C18.9877 14.4961 18.9878 14.4961 18.9878 14.4961C18.9879 14.4961 18.9879 14.4961 18.9879 14.4961C18.988 14.4961 18.988 14.4961 18.9881 14.4961C18.9881 14.4961 18.9882 14.4961 18.9882 14.4961C18.9883 14.4961 18.9883 14.4961 18.9883 14.4961C18.9884 14.4961 18.9884 14.4961 18.9885 14.4961C18.9885 14.4961 18.9886 14.4961 18.9886 14.4961C18.9887 14.4961 18.9887 14.4961 18.9888 14.4961C18.9888 14.4961 18.9888 14.4961 18.9889 14.4961C18.9889 14.4961 18.989 14.4961 18.989 14.4961C18.9891 14.4961 18.9891 14.4961 18.9892 14.4961C18.9892 14.4961 18.9893 14.4961 18.9893 14.4961C18.9893 14.4961 18.9894 14.4961 18.9894 14.4961C18.9895 14.4961 18.9895 14.4961 18.9896 14.4961C18.9896 14.4961 18.9897 14.4961 18.9897 14.4961C18.9898 14.4961 18.9898 14.4961 18.9899 14.4961C18.9899 14.4961 18.9899 14.4961 18.99 14.4961C18.99 14.4961 18.9901 14.4961 18.9901 14.4961C18.9902 14.4961 18.9902 14.4961 18.9903 14.4961C18.9903 14.4961 18.9904 14.4961 18.9904 14.4961C18.9905 14.4961 18.9905 14.4961 18.9906 14.4961C18.9906 14.4961 18.9907 14.4961 18.9907 14.4961C18.9907 14.4961 18.9908 14.4961 18.9908 14.4961C18.9909 14.4961 18.9909 14.4961 18.991 14.4961C18.991 14.4961 18.9911 14.4961 18.9911 14.4961C18.9912 14.4961 18.9912 14.4961 18.9913 14.4961C18.9913 14.4961 18.9914 14.4961 18.9914 14.4961C18.9915 14.4961 18.9915 14.4961 18.9916 14.4961C18.9916 14.4961 18.9917 14.4961 18.9917 14.4961C18.9918 14.4961 18.9918 14.4961 18.9919 14.4961C18.9919 14.4961 18.992 14.4961 18.992 14.4961C18.9921 14.4961 18.9921 14.4961 18.9922 14.4961C18.9922 14.4961 18.9923 14.4961 18.9923 14.4961C18.9924 14.4961 18.9924 14.4961 18.9925 14.4961C18.9925 14.4961 18.9926 14.4961 18.9926 14.4961C18.9927 14.4961 18.9927 14.4961 18.9928 14.4961C18.9928 14.4961 18.9929 14.4961 18.9929 14.4961C18.993 14.4961 18.993 14.4961 18.9931 14.4961C18.9931 14.4961 18.9932 14.4961 18.9932 14.4961C18.9933 14.4961 18.9933 14.4961 18.9934 14.4961C18.9934 14.4961 18.9935 14.4961 18.9935 14.4961C18.9936 14.4961 18.9936 14.4961 18.9937 14.4961C18.9937 14.4961 18.9938 14.4961 18.9938 14.4961C18.9939 14.4961 18.9939 14.4961 18.994 14.4961C18.994 14.4961 18.9941 14.4961 18.9941 14.4961C18.9942 14.4961 18.9942 14.4961 18.9943 14.4961C18.9943 14.4961 18.9944 14.4961 18.9944 14.4961C18.9945 14.4961 18.9946 14.4961 18.9946 14.4961C18.9947 14.4961 18.9947 14.4961 18.9948 14.4961C18.9948 14.4961 18.9949 14.4961 18.9949 14.4961C18.995 14.4961 18.995 14.4961 18.9951 14.4961C18.9951 14.4961 18.9952 14.4961 18.9952 14.4961C18.9953 14.4961 18.9953 14.4961 18.9954 14.4961C18.9955 14.4961 18.9955 14.4961 18.9956 14.4961C18.9956 14.4961 18.9957 14.4961 18.9957 14.4961C18.9958 14.4961 18.9958 14.4961 18.9959 14.4961C18.9959 14.4961 18.996 14.4961 18.996 14.4961C18.9961 14.4961 18.9962 14.4961 18.9962 14.4961C18.9963 14.4961 18.9963 14.4961 18.9964 14.4961C18.9964 14.4961 18.9965 14.4961 18.9965 14.4961C18.9966 14.4961 18.9967 14.4961 18.9967 14.4961C18.9968 14.4961 18.9968 14.4961 18.9969 14.4961C18.9969 14.4961 18.997 14.4961 18.997 14.4961C18.9971 14.4961 18.9972 14.4961 18.9972 14.4961C18.9973 14.4961 18.9973 14.4961 18.9974 14.4961C18.9974 14.4961 18.9975 14.4961 18.9975 14.4961C18.9976 14.4961 18.9977 14.4961 18.9977 14.4961C18.9978 14.4961 18.9978 14.4961 18.9979 14.4961C18.9979 14.4961 18.998 14.4961 18.9981 14.4961C18.9981 14.4961 18.9982 14.4961 18.9982 14.4961C18.9983 14.4961 18.9983 14.4961 18.9984 14.4961C18.9985 14.4961 18.9985 14.4961 18.9986 14.4961C18.9986 14.4961 18.9987 14.4961 18.9987 14.4961C18.9988 14.4961 18.9989 14.4961 18.9989 14.4961C18.999 14.4961 18.999 14.4961 18.9991 14.4961C18.9992 14.4961 18.9992 14.4961 18.9993 14.4961C18.9993 14.4961 18.9994 14.4961 18.9994 14.4961C18.9995 14.4961 18.9996 14.4961 18.9996 14.4961C18.9997 14.4961 18.9997 14.4961 18.9998 14.4961C18.9999 14.4961 18.9999 14.4961 19 14.4961V12.4961ZM18.939 14.4961H19.0305V12.4961H18.939V14.4961Z" fill="#828282" mask="url(#path-10-inside-1)"/>
<path d="M20.8 13.6465L20.8305 20.7828C21.9593 21.4151 22.722 22.6195 22.722 23.9745C22.722 25.992 21.0441 27.6481 19 27.6481C16.9559 27.6481 15.278 25.992 15.278 23.9745C15.278 23.9444 15.278 23.9444 15.278 23.9143H8.38306C8.38306 23.9444 8.38306 23.9444 8.38306 23.9745C8.38306 29.7558 13.1424 34.4531 19 34.4531C21.3797 34.4531 23.5763 33.6703 25.3458 32.3755C25.6203 32.1647 25.8949 31.9539 26.139 31.7432C26.261 31.6227 26.3831 31.5023 26.5051 31.3818C27.2373 30.6592 27.8475 29.8462 28.3356 28.9729C28.4271 28.8224 28.4881 28.6718 28.5797 28.5213C29.2509 27.1362 29.617 25.6005 29.617 23.9745C29.6475 18.7955 25.8034 14.4896 20.8 13.6465Z" fill="#DCCBFF"/>
<path d="M19 22.1379L18.9695 13.4961" stroke="#828282" stroke-miterlimit="10" stroke-linecap="round"/>
</svg>
