<svg width="138" height="132" viewBox="0 0 138 132" fill="none" xmlns="http://www.w3.org/2000/svg">
<path d="M113.392 44.2382C105.438 35.688 94.8998 29.325 82.5716 26.5413C60.699 21.5702 38.8264 28.9274 24.5098 44.2382" stroke="white" stroke-width="2" stroke-miterlimit="10"/>
<path d="M123 112.4V88.2C123 84.2 119.8 81 115.8 81H111C110 81 108.8 81.4 108.2 82.2L100.6 90.2L93 79H45L37.6 90.2L30 82.2C29.2 81.4 28.2 81 27 81H22.2C18.2 81 15 84.2 15 88.2V112.6C15 115.4 16.4 118 18.4 119.8L15 125V131H123V125L119.6 119.6C121.6 117.8 123 115.2 123 112.4Z" fill="white"/>
<path d="M37.5 90.5L45 79H93L100.5 90.5L97 93C94.8333 93.1667 89.5 93.4 85.5 93C85.5 97.4 89.1667 100.167 91 101H104L106.5 98.5L123 124.5L122.5 131.5H15V125L31.5 98.5L33.5 101L44 101.5L49.5 99.5L51.5 96V93H40.5L37.5 90.5Z" fill="#DCCBFF"/>
<path d="M85 79V70.6C85 64.2 73.8 61 68 61C62.2 61 51 64.4 51 70.6V79" fill="#221A50"/>
<path d="M85 79V70.6C85 64.2 73.8 61 68 61C62.2 61 51 64.4 51 70.6V79" stroke="#221A50" stroke-width="2" stroke-miterlimit="10"/>
<path d="M118.2 120.8C121 119 123 116 123 112.4V88.2C123 84.2 119.8 81 115.8 81H111C110 81 108.8 81.4 108.2 82.2L97.5999 93H85.9999C85.9999 93 84.9999 101 92.5999 101C96.9999 101 104.2 101 104.2 101L114 91" stroke="#221A50" stroke-width="2" stroke-miterlimit="10"/>
<path d="M111 75C115.4 75 119 71.2 119 66.4V63.6C119 58.8 115.4 55 111 55C106.6 55 103 58.8 103 63.6V66.4C103 71.2 106.6 75 111 75Z" fill="white" stroke="#221A50" stroke-width="2" stroke-miterlimit="10"/>
<path d="M19.8 120.8C17 119 15 116 15 112.4V88.2C15 84.2 18.2 81 22.2 81H27C28 81 29.2 81.4 29.8 82.2L40.2 93H51.8C51.8 93 52.8 101 45.2 101C40.8 101 33.6 101 33.6 101L23.8 91" stroke="#221A50" stroke-width="2" stroke-miterlimit="10"/>
<path d="M28.8 103L15 125V131H123V125L109.2 103" stroke="#221A50" stroke-width="2" stroke-miterlimit="10"/>
<path d="M37 91L45 79H93L101 91" stroke="#221A50" stroke-width="2" stroke-miterlimit="10"/>
<path d="M27 75C22.6 75 19 71.2 19 66.4V63.6C19 58.8 22.6 55 27 55C31.4 55 35 58.8 35 63.6V66.4C35 71.2 31.4 75 27 75Z" fill="white" stroke="#221A50" stroke-width="2" stroke-miterlimit="10"/>
<path d="M69 55C73.4 55 77 51.2 77 46.4V43.6C77 38.8 73.4 35 69 35C64.6 35 61 38.8 61 43.6V46.4C61 51.2 64.6 55 69 55Z" fill="white" stroke="#221A50" stroke-width="2" stroke-miterlimit="10"/>
</svg>
