<svg width="123" height="123" viewBox="0 0 123 123" fill="none" xmlns="http://www.w3.org/2000/svg">
<path d="M94.8535 78.4987L67.2145 50.6609H45.3419L29.4346 34.7535L7.56201 56.6261L17.5041 66.5682C18.2995 69.5509 21.0833 72.7323 22.8728 73.9254L49.7165 101.167L53.0968 104.547C58.2667 109.717 63.0389 105.939 65.425 101.564C70.1972 103.95 75.3671 101.366 77.3555 97.5875C83.3207 100.57 88.4906 94.4061 88.0929 91.2246C94.4559 91.2246 99.4269 84.464 94.8535 78.4987Z" fill="white" stroke="#221A50" stroke-width="2" stroke-miterlimit="10"/>
<path d="M91.0752 36.7419C91.0752 36.7419 82.9227 44.4968 81.1331 44.6956C78.747 45.0933 68.0095 39.9234 65.8223 39.5257C63.635 38.9292 41.9612 45.8887 40.3705 48.4736C38.7798 51.0585 45.1427 57.2226 51.3068 56.4273C57.4709 55.6319 66.6176 52.4504 69.4014 55.0354C73.7759 59.4099 86.303 72.7323 92.2682 77.9022C97.2393 82.2767 105.789 67.1647 107.977 64.7786C107.977 64.7786 111.954 61.9949 114.737 59.8076L91.0752 36.7419Z" fill="#DCCBFF" stroke="#221A50" stroke-width="2" stroke-miterlimit="10"/>
<path d="M65.6239 101.763L56.2783 92.4177" stroke="#221A50" stroke-width="2" stroke-miterlimit="10"/>
<path d="M77.3557 97.7865L63.8345 84.2653" stroke="#221A50" stroke-width="2" stroke-miterlimit="10"/>
<path d="M88.0929 91.6223L72.1855 75.715" stroke="#221A50" stroke-width="2" stroke-miterlimit="10"/>
<path d="M93.1614 28.7176L83.1787 38.7003L111.018 66.5393L121 56.5566L93.1614 28.7176Z" fill="#221A50" stroke="#221A50" stroke-width="2" stroke-miterlimit="10"/>
<path d="M93.064 38.7307L97.0408 42.7075" stroke="white" stroke-width="2" stroke-miterlimit="10"/>
<path d="M29.4928 28.8575L1.65381 56.6965L11.6365 66.6792L39.4755 38.8402L29.4928 28.8575Z" fill="#221A50" stroke="#221A50" stroke-width="2" stroke-miterlimit="10"/>
<path d="M29.4344 38.7305L25.4575 42.7073" stroke="white" stroke-width="2" stroke-miterlimit="10"/>
<path d="M47.1313 121.051C22.8726 115.483 5.57336 96.1958 1 73.329" stroke="white" stroke-width="2" stroke-miterlimit="10"/>
<path d="M74.5713 121.051C96.4439 115.881 114.737 98.9794 120.106 75.5161" stroke="white" stroke-width="2" stroke-miterlimit="10"/>
<path d="M105.392 20.2382C97.4384 11.688 86.8998 5.32505 74.5716 2.54126C52.699 -2.42978 30.8264 4.92736 16.5098 20.2382" stroke="white" stroke-width="2" stroke-miterlimit="10"/>
<path d="M38.3822 101.962C39.973 103.553 42.3591 103.553 43.9498 101.962L48.1255 97.7865C49.7162 96.1958 49.3185 93.412 47.3301 91.4236C45.3417 89.4352 42.7568 89.0375 40.9672 90.6282C42.5579 89.0375 42.1602 86.2537 40.1718 84.2653C38.1834 82.2769 35.5984 81.8792 33.8089 83.4699C35.3996 81.8792 35.0019 79.0954 33.0135 77.107C31.0251 75.1186 28.4401 74.7209 26.6506 76.3116C28.2413 74.7209 27.8436 71.9371 25.8552 69.9487C23.8668 67.9603 21.2818 67.5626 19.4923 69.1533L15.3166 73.329C13.7259 74.9197 13.7259 77.3058 15.3166 78.8966L38.3822 101.962Z" fill="#DCCBFF" stroke="#221A50" stroke-width="2" stroke-miterlimit="10"/>
<path d="M49.3186 30.7768L45.3418 26.7999" stroke="white" stroke-width="2" stroke-miterlimit="10"/>
<path d="M57.2721 26.8L55.2837 20.8347" stroke="white" stroke-width="2" stroke-miterlimit="10"/>
<path d="M65.2261 26.8L67.2145 20.8347" stroke="white" stroke-width="2" stroke-miterlimit="10"/>
<path d="M73.1797 30.7768L77.1565 26.7999" stroke="white" stroke-width="2" stroke-miterlimit="10"/>
</svg>
