<svg width="106" height="122" viewBox="0 0 106 122" fill="none" xmlns="http://www.w3.org/2000/svg">
<path d="M19.0294 63.4187L1.5 51.7324V50.3019L38.8836 30.6263L52.2076 45.8537L19.0294 63.4187Z" fill="white" stroke="#221A50"/>
<path d="M67.1164 30.6263L104.5 50.3019V51.7324L86.9706 63.4187L53.7924 45.8537L67.1164 30.6263Z" fill="white" stroke="#221A50"/>
<path d="M53.0068 119.431L19.5 100.707V82.5H88.5V100.699L53.0068 119.431Z" fill="#DCCBFF" stroke="#221A50"/>
<path d="M53 46.5657L85.9314 64L53 81.4343L20.0686 64L53 46.5657Z" fill="#B696F7" stroke="#221A50"/>
<path d="M89 82V101L53 120L19 101V82" stroke="#221A50" stroke-width="2" stroke-miterlimit="10"/>
<path d="M1 78L35 96L53 84V82L19 64L1 76V78Z" fill="white" stroke="#221A50" stroke-width="2" stroke-miterlimit="10"/>
<path d="M105 78L71 96L53 84V82L87 64L105 76V78Z" fill="white" stroke="#221A50" stroke-width="2" stroke-miterlimit="10"/>
<path d="M71 55.6L87 64L105 52V50L67 30" stroke="#221A50" stroke-width="2" stroke-miterlimit="10"/>
<path d="M53 84V120" stroke="#221A50" stroke-width="2" stroke-miterlimit="10"/>
<path d="M61 44V16H45V44H33L53 66L73 44H61Z" fill="#221A50" stroke="#221A50" stroke-width="2" stroke-miterlimit="10"/>
<path d="M29 16V26" stroke="white" stroke-width="2" stroke-miterlimit="10"/>
<path d="M29 12V8" stroke="white" stroke-width="2" stroke-miterlimit="10"/>
<path d="M29 4V0" stroke="white" stroke-width="2" stroke-miterlimit="10"/>
<path d="M79 8V26" stroke="white" stroke-width="2" stroke-miterlimit="10"/>
<path d="M79 4V0" stroke="white" stroke-width="2" stroke-miterlimit="10"/>
<path d="M35 55.6L19 64L1 52V50L39 30" stroke="#221A50" stroke-width="2" stroke-miterlimit="10"/>
</svg>
