<svg width="16" height="15" viewBox="0 0 16 15" fill="none" xmlns="http://www.w3.org/2000/svg">
<path d="M0 2C0 0.89543 0.895431 0 2 0H14C15.1046 0 16 0.895431 16 2V9H0V2Z" fill="#D44242"/>
<path d="M0 9H16V13C16 14.1046 15.1046 15 14 15H2C0.895431 15 0 14.1046 0 13V9Z" fill="#3EC444"/>
<path d="M0 2C0 0.89543 0.895431 0 2 0H4V15H2C0.895431 15 0 14.1046 0 13V2Z" fill="#F2F2F2"/>
<rect x="1" y="5" width="1" height="1" fill="#D44242"/>
<rect x="2" y="5" width="1" height="1" fill="#D44242"/>
<rect x="1" y="3" width="1" height="1" fill="#D44242"/>
<rect x="1" y="1" width="1" height="1" fill="#D44242"/>
<rect x="2" width="1" height="1" fill="#D44242"/>
<rect x="3" y="1" width="1" height="1" fill="#D44242"/>
<rect x="2" y="3" width="1" height="1" fill="#D44242"/>
<rect x="1" y="11" width="1" height="1" fill="#D44242"/>
<rect x="1" y="13" width="1" height="1" fill="#D44242"/>
<rect x="2" y="14" width="1" height="1" fill="#D44242"/>
<rect x="3" y="13" width="1" height="1" fill="#D44242"/>
<rect x="2" y="11" width="1" height="1" fill="#D44242"/>
<rect y="7" width="1" height="1" fill="#D44242"/>
<rect x="1" y="6" width="1" height="1" fill="#D44242"/>
<rect x="2" y="6" width="1" height="1" fill="#D44242"/>
<rect x="1" y="8" width="1" height="1" fill="#D44242"/>
<rect x="2" y="8" width="1" height="1" fill="#D44242"/>
<rect x="1" y="9" width="1" height="1" fill="#D44242"/>
<rect x="2" y="9" width="1" height="1" fill="#D44242"/>
<rect x="3" y="7" width="1" height="1" fill="#D44242"/>
<rect y="10" width="1" height="1" fill="#D44242"/>
<rect x="3" y="10" width="1" height="1" fill="#D44242"/>
<rect y="12" width="1" height="1" fill="#D44242"/>
<rect x="3" y="12" width="1" height="1" fill="#D44242"/>
<rect y="4" width="1" height="1" fill="#D44242"/>
<rect x="3" y="4" width="1" height="1" fill="#D44242"/>
<rect y="2" width="1" height="1" fill="#D44242"/>
<rect x="3" y="2" width="1" height="1" fill="#D44242"/>
</svg>
