<svg width="540" height="195" viewBox="0 0 540 195" fill="none" xmlns="http://www.w3.org/2000/svg">
<mask id="mask0" mask-type="alpha" maskUnits="userSpaceOnUse" x="0" y="43" width="540" height="152">
<path d="M0 75C0 57.3269 14.3269 43 32 43H508C525.673 43 540 57.3269 540 75V195H0V75Z" fill="#221A50"/>
</mask>
<g mask="url(#mask0)">
<g opacity="0.25">
<path opacity="0.55" d="M261.829 194.896L0.780518 43L150.617 43L411.769 195L261.829 194.896Z" fill="url(#paint0_linear)"/>
<path opacity="0.55" d="M404.106 194.896L143.058 43L150.617 43L411.769 195L404.106 194.896Z" fill="url(#paint1_linear)"/>
<path opacity="0.55" d="M263.072 194.896L1.91968 43L9.47879 43L270.631 195L263.072 194.896Z" fill="url(#paint2_linear)"/>
<path opacity="0.33" d="M204.048 194.896L-57 43L44.5821 43L305.63 195L204.048 194.896Z" fill="url(#paint3_linear)"/>
<path opacity="0.33" d="M298.071 194.896L37.0227 43L44.5818 43L305.63 195L298.071 194.896Z" fill="url(#paint4_linear)"/>
<path opacity="0.33" d="M204.256 194.896L-56.7925 43L-49.3369 43L211.711 194.896L204.256 194.896Z" fill="url(#paint5_linear)"/>
</g>
<rect x="-57" y="43" width="567" height="150.622" fill="url(#paint6_linear)"/>
</g>
<path d="M0 75C0 57.3269 14.3269 43 32 43H508C525.673 43 540 57.3269 540 75V195H0V75Z" fill="#221A50"/>
<mask id="mask1" mask-type="alpha" maskUnits="userSpaceOnUse" x="0" y="0" width="540" height="195">
<rect width="540" height="195" fill="#221A50"/>
</mask>
<g mask="url(#mask1)">
<g opacity="0.5">
<ellipse cx="397.636" cy="180.023" rx="0.446281" ry="9.37216" fill="#9266EC"/>
<ellipse cx="397.636" cy="180.023" rx="0.446294" ry="9.3719" transform="rotate(90 397.636 180.023)" fill="#9266EC"/>
<ellipse rx="0.200819" ry="4.2172" transform="matrix(0.707097 0.707117 -0.707097 0.707117 397.636 180.023)" fill="#9266EC"/>
<ellipse rx="0.200819" ry="4.2172" transform="matrix(-0.707097 0.707117 -0.707097 -0.707117 397.636 180.023)" fill="#9266EC"/>
</g>
<g opacity="0.5">
<ellipse cx="467.256" cy="158.601" rx="0.191263" ry="4.01664" fill="#9266EC"/>
<ellipse cx="467.256" cy="158.6" rx="0.191269" ry="4.01653" transform="rotate(90 467.256 158.6)" fill="#9266EC"/>
<ellipse rx="0.0860653" ry="1.80737" transform="matrix(0.707097 0.707117 -0.707097 0.707117 467.256 158.601)" fill="#9266EC"/>
<ellipse rx="0.0860653" ry="1.80737" transform="matrix(-0.707097 0.707117 -0.707097 -0.707117 467.256 158.601)" fill="#9266EC"/>
</g>
<g opacity="0.5">
<ellipse cx="472.611" cy="69.3418" rx="0.191263" ry="4.01664" fill="#9266EC"/>
<ellipse cx="472.611" cy="69.3417" rx="0.191269" ry="4.01653" transform="rotate(90 472.611 69.3417)" fill="#9266EC"/>
<ellipse rx="0.0860653" ry="1.80737" transform="matrix(0.707097 0.707117 -0.707097 0.707117 472.611 69.3418)" fill="#9266EC"/>
<ellipse rx="0.0860653" ry="1.80737" transform="matrix(-0.707097 0.707117 -0.707097 -0.707117 472.611 69.3419)" fill="#9266EC"/>
</g>
<g opacity="0.5">
<ellipse cx="341.405" cy="110.401" rx="0.191263" ry="4.01664" fill="#9266EC"/>
<ellipse cx="341.405" cy="110.401" rx="0.191269" ry="4.01653" transform="rotate(90 341.405 110.401)" fill="#9266EC"/>
<ellipse rx="0.0860653" ry="1.80737" transform="matrix(0.707097 0.707117 -0.707097 0.707117 341.405 110.401)" fill="#9266EC"/>
<ellipse rx="0.0860653" ry="1.80737" transform="matrix(-0.707097 0.707117 -0.707097 -0.707117 341.405 110.401)" fill="#9266EC"/>
</g>
<g opacity="0.5">
<ellipse cx="229.834" cy="45.2417" rx="0.191263" ry="4.01664" fill="#9266EC"/>
<ellipse cx="229.834" cy="45.2416" rx="0.191269" ry="4.01653" transform="rotate(90 229.834 45.2416)" fill="#9266EC"/>
<ellipse rx="0.0860653" ry="1.80737" transform="matrix(0.707097 0.707117 -0.707097 0.707117 229.835 45.2417)" fill="#9266EC"/>
<ellipse rx="0.0860653" ry="1.80737" transform="matrix(-0.707097 0.707117 -0.707097 -0.707117 229.834 45.2418)" fill="#9266EC"/>
</g>
<g opacity="0.5">
<ellipse cx="180.744" cy="126.468" rx="0.191263" ry="4.01664" fill="#9266EC"/>
<ellipse cx="180.744" cy="126.468" rx="0.191269" ry="4.01653" transform="rotate(90 180.744 126.468)" fill="#9266EC"/>
<ellipse rx="0.0860653" ry="1.80737" transform="matrix(0.707097 0.707117 -0.707097 0.707117 180.744 126.468)" fill="#9266EC"/>
<ellipse rx="0.0860653" ry="1.80737" transform="matrix(-0.707097 0.707117 -0.707097 -0.707117 180.744 126.468)" fill="#9266EC"/>
</g>
<g opacity="0.5">
<ellipse cx="87.0248" cy="163.956" rx="0.191263" ry="4.01664" fill="#9266EC"/>
<ellipse cx="87.0247" cy="163.956" rx="0.191269" ry="4.01653" transform="rotate(90 87.0247 163.956)" fill="#9266EC"/>
<ellipse rx="0.0860653" ry="1.80737" transform="matrix(0.707097 0.707117 -0.707097 0.707117 87.0248 163.956)" fill="#9266EC"/>
<ellipse rx="0.0860653" ry="1.80737" transform="matrix(-0.707097 0.707117 -0.707097 -0.707117 87.0247 163.956)" fill="#9266EC"/>
</g>
<g opacity="0.5">
<ellipse cx="340.512" cy="172.882" rx="0.191263" ry="4.01664" fill="#9266EC"/>
<ellipse cx="340.512" cy="172.882" rx="0.191269" ry="4.01653" transform="rotate(90 340.512 172.882)" fill="#9266EC"/>
<ellipse rx="0.0860653" ry="1.80737" transform="matrix(0.707097 0.707117 -0.707097 0.707117 340.512 172.882)" fill="#9266EC"/>
<ellipse rx="0.0860653" ry="1.80737" transform="matrix(-0.707097 0.707117 -0.707097 -0.707117 340.512 172.882)" fill="#9266EC"/>
</g>
<g opacity="0.5">
<ellipse cx="78.0992" cy="18.4644" rx="0.191263" ry="4.01664" fill="#9266EC"/>
<ellipse cx="78.0992" cy="18.4642" rx="0.191269" ry="4.01653" transform="rotate(90 78.0992 18.4642)" fill="#9266EC"/>
<ellipse rx="0.0860653" ry="1.80737" transform="matrix(0.707097 0.707117 -0.707097 0.707117 78.0993 18.4644)" fill="#9266EC"/>
<ellipse rx="0.0860653" ry="1.80737" transform="matrix(-0.707097 0.707117 -0.707097 -0.707117 78.0994 18.4645)" fill="#9266EC"/>
</g>
<g opacity="0.5">
<ellipse cx="25.4381" cy="74.6973" rx="0.191263" ry="4.01664" fill="#9266EC"/>
<ellipse cx="25.4381" cy="74.6971" rx="0.191269" ry="4.01653" transform="rotate(90 25.4381 74.6971)" fill="#9266EC"/>
<ellipse rx="0.0860653" ry="1.80737" transform="matrix(0.707097 0.707117 -0.707097 0.707117 25.4381 74.6973)" fill="#9266EC"/>
<ellipse rx="0.0860653" ry="1.80737" transform="matrix(-0.707097 0.707117 -0.707097 -0.707117 25.4383 74.6974)" fill="#9266EC"/>
</g>
<g opacity="0.5">
<ellipse cx="411.025" cy="74.6973" rx="0.191263" ry="4.01664" fill="#9266EC"/>
<ellipse cx="411.025" cy="74.6971" rx="0.191269" ry="4.01653" transform="rotate(90 411.025 74.6971)" fill="#9266EC"/>
<ellipse rx="0.0860653" ry="1.80737" transform="matrix(0.707097 0.707117 -0.707097 0.707117 411.025 74.6973)" fill="#9266EC"/>
<ellipse rx="0.0860653" ry="1.80737" transform="matrix(-0.707097 0.707117 -0.707097 -0.707117 411.025 74.6974)" fill="#9266EC"/>
</g>
<g opacity="0.5">
<ellipse cx="504.743" cy="123.79" rx="0.446281" ry="9.37216" fill="#9266EC"/>
<ellipse cx="504.744" cy="123.79" rx="0.446294" ry="9.3719" transform="rotate(90 504.744 123.79)" fill="#9266EC"/>
<ellipse rx="0.200819" ry="4.2172" transform="matrix(0.707097 0.707117 -0.707097 0.707117 504.743 123.79)" fill="#9266EC"/>
<ellipse rx="0.200819" ry="4.2172" transform="matrix(-0.707097 0.707117 -0.707097 -0.707117 504.743 123.789)" fill="#9266EC"/>
</g>
<g opacity="0.5">
<ellipse cx="311.372" cy="72.3722" rx="0.446281" ry="9.37216" fill="#9266EC"/>
<ellipse cx="311.372" cy="72.3721" rx="0.446294" ry="9.3719" transform="rotate(90 311.372 72.3721)" fill="#9266EC"/>
<ellipse rx="0.200819" ry="4.2172" transform="matrix(0.707097 0.707117 -0.707097 0.707117 311.372 72.3721)" fill="#9266EC"/>
<ellipse rx="0.200819" ry="4.2172" transform="matrix(-0.707097 0.707117 -0.707097 -0.707117 311.372 72.3719)" fill="#9266EC"/>
</g>
<g opacity="0.5">
<ellipse cx="264.644" cy="146.997" rx="0.446281" ry="9.37216" fill="#9266EC"/>
<ellipse cx="264.644" cy="146.997" rx="0.446294" ry="9.3719" transform="rotate(90 264.644 146.997)" fill="#9266EC"/>
<ellipse rx="0.200819" ry="4.2172" transform="matrix(0.707097 0.707117 -0.707097 0.707117 264.644 146.997)" fill="#9266EC"/>
<ellipse rx="0.200819" ry="4.2172" transform="matrix(-0.707097 0.707117 -0.707097 -0.707117 264.644 146.996)" fill="#9266EC"/>
</g>
<g opacity="0.5">
<ellipse cx="161.107" cy="186.271" rx="0.446281" ry="9.37216" fill="#9266EC"/>
<ellipse cx="161.107" cy="186.271" rx="0.446294" ry="9.3719" transform="rotate(90 161.107 186.271)" fill="#9266EC"/>
<ellipse rx="0.200819" ry="4.2172" transform="matrix(0.707097 0.707117 -0.707097 0.707117 161.107 186.271)" fill="#9266EC"/>
<ellipse rx="0.200819" ry="4.2172" transform="matrix(-0.707097 0.707117 -0.707097 -0.707117 161.107 186.271)" fill="#9266EC"/>
</g>
<g opacity="0.5">
<ellipse cx="79.8843" cy="91.6568" rx="0.446281" ry="9.37216" fill="#9266EC"/>
<ellipse cx="79.8844" cy="91.6567" rx="0.446294" ry="9.3719" transform="rotate(90 79.8844 91.6567)" fill="#9266EC"/>
<ellipse rx="0.200819" ry="4.2172" transform="matrix(0.707097 0.707117 -0.707097 0.707117 79.8844 91.6568)" fill="#9266EC"/>
<ellipse rx="0.200819" ry="4.2172" transform="matrix(-0.707097 0.707117 -0.707097 -0.707117 79.8843 91.6565)" fill="#9266EC"/>
</g>
<g opacity="0.5">
<ellipse cx="9.37182" cy="167.526" rx="0.446281" ry="9.37216" fill="#9266EC"/>
<ellipse cx="9.372" cy="167.526" rx="0.446294" ry="9.3719" transform="rotate(90 9.372 167.526)" fill="#9266EC"/>
<ellipse rx="0.200819" ry="4.2172" transform="matrix(0.707097 0.707117 -0.707097 0.707117 9.37194 167.526)" fill="#9266EC"/>
<ellipse rx="0.200819" ry="4.2172" transform="matrix(-0.707097 0.707117 -0.707097 -0.707117 9.37188 167.526)" fill="#9266EC"/>
</g>
<path d="M268.169 249.956L178.228 256.712L153.27 129.779L213.733 129.582C230.634 129.516 245.307 141.39 248.845 157.986L268.169 249.956Z" fill="#7750C8"/>
<path d="M159.886 250.743L144.951 139.684C144.296 134.764 147.768 130.172 152.746 129.451C157.659 128.795 162.245 132.271 162.965 137.257L177.901 248.316C178.556 253.236 175.084 257.827 170.106 258.549C165.193 259.205 160.607 255.728 159.886 250.743Z" fill="#9266EC"/>
<path d="M327.846 164.415L342.782 168.679C343.895 169.007 345.009 168.351 345.336 167.235C345.664 166.12 345.009 165.005 343.895 164.677L328.96 160.413C327.846 160.085 326.732 160.741 326.405 161.856C326.077 162.972 326.732 164.087 327.846 164.415Z" fill="#FFA280"/>
<path d="M331.973 169.335L343.961 172.811C345.074 173.139 346.188 172.483 346.515 171.368C346.843 170.253 346.188 169.138 345.074 168.81L333.087 165.333C331.973 165.005 330.859 165.661 330.532 166.776C330.204 167.891 330.859 169.072 331.973 169.335Z" fill="#FFA280"/>
<path d="M328.566 172.155L342.781 176.222C343.895 176.55 345.009 175.894 345.336 174.779C345.664 173.664 345.009 172.549 343.895 172.221L329.68 168.153C328.566 167.825 327.453 168.481 327.125 169.597C326.798 170.712 327.453 171.827 328.566 172.155Z" fill="#FFA280"/>
<path d="M316.71 173.205L331.973 176.222C333.086 176.419 334.2 175.698 334.397 174.582C334.593 173.467 333.873 172.352 332.759 172.155L317.496 169.138C316.382 168.941 315.269 169.663 315.072 170.778C314.876 171.893 315.596 173.008 316.71 173.205Z" fill="#FFA280"/>
<path d="M339.179 168.088C339.048 168.023 337.345 167.235 335.51 166.317C332.366 164.743 328.829 164.021 325.357 164.087L318.61 164.218C318.61 164.218 317.299 175.435 317.758 175.304C318.217 175.173 332.628 177.797 332.628 177.797L339.179 168.088Z" fill="#FFA280"/>
<path d="M320.902 163.103H314.482V180.356H320.902V163.103Z" fill="#E8EAEC"/>
<path d="M244.128 109.181L263.911 159.757C267.383 167.301 274.916 172.09 283.236 172.024L317.234 171.696" stroke="#374B6D" stroke-width="20" stroke-miterlimit="10"/>
<path d="M225.983 94.3556H221.266C216.943 94.3556 213.471 90.8132 213.471 86.5493V64.4425C213.471 60.113 217.009 56.6362 221.266 56.6362H225.983C230.306 56.6362 233.778 60.1786 233.778 64.4425V86.5493C233.778 90.8132 230.241 94.3556 225.983 94.3556Z" fill="#FFA280"/>
<path d="M265.746 36.9565C265.68 37.4812 265.68 37.9404 265.615 38.4652C265.353 40.8268 264.828 43.1883 264.042 45.3531C260.898 54.7337 253.692 62.212 244.652 65.7543C240.132 67.5255 235.219 68.3783 230.044 67.9847C221.725 67.3943 214.519 70.6742 209.017 65.1639C207.248 63.3928 205.676 61.4904 204.366 59.3256C203.842 58.4729 203.383 57.6857 202.925 56.7673C200.173 51.4538 198.601 38.5308 199.06 32.1677C200.304 14.2593 215.436 0.614711 233.254 1.0083C233.778 1.0083 234.237 1.0739 234.761 1.0739C245.963 1.86109 255.527 8.09297 260.964 17.08C262.536 19.704 263.78 22.5903 264.632 25.6079C265.615 29.2814 266.008 33.0861 265.746 36.9565Z" fill="#613241"/>
<path d="M221.659 43.5164C221.594 44.238 221.463 44.894 221.201 45.4844C220.873 46.206 220.415 46.9931 219.76 47.5179C218.646 48.5019 217.205 49.1579 215.633 49.0923L212.226 48.8955L209.606 48.7643L209.999 41.0236L210.065 39.5805L210.13 38.4653L210.196 37.4157V37.1533L216.222 37.4813C217.729 37.5469 219.105 38.2029 220.087 39.2525C220.677 39.8429 221.135 40.6301 221.397 41.4172C221.594 42.1388 221.725 42.7948 221.659 43.5164Z" fill="#FFC7BE"/>
<path d="M262.994 40.1708L262.339 52.7002L262.274 54.6026C262.208 55.8489 262.077 57.0953 261.815 58.2761C259.653 69.3623 250.482 77.8245 239.215 79.2677C238.888 79.3333 238.56 79.3333 238.167 79.3989C236.988 79.5301 235.743 79.5301 234.499 79.4645C233.32 79.3989 232.14 79.2677 230.961 79.0709C228.669 78.6773 226.572 77.9557 224.542 76.9717C215.829 72.839 209.737 64.1144 209.475 54.1434C209.475 53.8154 209.475 53.553 209.475 53.225C209.475 52.897 209.475 52.5034 209.475 52.1754V51.9786L209.541 51.1258L209.672 48.8955L210.065 41.2204V41.1548L210.13 39.7116L210.196 38.5964L210.261 37.5469V37.2845C210.392 35.5133 210.72 33.8077 211.244 32.1678C211.571 30.987 212.03 29.8718 212.488 28.8222C212.554 28.6254 212.619 28.4942 212.685 28.363C213.078 27.4446 213.537 26.5919 214.061 25.7391C215.96 22.5903 218.515 19.8352 221.528 17.6704C222.118 17.2768 222.773 16.8176 223.363 16.4896C227.751 13.9313 232.927 12.4881 238.364 12.8161C245.635 13.2097 252.186 16.4896 256.706 21.4752C259.129 24.1647 260.767 27.2478 261.946 30.7246C262.405 32.0366 262.667 33.4141 262.863 34.7917C263.06 36.4973 263.06 38.334 262.994 40.1708Z" fill="#FFC7AC"/>
<path d="M212.62 41.1551L212.227 48.9614L211.965 54.2093L209.934 54.0781C209.803 54.0781 209.606 54.0781 209.475 54.0125C206.069 53.6189 203.449 50.4702 203.645 46.9934C203.711 45.2223 204.562 43.7135 205.807 42.5983C206.92 41.6143 208.427 41.0239 210.065 41.0239C210.261 41.0239 210.392 41.0239 210.589 41.0239L212.62 41.1551Z" fill="#FFC7BE"/>
<path d="M253.496 50.7322C252.841 50.7322 252.317 50.2074 252.317 49.5514V45.7467C252.317 45.0907 252.841 44.5659 253.496 44.5659C254.151 44.5659 254.675 45.0907 254.675 45.7467V49.5514C254.675 50.1418 254.151 50.7322 253.496 50.7322Z" fill="#0E254A"/>
<path d="M236.202 50.7322C235.547 50.7322 235.023 50.2074 235.023 49.5514V45.7467C235.023 45.0907 235.547 44.5659 236.202 44.5659C236.857 44.5659 237.381 45.0907 237.381 45.7467V49.5514C237.381 50.1418 236.857 50.7322 236.202 50.7322Z" fill="#0E254A"/>
<path d="M233.778 79.333C233.778 79.333 229.062 79.661 224.542 76.9059C215.829 72.7731 209.737 64.0485 209.475 54.0775C206.069 53.6839 203.449 50.5351 203.645 47.0584C203.711 45.2872 204.562 43.7785 205.807 42.6633C206.92 41.6793 208.427 41.0889 210.065 41.0889L210.13 39.6457L210.196 38.5306L210.261 37.481V37.2186C210.392 35.4474 210.72 33.7418 211.244 32.1019C214.781 30.1339 218.45 29.7403 220.48 34.201C220.48 34.201 220.284 36.2346 220.087 39.3177C219.956 41.6137 219.825 44.5 219.825 47.5832C219.76 53.8807 220.153 60.9653 221.791 65.2293C225.131 74.2819 233.778 79.333 233.778 79.333Z" fill="#FFA280"/>
<path d="M263.977 22.0002H221.528C218.712 22.0002 216.484 19.7042 216.484 16.9491C216.484 14.1283 218.777 11.8979 221.528 11.8979H263.977C266.794 11.8979 269.021 14.1939 269.021 16.9491C269.086 19.7698 266.794 22.0002 263.977 22.0002Z" fill="#613241"/>
<path d="M273.279 26.1327C273.672 28.4286 272.886 30.5934 271.445 32.0366C270.266 33.2174 268.562 34.0045 266.728 34.0045H228.014C222.446 34.0045 217.926 38.5309 217.926 44.1068V50.4043C217.926 52.5034 216.222 54.209 214.126 54.209H213.209C211.113 54.209 209.41 52.5034 209.41 50.4043V31.5118C209.41 31.3806 209.41 31.2494 209.41 31.0526C208.755 30.003 208.362 28.691 208.362 27.3791C208.362 25.5423 209.148 23.9023 210.327 22.656C211.506 21.4752 213.209 20.688 215.043 20.688H266.466C269.676 20.688 272.689 22.9183 273.279 26.1327Z" fill="#613241"/>
<path d="M260.112 41.0888H251.793C250.941 41.0888 250.286 40.4328 250.286 39.5801C250.286 38.7273 250.941 38.0713 251.793 38.0713H260.112C260.964 38.0713 261.619 38.7273 261.619 39.5801C261.619 40.4328 260.898 41.0888 260.112 41.0888Z" fill="#65354D"/>
<path d="M239.87 41.0898H231.551C230.699 41.0898 230.044 40.4338 230.044 39.581C230.044 38.7283 230.699 38.0723 231.551 38.0723H239.87C240.722 38.0723 241.377 38.7283 241.377 39.581C241.312 40.4338 240.657 41.0898 239.87 41.0898Z" fill="#65354D"/>
<g opacity="0.49">
<path opacity="0.49" d="M236.922 44.1064L240.853 51.7815L243.866 51.4535L239.739 44.1064H236.922Z" fill="white"/>
<path opacity="0.49" d="M255.33 44.1064L259.26 51.7815L262.208 51.4535L258.147 44.1064H255.33Z" fill="white"/>
</g>
<path d="M260.243 52.2411H251.399C250.417 52.2411 249.631 51.4539 249.631 50.4699V45.55C249.631 44.566 250.417 43.7788 251.399 43.7788H260.243C261.225 43.7788 262.011 44.566 262.011 45.55V50.4699C262.011 51.4539 261.225 52.2411 260.243 52.2411Z" stroke="#0E254A" stroke-width="1.2974" stroke-miterlimit="10"/>
<path d="M242.884 52.2409H233.123C232.075 52.2409 231.289 51.3881 231.289 50.4041V45.681C231.289 44.6314 232.14 43.8442 233.123 43.8442H242.884C243.932 43.8442 244.783 44.697 244.783 45.681V50.3385C244.783 51.3881 243.932 52.2409 242.884 52.2409Z" stroke="#0E254A" stroke-width="1.349" stroke-miterlimit="10"/>
<path d="M249.762 62.3433C248.386 63.7864 246.225 64.6392 243.801 64.508C241.836 64.3768 240.001 63.6552 238.757 62.4745" stroke="#FA7C50" stroke-width="1.4382" stroke-miterlimit="10"/>
<path d="M250.352 55.5863C250.352 55.6518 250.22 55.5863 250.22 55.5863C250.155 56.8982 249.041 58.0134 246.159 57.8822L245.832 47.3208C248.845 51.1911 250.155 53.3559 250.352 55.5863Z" fill="#FFA280"/>
<path d="M244.914 48.0425L249.958 48.1737" stroke="#0E254A" stroke-width="1.349" stroke-miterlimit="10"/>
<path d="M256.837 119.348V214.663L187.661 222.207L184.255 119.283C184.255 103.933 195.326 91.2065 209.934 88.6482C211.702 88.3202 213.471 88.189 215.305 88.189H225.786C242.884 88.2546 256.837 102.227 256.837 119.348Z" fill="#435778"/>
<path d="M238.036 86.418H214.126V198.198H238.036V86.418Z" fill="#E8EAEC"/>
<path d="M226.834 101.047L219.891 91.1413L226.31 87.271L233.844 91.1413L226.834 101.047Z" fill="#0E254A"/>
<path d="M229.324 200.888L221.528 190.327L224.673 96.3892L229.52 96.8483L236.595 189.999L229.324 200.888Z" fill="#0E254A"/>
<path d="M238.429 95.6015L227.228 87.9264L214.126 95.6015L213.144 86.1553H238.429V95.6015Z" fill="white"/>
<path d="M211.047 131.353L184.255 120.332V119.349C184.255 103.998 195.326 91.2722 209.934 88.7139C209.999 88.7795 210.065 88.8451 210.13 88.9107L211.047 131.353Z" fill="#506486"/>
<path d="M382.675 186.785H320.968C316.906 186.785 314.286 182.586 315.989 178.913L337.475 132.928C339.375 128.927 343.371 126.368 347.76 126.368H404.554C407.502 126.368 409.467 129.451 408.223 132.075L382.675 186.785Z" fill="#AFAAC4"/>
<path d="M321.23 186.981H277.275C275.506 186.981 274.065 185.538 274.065 183.767C274.065 181.996 275.506 180.553 277.275 180.553H321.23C322.999 180.553 324.44 181.996 324.44 183.767C324.44 185.473 322.999 186.981 321.23 186.981Z" fill="#AFAAC4"/>
<path d="M305.377 182.652H299.089V184.554H305.377V182.652Z" fill="#0E254A"/>
<path d="M297.254 182.652H292.669V184.555H297.254V182.652Z" fill="#0E254A"/>
<path d="M381.693 186.785H319.854C317.627 186.785 316.186 184.489 317.103 182.455L340.292 132.994C342.192 128.992 346.188 126.434 350.577 126.434H407.371C410.319 126.434 412.284 129.517 411.04 132.141L387.064 183.374C386.082 185.473 383.985 186.785 381.693 186.785Z" fill="#827C91"/>
<path d="M368.224 160.177C369.688 156.745 369.311 153.294 367.382 152.469C365.452 151.643 362.701 153.755 361.237 157.186C359.772 160.617 360.149 164.068 362.079 164.894C364.008 165.72 366.759 163.608 368.224 160.177Z" fill="white"/>
<path d="M271.772 172.549L287.101 170.122C288.214 169.925 289 168.875 288.804 167.76C288.607 166.645 287.559 165.858 286.446 166.055L271.117 168.482C270.004 168.679 269.217 169.728 269.414 170.843C269.61 171.959 270.659 172.68 271.772 172.549Z" fill="#FFA280"/>
<path d="M276.685 176.682L289.001 174.714C290.114 174.517 290.9 173.467 290.704 172.352C290.507 171.237 289.459 170.45 288.345 170.646L276.03 172.614C274.917 172.811 274.131 173.861 274.327 174.976C274.458 176.091 275.572 176.878 276.685 176.682Z" fill="#FFA280"/>
<path d="M273.803 182.061L288.411 179.699C289.524 179.503 290.31 178.453 290.114 177.338C289.917 176.223 288.869 175.435 287.756 175.632L273.148 177.994C272.034 178.191 271.248 179.24 271.444 180.355C271.641 181.471 272.689 182.258 273.803 182.061Z" fill="#FFA280"/>
<path d="M278.388 168.547C278.192 168.547 276.358 168.547 274.327 168.482C270.79 168.416 267.318 169.203 264.173 170.778L258.147 173.73C258.147 173.73 261.619 184.029 262.077 184.094C273.737 186.193 277.733 180.88 277.733 180.88L278.388 168.547Z" fill="#FFA280"/>
<path d="M276.7 189.698C269.134 187.323 264.925 179.264 267.3 171.698C269.675 164.132 277.734 159.924 285.3 162.299C292.866 164.674 297.075 172.733 294.7 180.299C292.325 187.865 284.266 192.073 276.7 189.698Z" fill="#FFC7AC"/>
<path d="M278.679 164.352C272.795 164.221 265.33 168.612 265.681 174.715C266.032 180.336 273.234 183.278 277.098 177.745C280.479 172.915 288.558 180.468 288.822 174.803C289.129 169.183 284.607 164.484 278.679 164.352Z" fill="#FFD4C0"/>
<path d="M269.348 168.548H264.173V185.407H269.348V168.548Z" fill="#E8EAEC"/>
<path d="M230.241 187.243C217.991 187.243 206.855 180.093 201.745 169.007L201.483 168.482L185.5 119.611L205.217 113.182L220.808 160.807C222.642 164.349 226.376 166.645 230.372 166.58L264.37 166.252L264.566 186.981L230.568 187.309C230.437 187.243 230.372 187.243 230.241 187.243Z" fill="#506486"/>
<path d="M97 207.317H435.343V193.606C435.343 189.933 432.395 186.981 428.727 186.981H103.616C99.9478 186.981 97 189.933 97 193.606V207.317Z" fill="#9266EC"/>
</g>
<defs>
<linearGradient id="paint0_linear" x1="37.9135" y1="21.4703" x2="207.096" y2="313.501" gradientUnits="userSpaceOnUse">
<stop stop-color="#00DFFF"/>
<stop offset="0.197" stop-color="#3CD3FF"/>
<stop offset="0.4904" stop-color="#8EC3FF"/>
<stop offset="0.7315" stop-color="#CBB6FF"/>
<stop offset="0.9074" stop-color="#F1AFFF"/>
<stop offset="1" stop-color="#FFACFF"/>
</linearGradient>
<linearGradient id="paint1_linear" x1="144.664" y1="42.0841" x2="278.081" y2="272.378" gradientUnits="userSpaceOnUse">
<stop stop-color="#00DFFF"/>
<stop offset="0.229" stop-color="#46D2FF"/>
<stop offset="0.5085" stop-color="#94C4FF"/>
<stop offset="0.7393" stop-color="#CEB9FF"/>
<stop offset="0.9093" stop-color="#F2B2FF"/>
<stop offset="1" stop-color="#FFB0FF"/>
</linearGradient>
<linearGradient id="paint2_linear" x1="3.54496" y1="42.0841" x2="136.961" y2="272.378" gradientUnits="userSpaceOnUse">
<stop stop-color="#00DFFF"/>
<stop offset="0.1082" stop-color="#05DEFF"/>
<stop offset="0.232" stop-color="#13DCFF"/>
<stop offset="0.3635" stop-color="#2AD7FF"/>
<stop offset="0.5004" stop-color="#4AD1FF"/>
<stop offset="0.6415" stop-color="#73CAFF"/>
<stop offset="0.7861" stop-color="#A6C0FF"/>
<stop offset="0.9308" stop-color="#E0B6FF"/>
<stop offset="1" stop-color="#FFB0FF"/>
</linearGradient>
<linearGradient id="paint3_linear" x1="-31.9239" y1="28.4727" x2="125.109" y2="299.532" gradientUnits="userSpaceOnUse">
<stop stop-color="#00DFFF"/>
<stop offset="0.197" stop-color="#3CD3FF"/>
<stop offset="0.4904" stop-color="#8EC3FF"/>
<stop offset="0.7315" stop-color="#CBB6FF"/>
<stop offset="0.9074" stop-color="#F1AFFF"/>
<stop offset="1" stop-color="#FFACFF"/>
</linearGradient>
<linearGradient id="paint4_linear" x1="38.5635" y1="42.0842" x2="171.98" y2="272.378" gradientUnits="userSpaceOnUse">
<stop stop-color="#00DFFF"/>
<stop offset="0.229" stop-color="#46D2FF"/>
<stop offset="0.5085" stop-color="#94C4FF"/>
<stop offset="0.7393" stop-color="#CEB9FF"/>
<stop offset="0.9093" stop-color="#F2B2FF"/>
<stop offset="1" stop-color="#FFB0FF"/>
</linearGradient>
<linearGradient id="paint5_linear" x1="-55.2616" y1="42.0841" x2="78.134" y2="272.342" gradientUnits="userSpaceOnUse">
<stop stop-color="#00DFFF"/>
<stop offset="0.1082" stop-color="#05DEFF"/>
<stop offset="0.232" stop-color="#13DCFF"/>
<stop offset="0.3635" stop-color="#2AD7FF"/>
<stop offset="0.5004" stop-color="#4AD1FF"/>
<stop offset="0.6415" stop-color="#73CAFF"/>
<stop offset="0.7861" stop-color="#A6C0FF"/>
<stop offset="0.9308" stop-color="#E0B6FF"/>
<stop offset="1" stop-color="#FFB0FF"/>
</linearGradient>
<linearGradient id="paint6_linear" x1="226.5" y1="43" x2="226.5" y2="193.622" gradientUnits="userSpaceOnUse">
<stop stop-color="#221A50"/>
<stop offset="1" stop-color="#221A50" stop-opacity="0"/>
</linearGradient>
</defs>
</svg>
