<svg width="540" height="195" viewBox="0 0 540 195" fill="none" xmlns="http://www.w3.org/2000/svg">
<mask id="mask0" mask-type="alpha" maskUnits="userSpaceOnUse" x="0" y="43" width="540" height="152">
<path d="M0 75C0 57.3269 14.3269 43 32 43H508C525.673 43 540 57.3269 540 75V195H0V75Z" fill="#221A50"/>
</mask>
<g mask="url(#mask0)">
<path d="M0 75C0 57.3269 14.3269 43 32 43H508C525.673 43 540 57.3269 540 75V195H0V75Z" fill="#221A50"/>
<g opacity="0.25">
<path opacity="0.55" d="M440.829 194.896L179.781 43L329.617 43L590.769 195L440.829 194.896Z" fill="url(#paint0_linear)"/>
<path opacity="0.55" d="M583.106 194.896L322.058 43L329.617 43L590.769 195L583.106 194.896Z" fill="url(#paint1_linear)"/>
<path opacity="0.55" d="M442.072 194.896L180.92 43L188.479 43L449.631 195L442.072 194.896Z" fill="url(#paint2_linear)"/>
<path opacity="0.33" d="M383.048 194.896L122 43L223.582 43L484.63 195L383.048 194.896Z" fill="url(#paint3_linear)"/>
<path opacity="0.33" d="M477.071 194.896L216.023 43L223.582 43L484.63 195L477.071 194.896Z" fill="url(#paint4_linear)"/>
<path opacity="0.33" d="M383.256 194.896L122.208 43L129.663 43L390.711 194.896L383.256 194.896Z" fill="url(#paint5_linear)"/>
</g>
<rect x="122" y="43" width="567" height="150.622" fill="url(#paint6_linear)"/>
</g>
<mask id="mask1" mask-type="alpha" maskUnits="userSpaceOnUse" x="0" y="0" width="540" height="195">
<path d="M0 0H540V195H0V0Z" fill="#221A50"/>
</mask>
<g mask="url(#mask1)">
<g opacity="0.5">
<ellipse cx="472.611" cy="146.342" rx="0.191263" ry="4.01664" fill="#9266EC"/>
<ellipse cx="472.611" cy="146.342" rx="0.191269" ry="4.01653" transform="rotate(90 472.611 146.342)" fill="#9266EC"/>
<ellipse rx="0.0860653" ry="1.80737" transform="matrix(0.707097 0.707117 -0.707097 0.707117 472.611 146.342)" fill="#9266EC"/>
<ellipse rx="0.0860653" ry="1.80737" transform="matrix(-0.707097 0.707117 -0.707097 -0.707117 472.611 146.342)" fill="#9266EC"/>
</g>
<g opacity="0.5">
<ellipse cx="341.405" cy="187.401" rx="0.191263" ry="4.01664" fill="#9266EC"/>
<ellipse cx="341.405" cy="187.401" rx="0.191269" ry="4.01653" transform="rotate(90 341.405 187.401)" fill="#9266EC"/>
<ellipse rx="0.0860653" ry="1.80737" transform="matrix(0.707097 0.707117 -0.707097 0.707117 341.405 187.401)" fill="#9266EC"/>
<ellipse rx="0.0860653" ry="1.80737" transform="matrix(-0.707097 0.707117 -0.707097 -0.707117 341.405 187.401)" fill="#9266EC"/>
</g>
<g opacity="0.5">
<ellipse cx="229.834" cy="122.242" rx="0.191263" ry="4.01664" fill="#9266EC"/>
<ellipse cx="229.835" cy="122.242" rx="0.191269" ry="4.01653" transform="rotate(90 229.835 122.242)" fill="#9266EC"/>
<ellipse rx="0.0860653" ry="1.80737" transform="matrix(0.707097 0.707117 -0.707097 0.707117 229.835 122.242)" fill="#9266EC"/>
<ellipse rx="0.0860653" ry="1.80737" transform="matrix(-0.707097 0.707117 -0.707097 -0.707117 229.834 122.242)" fill="#9266EC"/>
</g>
<g opacity="0.5">
<ellipse cx="78.0992" cy="95.4644" rx="0.191263" ry="4.01664" fill="#9266EC"/>
<ellipse cx="78.0992" cy="95.4642" rx="0.191269" ry="4.01653" transform="rotate(90 78.0992 95.4642)" fill="#9266EC"/>
<ellipse rx="0.0860653" ry="1.80737" transform="matrix(0.707097 0.707117 -0.707097 0.707117 78.0993 95.4644)" fill="#9266EC"/>
<ellipse rx="0.0860653" ry="1.80737" transform="matrix(-0.707097 0.707117 -0.707097 -0.707117 78.0994 95.4645)" fill="#9266EC"/>
</g>
<g opacity="0.5">
<ellipse cx="131.653" cy="41.9092" rx="0.191263" ry="4.01664" fill="#9266EC"/>
<ellipse cx="131.653" cy="41.909" rx="0.191269" ry="4.01653" transform="rotate(90 131.653 41.909)" fill="#9266EC"/>
<ellipse rx="0.0860653" ry="1.80737" transform="matrix(0.707097 0.707117 -0.707097 0.707117 131.653 41.9092)" fill="#9266EC"/>
<ellipse rx="0.0860653" ry="1.80737" transform="matrix(-0.707097 0.707117 -0.707097 -0.707117 131.653 41.9093)" fill="#9266EC"/>
</g>
<g opacity="0.5">
<ellipse cx="25.4381" cy="151.697" rx="0.191263" ry="4.01664" fill="#9266EC"/>
<ellipse cx="25.4381" cy="151.697" rx="0.191269" ry="4.01653" transform="rotate(90 25.4381 151.697)" fill="#9266EC"/>
<ellipse rx="0.0860653" ry="1.80737" transform="matrix(0.707097 0.707117 -0.707097 0.707117 25.4381 151.697)" fill="#9266EC"/>
<ellipse rx="0.0860653" ry="1.80737" transform="matrix(-0.707097 0.707117 -0.707097 -0.707117 25.4383 151.697)" fill="#9266EC"/>
</g>
<g opacity="0.5">
<ellipse cx="385.14" cy="59.7613" rx="0.191263" ry="4.01664" fill="#9266EC"/>
<ellipse cx="385.141" cy="59.7611" rx="0.191269" ry="4.01653" transform="rotate(90 385.141 59.7611)" fill="#9266EC"/>
<ellipse rx="0.0860653" ry="1.80737" transform="matrix(0.707097 0.707117 -0.707097 0.707117 385.141 59.7612)" fill="#9266EC"/>
<ellipse rx="0.0860653" ry="1.80737" transform="matrix(-0.707097 0.707117 -0.707097 -0.707117 385.141 59.7614)" fill="#9266EC"/>
</g>
<g opacity="0.5">
<ellipse cx="411.025" cy="151.697" rx="0.191263" ry="4.01664" fill="#9266EC"/>
<ellipse cx="411.025" cy="151.697" rx="0.191269" ry="4.01653" transform="rotate(90 411.025 151.697)" fill="#9266EC"/>
<ellipse rx="0.0860653" ry="1.80737" transform="matrix(0.707097 0.707117 -0.707097 0.707117 411.025 151.697)" fill="#9266EC"/>
<ellipse rx="0.0860653" ry="1.80737" transform="matrix(-0.707097 0.707117 -0.707097 -0.707117 411.025 151.697)" fill="#9266EC"/>
</g>
<g opacity="0.5">
<ellipse cx="504.744" cy="200.79" rx="0.446281" ry="9.37216" fill="#9266EC"/>
</g>
<g opacity="0.5">
<ellipse cx="79.8843" cy="168.657" rx="0.446281" ry="9.37216" fill="#9266EC"/>
<ellipse cx="79.8844" cy="168.657" rx="0.446294" ry="9.3719" transform="rotate(90 79.8844 168.657)" fill="#9266EC"/>
<ellipse rx="0.200819" ry="4.2172" transform="matrix(0.707097 0.707117 -0.707097 0.707117 79.8844 168.657)" fill="#9266EC"/>
<ellipse rx="0.200819" ry="4.2172" transform="matrix(-0.707097 0.707117 -0.707097 -0.707117 79.8843 168.657)" fill="#9266EC"/>
</g>
<g opacity="0.5">
<ellipse cx="328.017" cy="107.068" rx="0.446281" ry="9.37216" fill="#9266EC"/>
<ellipse cx="328.016" cy="107.068" rx="0.446294" ry="9.3719" transform="rotate(90 328.016 107.068)" fill="#9266EC"/>
<ellipse rx="0.200819" ry="4.2172" transform="matrix(0.707097 0.707117 -0.707097 0.707117 328.016 107.068)" fill="#9266EC"/>
<ellipse rx="0.200819" ry="4.2172" transform="matrix(-0.707097 0.707117 -0.707097 -0.707117 328.017 107.068)" fill="#9266EC"/>
</g>
<g opacity="0.5">
<ellipse cx="530.628" cy="113.316" rx="0.446281" ry="9.37216" fill="#9266EC"/>
<ellipse cx="530.628" cy="113.316" rx="0.446294" ry="9.3719" transform="rotate(90 530.628 113.316)" fill="#9266EC"/>
<ellipse rx="0.200819" ry="4.2172" transform="matrix(0.707097 0.707117 -0.707097 0.707117 530.628 113.316)" fill="#9266EC"/>
<ellipse rx="0.200819" ry="4.2172" transform="matrix(-0.707097 0.707117 -0.707097 -0.707117 530.628 113.316)" fill="#9266EC"/>
</g>
<g opacity="0.5">
<ellipse cx="264.645" cy="55.2979" rx="0.446281" ry="9.37216" fill="#9266EC"/>
<ellipse cx="264.644" cy="55.2979" rx="0.446294" ry="9.3719" transform="rotate(90 264.644 55.2979)" fill="#9266EC"/>
<ellipse rx="0.200819" ry="4.2172" transform="matrix(0.707097 0.707117 -0.707097 0.707117 264.644 55.2979)" fill="#9266EC"/>
<ellipse rx="0.200819" ry="4.2172" transform="matrix(-0.707097 0.707117 -0.707097 -0.707117 264.645 55.2976)" fill="#9266EC"/>
</g>
<g opacity="0.5">
<ellipse cx="161.107" cy="94.5719" rx="0.446281" ry="9.37216" fill="#9266EC"/>
<ellipse cx="161.107" cy="94.5718" rx="0.446294" ry="9.3719" transform="rotate(90 161.107 94.5718)" fill="#9266EC"/>
<ellipse rx="0.200819" ry="4.2172" transform="matrix(0.707097 0.707117 -0.707097 0.707117 161.108 94.5718)" fill="#9266EC"/>
<ellipse rx="0.200819" ry="4.2172" transform="matrix(-0.707097 0.707117 -0.707097 -0.707117 161.107 94.5716)" fill="#9266EC"/>
</g>
<g opacity="0.5">
<ellipse cx="453.868" cy="82.0753" rx="0.446281" ry="9.37216" fill="#9266EC"/>
<ellipse cx="453.867" cy="82.0752" rx="0.446294" ry="9.3719" transform="rotate(90 453.867 82.0752)" fill="#9266EC"/>
<ellipse rx="0.200819" ry="4.2172" transform="matrix(0.707097 0.707117 -0.707097 0.707117 453.868 82.0752)" fill="#9266EC"/>
<ellipse rx="0.200819" ry="4.2172" transform="matrix(-0.707097 0.707117 -0.707097 -0.707117 453.868 82.075)" fill="#9266EC"/>
</g>
<g opacity="0.5">
<ellipse cx="9.37182" cy="75.8272" rx="0.446281" ry="9.37216" fill="#9266EC"/>
<ellipse cx="9.372" cy="75.8272" rx="0.446294" ry="9.3719" transform="rotate(90 9.372 75.8272)" fill="#9266EC"/>
<ellipse rx="0.200819" ry="4.2172" transform="matrix(0.707097 0.707117 -0.707097 0.707117 9.37194 75.8272)" fill="#9266EC"/>
<ellipse rx="0.200819" ry="4.2172" transform="matrix(-0.707097 0.707117 -0.707097 -0.707117 9.37188 75.8269)" fill="#9266EC"/>
</g>
<path d="M383.587 327H342.89C336.417 327 331.323 318.794 331.323 308.364V256.427C331.323 232.338 336.629 209.572 346.233 192.366C356.102 174.683 369.367 164.941 383.534 164.941C389.371 164.941 394.04 171.4 394.942 180.666C395.101 182.571 394.942 184.477 394.358 186.225C383.587 220.479 382.791 262.092 392.236 297.617L393.668 303.07C395.526 310.111 394.358 318.265 390.803 322.977C388.893 325.571 386.293 327 383.587 327ZM383.587 169.918C371.33 169.918 359.657 178.76 350.69 194.748C341.458 211.214 336.417 233.132 336.417 256.374V308.364C336.417 316.147 339.866 321.971 342.89 321.971H383.587C384.967 321.971 386.134 320.806 386.877 319.853C389.53 316.359 390.379 309.847 388.893 304.288L387.46 298.835C377.75 262.463 378.546 219.79 389.636 184.636C389.954 183.577 390.113 182.307 390.007 181.089C389.318 174.206 386.134 169.918 383.587 169.918Z" fill="#7750C8"/>
<path d="M119.562 263.468C121.313 267.439 122.48 271.727 123.011 276.068L123.276 278.08L337.956 224.025L329.944 193.954L119.562 263.468Z" fill="#1A202B"/>
<path d="M329.838 193.53L114.044 254.044C116.272 256.956 118.13 260.133 119.615 263.468L329.944 193.901L329.838 193.53Z" fill="#2A3345"/>
<path d="M350.584 109.88C348.302 112.21 345.225 113.375 342.147 113.269C339.547 113.163 336.948 112.21 334.931 110.357C325.274 101.515 320.977 89.2325 322.515 74.9379C322.621 73.9849 322.728 73.0319 322.887 72.0789C323.258 69.5906 323.789 67.3141 324.372 65.3552C325.699 60.5903 327.185 57.4137 327.397 56.8843L337.16 61.3315L347.506 66.0434C347.506 66.0434 348.568 67.367 348.037 71.2319C347.347 76.5791 345.278 90.2384 350.159 94.6857C351.804 96.221 352.865 98.074 353.343 100.086C354.086 103.474 353.184 107.18 350.584 109.88Z" fill="#FFC7AC"/>
<path d="M353.29 100.086C343.899 97.8096 335.727 92.0918 329.201 83.1973C326.283 79.1736 324.213 75.2029 322.834 72.1322C321.507 69.1145 320.818 66.9438 320.711 66.5202L324.319 65.4084L337.107 61.3848L347.454 66.0967C347.454 66.0967 348.515 67.4203 347.984 71.2851C347.294 76.6324 345.225 90.2917 350.107 94.7389C351.751 96.1684 352.813 98.0743 353.29 100.086Z" fill="#FFA280"/>
<path d="M341.935 19.7713C338.911 18.8713 335.621 18.8713 332.491 18.6066C330.156 18.3948 327.821 18.236 325.434 18.0242C321.985 17.7595 318.642 18.2889 315.671 19.5066C308.189 22.4714 302.565 29.5129 301.928 38.0367L297.949 56.0903L292.218 82.0324C291.475 85.4737 294.5 88.4915 297.949 87.8032L327.078 81.6618L327.397 81.6089L332.809 80.4441L333.711 80.2323C340.715 80.8147 346.976 75.7322 347.931 68.8496C354.829 66.3083 355.731 57.5198 356.367 45.7664C357.482 26.4951 346.18 19.7713 341.935 19.7713Z" fill="#242B3B"/>
<path d="M341.935 19.7713C338.911 18.8713 335.621 18.8713 332.491 18.6066C330.156 18.3948 327.821 18.236 325.434 18.0242C321.985 17.7595 318.642 18.2889 315.671 19.5066C308.189 22.4714 302.565 29.5129 301.928 38.0367L297.949 56.0903L292.218 82.0324C291.475 85.4737 294.5 88.4915 297.949 87.8032L327.078 81.6618L327.397 81.6089L332.809 80.4441L333.711 80.2323C340.715 80.8147 346.976 75.7322 347.931 68.8496C354.829 66.3083 355.731 57.5198 356.367 45.7664C357.482 26.4951 346.18 19.7713 341.935 19.7713Z" fill="#BE9157"/>
<path d="M308.667 64.9315C304.104 64.5609 300.284 61.1726 297.896 56.09L301.875 38.0364C302.565 29.5126 308.137 22.4712 315.618 19.5063C338.964 21.9947 312.7 27.1831 322.887 39.5718C330.952 49.4192 316.998 65.6198 308.667 64.9315Z" fill="#FFC7AC"/>
<path d="M302.64 43.5538C302.919 40.0854 302.316 37.2074 301.294 37.1256C300.271 37.0438 299.217 39.7891 298.938 43.2575C298.659 46.7259 299.262 49.6039 300.284 49.6857C301.307 49.7675 302.361 47.0222 302.64 43.5538Z" fill="#D8E1F5"/>
<path d="M336.682 51.4841C336.629 51.4841 336.629 51.4841 336.576 51.4841C336.258 51.4311 335.993 51.1135 336.046 50.7429C337.16 44.6544 334.932 41.3719 328.617 39.7307C318.005 36.9777 301.504 37.7189 301.345 37.7189C301.026 37.7189 300.708 37.4541 300.708 37.1365C300.708 36.7659 300.973 36.5012 301.292 36.5012C301.451 36.5012 318.165 35.76 328.936 38.5659C335.887 40.366 338.54 44.3367 337.319 51.0605C337.213 51.2723 336.948 51.4841 336.682 51.4841Z" fill="#242B3B"/>
<path d="M335.39 50.6457C336.763 45.594 335.812 40.9404 333.267 40.2518C330.721 39.5631 327.545 43.1 326.172 48.1518C324.799 53.2036 325.75 57.8571 328.296 58.5458C330.841 59.2345 334.018 55.6975 335.39 50.6457Z" fill="#FFC7AC"/>
<path d="M318.483 21.6771L315.776 22.2595C311.903 23.1065 308.083 20.6182 307.234 16.7534C306.385 12.8885 308.879 9.07662 312.752 8.22953L327.768 5L328.139 6.74712C329.625 13.5238 325.274 20.2476 318.483 21.6771Z" fill="#BE9157"/>
<path d="M331.271 27.3949L329.838 27.7126C323.842 28.9832 317.899 25.1713 316.626 19.1887C315.989 16.2768 317.846 13.4179 320.765 12.7826L341.936 8.22949L342.36 10.2413C344.058 17.971 339.017 25.7007 331.271 27.3949Z" fill="#BE9157"/>
<path d="M352.707 115.121L336.948 125.339L287.974 157.105C285.586 158.641 282.88 159.382 280.227 159.382C275.558 159.382 270.995 157.105 268.289 152.923C263.991 146.358 265.901 137.569 272.48 133.281L323.046 100.509L337.16 91.35C343.74 87.0616 352.547 88.9676 356.845 95.5325C361.143 102.045 359.286 110.833 352.707 115.121Z" fill="#FFA280"/>
<path d="M278.9 160.441C273.913 160.441 269.243 157.476 267.227 152.606L244.783 98.286C242.13 91.8269 245.207 84.4679 251.627 81.8207C258.101 79.1735 265.476 82.2442 268.129 88.6504L290.573 142.97C293.226 149.429 290.149 156.788 283.729 159.435C282.137 160.124 280.492 160.441 278.9 160.441Z" fill="#FFA280"/>
<path d="M275.239 78.5377L255.554 86.5321C255.395 86.585 255.236 86.5321 255.183 86.3732L251.309 76.8964C251.256 76.7376 251.309 76.5788 251.469 76.5258L271.154 68.5314C273.595 67.5255 276.354 68.7432 277.362 71.1256L277.892 72.3433C278.847 74.7787 277.68 77.5317 275.239 78.5377Z" fill="#F99B78"/>
<path d="M253.815 99.61C263.369 98.8717 270.514 90.5455 269.774 81.0128C269.034 71.4801 260.69 64.3508 251.136 65.0891C241.582 65.8273 234.437 74.1536 235.177 83.6862C235.917 93.2189 244.261 100.348 253.815 99.61Z" fill="#FFA280"/>
<path d="M280.811 76.3138C277.309 76.3138 274.497 73.4549 274.497 70.0136C274.497 66.5194 277.362 63.7134 280.811 63.7134C284.313 63.7134 287.125 66.5723 287.125 70.0136C287.125 73.5079 284.313 76.3138 280.811 76.3138ZM280.811 65.6193C278.37 65.6193 276.354 67.5782 276.354 70.0666C276.354 72.5019 278.317 74.5138 280.811 74.5138C283.251 74.5138 285.268 72.5549 285.268 70.0666C285.268 67.5782 283.251 65.6193 280.811 65.6193Z" fill="white"/>
<path d="M286.753 77.1081H282.827L277.68 63.1841H291.9L286.753 77.1081Z" fill="white"/>
<path d="M286.7 77.1081H282.88L277.892 63.1841H291.688L286.7 77.1081Z" fill="#CCCCCC"/>
<path d="M289.194 63.1841L284.207 77.1081H286.7L291.688 63.1841H289.194Z" fill="#F2F2F2"/>
<path d="M284.79 63.3962C288.717 63.3962 291.9 63.3014 291.9 63.1844C291.9 63.0675 288.717 62.9727 284.79 62.9727C280.863 62.9727 277.68 63.0675 277.68 63.1844C277.68 63.3014 280.863 63.3962 284.79 63.3962Z" fill="#F2F2F2"/>
<path d="M281.129 67.1551C281.129 64.6138 282.562 64.6667 283.146 64.8785C283.995 65.1962 284.26 65.6197 284.26 68.2139C284.26 70.8081 283.782 74.1965 283.146 74.1965C282.509 74.1435 281.129 69.7493 281.129 67.1551Z" fill="#F2F2F2"/>
<path d="M272.374 74.4084L251.15 76.0496C250.991 76.0496 250.832 75.9437 250.832 75.7849L250.036 65.5669C250.036 65.408 250.142 65.2492 250.301 65.2492L271.525 63.608C274.125 63.3962 276.459 65.3551 276.619 68.0022L276.725 69.3258C276.99 71.8671 275.027 74.1966 272.374 74.4084Z" fill="#FFA280"/>
<path d="M352.706 115.121L336.948 125.339C333.923 121.422 331.005 116.922 328.352 112.051C326.283 108.186 324.479 104.321 323.046 100.509L337.16 91.35C343.739 87.0616 352.547 88.9676 356.845 95.5325C361.143 102.045 359.286 110.833 352.706 115.121Z" fill="#E6E6E6"/>
<path d="M157.022 182.942L156.067 183.26L135.639 125.71C134.684 123.01 136.117 119.993 138.823 118.987L139.778 118.669L160.206 176.218C161.214 178.971 159.728 181.989 157.022 182.942Z" fill="white"/>
<path d="M156.067 184.266V183.26H217.245C220.163 183.26 222.498 185.642 222.498 188.501V189.507H161.373C158.455 189.507 156.067 187.178 156.067 184.266Z" fill="white"/>
<path d="M143.014 198.136H313.495C315.83 198.136 317.74 196.23 317.74 193.9C317.74 191.571 315.83 189.665 313.495 189.665H143.014C140.679 189.665 138.769 191.571 138.769 193.9C138.769 196.23 140.679 198.136 143.014 198.136Z" fill="#9266EC"/>
<path d="M392.501 181.777C392.66 183.312 392.501 184.953 392.024 186.33C386.983 202.266 384.118 219.737 383.375 237.473L375.098 238.426C375.681 220.055 378.6 201.895 383.799 185.377L392.501 181.777Z" fill="#9266EC"/>
<path d="M374.196 122.322C370.482 102.839 362.151 92.7801 360.559 90.9801C355.784 85.6858 348.727 83.6739 342.254 85.1563C339.229 85.8446 336.311 87.2741 333.817 89.4977C326.177 96.3273 325.381 107.975 331.96 115.757C332.438 116.446 336.046 121.581 337.531 132.435C339.07 143.606 338.54 162.877 327.291 191.148C323.418 200.837 328.193 211.849 337.903 215.714C339.707 216.455 341.617 216.879 343.421 216.985C343.899 217.038 344.376 217.038 344.907 217.038C352.441 217.038 359.551 212.537 362.523 205.125C374.832 174.101 378.759 146.253 374.196 122.322Z" fill="#FDF2D7"/>
<path d="M368.571 122.746C364.857 103.263 356.526 93.2036 354.935 91.4035C351.539 87.5916 346.976 85.5269 342.253 85.1562C339.229 85.8445 336.364 87.274 333.87 89.4446L333.817 89.4976C326.176 96.3273 325.38 107.975 331.907 115.757C332.384 116.446 335.992 121.581 337.478 132.434C339.017 143.605 338.486 162.877 327.238 191.095C327.025 191.572 326.866 192.048 326.76 192.472C323.842 201.843 328.617 211.955 337.849 215.661C339.653 216.402 341.564 216.826 343.368 216.932C349.257 215.608 354.404 211.479 356.845 205.443C369.155 174.524 373.134 146.623 368.571 122.746Z" fill="white"/>
<path d="M344.004 124.122C343.156 104.321 336.417 93.1504 335.09 91.1385C334.666 90.5561 334.242 89.9738 333.817 89.4443L333.764 89.4973C326.123 96.3269 325.327 107.974 331.854 115.757C332.331 116.445 335.939 121.581 337.425 132.434C338.964 143.605 338.433 162.876 327.185 191.095C326.972 191.572 326.813 192.048 326.707 192.472C339.07 168.065 344.906 145.14 344.004 124.122Z" fill="#E6E6E6"/>
<path d="M354.139 108.715L326.283 180.559C324.108 186.171 318.695 189.613 313.018 189.613C311.32 189.613 309.569 189.295 307.871 188.66C306.545 188.13 305.377 187.495 304.316 186.648C299.435 182.942 297.418 176.271 299.753 170.288L327.609 98.4445C330.103 92.0914 336.683 88.4912 343.156 89.5501C344.111 89.7089 345.066 89.9736 345.968 90.2913C353.29 93.2032 356.952 101.409 354.139 108.715Z" fill="#FFD4C0"/>
<path d="M354.139 108.715L326.282 180.559C324.107 186.171 318.695 189.613 313.017 189.613C311.319 189.613 309.568 189.295 307.87 188.66C306.544 188.13 305.377 187.495 304.315 186.648L340.608 93.7326C341.192 92.1972 342.094 90.7678 343.102 89.603C344.057 89.7619 345.012 90.0266 345.914 90.3442C353.29 93.2032 356.951 101.409 354.139 108.715Z" fill="#FFC7AC"/>
<path d="M354.139 108.716L350.053 119.199C345.278 118.722 340.131 117.451 334.931 115.44C330.633 113.798 326.707 111.787 323.311 109.51L327.609 98.4449C330.421 91.1388 338.698 87.4857 346.021 90.3446C353.29 93.2036 356.951 101.41 354.139 108.716Z" fill="white"/>
<path d="M375.362 327H334.666C328.192 327 323.099 318.794 323.099 308.364V256.427C323.099 232.338 328.405 209.572 338.008 192.366C347.878 174.683 361.142 164.941 375.309 164.941C381.146 164.941 385.815 171.4 386.717 180.666C386.876 182.571 386.717 184.477 386.134 186.225C375.362 220.479 374.567 262.092 384.011 297.617L385.444 303.07C387.301 310.111 386.134 318.265 382.579 322.977C380.668 325.571 378.069 327 375.362 327ZM375.362 169.918C363.106 169.918 351.433 178.76 342.465 194.748C333.233 211.214 328.192 233.132 328.192 256.374V308.364C328.192 316.147 331.641 321.971 334.666 321.971H375.362C376.742 321.971 377.909 320.806 378.652 319.853C381.305 316.359 382.154 309.847 380.668 304.288L379.236 298.835C369.526 262.463 370.322 219.79 381.411 184.636C381.73 183.577 381.889 182.307 381.783 181.089C381.093 174.206 377.909 169.918 375.362 169.918Z" fill="#9266EC"/>
<path d="M308.56 177.277C308.56 184.265 303.944 189.877 298.32 189.877L250.566 189.824C244.889 189.824 240.326 184.16 240.326 177.224C240.326 176.324 240.379 175.477 240.538 174.63C241.493 168.912 245.632 164.624 250.566 164.624L298.267 164.676C311.797 164.676 308.507 168.912 308.295 174.683C308.348 175.477 308.56 176.377 308.56 177.277Z" fill="#FFD4C0"/>
<path d="M324.532 177.277C324.532 184.266 318.854 189.878 311.903 189.878L253.007 189.825C246.003 189.825 240.379 184.16 240.379 177.224C240.379 176.324 240.485 175.477 240.644 174.63L324.266 174.683C324.425 175.477 324.532 176.377 324.532 177.277Z" fill="#FFC7AC"/>
<path d="M253.753 188.882C262.896 186.019 267.981 176.302 265.111 167.179C262.241 158.057 252.503 152.983 243.36 155.847C234.218 158.71 229.133 168.427 232.003 177.55C234.873 186.672 244.611 191.746 253.753 188.882Z" fill="#FFC7AC"/>
<path d="M251.362 158.323C258.472 158.164 267.492 163.458 267.068 170.817C266.643 177.594 257.941 181.141 253.272 174.47C249.187 168.647 239.424 177.753 239.105 170.923C238.734 164.147 244.199 158.482 251.362 158.323Z" fill="#FFD4C0"/>
<path d="M337.213 68.6905C336.788 68.5846 336.364 68.4258 335.993 68.1611C334.772 67.367 332.066 64.9845 332.172 59.849C332.225 55.8783 335.568 48.731 332.013 48.8898C328.511 49.0486 325.911 52.6488 326.07 53.1253C329.944 67.0493 329.944 71.8142 327.079 81.6616L327.397 81.6086L332.809 80.4439L333.711 80.2321C340.768 80.8145 347.082 75.6261 347.931 68.6905C344.058 70.12 340.078 70.0141 337.213 68.6905Z" fill="#FFC7AC"/>
<path d="M327.71 20.5065C331.899 19.0849 334.744 16.3167 334.065 14.3236C333.385 12.3306 329.439 11.8674 325.25 13.2891C321.06 14.7108 318.215 17.479 318.895 19.472C319.574 21.4651 323.521 21.9282 327.71 20.5065Z" fill="#CDA573"/>
<path d="M314.335 14.9584C316.508 13.8675 317.703 11.8609 317.005 10.4765C316.307 9.0922 313.98 8.8543 311.807 9.94518C309.634 11.0361 308.439 13.0426 309.137 14.427C309.835 15.8113 312.163 16.0492 314.335 14.9584Z" fill="#CDA573"/>
</g>
<defs>
<linearGradient id="paint0_linear" x1="216.914" y1="21.4703" x2="386.096" y2="313.501" gradientUnits="userSpaceOnUse">
<stop stop-color="#00DFFF"/>
<stop offset="0.197" stop-color="#3CD3FF"/>
<stop offset="0.4904" stop-color="#8EC3FF"/>
<stop offset="0.7315" stop-color="#CBB6FF"/>
<stop offset="0.9074" stop-color="#F1AFFF"/>
<stop offset="1" stop-color="#FFACFF"/>
</linearGradient>
<linearGradient id="paint1_linear" x1="323.664" y1="42.0841" x2="457.08" y2="272.378" gradientUnits="userSpaceOnUse">
<stop stop-color="#00DFFF"/>
<stop offset="0.229" stop-color="#46D2FF"/>
<stop offset="0.5085" stop-color="#94C4FF"/>
<stop offset="0.7393" stop-color="#CEB9FF"/>
<stop offset="0.9093" stop-color="#F2B2FF"/>
<stop offset="1" stop-color="#FFB0FF"/>
</linearGradient>
<linearGradient id="paint2_linear" x1="182.545" y1="42.0841" x2="315.961" y2="272.378" gradientUnits="userSpaceOnUse">
<stop stop-color="#00DFFF"/>
<stop offset="0.1082" stop-color="#05DEFF"/>
<stop offset="0.232" stop-color="#13DCFF"/>
<stop offset="0.3635" stop-color="#2AD7FF"/>
<stop offset="0.5004" stop-color="#4AD1FF"/>
<stop offset="0.6415" stop-color="#73CAFF"/>
<stop offset="0.7861" stop-color="#A6C0FF"/>
<stop offset="0.9308" stop-color="#E0B6FF"/>
<stop offset="1" stop-color="#FFB0FF"/>
</linearGradient>
<linearGradient id="paint3_linear" x1="147.076" y1="28.4727" x2="304.109" y2="299.532" gradientUnits="userSpaceOnUse">
<stop stop-color="#00DFFF"/>
<stop offset="0.197" stop-color="#3CD3FF"/>
<stop offset="0.4904" stop-color="#8EC3FF"/>
<stop offset="0.7315" stop-color="#CBB6FF"/>
<stop offset="0.9074" stop-color="#F1AFFF"/>
<stop offset="1" stop-color="#FFACFF"/>
</linearGradient>
<linearGradient id="paint4_linear" x1="217.564" y1="42.0842" x2="350.98" y2="272.378" gradientUnits="userSpaceOnUse">
<stop stop-color="#00DFFF"/>
<stop offset="0.229" stop-color="#46D2FF"/>
<stop offset="0.5085" stop-color="#94C4FF"/>
<stop offset="0.7393" stop-color="#CEB9FF"/>
<stop offset="0.9093" stop-color="#F2B2FF"/>
<stop offset="1" stop-color="#FFB0FF"/>
</linearGradient>
<linearGradient id="paint5_linear" x1="123.738" y1="42.0841" x2="257.134" y2="272.342" gradientUnits="userSpaceOnUse">
<stop stop-color="#00DFFF"/>
<stop offset="0.1082" stop-color="#05DEFF"/>
<stop offset="0.232" stop-color="#13DCFF"/>
<stop offset="0.3635" stop-color="#2AD7FF"/>
<stop offset="0.5004" stop-color="#4AD1FF"/>
<stop offset="0.6415" stop-color="#73CAFF"/>
<stop offset="0.7861" stop-color="#A6C0FF"/>
<stop offset="0.9308" stop-color="#E0B6FF"/>
<stop offset="1" stop-color="#FFB0FF"/>
</linearGradient>
<linearGradient id="paint6_linear" x1="405.5" y1="43" x2="405.5" y2="193.622" gradientUnits="userSpaceOnUse">
<stop stop-color="#221A50"/>
<stop offset="1" stop-color="#221A50" stop-opacity="0"/>
</linearGradient>
</defs>
</svg>
