<svg width="311" height="380" viewBox="0 0 311 380" fill="none" xmlns="http://www.w3.org/2000/svg">
<path d="M163.324 212.307H222.372V275.976H163.324V212.307Z" fill="#895029"/>
<path d="M220.1 212.307H270.55V275.977H220.1V212.307Z" fill="#E36B15"/>
<path d="M163 225.268H220.263V254.753H163V225.268Z" fill="#999B97"/>
<path d="M220.1 225.268H270.55V254.753H220.1V225.268Z" fill="#E6E7E8"/>
<path d="M230.482 233.205H259.357V235.797H230.482V233.205Z" fill="#2D3235"/>
<path d="M230.483 237.741H259.357V240.333H230.483V237.741Z" fill="#2D3235"/>
<path d="M238.756 219.111C238.756 220.893 240.378 222.351 242.487 222.351H249.787C251.895 222.351 253.518 220.893 253.518 219.111C253.518 217.328 251.895 215.87 249.787 215.87H242.487C240.378 215.87 238.756 217.328 238.756 219.111Z" fill="#36353D"/>
<path d="M225.81 263.389L235.843 266.054L234.175 272.317L224.142 269.652L225.81 263.389Z" fill="#E6E7E8"/>
<path d="M163.324 146.844H222.372V210.513H163.324V146.844Z" fill="#895029"/>
<path d="M220.1 146.844H270.55V210.513H220.1V146.844Z" fill="#E36B15"/>
<path d="M163 159.805H220.263V189.29H163V159.805Z" fill="#999B97"/>
<path d="M220.1 159.805H270.55V189.29H220.1V159.805Z" fill="#E6E7E8"/>
<path d="M230.482 167.742H259.357V170.334H230.482V167.742Z" fill="#2D3235"/>
<path d="M230.483 172.278H259.357V174.87H230.483V172.278Z" fill="#2D3235"/>
<path d="M238.756 153.647C238.756 155.43 240.378 156.888 242.487 156.888H249.787C251.895 156.888 253.518 155.43 253.518 153.647C253.518 151.865 251.895 150.407 249.787 150.407H242.487C240.378 150.407 238.756 151.865 238.756 153.647Z" fill="#36353D"/>
<path d="M225.81 197.926L235.843 200.591L234.175 206.854L224.142 204.189L225.81 197.926Z" fill="#E6E7E8"/>
<path d="M0.324146 12H59.3716V75.6696H0.324146V12Z" fill="#895029"/>
<path d="M57.0999 12H107.55V75.6696H57.0999V12Z" fill="#E36B15"/>
<path d="M-0.000331879 24.9612H57.2627V54.4469H-0.000331879V24.9612Z" fill="#999B97"/>
<path d="M57.1004 24.9612H107.55V54.4469H57.1004V24.9612Z" fill="#E6E7E8"/>
<path d="M67.4821 32.8987H96.3569V35.4908H67.4821V32.8987Z" fill="#2D3235"/>
<path d="M67.4826 37.4348H96.3574V40.027H67.4826V37.4348Z" fill="#2D3235"/>
<path d="M75.7557 18.8039C75.7557 20.586 77.3779 22.0441 79.4867 22.0441H86.7866C88.8954 22.0441 90.5176 20.586 90.5176 18.8039C90.5176 17.0218 88.8954 15.5637 86.7866 15.5637H79.4867C77.3779 15.5637 75.7557 17.0218 75.7557 18.8039Z" fill="#36353D"/>
<path d="M62.8096 63.0828L72.8428 65.7476L71.1752 72.0102L61.142 69.3455L62.8096 63.0828Z" fill="#E6E7E8"/>
<path d="M63.9998 0H126.683V76H63.9998V0Z" fill="#8E602F"/>
<path d="M124.444 0H178V76H124.444V0Z" fill="#BE9157"/>
<path d="M137.337 40.7759L149.318 43.9565L144.263 62.855L132.282 59.6743L137.337 40.7759Z" fill="#E6E7E8"/>
<path d="M80.7041 45.4626H111.357V48.2076H80.7041V45.4626Z" fill="#2D3235"/>
<path d="M80.7036 50.4387H111.356V53.1837H80.7036V50.4387Z" fill="#2D3235"/>
<path d="M80.7036 60.0457H111.356V62.7906H80.7036V60.0457Z" fill="#2D3235"/>
<path d="M80.7036 65.0203H111.356V67.7652H80.7036V65.0203Z" fill="#2D3235"/>
<path d="M94.1358 69.8242H111.356V72.5691H94.1358V69.8242Z" fill="#2D3235"/>
<path opacity="0.5" d="M148.037 0H159.058V16.6411H148.037V0Z" fill="#754C29"/>
<path d="M310.874 274.528V380H0.252441V76H215.657V274.528H310.874Z" fill="#33281D"/>
<path d="M311 274.183H219.582V380H311V274.183Z" fill="#BE9157"/>
<path d="M215.657 76H124.476V380H215.657V76Z" fill="#BE9157"/>
<path d="M124.475 76H64.4443V380H124.475V76Z" fill="#8E602F"/>
<path d="M60.2833 76H0.252441V380H60.2833V76Z" fill="#8E602F"/>
<path d="M310.874 324.326H124.476V326.346H310.874V324.326Z" fill="#8E602F"/>
<path d="M124.223 324.327H0V326.347H124.223V324.327Z" fill="#5B422C"/>
<path d="M271 272H124V274H271V272Z" fill="#8E602F"/>
<path d="M124.223 274.207H0V276.227H124.223V274.207Z" fill="#5B422C"/>
<path d="M215.997 223.965H124.58V225.758H215.997V223.965Z" fill="#8E602F"/>
<path d="M271 211H216V212H271V211Z" fill="#8E602F"/>
<path d="M124.223 224.087H0V226.107H124.223V224.087Z" fill="#5B422C"/>
<path d="M215.997 173.747H124.579V175.54H215.997V173.747Z" fill="#8E602F"/>
<path d="M124.223 173.967H0V175.987H124.223V173.967Z" fill="#5B422C"/>
<path d="M215.997 123.528H86.4868V126.218H215.997V123.528Z" fill="#8E602F"/>
<path d="M124.579 123.528H0V126.218H124.579V123.528Z" fill="#5B422C"/>
<path d="M178 73H86V76H178V73Z" fill="#8E602F"/>
<path d="M124.579 73H0V75.6903H124.579V73Z" fill="#5B422C"/>
<path opacity="0.5" d="M98.1186 76H86.1377V87.8671H98.1186V76Z" fill="#754C29"/>
<path opacity="0.7" d="M210.992 110.971H195.605V120.692H210.992V110.971Z" fill="#E6E7E8"/>
<path opacity="0.7" d="M210.992 160.08H195.605V169.801H210.992V160.08Z" fill="#E6E7E8"/>
<path opacity="0.7" d="M210.992 209.821H195.605V219.541H210.992V209.821Z" fill="#E6E7E8"/>
<path opacity="0.7" d="M210.992 260.824H195.605V270.545H210.992V260.824Z" fill="#E6E7E8"/>
<path opacity="0.7" d="M239.619 282.665H224.233V292.386H239.619V282.665Z" fill="#E6E7E8"/>
<path opacity="0.7" d="M147.052 310.438H131.666V320.159H147.052V310.438Z" fill="#E6E7E8"/>
<path opacity="0.7" d="M139.728 359.636L135.867 368.556L149.985 374.679L153.846 365.76L139.728 359.636Z" fill="#E6E7E8"/>
<path opacity="0.7" d="M239.619 367.123H224.233V376.844H239.619V367.123Z" fill="#E6E7E8"/>
<path opacity="0.5" d="M98.1186 125.741H86.1377V137.608H98.1186V125.741Z" fill="#754C29"/>
<path opacity="0.5" d="M98.1186 175.861H86.1377V187.728H98.1186V175.861Z" fill="#754C29"/>
<path opacity="0.5" d="M98.1186 226.106H86.1377V237.974H98.1186V226.106Z" fill="#754C29"/>
<path opacity="0.5" d="M98.1186 275.595H86.1377V287.462H98.1186V275.595Z" fill="#754C29"/>
<path opacity="0.5" d="M98.1186 326.598H86.1377V338.465H98.1186V326.598Z" fill="#754C29"/>
<path opacity="0.5" d="M36.1953 76H24.2144V87.8671H36.1953V76Z" fill="#754C29"/>
<path opacity="0.5" d="M36.1953 125.741H24.2144V137.608H36.1953V125.741Z" fill="#754C29"/>
<path opacity="0.5" d="M36.1953 175.861H24.2144V187.728H36.1953V175.861Z" fill="#754C29"/>
<path opacity="0.5" d="M36.1953 226.106H24.2144V237.974H36.1953V226.106Z" fill="#754C29"/>
<path opacity="0.5" d="M36.1953 275.595H24.2144V287.462H36.1953V275.595Z" fill="#754C29"/>
<path opacity="0.5" d="M36.1953 326.598H24.2144V338.465H36.1953V326.598Z" fill="#754C29"/>
</svg>
