<svg width="306" height="416" viewBox="0 0 306 416" fill="none" xmlns="http://www.w3.org/2000/svg">
<path d="M262.176 0H300V338H262.176V0Z" fill="#0B8944"/>
<path d="M296.329 16.5063H298.109V326.995H296.329V16.5063Z" fill="#0A7237"/>
<path d="M293.437 16.5063H295.217V326.995H293.437V16.5063Z" fill="#0A7237"/>
<path d="M290.507 16.5063H292.287V326.995H290.507V16.5063Z" fill="#0A7237"/>
<path d="M287.615 16.5063H289.395V326.995H287.615V16.5063Z" fill="#0A7237"/>
<path d="M284.722 16.5063H286.502V326.995H284.722V16.5063Z" fill="#0A7237"/>
<path d="M281.793 16.5063H283.573V326.995H281.793V16.5063Z" fill="#0A7237"/>
<path d="M278.9 16.5063H280.68V326.995H278.9V16.5063Z" fill="#0A7237"/>
<path d="M276.008 16.5063H277.788V326.995H276.008V16.5063Z" fill="#0A7237"/>
<path d="M273.115 16.5063H274.895V326.995H273.115V16.5063Z" fill="#0A7237"/>
<path d="M270.186 16.5063H271.966V326.995H270.186V16.5063Z" fill="#0A7237"/>
<path d="M267.294 16.5063H269.073V326.995H267.294V16.5063Z" fill="#0A7237"/>
<path d="M264.401 16.5063H266.181V326.995H264.401V16.5063Z" fill="#0A7237"/>
<path d="M262.176 0H47V338H262.176V0Z" fill="#00A651"/>
<path d="M67.885 16.5063H57.759V326.995H67.885V16.5063Z" fill="#0B8944"/>
<path d="M84.3391 16.5063H74.2131V326.995H84.3391V16.5063Z" fill="#0B8944"/>
<path d="M101.005 16.5063H90.8794V326.995H101.005V16.5063Z" fill="#0B8944"/>
<path d="M117.46 16.5063H107.334V326.995H117.46V16.5063Z" fill="#0B8944"/>
<path d="M133.914 16.5063H123.788V326.995H133.914V16.5063Z" fill="#0B8944"/>
<path d="M150.58 16.5063H140.454V326.995H150.58V16.5063Z" fill="#0B8944"/>
<path d="M167.035 16.5063H156.909V326.995H167.035V16.5063Z" fill="#0B8944"/>
<path d="M154.588 0H152.479V338H154.588V0Z" fill="#0A7237"/>
<path d="M183.489 16.5063H173.363V326.995H183.489V16.5063Z" fill="#0B8944"/>
<path d="M199.944 16.5063H189.818V326.995H199.944V16.5063Z" fill="#0B8944"/>
<path d="M216.61 16.5063H206.484V326.995H216.61V16.5063Z" fill="#0B8944"/>
<path d="M233.064 16.5063H222.938V326.995H233.064V16.5063Z" fill="#0B8944"/>
<path d="M249.519 16.5063H239.393V326.995H249.519V16.5063Z" fill="#0B8944"/>
<path d="M183.489 156.685H163.238V181.838H183.489V156.685Z" fill="#0A7237"/>
<path d="M180.747 167.165H140.454V171.619H180.747V167.165Z" fill="#00A651"/>
<path d="M180.747 164.545H140.454V167.165H180.747V164.545Z" fill="#21B764"/>
<path d="M180.747 171.883H140.454V174.503H180.747V171.883Z" fill="#0A7237"/>
<path d="M233.786 346.301H137.089V355.349H233.786V346.301Z" fill="#332820"/>
<path d="M232.072 348.013V353.882H138.803V348.013H232.072ZM235.255 344.833H135.375V357.061H235.255V344.833Z" fill="#96724B"/>
<path d="M156.428 183.916H72.9509V361.952H156.428V183.916Z" fill="#9F7238"/>
<path d="M172 322.824L156.428 362.442V183.917H172V322.824Z" fill="#865828"/>
<path d="M118.974 243.099H2.448V410.131H118.974V243.099Z" fill="#BE9157"/>
<path opacity="0.7" d="M27.7282 372.636L23.8672 381.556L37.9854 387.679L41.8465 378.76L27.7282 372.636Z" fill="#E6E7E8"/>
<path d="M166 243H119V410H166V243Z" fill="#8E602F"/>
<path d="M131.214 124H14.688V221.333H131.214V124Z" fill="#BE9157"/>
<path d="M144.923 124H127.297V225.001H144.923V124Z" fill="#8E602F"/>
<path opacity="0.5" d="M37.9445 259.973H30.1108V243.099L37.9445 243.344V259.973Z" fill="#754C29"/>
<path opacity="0.5" d="M95.228 265.354L87.6392 265.109V243.099L95.228 243.344V265.354Z" fill="#754C29"/>
<path d="M153.246 213.997H141.006V230.382H153.246V213.997Z" fill="#1A2026"/>
<path d="M153.001 408.907C153.001 411.108 155.204 412.82 157.897 412.82H238.682C241.375 412.82 243.578 411.108 243.578 408.907C243.578 406.706 241.375 404.994 238.682 404.994H157.897C155.204 404.994 153.001 406.706 153.001 408.907Z" fill="#282B33"/>
<path d="M172.83 284.673H166.465V291.031H172.83V284.673Z" fill="#33373B"/>
<path d="M172.83 220.843H166.465V227.202H172.83V220.843Z" fill="#33373B"/>
<path d="M147.615 408.173H243.578V380.049L233.786 323.557L216.16 307.661H147.615V408.173Z" fill="#DF5914"/>
<path d="M199.269 408.173H236.234V380.049L226.442 323.557L209.061 307.661H199.269V408.173Z" fill="#F27532"/>
<path d="M199.758 329.426V307.661H216.16L233.786 323.557L234.765 329.426H199.758Z" fill="#33373B"/>
<path d="M192.169 329.426V307.661H208.816L226.197 323.557L227.421 329.426H192.169Z" fill="#45454C"/>
<path d="M220.566 380.049H248.229V408.662H147.615V307.661H209.305L220.566 380.049Z" fill="#45454C"/>
<path d="M192.904 307.661H166.71V315.486H192.904V307.661Z" fill="#F27532"/>
<path d="M238.195 289.164L217.947 314.005L222.123 317.402L242.371 292.561L238.195 289.164Z" fill="#33373B"/>
<path d="M233.297 284.917C226.687 292.743 224.484 301.792 228.156 304.971C231.828 308.15 240.396 304.237 247.005 296.412L233.297 284.917Z" stroke="#33373B" stroke-width="1.5111" stroke-miterlimit="10"/>
<path d="M166.465 188.318H147.615V408.662H166.465V188.318Z" fill="#282B33"/>
<path d="M194.373 396.924H166.71V394.234H191.435V315.487H194.373V396.924Z" fill="#282B33"/>
<path d="M248.229 380.049H240.64V408.173H248.229V380.049Z" fill="#33373B"/>
<path d="M192.904 311.085H166.71V315.487H192.904V311.085Z" fill="#DF5914"/>
<path d="M136.6 222.311V200.791H148.105V231.849H135.131H50.4294V222.311H136.6Z" fill="#33373B"/>
<path d="M184.821 372.513L170.558 380.604L171.525 382.305L185.788 374.214L184.821 372.513Z" fill="#1E2026"/>
<path d="M184.713 368.4L170.45 376.491L171.417 378.192L185.68 370.101L184.713 368.4Z" fill="#1E2026"/>
<path d="M184.926 364.367L170.663 372.456L171.63 374.157L185.893 366.068L184.926 364.367Z" fill="#1E2026"/>
<path d="M184.949 360.476L170.686 368.567L171.653 370.268L185.916 362.177L184.949 360.476Z" fill="#1E2026"/>
<path d="M171.606 366.355L170.627 364.644L185.07 356.573L186.05 358.285L171.606 366.355Z" fill="#1E2026"/>
<path d="M171.606 362.442L170.627 360.73L185.07 352.66L186.05 354.372L171.606 362.442Z" fill="#1E2026"/>
<path d="M72.4614 124H69.7686V222.311H72.4614V124Z" fill="#96724B"/>
<path d="M129.745 222.801H15.4226V231.361H129.745V222.801Z" fill="#332820"/>
<path d="M128.032 224.268V229.648H16.8917V224.268H128.032ZM131.214 221.089H13.7092V232.828H131.214V221.089Z" fill="#A57F49"/>
<path d="M75.6437 222.312H66.0964V232.094H75.6437V222.312Z" fill="#A57F49"/>
<path opacity="0.5" d="M47.0022 124H39.4133V221.089H47.0022V124Z" fill="#754C29"/>
<path opacity="0.5" d="M104.04 124H96.4514V221.089H104.04V124Z" fill="#754C29"/>
<path fill-rule="evenodd" clip-rule="evenodd" d="M276.137 218.887C279.074 221.088 288.621 223.534 283.236 219.376C277.85 215.464 270.017 211.551 268.793 213.018C267.569 214.73 276.137 218.887 276.137 218.887Z" fill="#34215C"/>
<path d="M295.476 404.016C297.189 404.261 296.21 412.576 296.21 412.576H268.792C268.792 412.576 267.079 410.375 268.548 408.174C269.527 406.951 277.116 404.016 279.319 403.772C281.767 403.527 285.684 404.994 288.866 404.994C292.048 404.994 293.517 403.527 295.476 404.016Z" fill="#C6C5DD"/>
<path d="M268.302 411.353C268.058 411.353 267.568 411.353 267.323 411.353V410.131C277.36 410.131 296.21 409.152 296.21 409.152V410.375C296.21 410.62 278.584 411.353 268.302 411.353Z" fill="#4E4C68"/>
<path opacity="0.4" d="M286.173 404.75C286.173 404.75 276.871 407.685 274.667 408.663C272.464 409.641 274.178 412.576 274.667 412.576H269.527C269.527 412.576 266.834 408.907 270.261 407.195C273.443 405.484 278.339 404.261 278.339 404.261H286.173V404.75Z" fill="#4E4C68"/>
<path fill-rule="evenodd" clip-rule="evenodd" d="M280.298 218.154C280.298 218.154 278.094 215.464 277.115 213.263C277.115 213.263 296.21 205.926 302.085 220.11C302.085 220.11 303.554 225.001 300.371 233.072C298.168 238.941 293.027 239.675 293.027 239.675L280.298 218.154Z" fill="#34215C"/>
<path opacity="0.6" fill-rule="evenodd" clip-rule="evenodd" d="M294.007 238.696C294.007 238.696 298.168 233.071 293.762 228.914C289.6 224.757 290.335 231.36 290.335 231.36L294.007 238.696Z" fill="#632525"/>
<path opacity="0.6" fill-rule="evenodd" clip-rule="evenodd" d="M276.381 212.773C282.501 214.485 288.377 220.355 288.621 223.289C288.621 223.289 285.684 222.311 282.012 221.088L278.829 218.154C278.829 217.909 275.647 213.507 276.381 212.773Z" fill="#632525"/>
<path fill-rule="evenodd" clip-rule="evenodd" d="M282.011 250.19C281.766 250.19 281.521 250.19 281.521 249.945C281.277 249.701 281.277 249.456 281.277 249.212L281.766 245.299C281.521 245.299 281.521 245.299 281.277 245.299C279.563 245.299 276.87 244.81 275.646 242.853C273.688 239.919 273.688 235.272 274.422 231.848C273.688 231.359 272.219 230.381 272.219 229.158C272.219 227.691 273.688 226.713 274.667 226.224C275.157 225.979 275.891 225.49 275.891 225.49C275.891 225.245 276.136 224.756 276.381 224.267C277.115 222.555 278.094 219.621 280.053 218.153C280.297 217.909 280.297 217.909 280.542 217.909H280.787C281.032 217.909 285.193 219.131 287.886 222.8C288.131 223.044 288.131 223.289 287.886 223.533L285.683 228.425L287.152 229.158C287.886 228.18 289.11 227.446 290.579 227.446C293.027 227.446 294.986 229.403 294.986 231.848C294.986 233.316 294.251 234.538 293.272 235.272C293.762 239.674 294.251 242.12 294.496 244.076C294.741 245.788 294.986 246.766 294.986 248.234C294.986 248.723 294.741 248.967 294.251 248.967C293.762 248.967 282.011 250.19 282.011 250.19Z" fill="#EFC49B"/>
<path d="M291.069 236.74C291.069 236.74 290.824 236.74 290.58 236.74H289.6V235.273H290.58C291.069 235.273 291.069 235.273 291.559 235.028L292.293 234.784L293.028 236.251L292.293 236.496C291.804 236.74 291.559 236.74 291.069 236.74Z" fill="#BC8A68"/>
<path d="M280.298 228.425C280.974 228.425 281.522 227.878 281.522 227.202C281.522 226.527 280.974 225.979 280.298 225.979C279.622 225.979 279.074 226.527 279.074 227.202C279.074 227.878 279.622 228.425 280.298 228.425Z" fill="#231212"/>
<path fill-rule="evenodd" clip-rule="evenodd" d="M280.543 223.778C281.277 224.267 281.767 224.512 282.501 225.001C282.746 225.246 282.991 225.49 282.746 225.735C282.501 225.979 282.256 226.224 282.012 225.979C281.522 225.49 280.788 225.001 280.053 224.757C279.319 224.267 279.808 223.289 280.543 223.778Z" fill="#632525"/>
<g opacity="0.7">
<path opacity="0.7" fill-rule="evenodd" clip-rule="evenodd" d="M276.381 225.736C276.871 224.513 278.095 220.6 280.298 218.644C280.298 218.644 282.012 219.133 283.97 220.355C283.236 221.578 298.169 230.627 294.741 234.295C294.496 234.54 281.522 224.513 281.277 224.757C279.319 228.426 278.829 231.116 278.829 236.741C278.584 244.566 287.397 242.855 287.397 242.855L288.132 244.566L293.517 243.099L294.252 245.545L287.642 247.257C287.642 247.257 284.704 247.99 282.012 248.479L282.501 244.566C282.501 244.566 277.85 245.3 275.892 242.61C273.933 239.675 273.933 234.784 274.912 231.605C274.912 231.605 272.709 230.627 272.464 229.404C272.709 227.448 275.892 226.958 276.381 225.736Z" fill="#C9976F"/>
</g>
<path fill-rule="evenodd" clip-rule="evenodd" d="M273.933 236.985C275.157 237.474 276.381 237.718 277.605 237.229C278.339 236.985 278.584 238.208 277.85 238.452C276.381 238.941 274.912 238.697 273.443 238.208C272.709 237.963 273.198 236.74 273.933 236.985Z" fill="#A87756"/>
<path fill-rule="evenodd" clip-rule="evenodd" d="M276.626 259.484C276.626 259.484 277.36 258.016 281.032 256.304C284.704 254.592 285.194 254.103 285.194 254.103C285.194 254.103 285.194 252.881 286.907 250.68C287.397 249.946 289.845 249.212 291.803 248.723C294.496 248.234 296.21 249.212 296.21 249.212C297.679 248.968 296.455 248.234 294.741 247.745C291.069 246.522 280.787 250.19 280.298 250.435L276.626 259.484Z" fill="#13658E"/>
<path fill-rule="evenodd" clip-rule="evenodd" d="M295.72 398.88L278.584 399.614L295.72 398.88Z" fill="#47595F" stroke="#334144" stroke-width="0.8023" stroke-miterlimit="10"/>
<path fill-rule="evenodd" clip-rule="evenodd" d="M276.136 261.685C277.115 257.528 277.605 252.636 280.543 249.702C280.543 249.702 285.194 248.479 288.376 247.501C294.741 245.544 297.679 248.479 298.903 251.658C299.148 251.903 299.148 252.392 299.392 252.881C300.127 255.082 300.127 256.794 300.127 256.794C300.372 257.528 299.882 277.337 299.637 292.254V292.744C299.637 292.744 299.637 292.744 299.637 292.988C299.637 297.146 299.392 303.259 299.148 307.661C299.148 308.884 298.903 310.107 298.903 311.085C296.944 338.231 293.762 351.926 294.986 366.11C296.455 380.294 295.72 402.794 295.72 402.794H279.319C278.829 400.837 274.423 374.425 274.423 355.594L273.688 320.867C273.443 315.732 274.423 274.891 275.157 270.978L276.136 261.685Z" fill="#B57518"/>
<path d="M249.208 286.874H244.802C244.802 285.407 243.578 284.184 242.109 284.184C240.64 284.184 239.416 285.407 239.416 286.874H235.01C235.01 282.961 238.192 279.782 242.109 279.782C246.026 279.782 249.208 282.961 249.208 286.874Z" fill="#EFC49B"/>
<path fill-rule="evenodd" clip-rule="evenodd" d="M273.443 321.111C273.199 315.975 274.178 275.135 274.912 271.222L275.157 269.999C280.298 268.532 286.663 271.955 286.663 271.955C286.663 271.955 281.277 303.748 283.235 350.458C285.194 393.255 286.663 402.548 286.907 403.771L279.319 402.303C278.829 400.347 274.423 374.669 274.423 356.082L273.443 321.111Z" fill="#915813"/>
<path fill-rule="evenodd" clip-rule="evenodd" d="M282.011 249.457L285.193 248.723L284.704 254.348L277.605 261.929C277.605 261.929 276.381 261.195 276.381 260.706C276.381 260.462 278.339 256.793 278.339 256.304C278.339 255.815 279.318 251.658 279.808 250.924C280.297 250.19 282.011 249.457 282.011 249.457Z" fill="#915813"/>
<path fill-rule="evenodd" clip-rule="evenodd" d="M278.339 263.397C278.339 263.397 281.277 253.37 288.376 250.925C298.168 247.746 299.148 257.528 297.434 275.38C295.965 293.233 295.72 297.146 295.72 297.146L278.339 296.901V263.397Z" fill="#ADCDD8"/>
<path opacity="0.4" fill-rule="evenodd" clip-rule="evenodd" d="M278.339 269.755C282.501 270 286.663 271.956 286.663 271.956C286.663 271.956 285.194 281.739 283.97 296.412L279.074 296.656L278.339 269.755Z" fill="#4D5E63"/>
<path fill-rule="evenodd" clip-rule="evenodd" d="M292.783 255.082C289.845 249.946 283.236 254.593 283.236 254.593C278.829 257.772 272.464 268.777 266.589 272.934C256.063 280.026 247.495 280.515 247.495 280.515L248.719 288.586C258.511 290.053 266.344 289.319 271.975 286.874C283.725 281.494 288.132 270.244 288.132 270.244L292.783 255.082Z" fill="#ADCDD8"/>
<path fill-rule="evenodd" clip-rule="evenodd" d="M276.871 216.686C281.767 219.376 289.356 221.577 283.725 217.664C278.34 213.751 270.506 209.838 269.282 211.306C269.037 211.55 268.303 213.018 268.303 213.018C268.303 213.018 271.975 213.996 276.871 216.686Z" fill="#664E9B"/>
<path fill-rule="evenodd" clip-rule="evenodd" d="M275.891 214.975C278.094 211.551 281.522 208.861 285.683 207.638C294.496 205.437 303.309 210.573 305.512 219.377C306.981 225.246 305.023 231.116 301.106 235.273C296.454 230.626 288.376 222.067 275.891 214.975Z" fill="#9266EC"/>
<path opacity="0.4" fill-rule="evenodd" clip-rule="evenodd" d="M248.229 283.94C267.323 285.407 284.704 274.158 287.397 272.446C285.928 274.891 283.235 279.293 278.584 282.962C274.177 285.163 268.792 287.364 263.896 289.076C259.489 289.565 254.593 289.565 248.963 288.586L248.229 283.94Z" fill="#4D5E63"/>
<path opacity="0.3" fill-rule="evenodd" clip-rule="evenodd" d="M285.684 207.638C290.825 206.415 295.966 207.638 299.638 210.572C294.742 211.306 289.601 214.485 286.173 221.333C286.173 221.333 286.173 221.577 285.929 221.577C282.991 219.376 279.564 216.931 275.647 214.974C277.85 211.551 281.277 208.86 285.684 207.638Z" fill="#221A50"/>
</svg>
