<svg width="313" height="409" viewBox="0 0 313 409" fill="none" xmlns="http://www.w3.org/2000/svg">
<path d="M311.685 0H103V357H311.685V0Z" fill="#8E2F2F"/>
<path d="M312 0H158.319V357H312V0Z" fill="#BE5757"/>
<path d="M304.682 8.07178H165.559V193.725H304.682V8.07178Z" fill="#653B3B"/>
<path d="M304.682 54.7002H165.794V66.9255H304.682V54.7002Z" fill="#ABC5E6"/>
<path d="M304.682 127.974H165.794V140.199H304.682V127.974Z" fill="#ABC5E6"/>
<path d="M229.061 240.04H223.631V273.111H229.061V240.04Z" fill="#8E2F2F"/>
<path d="M246.294 240.04H240.865V273.111H246.294V240.04Z" fill="#8E2F2F"/>
<path d="M177.125 11.1284H165.558V54.7008H177.125V11.1284Z" fill="white" stroke="#617390"/>
<path d="M183.421 19.1216H177.125V54.7005H183.421V19.1216Z" fill="white" stroke="#617390"/>
<path d="M199.237 14.8115H189.716V54.7006H199.237V14.8115Z" fill="#ABC5E6" stroke="#617390"/>
<path d="M205.139 14.8115H195.618V54.7006H205.139V14.8115Z" fill="white" stroke="#617390"/>
<path d="M189.716 9.01221H183.421V54.7005H189.716V9.01221Z" fill="white" stroke="#617390"/>
<path d="M248.891 149.682H237.323V193.254H248.891V149.682Z" fill="white" stroke="#617390"/>
<path d="M237.953 149.682H219.854V193.254H237.953V149.682Z" fill="#ABE6C5" stroke="#617390"/>
<path d="M255.186 157.676H248.891V193.255H255.186V157.676Z" fill="white" stroke="#617390"/>
<path d="M261.481 147.566H255.186V193.254H261.481V147.566Z" fill="white" stroke="#617390"/>
<path d="M282.649 13.5571H271.082V54.7001H282.649V13.5571Z" fill="white" stroke="#617390"/>
<path d="M271.081 13.5571H246.923V54.7001H271.081V13.5571Z" fill="#ABE6BA" stroke="#617390"/>
<path d="M288.944 13.5571H282.648V54.7001H288.944V13.5571Z" fill="white" stroke="#617390"/>
<path d="M304.76 13.5571H295.239V54.7001H304.76V13.5571Z" fill="white" stroke="#617390"/>
<path d="M295.239 13.5571H288.944V54.7001H295.239V13.5571Z" fill="white" stroke="#617390"/>
<path d="M183.972 86.8311H172.404V127.974H183.972V86.8311Z" fill="white" stroke="#617390"/>
<path d="M172.326 86.8315H165.794V127.975H172.326V86.8315Z" fill="#D0E6AB" stroke="#617390"/>
<path d="M190.267 86.8311H183.972V127.974H190.267V86.8311Z" fill="white" stroke="#617390"/>
<path d="M206.083 86.8311H196.562V127.974H206.083V86.8311Z" fill="white" stroke="#617390"/>
<path d="M196.562 93.1787H190.267V127.974H196.562V93.1787Z" fill="white" stroke="#617390"/>
<path d="M274.656 111.708V105.438L217.606 105.438V111.708L274.656 111.708Z" fill="#DFABE6" stroke="#617390"/>
<path d="M297.379 111.725V105.456L240.329 105.456V111.725L297.379 111.725Z" fill="white" stroke="#617390"/>
<path d="M279.404 127.501V118.018L222.354 118.018V127.501L279.404 127.501Z" fill="#85B0E6" stroke="#617390"/>
<path d="M297.413 127.433V117.95L240.363 117.95V127.433L297.413 127.433Z" fill="white" stroke="#617390"/>
<path d="M275.63 117.961V111.691L227.394 111.691V117.961L275.63 117.961Z" fill="#ABC5E6" stroke="#617390"/>
<path d="M292.979 118.002V111.732L244.743 111.732V118.002L292.979 118.002Z" fill="white" stroke="#617390"/>
<path d="M221.801 178.012V171.743H171.519V178.012H221.801Z" fill="#E198E6" stroke="#617390"/>
<path d="M228.732 178.006V171.736H187.42V178.006H228.732Z" fill="white" stroke="#617390"/>
<path d="M226.523 193.752V184.27H169.473V193.752H226.523Z" fill="#B1ABE6" stroke="#617390"/>
<path d="M228.766 193.713V184.231H187.454V193.713H228.766Z" fill="white" stroke="#617390"/>
<path d="M222.75 184.291V178.022H174.513V184.291H222.75Z" fill="#E6D2AB" stroke="#617390"/>
<path d="M224.333 184.282V178.013H191.912V184.282H224.333Z" fill="white" stroke="#617390"/>
<path d="M142.922 339.454C145.205 339.454 147.055 337.604 147.055 335.322C147.055 333.04 145.205 331.19 142.922 331.19C140.639 331.19 138.789 333.04 138.789 335.322C138.789 337.604 140.639 339.454 142.922 339.454Z" fill="#A3A5A7"/>
<path d="M142.922 338.352C144.596 338.352 145.953 336.996 145.953 335.322C145.953 333.649 144.596 332.292 142.922 332.292C141.248 332.292 139.891 333.649 139.891 335.322C139.891 336.996 141.248 338.352 142.922 338.352Z" fill="#E4E8EA"/>
<path fill-rule="evenodd" clip-rule="evenodd" d="M141.636 338.628L140.717 337.709L139.707 336.791V335.965L115.458 326.783L116.56 323.752L140.901 332.935L141.452 332.292L142.83 332.2H144.116L145.034 333.118L146.045 333.945V335.322L146.137 336.608L145.218 337.618L144.3 338.536H143.014L141.636 338.628Z" fill="#68696B"/>
<path d="M142.922 337.159C143.937 337.159 144.759 336.337 144.759 335.322C144.759 334.308 143.937 333.486 142.922 333.486C141.907 333.486 141.085 334.308 141.085 335.322C141.085 336.337 141.907 337.159 142.922 337.159Z" fill="#A6A9AD"/>
<path fill-rule="evenodd" clip-rule="evenodd" d="M122.071 327.793H110.039C109.488 327.793 109.028 327.334 109.028 326.783V323.753C109.028 323.202 109.488 322.743 110.039 322.743H122.071C122.622 322.743 123.082 323.202 123.082 323.753V326.783C123.082 327.334 122.622 327.793 122.071 327.793Z" fill="#292C2D"/>
<path d="M116.009 327.426C117.227 327.426 118.214 326.439 118.214 325.222C118.214 324.005 117.227 323.018 116.009 323.018C114.792 323.018 113.805 324.005 113.805 325.222C113.805 326.439 114.792 327.426 116.009 327.426Z" fill="#68696B"/>
<path fill-rule="evenodd" clip-rule="evenodd" d="M143.657 332.017H142.371H140.993L140.442 332.568L116.377 322.743L115.183 325.773L139.156 335.598V336.516L140.075 337.434L140.993 338.353H142.371H143.657L144.575 337.434L145.494 336.424V335.139V333.853L144.575 332.935L143.657 332.017Z" fill="#68696B"/>
<path fill-rule="evenodd" clip-rule="evenodd" d="M122.163 321.916L110.13 321.824C109.579 321.824 109.12 322.283 109.12 322.834V325.864C109.12 326.415 109.579 326.874 110.13 326.874L122.163 326.966C122.714 326.966 123.173 326.507 123.173 325.956V322.926C123.173 322.467 122.714 321.916 122.163 321.916Z" fill="#292C2D"/>
<path d="M117.374 326.127C118.288 325.323 118.377 323.93 117.573 323.017C116.769 322.103 115.376 322.013 114.462 322.817C113.548 323.621 113.458 325.013 114.262 325.927C115.066 326.841 116.459 326.93 117.374 326.127Z" fill="#68696B"/>
<path fill-rule="evenodd" clip-rule="evenodd" d="M233.488 262.415C234.223 262.415 234.774 260.028 234.774 257.089C234.774 254.151 234.223 251.764 233.488 251.764C232.753 251.764 232.202 254.151 232.202 257.089C232.202 260.028 232.753 262.415 233.488 262.415Z" fill="#E4E8EA"/>
<path fill-rule="evenodd" clip-rule="evenodd" d="M222.649 268.567C223.935 267.924 225.589 261.497 225.589 261.497C223.66 260.119 222.282 258.375 222.557 256.538C223.2 252.039 230.549 250.661 234.223 250.937C234.223 251.488 233.763 262.874 233.488 262.966C233.212 263.058 229.263 262.69 228.436 262.415C227.609 262.139 227.426 262.139 227.426 262.139C227.426 262.139 226.691 264.802 225.405 267.19C224.027 269.577 223.017 270.495 223.017 270.495L222.006 268.842L222.649 268.567Z" fill="#868A91"/>
<path fill-rule="evenodd" clip-rule="evenodd" d="M230.548 252.131C230.457 252.498 230.365 255.62 230.365 255.62C229.722 255.62 223.292 256.722 223.2 256.63C223.108 256.447 223.66 254.886 226.14 253.6C228.711 252.131 230.548 252.131 230.548 252.131Z" fill="#A3A5A7"/>
<path fill-rule="evenodd" clip-rule="evenodd" d="M231.467 251.121C232.477 251.029 233.488 251.029 234.223 251.029C234.223 251.58 233.763 262.966 233.488 263.058C233.304 263.058 232.11 262.966 231.008 262.874L231.467 251.121Z" fill="#A6A9AD"/>
<path fill-rule="evenodd" clip-rule="evenodd" d="M225.68 263.609C225.68 263.517 215.76 235.695 214.658 227.89C213.923 223.023 214.566 218.616 215.117 214.576C215.485 212.096 215.76 209.709 215.76 207.505C215.76 204.567 215.668 202.73 215.209 201.629C214.842 200.619 214.107 200.343 212.729 200.251C209.974 200.159 206.483 205.852 206.483 205.852L205.84 205.485C205.84 205.485 209.606 199.425 212.821 199.517C214.474 199.608 215.393 200.068 215.944 201.353C216.403 202.547 216.495 204.475 216.495 207.505C216.495 209.801 216.128 212.188 215.852 214.667C215.301 218.708 214.658 223.023 215.393 227.798C216.495 235.511 226.323 263.333 226.415 263.425L225.68 263.609Z" fill="#A3A5A7"/>
<path fill-rule="evenodd" clip-rule="evenodd" d="M216.403 272.148L226.783 268.475L226.874 268.751L227.517 268.475C227.885 268.292 228.344 268.567 228.528 268.935C228.711 269.302 228.436 269.761 228.069 269.945L227.426 270.22L227.517 270.496L217.138 274.168L217.046 273.893L216.403 274.168C216.036 274.352 215.577 274.077 215.393 273.709C215.209 273.342 215.485 272.883 215.852 272.699L216.495 272.424L216.403 272.148Z" fill="#2F3031"/>
<path fill-rule="evenodd" clip-rule="evenodd" d="M68.8891 268.292C69.3483 268.384 69.7157 268.384 70.175 268.476C70.3587 268.476 70.5424 268.567 70.8179 268.567C71.0016 268.567 71.2772 268.659 71.4609 268.659C71.8283 268.751 72.1957 268.843 72.5631 268.843H72.655C80.095 270.496 86.8921 273.526 92.9543 277.658C93.0461 277.75 93.138 277.841 93.2299 277.841C93.5054 278.025 93.6891 278.209 93.9647 278.392C94.2402 278.576 94.4239 278.76 94.6995 278.943C94.7913 279.035 94.8832 279.127 94.975 279.127C100.854 283.534 105.905 289.044 109.855 295.471L109.947 295.563C110.131 295.93 110.314 296.206 110.498 296.573C110.59 296.757 110.682 296.941 110.774 297.124C110.865 297.308 110.957 297.491 111.049 297.675C111.233 298.042 111.417 298.41 111.6 298.777V298.869C114.356 304.194 116.377 310.071 117.387 316.223C118.397 322.467 118.489 328.711 117.479 334.771C117.387 335.139 117.387 335.598 117.295 335.965C117.295 336.149 117.203 336.332 117.203 336.608C117.203 336.792 117.111 337.067 117.111 337.251C117.02 337.618 116.928 337.985 116.928 338.352V338.444C115.274 345.882 112.243 352.677 108.11 358.737C108.018 358.829 107.926 358.921 107.926 359.013C107.742 359.288 107.559 359.472 107.375 359.747C107.191 360.023 107.008 360.206 106.824 360.482C106.732 360.574 106.64 360.665 106.64 360.757C102.231 366.634 96.7202 371.684 90.2906 375.632L90.1987 375.724C89.8313 375.908 89.5558 376.092 89.1884 376.275C89.0047 376.367 88.821 376.459 88.6372 376.551C88.4535 376.643 88.2698 376.734 88.0861 376.826C87.7187 377.01 87.3513 377.193 86.9839 377.377H86.8921C81.5646 380.132 75.6861 382.152 69.532 383.162C63.2861 384.264 57.0401 384.264 50.9779 383.254C50.6105 383.162 50.1512 383.162 49.7838 383.07C49.6001 383.07 49.4164 382.978 49.1409 382.978C48.9572 382.978 48.6816 382.886 48.4979 382.886C48.1305 382.795 47.7631 382.703 47.3957 382.703H47.3038C39.8638 381.05 33.0668 378.02 27.0045 373.888C26.9127 373.796 26.8208 373.704 26.729 373.704C26.4534 373.521 26.2697 373.337 25.9941 373.153C25.7186 372.97 25.5349 372.786 25.2593 372.602C25.1675 372.51 25.0756 372.419 24.9838 372.419C19.1052 368.011 14.0534 362.502 10.1037 356.074L10.0119 355.982C9.82818 355.615 9.64448 355.34 9.46077 354.972C9.36892 354.789 9.27707 354.605 9.18522 354.421C9.09337 354.238 9.00151 354.054 8.90966 353.871C8.72596 353.503 8.54225 353.136 8.35855 352.769V352.677C5.60299 347.351 3.58224 341.474 2.57187 335.322C1.5615 329.078 1.46965 322.834 2.48002 316.774C2.57187 316.407 2.57187 315.948 2.66372 315.581C2.66372 315.397 2.75557 315.213 2.75557 314.938C2.75557 314.754 2.84743 314.479 2.84743 314.295C2.93928 313.928 3.03113 313.56 3.03113 313.193V313.101C4.68447 305.664 7.71559 298.869 11.8489 292.808C11.9408 292.717 12.0326 292.625 12.0326 292.533C12.2163 292.258 12.4 292.074 12.5837 291.798C12.7674 291.523 12.9512 291.339 13.1349 291.064C13.2267 290.972 13.3186 290.88 13.3186 290.788C17.7275 284.912 23.2386 279.862 29.6682 275.913L29.7601 275.821C30.1275 275.638 30.403 275.454 30.7705 275.27C30.9542 275.179 31.1379 275.087 31.3216 274.995C31.5053 274.903 31.689 274.811 31.8727 274.719C32.2401 274.536 32.6075 274.352 32.9749 274.169H33.0668C38.3942 271.414 44.2727 269.394 50.4268 268.384C56.5809 267.374 62.8268 267.374 68.8891 268.292ZM58.7853 318.702C58.8772 318.702 58.969 318.702 59.0609 318.702L58.6935 318.335L58.4179 318.794C58.5098 318.794 58.6016 318.702 58.7853 318.702ZM58.4179 318.06L56.6727 316.315L56.489 317.784L58.0505 318.794L58.4179 318.06ZM56.3972 318.152L56.2135 319.621L56.3053 319.529C56.6727 319.253 57.132 319.07 57.5912 318.978L56.3972 318.152ZM59.7957 318.611C60.3468 318.611 60.8061 318.611 61.3572 318.702L60.7142 317.325L59.7957 318.611ZM62.8268 319.162L62.6431 318.611L62.1839 318.886C62.3676 318.978 62.5513 319.07 62.8268 319.162ZM62.5513 318.243L61.9083 315.856L60.9898 317.05L61.8164 318.702L62.5513 318.243ZM64.2046 319.988C64.3883 320.172 64.572 320.263 64.7557 320.447L64.8476 318.886L63.3779 319.437C63.7453 319.621 63.929 319.804 64.2046 319.988ZM65.3987 320.998C65.5824 321.182 65.6742 321.365 65.8579 321.457L66.0416 320.906L65.3987 320.998ZM66.0416 320.539L66.6846 318.152L65.3068 318.702L65.215 320.539H66.0416ZM66.2253 322.1L66.3172 322.192C66.5928 322.651 66.7765 323.018 66.9602 323.477L67.7868 322.284L66.2253 322.1ZM67.2357 324.671C67.2357 324.763 67.2357 324.855 67.3276 324.946L67.695 324.579L67.2357 324.304C67.1439 324.487 67.1439 324.579 67.2357 324.671ZM67.8787 324.304L69.6239 322.559L68.1542 322.375L67.1439 323.936L67.8787 324.304ZM67.3276 325.865C67.3276 326.324 67.3276 326.783 67.2357 327.15C67.2357 327.242 67.2357 327.242 67.2357 327.334L68.5216 326.691L67.3276 325.865ZM66.7765 328.711L67.2357 328.619L66.9602 328.252C66.8683 328.436 66.7765 328.527 66.7765 328.711ZM67.6031 328.527L69.8994 327.885L68.7972 326.966L67.1439 327.793L67.6031 328.527ZM66.5009 329.17L67.2357 330.823L68.7053 330.915L67.3276 328.895L66.5009 329.17ZM67.4194 331.282L67.9705 332.659L70.2668 333.302L68.9809 331.374L67.4194 331.282ZM70.8179 333.394L80.2787 335.873L74.8594 331.649L69.4402 331.282L70.8179 333.394ZM74.4002 331.282L70.2668 328.16L67.7868 328.803L69.2565 330.915L74.4002 331.282ZM66.0416 330.088C65.8579 330.364 65.6742 330.548 65.4905 330.731L66.8683 330.823L66.3172 329.629C66.2253 329.721 66.1335 329.905 66.0416 330.088ZM65.1231 331.099V331.925L67.4194 332.568L66.8683 331.282L65.1231 331.099ZM64.7557 331.466C64.6639 331.558 64.572 331.649 64.3883 331.741L64.7557 331.833V331.466ZM64.0209 332.017L63.7453 333.761L65.0313 334.588L64.8476 332.2L64.0209 332.017ZM63.6535 334.22L63.4698 335.69L65.1231 337.342L64.9394 335.047L63.6535 334.22ZM65.5824 337.71L72.4713 344.596L69.8994 338.352L65.3987 335.414L65.5824 337.71ZM69.6239 337.71L67.695 332.935L65.215 332.292L65.3987 334.863L69.6239 337.71ZM61.0816 333.119C60.9898 333.119 60.9898 333.119 60.8979 333.119L61.0816 333.302L61.2653 333.027C61.2653 333.119 61.1735 333.119 61.0816 333.119ZM61.449 333.67L63.1942 335.322L63.3779 333.945L61.9083 332.935H61.8164L61.449 333.67ZM63.3779 333.578L63.5616 332.292C63.1942 332.476 62.735 332.659 62.3676 332.843L63.3779 333.578ZM60.4387 333.21C60.3468 333.21 60.3468 333.21 60.255 333.21L59.2446 334.588L59.8875 335.873L60.9898 333.761L60.4387 333.21ZM59.0609 334.863L58.1424 336.057L58.7853 338.261L59.7957 336.241L59.0609 334.863ZM58.8772 338.812L61.449 348.178L62.3676 341.474L59.9794 336.7L58.8772 338.812ZM62.3676 340.832L63.0105 335.781L61.1735 333.945L60.0713 336.241L62.3676 340.832ZM59.7957 333.21C59.4283 333.21 59.0609 333.119 58.6016 333.119H58.5098L59.0609 334.22L59.7957 333.21ZM57.2238 332.659L57.3157 332.935L57.4994 332.751C57.4075 332.751 57.3157 332.751 57.2238 332.659ZM57.3157 333.302L57.9587 335.598L58.7853 334.496L58.0505 332.935H57.9587L57.3157 333.302ZM56.5809 332.384L55.0194 333.027L54.9275 334.404L56.8564 333.119L56.6727 332.476C56.6727 332.476 56.6727 332.476 56.5809 332.384ZM54.652 333.21L53.2742 333.761L52.7231 335.965L54.5601 334.771L54.652 333.21ZM52.5394 336.516L50.0594 345.882L54.1927 340.556L54.5601 335.231L52.5394 336.516ZM54.652 340.005L57.775 335.965L57.132 333.486L55.0194 334.863L54.652 340.005ZM55.7542 331.833C55.5705 331.649 55.3868 331.558 55.2031 331.374L55.1112 332.568L56.2135 332.109C56.0298 332.109 55.9379 332.017 55.7542 331.833ZM54.8357 331.099L54.7438 331.007H54.009L53.3661 333.302L54.652 332.751L54.8357 331.099ZM54.3764 330.639C54.2846 330.548 54.2846 330.456 54.1927 330.364L54.1009 330.639H54.3764ZM53.9172 329.997C53.9172 329.997 53.8253 329.905 53.9172 329.997L52.172 329.721L51.4372 330.823L53.8253 330.639L53.9172 329.997ZM51.7127 329.629L50.2431 329.446L48.6816 331.007L50.886 330.915L51.7127 329.629ZM48.2223 331.374L41.4253 338.261L47.5794 335.69L50.5186 331.282L48.2223 331.374ZM48.3142 335.414L52.9986 333.486L53.6416 331.007L51.1616 331.19L48.3142 335.414ZM52.7231 327.058C52.7231 326.967 52.7231 326.966 52.7231 326.875L52.5394 327.058L52.8149 327.242C52.8149 327.242 52.7231 327.15 52.7231 327.058ZM52.2638 327.426L50.6105 329.17L51.9883 329.354L52.9986 327.885V327.793L52.2638 327.426ZM52.3557 329.354L53.6416 329.538C53.4579 329.17 53.2742 328.711 53.0905 328.344L52.3557 329.354ZM52.6312 326.416L51.1616 325.314L49.9675 325.956L52.0801 327.058L52.6312 326.416ZM50.886 325.038L49.692 324.12L47.5794 324.671L49.6001 325.681L50.886 325.038ZM47.0283 324.763L37.7512 327.334L44.4564 328.252L49.2327 325.865L47.0283 324.763ZM45.0075 328.344L50.0594 328.987L51.8964 327.15L49.6001 326.048L45.0075 328.344ZM52.6312 325.865C52.6312 325.406 52.6312 325.038 52.7231 324.579V324.487L51.529 325.038L52.6312 325.865ZM53.1824 323.11L52.8149 323.202L52.9986 323.477C53.0905 323.385 53.1824 323.294 53.1824 323.11ZM52.4475 323.294L50.1512 323.936L51.2535 324.763L52.9068 323.936L52.4475 323.294ZM54.009 321.641C54.1009 321.457 54.2846 321.274 54.4683 321.09L53.0905 320.998L53.6416 322.284C53.7335 322.1 53.8253 321.916 54.009 321.641ZM55.1112 320.447C55.2031 320.355 55.3868 320.263 55.4786 320.08L55.0194 319.988L55.1112 320.447ZM54.7438 319.896L52.4475 319.253L52.9986 320.539L54.8357 320.631L54.7438 319.896ZM36.649 282.065H36.4653L36.0979 281.147L36.006 281.239C33.3423 282.708 30.7705 284.361 28.4741 286.197L29.0253 287.115V287.207L31.4134 290.788L46.3853 305.664L36.649 282.065ZM30.0356 289.411L28.6579 287.391H28.4741L27.923 286.565C27.8312 286.656 27.7393 286.748 27.5556 286.84L28.3823 287.666L28.2904 287.85L30.0356 289.411ZM46.6609 306.49L32.3319 292.258L43.5379 309.245L49.3246 313.101L46.6609 306.49ZM49.692 313.744L44.1808 310.071L49.6001 318.152L51.8046 318.702L49.692 313.744ZM48.9572 317.968L43.3542 309.428L21.4015 294.92H21.3097L20.2993 294.278C19.6564 295.104 19.0134 295.93 18.3704 296.849C18.003 297.308 17.7275 297.859 17.3601 298.41L18.1867 299.052V299.144L39.129 315.305L48.9572 317.968ZM27.0964 287.299C24.7082 289.319 22.5956 291.523 20.6667 293.91L21.5852 294.553V294.737L42.8031 308.786L31.046 291.064L28.1067 288.126H28.0149L27.0964 287.299ZM51.8964 319.162L49.7838 318.611L51.0698 320.539L52.5394 320.631L51.8964 319.162ZM52.6312 320.998L51.2535 320.906L52.5394 322.926L53.2742 322.743L52.6312 320.998ZM52.2638 323.018L50.886 320.906L45.7423 320.631L49.7838 323.753L52.2638 323.018ZM45.1912 320.172L50.6105 320.539L49.3246 318.519L39.8638 316.04L45.1912 320.172ZM52.172 318.886L54.652 319.529L54.4683 316.958L50.1512 314.111L52.172 318.886ZM49.9675 313.469L54.4683 316.499L54.2846 314.111L47.3038 307.225L49.9675 313.469ZM54.7438 314.387L54.9275 316.682L56.1216 317.509L56.3053 315.948L54.7438 314.387ZM56.0298 317.968L54.9275 317.233L55.1112 319.621L55.8461 319.804L56.0298 317.968ZM47.0283 306.215L54.3764 313.469L53.7335 303.184L41.9764 279.77H41.8845L41.3334 278.76C39.7719 279.402 38.2105 280.137 36.649 280.872L37.0164 281.882L36.9245 281.973L47.0283 306.215ZM41.9764 278.484L42.5275 279.494L42.3438 279.678L53.6416 302.266L52.3557 280.872L51.3453 277.199L51.2535 277.107L50.886 276.005C48.4979 276.464 46.0179 277.107 43.6297 277.933C43.0786 278.117 42.5275 278.301 41.9764 278.484ZM52.8149 282.616L54.1009 303.093L57.2238 309.428L58.1424 302.266L52.8149 282.616ZM57.132 310.071L54.1009 304.011L54.7438 313.836L56.3972 315.489L57.132 310.071ZM61.6327 276.372L61.449 276.28L61.5409 275.27C60.9898 275.27 60.4387 275.27 59.8875 275.27C57.4994 275.27 55.1112 275.454 52.7231 275.729C52.6312 275.729 52.4475 275.729 52.3557 275.821V276.831H52.4475L52.7231 280.78L58.3261 301.256L61.6327 276.372ZM52.172 279.035L52.0801 276.923L51.8964 276.831L51.8046 275.821C51.7127 275.821 51.529 275.821 51.4372 275.913L51.7127 277.015L51.6209 277.107L52.172 279.035ZM56.6727 315.856L58.5098 317.692L59.7038 315.397L57.4075 310.714L56.6727 315.856ZM57.4994 310.071L59.8875 314.938L60.9898 312.734L58.4179 303.184L57.4994 310.071ZM61.1735 313.285L60.1631 315.397L60.8061 316.774L61.7246 315.581L61.1735 313.285ZM60.5305 317.05L59.8875 315.764L58.7853 317.968L59.3364 318.519L60.5305 317.05ZM58.5098 302.266L61.2653 312.275L65.8579 303.001L67.4194 277.015L67.3276 276.923L67.4194 275.729C65.7661 275.454 64.0209 275.27 62.2757 275.27L62.092 276.372L62.0002 276.464L58.5098 302.266ZM68.7053 275.913C68.5216 275.913 68.3379 275.821 68.1542 275.821L68.0624 277.015L67.8787 277.107L66.3172 302.174L75.9617 282.892L76.8802 279.494L76.7883 279.402L77.0639 278.301C74.3083 277.199 71.5528 276.464 68.7053 275.913ZM75.5024 284.544L66.2253 303.093L65.7661 310.255L70.175 304.47L75.5024 284.544ZM65.3987 310.714L65.8579 303.919L61.449 312.734L62.092 315.03L65.3987 310.714ZM86.1572 283.81L86.0654 283.626L86.7084 282.708C84.1365 281.055 81.3809 279.678 78.4417 278.576L77.9824 279.494H77.8905L76.3291 282.892L70.8179 303.644L86.1572 283.81ZM76.7883 281.147L77.615 279.586L77.5231 279.494L77.9824 278.576C77.8906 278.576 77.7987 278.484 77.7068 278.484L77.4313 279.586H77.2476L76.7883 281.147ZM62.1839 315.489L62.8268 317.968L65.0313 316.499L65.3068 311.265L62.1839 315.489ZM65.7661 310.898L65.3987 316.407L67.4194 315.03L69.8994 305.48L65.7661 310.898ZM67.3276 315.489L65.3987 316.774L65.3068 318.335L66.7765 317.784L67.3276 315.489ZM64.9394 318.519L65.0313 317.05L63.0105 318.427L63.1942 319.253L64.9394 318.519ZM70.6342 304.654L67.9705 314.662L76.6046 308.877L90.9335 287.299V287.207L91.5765 286.197C90.7498 285.555 89.8313 284.912 89.0047 284.269C88.4535 283.902 87.9024 283.534 87.3513 283.167L86.6165 284.085H86.5246L70.6342 304.654ZM98.6491 293.084C96.6284 290.697 94.4239 288.585 92.0358 286.656L91.3928 287.575H91.2091L77.4313 308.418L95.5261 296.481L97.9143 294.094V294.002L98.6491 293.084ZM94.2402 297.675L76.972 309.153L72.9305 315.213L79.6357 312.459L94.2402 297.675ZM72.2876 315.489L76.1454 309.704L67.8787 315.213L67.2357 317.601L72.2876 315.489ZM103.609 302.542V302.358L104.711 301.899L104.62 301.807C103.15 299.144 101.497 296.573 99.5676 294.186L98.6491 294.829H98.5573L95.7099 296.665L80.4624 312.091L103.609 302.542ZM97.0876 295.38L98.3736 294.553V294.369L99.2921 293.727C99.2002 293.635 99.2002 293.635 99.1084 293.543L98.2817 294.369L98.098 294.278L97.0876 295.38ZM67.052 317.968L66.409 320.447L69.0728 320.263L71.9202 315.948L67.052 317.968ZM72.5631 315.764L69.532 320.355L72.012 320.172L78.9928 313.101L72.5631 315.764ZM71.5528 320.539L69.2565 320.723L68.3379 322.008L69.8994 322.192L71.5528 320.539ZM67.9705 322.008L68.7972 320.814L66.3172 320.998L66.1335 321.824L67.9705 322.008ZM79.8195 312.734L72.4713 320.08L82.8506 319.437L106.089 307.867V307.776L107.1 307.225C106.457 305.572 105.722 304.011 104.987 302.45L103.885 302.909L103.793 302.817L79.8195 312.734ZM107.467 307.867L106.457 308.418L106.365 308.327L83.9528 319.437L105.63 318.152L108.845 317.233L108.937 317.141L110.039 316.774C109.58 314.387 108.937 311.908 108.11 309.52C107.834 308.969 107.651 308.418 107.467 307.867ZM103.793 318.611L83.0343 319.896L76.5128 323.11L83.6772 324.028L103.793 318.611ZM75.778 323.018L82.0239 319.896L72.1039 320.539L70.3587 322.284L75.778 323.018ZM109.396 327.517L109.488 327.334L110.682 327.517C110.682 326.967 110.682 326.416 110.682 325.865C110.682 323.294 110.498 320.723 110.131 318.243L108.937 318.335L108.845 318.243L105.538 318.427L84.5958 324.212L109.396 327.517ZM107.375 317.968L108.845 317.876L108.937 317.692L110.131 317.601V317.509V317.325L109.028 317.601L108.937 317.509L107.375 317.968ZM70.0831 322.651L68.2461 324.487L70.5424 325.681L75.2268 323.385L70.0831 322.651ZM75.8698 323.477L71.0016 325.956L73.2061 327.058L82.7587 324.487L75.8698 323.477ZM72.655 327.15L70.5424 326.14L69.0728 326.875L70.2668 327.793L72.655 327.15ZM68.7972 326.507L70.175 325.865L67.9705 324.763L67.3276 325.406L68.7972 326.507ZM83.6772 324.487L73.6654 327.242L82.9424 331.833L108.937 333.394L109.028 333.302L110.222 333.394C110.498 331.741 110.682 329.997 110.682 328.252L109.396 328.068L109.304 327.977L83.6772 324.487ZM110.039 334.312C110.039 334.22 110.039 334.129 110.039 334.037L108.845 333.945L108.753 333.761L83.6772 332.2L102.966 341.842L106.365 342.76L106.457 342.668L107.559 342.944C108.845 340.189 109.58 337.251 110.039 334.312ZM101.405 341.383L82.8506 332.2L75.5024 331.741L81.1972 336.149L101.405 341.383ZM75.0431 331.374L82.0239 331.833L73.2061 327.426L70.8179 328.068L75.0431 331.374ZM101.864 352.034L102.048 351.942L103.058 352.677C104.711 350.014 106.089 347.259 107.191 344.413L106.089 343.862V343.77L103.058 342.209L82.0239 336.7L101.864 352.034ZM104.803 342.668L106.181 343.403L106.273 343.311L107.375 343.862C107.375 343.77 107.467 343.678 107.467 343.586L106.365 343.311V343.127L104.803 342.668ZM81.1054 336.516L71.1854 333.945L76.8802 342.485L98.6491 356.901H98.741L99.7513 357.543C100.302 356.901 100.854 356.166 101.313 355.432C101.772 354.789 102.231 354.054 102.691 353.32L101.68 352.493V352.401L81.1054 336.516ZM92.8624 364.614C95.2506 362.594 97.3632 360.39 99.2921 358.003L98.3736 357.36V357.176L77.3394 343.219L89.1884 361.124L91.8521 363.787H91.9439L92.8624 364.614ZM87.9024 359.839L76.6046 342.76L70.5424 338.72L73.2061 345.331L87.9024 359.839ZM70.175 338.077L75.9617 341.934L70.5424 333.761L68.1542 333.119L70.175 338.077ZM83.1261 369.572H83.3098L83.7691 370.766C83.8609 370.674 83.9528 370.674 84.0446 370.582L84.1365 370.49C86.7084 369.113 89.1884 367.46 91.4847 365.624L90.7498 364.522V364.43L88.7291 361.4L73.5735 346.157L83.1261 369.572ZM90.1987 362.685L91.2091 364.246H91.3928L92.1276 365.348C92.2195 365.257 92.3113 365.165 92.4032 365.165L91.5765 364.338L91.6684 364.155L90.1987 362.685ZM72.8387 345.515L65.5824 338.352L66.2253 348.545L77.9824 372.143H78.0743L78.6254 373.153C80.1869 372.511 81.7483 371.868 83.218 371.041L82.7587 369.848L82.8506 369.756L72.8387 345.515ZM77.9824 373.337L77.4313 372.327L77.5231 372.235L66.2253 349.463L67.5113 370.674L68.6135 374.622L68.7053 374.714L69.0728 375.816C71.4609 375.357 73.9409 374.714 76.3291 373.888C76.8802 373.796 77.4313 373.612 77.9824 373.337ZM67.052 368.929L65.7661 348.637L62.5513 342.209L61.6327 349.188L67.052 368.929ZM62.735 341.474L65.7661 347.627L65.1231 337.893L63.3779 336.149L62.735 341.474ZM58.1424 375.265L58.3261 375.357L58.1424 376.643C58.7853 376.643 59.3364 376.643 59.9794 376.643C62.3675 376.643 64.8476 376.459 67.1439 376.183C67.2357 376.183 67.3276 376.183 67.4194 376.183L67.3276 374.898L67.4194 374.806L67.1439 370.858L61.449 350.198L58.1424 375.265ZM67.695 372.511L67.7868 374.714L67.9705 374.806L68.0624 376.092C68.1542 376.092 68.3379 376.092 68.4298 376L68.1542 374.898L68.2461 374.806L67.695 372.511ZM61.2653 349.188L58.6016 339.363L54.1009 348.453L52.4475 374.898L52.5394 374.99L52.4475 376.183C54.1009 376.459 55.7542 376.551 57.4075 376.643L57.5912 375.357L57.6831 375.265L61.2653 349.188ZM51.2535 375.908C51.529 375.908 51.7127 376 51.8964 376L51.9883 374.806L52.172 374.714L53.7335 349.188L44.2727 368.103L43.1705 372.419L43.2623 372.511L42.9868 373.612C45.6505 374.714 48.406 375.449 51.2535 375.908ZM44.732 366.45L53.7335 348.361L54.1927 341.199L49.8757 346.8L44.732 366.45ZM54.5601 340.648L54.1009 347.443L58.4179 338.812L57.775 336.424L54.5601 340.648ZM33.6179 367.828L33.7097 368.011L32.9749 368.929C35.6386 370.582 38.3942 371.96 41.2416 373.153L41.7927 372.051H41.8845L43.8134 368.195L49.2327 347.627L33.6179 367.828ZM43.446 369.848L42.3438 372.051L42.4357 372.143L41.8845 373.245C42.0683 373.337 42.1601 373.337 42.3438 373.429L42.6194 372.327H42.8031L43.446 369.848ZM49.5083 346.617L52.0801 336.883L43.6297 342.485L28.9334 364.614V364.706L28.2904 365.716C29.1171 366.358 29.9438 367.001 30.7705 367.552C31.2297 367.919 31.7808 368.195 32.2401 368.562L32.9749 367.644H33.0668L49.5083 346.617ZM21.3097 358.829C23.3304 361.216 25.5349 363.328 27.923 365.257L28.566 364.338H28.7497L42.8949 342.944L25.3512 354.513L22.1364 357.819V357.911L21.3097 358.829ZM26.6371 353.228L43.446 342.117L47.3038 336.241L40.7823 338.903L26.6371 353.228ZM47.9468 335.965L44.2727 341.566L52.2638 336.241L52.9068 333.945L47.9468 335.965ZM16.166 349.004V349.188L15.1556 349.647C15.1556 349.738 15.2475 349.83 15.2475 349.922C16.6252 352.585 18.2786 355.064 20.2075 357.36L21.2178 356.717H21.3097L25.0756 354.238L39.8638 339.271L16.166 349.004ZM23.7897 355.523L21.4934 356.992V357.176L20.483 357.819C20.5749 357.911 20.6667 358.094 20.8504 358.186L21.6771 357.36L21.8608 357.452L23.7897 355.523ZM40.5986 338.628L47.6712 331.466L37.5675 332.109L13.8697 343.862V343.954L12.8593 344.505C13.5023 346.066 14.1452 347.535 14.88 349.004L15.9823 348.545L16.0741 348.637L40.5986 338.628ZM12.4919 343.954L13.5023 343.403L13.5941 343.495L36.5571 332.017L15.7067 333.394L11.2978 334.588L11.206 334.68L10.1037 335.047C10.563 337.434 11.206 339.913 12.0326 342.301C12.1245 342.852 12.3082 343.403 12.4919 343.954ZM17.4519 332.935L37.5675 331.741L43.8134 328.619L36.8327 327.701L17.4519 332.935ZM44.4564 328.619L38.486 331.558L48.1305 331.007L49.7838 329.354L44.4564 328.619ZM10.3793 324.028L10.2874 324.212L9.18522 324.028C9.18522 324.671 9.18522 325.222 9.18522 325.865C9.18522 328.252 9.36892 330.639 9.64448 332.935C9.64448 333.027 9.64448 333.119 9.64448 333.21L10.8386 333.119L10.9304 333.21L15.523 332.935L35.7305 327.426L10.3793 324.028ZM13.8697 333.486L11.1141 333.67L11.0223 333.853L9.92003 333.945C9.92003 334.129 10.0119 334.312 10.0119 334.496L11.1141 334.22L11.206 334.312L13.8697 333.486ZM36.7408 327.242L46.569 324.579L37.4757 320.08L11.0223 318.427L10.9304 318.519L9.73633 318.427C9.46077 320.08 9.36892 321.733 9.27707 323.385L10.3793 323.569L10.4711 323.661L36.7408 327.242ZM10.0119 317.141C10.0119 317.417 9.92003 317.601 9.92003 317.784L11.1141 317.876L11.206 318.06L36.7408 319.621L17.8193 310.163L13.5023 309.061L13.4104 309.153L12.3082 308.877C11.206 311.54 10.4711 314.295 10.0119 317.141ZM19.4726 310.622L37.5675 319.621L44.5483 320.08L38.9453 315.764L19.4726 310.622ZM45.0994 320.539L38.486 320.172L47.1201 324.487L49.3246 323.845L45.0994 320.539ZM17.9112 299.603L17.7275 299.695L16.9008 299.052C15.2475 301.623 13.8697 304.378 12.7674 307.225L13.7778 307.684V307.776L17.8193 309.796L38.1186 315.121L17.9112 299.603ZM16.0741 309.337L13.686 308.143L13.5941 308.235L12.6756 307.776C12.5837 307.959 12.5837 308.051 12.4919 308.235L13.5941 308.51V308.694L16.0741 309.337Z" fill="#292C2D"/>
<path fill-rule="evenodd" clip-rule="evenodd" d="M59.9796 272.057C89.7397 272.057 113.897 296.206 113.897 325.957C113.897 355.707 89.7397 379.856 59.9796 379.856C30.2196 379.856 6.0625 355.707 6.0625 325.957C6.0625 296.206 30.2196 272.057 59.9796 272.057ZM59.9796 275.546C32.1485 275.546 9.55288 298.134 9.55288 325.957C9.55288 353.779 32.1485 376.367 59.9796 376.367C87.8108 376.367 110.406 353.779 110.406 325.957C110.406 298.134 87.8108 275.546 59.9796 275.546Z" fill="#A6A9AD"/>
<path fill-rule="evenodd" clip-rule="evenodd" d="M59.9793 333.669C64.2963 333.669 67.7867 330.18 67.7867 325.864C67.7867 321.549 64.2963 318.06 59.9793 318.06C55.6622 318.06 52.1719 321.549 52.1719 325.864C52.1719 330.18 55.6622 333.669 59.9793 333.669Z" fill="#B8BABC"/>
<path fill-rule="evenodd" clip-rule="evenodd" d="M59.9793 319.804C63.3778 319.804 66.1334 322.559 66.1334 325.956C66.1334 329.354 63.3778 332.108 59.9793 332.108C56.5808 332.108 53.8252 329.354 53.8252 325.956C53.8252 322.559 56.5808 319.804 59.9793 319.804ZM59.9793 320.539C57.04 320.539 54.56 322.926 54.56 325.956C54.56 328.895 56.9482 331.374 59.9793 331.374C62.9185 331.374 65.3986 328.986 65.3986 325.956C65.3986 322.926 63.0104 320.539 59.9793 320.539Z" fill="#A3A5A7"/>
<path d="M59.9792 327.976C61.0953 327.976 62 327.072 62 325.956C62 324.84 61.0953 323.936 59.9792 323.936C58.8632 323.936 57.9585 324.84 57.9585 325.956C57.9585 327.072 58.8632 327.976 59.9792 327.976Z" fill="#68696B"/>
<path fill-rule="evenodd" clip-rule="evenodd" d="M5.32728 287.574C5.78654 287.574 6.15394 287.942 6.06209 288.401L5.87839 293.084C5.87839 293.543 5.51098 293.91 5.05172 293.818C4.59246 293.818 4.22505 293.451 4.3169 292.992L4.50061 288.309C4.50061 287.942 4.86802 287.574 5.32728 287.574Z" fill="#F17C21"/>
<path fill-rule="evenodd" clip-rule="evenodd" d="M59.8875 264.435C91.4846 264.435 120.969 290.329 120.969 322.283C120.969 324.12 120.877 325.864 120.694 327.701L116.193 327.058C116.377 325.497 116.377 323.936 116.377 322.283C116.377 292.716 91.0254 268.751 59.7957 268.751C34.4445 268.751 13.043 284.544 5.78668 306.214C5.23557 307.775 6.15409 304.653 5.78668 306.214C2.93927 309.887 1.37778 310.438 0 310.255C1.28593 304.562 3.30667 299.144 6.06223 294.277C5.87853 294.277 5.78668 294.277 5.69483 294.277C5.51112 294.277 5.05186 294.645 4.86816 294.553C4.68445 294.461 4.96001 287.574 5.23557 287.391C5.51112 287.207 6.33779 287.942 6.5215 288.309C6.7052 288.676 8.63409 289.778 8.72594 289.962V290.054C19.2889 274.536 37.2001 264.435 59.8875 264.435Z" fill="#B89C0A"/>
<path fill-rule="evenodd" clip-rule="evenodd" d="M262.697 268.292C263.156 268.384 263.523 268.384 263.983 268.476C264.166 268.476 264.35 268.567 264.626 268.567C264.809 268.567 265.085 268.659 265.269 268.659C265.636 268.751 266.003 268.843 266.371 268.843H266.463C273.903 270.496 280.7 273.526 286.762 277.658C286.854 277.75 286.946 277.841 287.037 277.841C287.313 278.025 287.497 278.209 287.772 278.392C288.048 278.576 288.232 278.76 288.507 278.943C288.599 279.035 288.691 279.127 288.783 279.127C294.661 283.534 299.713 289.044 303.663 295.471L303.755 295.563C303.938 295.93 304.122 296.206 304.306 296.573C304.398 296.757 304.489 296.941 304.581 297.124C304.673 297.308 304.765 297.491 304.857 297.675C305.04 298.042 305.224 298.41 305.408 298.777V298.869C308.163 304.194 310.184 310.071 311.195 316.223C312.205 322.467 312.297 328.711 311.286 334.771C311.195 335.139 311.195 335.598 311.103 335.965C311.103 336.149 311.011 336.332 311.011 336.608C311.011 336.792 310.919 337.067 310.919 337.251C310.827 337.618 310.735 337.985 310.735 338.352V338.444C309.082 345.882 306.051 352.677 301.917 358.737C301.826 358.829 301.734 358.921 301.734 359.013C301.55 359.288 301.366 359.472 301.183 359.747C300.999 360.023 300.815 360.206 300.632 360.482C300.54 360.574 300.448 360.665 300.448 360.757C296.039 366.634 290.528 371.684 284.098 375.632L284.006 375.724C283.639 375.908 283.363 376.092 282.996 376.275C282.812 376.367 282.629 376.459 282.445 376.551C282.261 376.643 282.077 376.734 281.894 376.826C281.526 377.01 281.159 377.193 280.792 377.377H280.7C275.372 380.132 269.494 382.152 263.34 383.162C257.094 384.264 250.848 384.264 244.786 383.254C244.418 383.162 243.959 383.162 243.591 383.07C243.408 383.07 243.224 382.978 242.948 382.978C242.765 382.978 242.489 382.886 242.306 382.886C241.938 382.795 241.571 382.703 241.203 382.703H241.111C233.671 381.05 226.874 378.02 220.812 373.888C220.72 373.796 220.628 373.704 220.537 373.704C220.261 373.521 220.077 373.337 219.802 373.153C219.526 372.97 219.342 372.786 219.067 372.602C218.975 372.51 218.883 372.419 218.791 372.419C212.913 368.011 207.861 362.502 203.911 356.074L203.82 355.982C203.636 355.615 203.452 355.34 203.268 354.972C203.177 354.789 203.085 354.605 202.993 354.421C202.901 354.238 202.809 354.054 202.717 353.871C202.534 353.503 202.35 353.136 202.166 352.769V352.677C199.411 347.351 197.39 341.474 196.379 335.322C195.369 329.078 195.277 322.834 196.288 316.774C196.379 316.407 196.379 315.948 196.471 315.581C196.471 315.397 196.563 315.213 196.563 314.938C196.563 314.754 196.655 314.479 196.655 314.295C196.747 313.928 196.839 313.56 196.839 313.193V313.101C198.492 305.664 201.523 298.869 205.657 292.808C205.748 292.717 205.84 292.625 205.84 292.533C206.024 292.258 206.208 292.074 206.391 291.798C206.575 291.523 206.759 291.339 206.942 291.064C207.034 290.972 207.126 290.88 207.126 290.788C211.535 284.912 217.046 279.862 223.476 275.913L223.568 275.821C223.935 275.638 224.211 275.454 224.578 275.27C224.762 275.179 224.945 275.087 225.129 274.995C225.313 274.903 225.497 274.811 225.68 274.719C226.048 274.536 226.415 274.352 226.783 274.169H226.874C232.202 271.414 238.08 269.394 244.234 268.384C250.388 267.374 256.634 267.374 262.697 268.292ZM252.593 318.702C252.685 318.702 252.777 318.702 252.869 318.702L252.501 318.335L252.226 318.794C252.317 318.794 252.409 318.702 252.593 318.702ZM252.226 318.06L250.48 316.315L250.297 317.784L251.858 318.794L252.226 318.06ZM250.205 318.152L250.021 319.621L250.113 319.529C250.48 319.253 250.94 319.07 251.399 318.978L250.205 318.152ZM253.603 318.611C254.154 318.611 254.614 318.611 255.165 318.702L254.522 317.325L253.603 318.611ZM256.634 319.162L256.451 318.611L255.991 318.886C256.267 318.978 256.451 319.07 256.634 319.162ZM256.359 318.243L255.716 315.856L254.797 317.05L255.624 318.702L256.359 318.243ZM258.104 319.988C258.288 320.172 258.471 320.263 258.655 320.447L258.747 318.886L257.277 319.437C257.553 319.621 257.828 319.804 258.104 319.988ZM259.206 320.998C259.39 321.182 259.482 321.365 259.666 321.457L259.849 320.906L259.206 320.998ZM259.849 320.539L260.492 318.152L259.114 318.702L259.023 320.539H259.849ZM260.125 322.1L260.217 322.192C260.492 322.651 260.676 323.018 260.86 323.477L261.686 322.284L260.125 322.1ZM261.043 324.671C261.043 324.763 261.043 324.855 261.135 324.946L261.503 324.579L261.043 324.304C261.043 324.487 261.043 324.579 261.043 324.671ZM261.686 324.304L263.431 322.559L261.962 322.375L260.951 323.936L261.686 324.304ZM261.135 325.865C261.135 326.324 261.135 326.783 261.043 327.15C261.043 327.242 261.043 327.242 261.043 327.334L262.329 326.691L261.135 325.865ZM260.584 328.711L261.043 328.619L260.768 328.252C260.676 328.436 260.676 328.527 260.584 328.711ZM261.411 328.527L263.707 327.885L262.605 326.966L260.951 327.793L261.411 328.527ZM260.4 329.17L261.135 330.823L262.605 330.915L261.227 328.895L260.4 329.17ZM261.227 331.282L261.778 332.659L264.074 333.302L262.789 331.374L261.227 331.282ZM264.626 333.394L274.086 335.873L268.667 331.649L263.248 331.282L264.626 333.394ZM268.208 331.282L264.074 328.16L261.594 328.803L263.064 330.915L268.208 331.282ZM259.849 330.088C259.666 330.364 259.482 330.548 259.298 330.731L260.676 330.823L260.125 329.629C260.033 329.721 260.033 329.905 259.849 330.088ZM259.023 331.099V331.925L261.319 332.568L260.768 331.282L259.023 331.099ZM258.655 331.466C258.563 331.558 258.471 331.649 258.288 331.741L258.655 331.833V331.466ZM257.92 332.017L257.645 333.761L258.931 334.588L258.747 332.2L257.92 332.017ZM257.553 334.22L257.369 335.69L259.023 337.342L258.839 335.047L257.553 334.22ZM259.39 337.71L266.279 344.596L263.707 338.352L259.206 335.414L259.39 337.71ZM263.523 337.71L261.594 332.935L259.114 332.292L259.298 334.863L263.523 337.71ZM254.981 333.119C254.889 333.119 254.889 333.119 254.797 333.119L254.981 333.302L255.165 333.027C255.073 333.119 255.073 333.119 254.981 333.119ZM255.257 333.67L257.002 335.322L257.186 333.945L255.716 332.935H255.624L255.257 333.67ZM257.277 333.578L257.461 332.292C257.094 332.476 256.634 332.659 256.267 332.843L257.277 333.578ZM254.338 333.21C254.246 333.21 254.246 333.21 254.154 333.21L253.144 334.588L253.787 335.873L254.889 333.761L254.338 333.21ZM252.869 334.863L251.95 336.057L252.593 338.261L253.603 336.241L252.869 334.863ZM252.685 338.812L255.257 348.178L256.175 341.474L253.787 336.7L252.685 338.812ZM256.267 340.832L256.91 335.781L255.073 333.945L253.971 336.241L256.267 340.832ZM253.695 333.21C253.328 333.21 252.96 333.119 252.501 333.119H252.409L252.96 334.22L253.695 333.21ZM251.031 332.659L251.123 332.935L251.307 332.751C251.215 332.751 251.123 332.751 251.031 332.659ZM251.215 333.302L251.858 335.598L252.685 334.496L251.95 332.935H251.858L251.215 333.302ZM250.48 332.384L248.919 333.027L248.827 334.404L250.756 333.119L250.572 332.476C250.572 332.476 250.48 332.476 250.48 332.384ZM248.46 333.21L247.082 333.761L246.531 335.965L248.368 334.771L248.46 333.21ZM246.439 336.516L243.959 345.882L248.092 340.556L248.46 335.231L246.439 336.516ZM248.46 340.005L251.583 335.965L250.94 333.486L248.827 334.863L248.46 340.005ZM249.562 331.833C249.378 331.649 249.194 331.558 249.011 331.374L248.919 332.568L250.021 332.109C249.929 332.109 249.746 332.017 249.562 331.833ZM248.643 331.099L248.551 331.007H247.817L247.174 333.302L248.46 332.751L248.643 331.099ZM248.184 330.639C248.092 330.548 248.092 330.456 248 330.364L247.908 330.639H248.184ZM247.725 329.997C247.725 329.997 247.725 329.905 247.725 329.997L245.98 329.721L245.245 330.823L247.633 330.639L247.725 329.997ZM245.52 329.629L244.051 329.446L242.489 331.007L244.694 330.915L245.52 329.629ZM242.122 331.374L235.325 338.261L241.479 335.69L244.418 331.282L242.122 331.374ZM242.122 335.414L246.806 333.486L247.449 331.007L244.969 331.19L242.122 335.414ZM246.623 327.058C246.623 326.967 246.623 326.966 246.623 326.875L246.439 327.058L246.714 327.242C246.623 327.242 246.623 327.15 246.623 327.058ZM246.071 327.426L244.418 329.17L245.796 329.354L246.806 327.885V327.793L246.071 327.426ZM246.163 329.354L247.449 329.538C247.266 329.17 247.082 328.711 246.898 328.344L246.163 329.354ZM246.531 326.416L245.061 325.314L243.867 325.956L245.98 327.058L246.531 326.416ZM244.786 325.038L243.591 324.12L241.479 324.671L243.5 325.681L244.786 325.038ZM240.928 324.763L231.559 327.334L238.264 328.252L243.04 325.865L240.928 324.763ZM238.907 328.344L243.959 328.987L245.796 327.15L243.5 326.048L238.907 328.344ZM246.531 325.865C246.531 325.406 246.531 325.038 246.623 324.579V324.487L245.428 325.038L246.531 325.865ZM247.082 323.11L246.714 323.202L246.898 323.477C246.99 323.385 246.99 323.294 247.082 323.11ZM246.347 323.294L244.051 323.936L245.153 324.763L246.806 323.936L246.347 323.294ZM247.908 321.641C248 321.457 248.184 321.274 248.368 321.09L246.99 320.998L247.541 322.284C247.541 322.1 247.725 321.916 247.908 321.641ZM248.919 320.447C249.011 320.355 249.194 320.263 249.286 320.08L248.827 319.988L248.919 320.447ZM248.551 319.896L246.255 319.253L246.806 320.539L248.643 320.631L248.551 319.896ZM230.548 282.065H230.365L229.997 281.147L229.905 281.239C227.242 282.708 224.67 284.361 222.374 286.197L222.925 287.115V287.207L225.313 290.788L240.285 305.664L230.548 282.065ZM223.843 289.411L222.465 287.391H222.282L221.731 286.565C221.639 286.656 221.547 286.748 221.363 286.84L222.19 287.666L222.098 287.85L223.843 289.411ZM240.56 306.49L226.231 292.258L237.437 309.245L243.316 313.101L240.56 306.49ZM243.5 313.744L237.988 310.071L243.408 318.152L245.612 318.702L243.5 313.744ZM242.765 317.968L237.162 309.428L215.209 294.92H215.117L214.107 294.278C213.464 295.104 212.821 295.93 212.178 296.849C211.811 297.308 211.535 297.859 211.168 298.41L211.994 299.052V299.144L232.937 315.305L242.765 317.968ZM220.904 287.299C218.516 289.319 216.403 291.523 214.474 293.91L215.393 294.553V294.737L236.611 308.786L224.854 291.064L221.914 288.126H221.822L220.904 287.299ZM245.796 319.162L243.683 318.611L244.969 320.539L246.439 320.631L245.796 319.162ZM246.531 320.998L245.153 320.906L246.439 322.926L247.174 322.743L246.531 320.998ZM246.071 323.018L244.694 320.906L239.55 320.631L243.591 323.753L246.071 323.018ZM239.091 320.172L244.51 320.539L243.224 318.519L233.763 316.04L239.091 320.172ZM246.071 318.886L248.551 319.529L248.368 316.958L244.051 314.111L246.071 318.886ZM243.775 313.469L248.276 316.499L248.092 314.111L241.111 307.225L243.775 313.469ZM248.551 314.387L248.735 316.682L249.929 317.509L250.113 315.948L248.551 314.387ZM249.929 317.968L248.827 317.233L249.011 319.621L249.746 319.804L249.929 317.968ZM240.836 306.215L248.184 313.469L247.541 303.184L235.876 279.77H235.784L235.233 278.76C233.671 279.402 232.11 280.137 230.548 280.872L230.916 281.882L230.824 281.973L240.836 306.215ZM235.784 278.484L236.335 279.494L236.243 279.586L247.541 302.174L246.255 280.78L245.245 277.107L245.153 277.015L244.786 275.913C242.397 276.372 239.917 277.015 237.529 277.841C236.886 278.117 236.335 278.301 235.784 278.484ZM246.623 282.616L247.908 303.093L251.031 309.428L251.95 302.266L246.623 282.616ZM250.94 310.071L247.908 304.011L248.551 313.836L250.205 315.489L250.94 310.071ZM255.532 276.372L255.348 276.28L255.44 275.27C254.889 275.27 254.338 275.27 253.787 275.27C251.399 275.27 249.011 275.454 246.623 275.729C246.531 275.729 246.347 275.729 246.255 275.821V276.831L246.163 276.923L246.439 280.872L252.042 301.348L255.532 276.372ZM246.071 279.035L245.98 276.923L245.796 276.831L245.704 275.821C245.612 275.821 245.428 275.821 245.337 275.913L245.612 277.015L245.52 277.107L246.071 279.035ZM250.572 315.856L252.409 317.692L253.603 315.397L251.307 310.714L250.572 315.856ZM251.307 310.071L253.695 314.938L254.797 312.734L252.226 303.184L251.307 310.071ZM254.981 313.285L253.971 315.397L254.614 316.774L255.532 315.581L254.981 313.285ZM254.43 317.05L253.787 315.764L252.685 317.968L253.236 318.519L254.43 317.05ZM252.409 302.266L255.165 312.275L259.757 303.001L261.319 277.015L261.227 276.923L261.319 275.729C259.666 275.454 257.92 275.27 256.175 275.27L255.991 276.372L255.9 276.464L252.409 302.266ZM262.513 275.913C262.329 275.913 262.146 275.821 261.962 275.821L261.87 277.015L261.686 277.107L260.125 302.174L269.769 282.892L270.688 279.494L270.596 279.402L270.871 278.301C268.208 277.199 265.36 276.464 262.513 275.913ZM269.31 284.544L260.125 303.001L259.666 310.163L264.074 304.378L269.31 284.544ZM259.298 310.714L259.757 303.919L255.348 312.734L255.991 315.03L259.298 310.714ZM279.965 283.81L279.873 283.626L280.516 282.708C277.944 281.055 275.189 279.678 272.249 278.576L271.79 279.494H271.698L270.137 282.892L264.717 303.644L279.965 283.81ZM270.596 281.147L271.423 279.586L271.331 279.494L271.79 278.576C271.698 278.576 271.606 278.484 271.514 278.484L271.239 279.586H271.055L270.596 281.147ZM255.991 315.489L256.634 317.968L258.839 316.499L259.114 311.265L255.991 315.489ZM259.666 310.898L259.298 316.407L261.319 315.03L263.799 305.48L259.666 310.898ZM261.227 315.489L259.298 316.774L259.206 318.335L260.676 317.784L261.227 315.489ZM258.747 318.519L258.839 317.05L256.818 318.427L257.002 319.253L258.747 318.519ZM264.442 304.654L261.778 314.662L270.412 308.877L284.741 287.299V287.207L285.384 286.197C284.557 285.555 283.639 284.912 282.812 284.269C282.261 283.902 281.71 283.534 281.159 283.167L280.424 284.085H280.332L264.442 304.654ZM292.457 293.084C290.436 290.697 288.232 288.585 285.843 286.656L285.2 287.575H285.017L271.239 308.418L289.334 296.481L291.722 294.094V294.002L292.457 293.084ZM288.048 297.675L270.78 309.153L266.738 315.213L273.443 312.459L288.048 297.675ZM266.095 315.489L269.953 309.704L261.686 315.213L261.043 317.601L266.095 315.489ZM297.509 302.542V302.358L298.611 301.899L298.519 301.807C297.049 299.144 295.396 296.573 293.467 294.186L292.549 294.829H292.457L289.609 296.665L274.362 312.091L297.509 302.542ZM290.895 295.38L292.181 294.553V294.369L293.1 293.727C293.008 293.635 293.008 293.635 292.916 293.543L292.089 294.369L291.906 294.278L290.895 295.38ZM260.951 317.968L260.309 320.447L262.972 320.263L265.82 315.948L260.951 317.968ZM266.371 315.764L263.34 320.355L265.82 320.172L272.8 313.101L266.371 315.764ZM265.452 320.539L263.156 320.723L262.237 322.008L263.799 322.192L265.452 320.539ZM261.778 322.008L262.605 320.814L260.125 320.998L259.941 321.824L261.778 322.008ZM273.719 312.734L266.371 320.08L276.75 319.437L299.989 307.867V307.776L300.999 307.225C300.356 305.572 299.621 304.011 298.886 302.45L297.784 302.909L297.692 302.817L273.719 312.734ZM301.275 307.867L300.264 308.418L300.172 308.327L277.76 319.437L299.437 318.152L302.652 317.233L302.744 317.141L303.846 316.774C303.387 314.387 302.744 311.908 301.917 309.52C301.642 308.969 301.458 308.418 301.275 307.867ZM297.6 318.611L276.842 319.896L270.32 323.11L277.485 324.028L297.6 318.611ZM269.677 323.018L275.923 319.896L266.003 320.539L264.258 322.284L269.677 323.018ZM303.203 327.517L303.295 327.334L304.489 327.517C304.489 326.967 304.489 326.416 304.489 325.865C304.489 323.294 304.306 320.723 303.938 318.243L302.744 318.335L302.652 318.243L299.346 318.427L278.403 324.212L303.203 327.517ZM301.183 317.968L302.652 317.876L302.744 317.692L303.938 317.601V317.509V317.325L302.836 317.601L302.744 317.509L301.183 317.968ZM263.891 322.651L262.054 324.487L264.35 325.681L269.034 323.385L263.891 322.651ZM269.769 323.477L264.901 325.956L267.106 327.058L276.658 324.487L269.769 323.477ZM266.463 327.15L264.35 326.14L262.88 326.875L264.074 327.793L266.463 327.15ZM262.605 326.507L263.983 325.865L261.778 324.763L261.135 325.406L262.605 326.507ZM277.485 324.487L267.473 327.242L276.75 331.833L302.744 333.394L302.836 333.302L304.03 333.394C304.306 331.741 304.489 329.997 304.489 328.252L303.203 328.068L303.112 327.977L277.485 324.487ZM303.938 334.312C303.938 334.22 303.938 334.129 303.938 334.037L302.744 333.945L302.652 333.761L277.577 332.2L296.866 341.842L300.264 342.76L300.356 342.668L301.458 342.944C302.652 340.189 303.387 337.251 303.938 334.312ZM295.212 341.383L276.658 332.2L269.31 331.741L275.005 336.149L295.212 341.383ZM268.851 331.374L275.832 331.833L267.014 327.426L264.626 328.068L268.851 331.374ZM295.763 352.034L295.947 351.942L296.957 352.677C298.611 350.014 299.989 347.259 301.091 344.413L299.989 343.862V343.77L296.957 342.209L275.923 336.7L295.763 352.034ZM298.611 342.668L299.989 343.403L300.08 343.311L301.183 343.862C301.183 343.77 301.275 343.678 301.275 343.586L300.172 343.311V343.127L298.611 342.668ZM274.913 336.516L264.993 333.945L270.688 342.485L292.457 356.901H292.549L293.559 357.543C294.11 356.901 294.661 356.166 295.12 355.432C295.58 354.789 296.039 354.054 296.498 353.32L295.488 352.493V352.401L274.913 336.516ZM286.67 364.614C289.058 362.594 291.171 360.39 293.1 358.003L292.181 357.36V357.176L271.147 343.219L282.996 361.124L285.66 363.787H285.752L286.67 364.614ZM281.71 359.839L270.412 342.76L264.35 338.72L267.014 345.331L281.71 359.839ZM264.074 338.077L269.861 341.934L264.442 333.761L262.054 333.119L264.074 338.077ZM277.026 369.572H277.209L277.669 370.766C277.76 370.674 277.852 370.674 277.944 370.582L278.036 370.49C280.608 369.113 283.088 367.46 285.384 365.624L284.649 364.522V364.43L282.629 361.4L267.381 346.157L277.026 369.572ZM284.006 362.685L285.017 364.246H285.2L285.935 365.348C286.027 365.257 286.119 365.165 286.211 365.165L285.384 364.338L285.476 364.155L284.006 362.685ZM266.646 345.515L259.39 338.352L260.033 348.545L271.79 372.143H271.882L272.433 373.153C273.994 372.511 275.556 371.868 277.026 371.041L276.566 369.848L276.658 369.756L266.646 345.515ZM271.882 373.337L271.331 372.327L271.423 372.235L260.125 349.463L261.411 370.674L262.513 374.622L262.605 374.714L262.972 375.816C265.36 375.357 267.84 374.714 270.229 373.888C270.78 373.796 271.331 373.612 271.882 373.337ZM260.951 368.929L259.666 348.637L256.451 342.209L255.532 349.188L260.951 368.929ZM256.543 341.474L259.574 347.627L258.931 337.893L257.277 336.149L256.543 341.474ZM252.042 375.265L252.226 375.357L252.042 376.643C252.685 376.643 253.236 376.643 253.879 376.643C256.267 376.643 258.747 376.459 261.043 376.183C261.135 376.183 261.227 376.183 261.319 376.183L261.227 374.898L261.319 374.806L261.043 370.858L255.348 350.198L252.042 375.265ZM261.503 372.511L261.594 374.714L261.778 374.806L261.87 376.092C261.962 376.092 262.146 376.092 262.237 376L261.962 374.898L262.054 374.806L261.503 372.511ZM255.165 349.188L252.501 339.363L248 348.453L246.347 374.898L246.439 374.99L246.347 376.183C248 376.459 249.654 376.551 251.307 376.643L251.491 375.357L251.583 375.265L255.165 349.188ZM245.061 375.908C245.337 375.908 245.52 376 245.704 376L245.796 374.806L245.98 374.714L247.541 349.188L238.08 368.103L236.978 372.419L237.07 372.511L236.794 373.612C239.458 374.714 242.214 375.449 245.061 375.908ZM238.54 366.45L247.541 348.361L248 341.199L243.683 346.8L238.54 366.45ZM248.46 340.648L248 347.443L252.317 338.812L251.674 336.424L248.46 340.648ZM227.517 367.828L227.609 368.011L226.874 368.929C229.538 370.582 232.294 371.96 235.141 373.153L235.692 372.051H235.784L237.713 368.195L243.132 347.627L227.517 367.828ZM237.254 369.848L236.151 372.051L236.243 372.143L235.692 373.245C235.876 373.337 235.968 373.337 236.151 373.429L236.427 372.327H236.611L237.254 369.848ZM243.408 346.617L245.98 336.883L237.529 342.485L222.833 364.614V364.706L222.19 365.716C223.017 366.358 223.843 367.001 224.67 367.552C225.129 367.919 225.68 368.195 226.14 368.562L226.874 367.644H226.966L243.408 346.617ZM215.117 358.829C217.138 361.216 219.343 363.328 221.731 365.257L222.374 364.338H222.557L236.703 342.944L219.159 354.513L215.944 357.819V357.911L215.117 358.829ZM220.445 353.228L237.254 342.117L241.111 336.241L234.59 338.903L220.445 353.228ZM241.754 335.965L238.08 341.566L246.071 336.241L246.714 333.945L241.754 335.965ZM209.974 349.004V349.188L208.963 349.647C208.963 349.738 209.055 349.83 209.055 349.922C210.433 352.585 212.086 355.064 214.015 357.36L215.025 356.717H215.117L218.883 354.238L233.671 339.271L209.974 349.004ZM217.689 355.523L215.393 356.992V357.176L214.382 357.819C214.474 357.911 214.566 358.094 214.75 358.186L215.577 357.36L215.76 357.452L217.689 355.523ZM234.406 338.628L241.479 331.466L231.375 332.109L207.677 343.862V343.954L206.667 344.505C207.31 346.066 207.953 347.535 208.688 349.004L209.79 348.545L209.882 348.637L234.406 338.628ZM206.391 343.954L207.402 343.403L207.494 343.495L230.457 332.017L209.514 333.394L205.105 334.588L205.014 334.68L203.911 335.047C204.371 337.434 205.014 339.913 205.84 342.301C205.932 342.852 206.208 343.403 206.391 343.954ZM211.26 332.935L231.375 331.741L237.621 328.619L230.64 327.701L211.26 332.935ZM238.264 328.619L232.294 331.558L241.938 331.007L243.591 329.354L238.264 328.619ZM204.279 324.028L204.187 324.212L203.085 324.028C203.085 324.671 203.085 325.222 203.085 325.865C203.085 328.252 203.268 330.639 203.544 332.935C203.544 333.027 203.544 333.119 203.544 333.21L204.738 333.119L204.83 333.21L209.422 332.935L229.63 327.426L204.279 324.028ZM207.677 333.486L204.922 333.67L204.83 333.853L203.728 333.945C203.728 334.129 203.82 334.312 203.82 334.496L204.922 334.22L205.014 334.312L207.677 333.486ZM230.64 327.242L240.468 324.579L231.375 320.08L204.922 318.427L204.83 318.519L203.636 318.427C203.36 320.08 203.268 321.733 203.177 323.385L204.279 323.569L204.371 323.661L230.64 327.242ZM203.82 317.141C203.82 317.417 203.728 317.601 203.728 317.784L204.922 317.876L205.014 318.06L230.548 319.621L211.627 310.163L207.31 309.061L207.218 309.153L206.116 308.877C205.014 311.54 204.279 314.295 203.82 317.141ZM213.372 310.622L231.467 319.621L238.448 320.08L232.845 315.764L213.372 310.622ZM238.907 320.539L232.294 320.172L240.928 324.487L243.132 323.845L238.907 320.539ZM211.719 299.603L211.535 299.695L210.708 299.052C209.055 301.623 207.677 304.378 206.575 307.225L207.585 307.684V307.776L211.627 309.796L231.926 315.121L211.719 299.603ZM209.882 309.337L207.494 308.143L207.402 308.235L206.483 307.776C206.391 307.959 206.391 308.051 206.3 308.235L207.402 308.51V308.694L209.882 309.337Z" fill="#292C2D"/>
<path fill-rule="evenodd" clip-rule="evenodd" d="M253.787 272.057C283.547 272.057 307.704 296.206 307.704 325.957C307.704 355.707 283.547 379.856 253.787 379.856C224.027 379.856 199.87 355.707 199.87 325.957C199.962 296.206 224.027 272.057 253.787 272.057ZM253.787 275.546C225.956 275.546 203.36 298.134 203.36 325.957C203.36 353.779 225.956 376.367 253.787 376.367C281.618 376.367 304.214 353.779 304.214 325.957C304.214 298.134 281.618 275.546 253.787 275.546Z" fill="#A6A9AD"/>
<path fill-rule="evenodd" clip-rule="evenodd" d="M253.787 333.669C258.104 333.669 261.594 330.18 261.594 325.864C261.594 321.549 258.104 318.06 253.787 318.06C249.47 318.06 245.979 321.549 245.979 325.864C246.071 330.18 249.562 333.669 253.787 333.669Z" fill="#B8BABC"/>
<path fill-rule="evenodd" clip-rule="evenodd" d="M253.787 319.804C257.185 319.804 259.941 322.559 259.941 325.956C259.941 329.354 257.185 332.108 253.787 332.108C250.388 332.108 247.633 329.354 247.633 325.956C247.633 322.559 250.388 319.804 253.787 319.804ZM253.787 320.539C250.848 320.539 248.368 322.926 248.368 325.956C248.368 328.895 250.756 331.374 253.787 331.374C256.726 331.374 259.206 328.986 259.206 325.956C259.206 322.926 256.818 320.539 253.787 320.539Z" fill="#A3A5A7"/>
<path d="M253.787 327.976C254.903 327.976 255.808 327.072 255.808 325.956C255.808 324.84 254.903 323.936 253.787 323.936C252.671 323.936 251.766 324.84 251.766 325.956C251.766 327.072 252.671 327.976 253.787 327.976Z" fill="#68696B"/>
<path d="M253.879 329.17C255.654 329.17 257.094 327.731 257.094 325.956C257.094 324.182 255.654 322.743 253.879 322.743C252.103 322.743 250.664 324.182 250.664 325.956C250.664 327.731 252.103 329.17 253.879 329.17Z" fill="#68696B"/>
<path fill-rule="evenodd" clip-rule="evenodd" d="M252.501 265.629C253.971 265.629 259.482 265.904 260.86 266.088L256.083 270.036C254.798 269.945 253.603 269.945 252.318 269.945C235.233 269.945 219.71 278.025 209.423 290.513C197.206 305.388 194.451 322.834 198.4 337.985L195.92 344.688C193.532 338.077 192.338 331.007 192.614 323.477C193.073 309.887 198.217 297.4 206.391 287.575C217.506 274.168 234.223 265.629 252.501 265.629Z" fill="#B89C0A"/>
<path fill-rule="evenodd" clip-rule="evenodd" d="M87.0758 327.058C87.5351 326.874 101.772 327.701 112.151 328.344C112.151 328.803 112.06 329.17 112.06 329.629C100.945 328.894 86.8003 327.884 86.7084 327.793C86.341 327.609 86.341 327.333 87.0758 327.058ZM112.427 265.353C112.06 265.261 111.692 265.17 111.508 265.353C111.508 265.353 111.508 265.353 111.417 265.353C111.233 265.17 110.957 265.078 110.682 265.078C110.223 265.078 105.906 267.373 102.507 269.302C99.2003 267.281 88.2699 261.129 88.2699 261.129C88.2699 261.129 88.7292 260.211 88.4536 259.568C88.2699 258.926 87.3514 258.834 87.3514 258.834C87.3514 258.834 30.7705 254.518 29.5765 254.702C28.3824 254.885 28.2905 255.253 28.3824 255.804C28.4742 256.355 28.9335 256.538 29.3928 256.63C29.4846 256.63 31.9646 256.906 35.7305 257.181L35.455 260.67C35.455 260.67 35.0876 261.038 35.0876 261.313C35.0876 261.68 35.6387 261.589 36.0061 261.589C36.3735 261.589 36.4654 261.588 36.5572 261.313C36.6491 261.038 36.4654 260.854 36.3735 260.762C36.3735 260.67 36.5572 258.375 36.6491 257.273L38.3943 257.456C38.3943 258.283 38.3943 259.66 38.3024 259.752C38.2105 259.844 38.0268 260.028 38.1187 260.211C38.3024 260.395 39.0372 260.578 39.3128 260.487C39.5883 260.303 39.4965 259.936 39.4965 259.844C39.4046 259.752 39.2209 259.385 39.3128 259.293C39.4046 259.201 39.4046 258.191 39.4046 257.548C40.5987 257.64 41.9765 257.732 43.3543 257.916C43.3543 258.007 43.3543 258.191 43.4461 258.375C43.6298 258.742 43.9054 259.017 43.9054 259.201C43.9054 259.385 43.9972 261.588 43.8135 261.864C43.6298 262.139 43.3543 262.599 43.6298 263.609C43.6298 263.7 43.7217 263.792 43.7217 264.068L43.8135 264.527L44.8239 268.659L44.9157 269.21L56.6728 316.131L56.7647 316.682C56.8565 317.233 57.0402 317.6 57.1321 317.968C56.9484 318.059 56.6728 318.151 56.4891 318.243C56.2136 318.427 55.8461 318.519 55.6624 318.702C55.2032 318.978 54.3765 319.529 53.9172 319.988C53.7335 320.079 53.6417 320.263 53.5498 320.355C53.458 320.447 53.2743 320.63 53.1824 320.722L52.9069 320.998C52.5395 321.457 52.1721 321.916 51.9884 322.467L51.5291 323.569C51.3454 324.028 51.2535 324.487 51.1617 324.946L51.0698 325.497C50.978 326.415 51.0698 327.333 51.3454 328.252L51.4372 328.619L51.6209 328.986C51.8047 329.354 51.9884 329.721 52.1721 330.088L52.6313 330.823C53.1824 331.557 53.8254 332.2 54.5602 332.843H54.4684C54.7439 333.026 55.0195 333.21 55.0195 333.21C55.295 333.394 55.6624 333.577 55.938 333.761C82.4832 343.586 118.03 348.912 144.116 350.289C153.852 350.84 160.925 338.536 156.883 329.17L156.608 328.435L156.332 327.976C182.694 308.785 196.563 295.104 215.118 266.547C215.118 266.547 215.944 265.629 216.495 265.812C216.679 265.904 220.261 274.535 220.629 275.362C228.344 294.828 233.488 309.244 251.858 326.232C251.858 326.232 251.95 326.232 251.95 326.323C252.042 326.415 252.042 326.415 252.134 326.507C252.318 326.691 252.593 326.783 252.777 326.874C245.98 327.701 193.532 334.037 193.349 334.404C193.165 334.771 193.073 335.047 193.349 335.322C193.716 335.506 254.155 327.884 254.614 327.793C255.073 327.701 255.073 327.425 255.073 326.966C255.624 326.691 255.992 326.14 255.992 325.497C255.992 324.671 255.349 323.936 254.522 323.844C254.522 323.844 254.522 323.844 254.43 323.752C251.399 321.365 245.612 314.203 243.408 311.448C242.398 310.254 241.387 308.969 240.285 307.592C234.131 299.879 228.895 283.534 224.946 273.066C224.762 272.515 224.486 271.964 224.303 271.414L223.384 268.934C221.18 262.966 219.251 257.548 218.057 254.335L214.842 245.52C214.842 245.52 215.393 244.509 215.393 244.234C215.393 243.867 215.118 243.224 214.934 243.132C214.75 243.04 214.015 243.132 214.015 243.132C214.015 243.132 213.832 242.765 213.74 242.673C213.648 242.581 213.372 242.581 213.372 242.581C213.372 242.581 213.281 242.489 213.189 242.398C213.097 242.214 213.281 242.122 213.281 242.122C213.281 242.122 212.729 240.928 212.638 240.928C212.454 240.928 211.995 240.928 211.995 240.928L204.555 221.829C204.555 220.819 205.106 219.993 205.106 219.993C205.106 219.993 205.289 219.993 205.473 219.993C205.657 219.993 205.565 220.544 205.565 220.727C205.565 220.911 206.851 221.737 207.586 221.554C208.321 221.37 210.709 216.504 210.709 215.953C210.709 215.402 210.066 215.31 210.066 214.667C209.974 214.208 211.168 207.138 211.627 204.108L211.719 203.373L211.811 203.098C211.903 202.638 211.995 202.179 212.086 201.628C212.178 201.077 212.178 200.159 211.995 199.149L211.903 198.415C211.627 197.313 211.26 196.211 210.525 195.201C210.525 195.201 209.882 194.374 209.515 194.007C209.147 193.732 209.055 193.548 209.055 193.548C207.31 191.987 205.841 191.712 204.646 191.528C204.371 191.528 203.912 191.436 203.452 191.436C203.636 193.548 203.82 198.047 203.82 198.598C203.912 199.241 205.014 199.333 205.932 200.159C206.851 200.986 206.208 202.455 206.392 202.914C206.483 203.373 206.3 205.026 206.3 205.026L206.208 206.036L205.749 213.841L201.432 218.891C200.513 219.901 200.054 220.268 200.513 221.554L208.229 242.581C208.229 242.581 207.678 242.857 207.586 242.949C207.402 243.132 207.678 243.683 207.769 243.959C207.861 244.142 208.137 244.234 208.137 244.234V244.509C208.137 244.509 208.045 244.601 207.953 244.601C207.953 244.693 208.045 245.06 208.045 245.152C208.137 245.244 208.229 245.244 208.229 245.244L208.321 245.52C208.321 245.52 207.586 246.07 207.769 246.621C207.861 247.264 208.321 247.448 208.78 247.631C209.239 247.723 209.515 247.815 209.515 247.815C209.515 247.815 210.525 250.202 210.066 251.396C209.606 252.59 207.769 254.335 207.678 254.518C207.494 254.702 207.861 255.345 207.861 255.345C207.861 255.345 207.494 255.712 205.198 258.834C185.817 284.82 171.396 296.757 138.146 312.917L137.411 311.081C137.319 310.714 136.86 310.622 136.584 310.714L136.309 310.805L121.337 271.23L120.418 270.312L119.408 267.741L119.867 266.914L118.397 263.241C118.397 263.241 118.03 263.149 117.663 263.241L111.692 247.907L107.467 248.091C107.467 248.091 107.743 249.192 107.467 250.386C107.375 250.753 106.548 251.121 105.354 251.396C106.089 251.396 106.824 251.121 107.375 250.662C108.753 254.059 110.682 259.017 112.978 264.802L112.611 264.986C112.519 264.986 112.519 265.17 112.427 265.353ZM104.895 278.943L110.314 273.158L113.07 270.495L113.897 271.046C113.897 271.046 114.54 270.403 114.815 270.312C115.091 270.22 114.815 269.485 114.723 269.393C114.999 270.22 115.366 271.046 115.642 271.873C115.734 272.148 115.734 273.066 115.917 273.342C121.337 287.391 127.215 303.184 130.889 312.642L130.797 312.734C130.43 312.826 130.338 313.285 130.43 313.56L132.818 319.345C112.243 317.968 90.107 318.059 69.3484 317.417L70.3588 316.315L71.0017 315.672L77.2477 308.969L104.895 278.943ZM101.588 282.432L101.956 282.065L104.895 278.943L101.588 282.432ZM99.0166 280.412L91.301 288.676L88.4536 291.706L68.981 312.826L66.8684 315.121L64.8476 317.325L64.4802 317.692L64.8476 317.325C64.8476 317.325 62.8269 317.141 61.9084 317.141C61.8165 317.141 61.8165 317.141 61.7247 317.141C61.6328 317.141 61.6328 317.141 61.541 317.141H61.2654H61.1736H60.898L60.7143 316.223L60.6224 315.672L59.7039 311.724L59.3365 310.254L58.9691 308.51L58.6936 307.408C57.4076 301.807 55.7543 294.736 54.101 287.85V287.758L53.5498 285.279V285.371C52.7232 281.881 51.9884 278.484 51.2535 275.362L49.6002 268.016L49.5084 267.649L48.498 263.333C48.4061 263.058 48.4061 262.874 48.4061 262.874C48.498 262.69 48.498 261.772 48.4061 261.129C48.3143 260.487 47.9469 260.303 47.9469 260.119C47.9469 260.028 47.9469 258.926 47.9469 258.191C58.6017 259.109 71.3691 260.211 78.901 260.854C79.1766 261.038 79.3603 261.221 79.4521 261.497C79.544 261.864 79.4521 263.609 79.3603 264.619C79.7277 264.802 80.5543 264.986 80.5543 264.986C80.5543 263.976 80.5543 262.048 81.0136 261.772C81.2892 261.588 81.4729 261.405 81.6566 261.129L85.4225 261.405L100.119 270.403C100.119 270.403 100.119 270.495 100.211 270.679C99.2003 271.322 98.4655 271.781 98.4655 271.873C98.2818 272.332 98.3736 272.974 98.9248 272.791C99.1085 272.791 99.9351 272.24 101.129 271.597C101.588 271.873 102.048 272.24 102.415 272.515C102.966 272.974 104.252 274.26 104.252 274.26L104.528 274.535L102.874 276.28L102.507 276.647L99.4759 279.861L99.0166 280.412ZM119.04 334.312V334.128C123.266 334.496 126.205 334.771 126.205 334.771C126.205 334.771 126.205 335.047 125.929 335.689C125.654 336.332 125.194 337.801 122.531 338.077C121.612 338.169 120.234 338.077 118.397 337.801C118.581 336.975 118.765 336.24 118.857 335.414C118.949 335.138 118.948 334.863 119.04 334.587C119.04 334.496 119.04 334.404 119.04 334.312ZM46.8446 268.659L46.7528 268.2C47.1202 268.108 47.4876 268.016 47.7632 268.016L47.855 268.475C47.5795 268.475 47.2121 268.567 46.8446 268.659ZM54.1928 294.92L54.7439 297.307L56.6728 305.204L57.0402 306.673L58.1424 311.265V311.356L58.418 312.458V312.366L59.3365 316.223L59.5202 316.958L59.6121 317.325C59.3365 317.417 58.9691 317.417 58.6936 317.508L58.2343 315.764L57.8669 314.203L55.3869 303.735L54.8358 301.439L54.7439 301.072L54.6521 300.705L54.5602 300.338L54.4684 299.97C52.5395 292.165 50.4269 283.259 48.7735 276.188C49.1409 276.096 49.4165 276.005 49.7839 275.913L54.0091 293.451L54.1928 294.92ZM69.1647 312.55L68.981 312.826L69.1647 312.55ZM78.7173 307.224L101.588 282.524L96.3529 288.217L78.7173 307.224ZM86.1573 331.374C86.1573 331.282 86.1573 331.19 86.5247 331.19C86.7084 331.19 100.394 332.384 111.6 333.486C111.417 334.587 111.141 335.781 110.957 336.883C104.252 335.873 97.4551 335.047 90.8418 333.577C89.0047 333.118 86.1573 332.935 86.1573 331.374ZM119.683 328.894C121.612 329.078 122.806 329.17 123.082 329.17C124.184 329.445 125.103 330.272 125.194 330.455C125.194 330.455 122.99 330.272 119.591 330.088C119.591 329.721 119.591 329.354 119.683 328.894ZM64.1128 317.968L63.9291 318.151L64.1128 317.968ZM103.793 270.036C106.64 268.292 109.671 266.455 110.039 266.363C110.223 266.271 110.406 266.363 110.59 266.363C110.223 266.822 109.947 267.19 109.947 267.19L110.131 267.832L106.273 272.24C106.181 272.24 104.711 270.771 103.793 270.036ZM45.7424 263.976C45.6506 263.7 45.6506 263.517 45.6506 263.517C45.5587 263.058 45.375 261.956 45.2832 261.772C45.1913 261.588 45.0995 259.017 45.1913 259.017C45.375 259.017 46.2935 258.742 46.2935 258.742C46.2935 258.742 46.7528 260.487 46.6609 260.854C46.4772 261.221 46.2935 261.405 46.4772 262.139C46.6609 262.874 46.7528 263.241 46.7528 263.241L46.8446 263.7C46.3854 263.792 46.1098 263.884 45.7424 263.976ZM153.026 324.212C149.627 321.09 145.218 320.722 140.717 320.171C140.717 320.079 140.717 319.896 140.626 319.804L139.891 317.417C174.152 298.042 187.47 292.074 211.168 257.456C211.168 257.456 211.352 257.548 211.627 257.456C211.719 257.456 212.086 256.997 212.729 256.263C212.913 256.63 213.189 257.181 213.281 257.64C213.74 258.926 213.556 259.568 213.556 259.568C200.789 283.35 180.214 305.939 153.026 324.212Z" fill="#D4BA35"/>
<path fill-rule="evenodd" clip-rule="evenodd" d="M102.507 269.301C102.507 269.301 100.578 270.403 100.027 270.771C99.0166 271.413 98.2818 271.873 98.2818 271.964C98.0981 272.423 98.1899 273.066 98.741 272.883C98.9247 272.883 99.7514 272.332 100.945 271.689L103.701 270.036C106.548 268.291 109.58 266.455 109.947 266.363C110.131 266.271 110.314 266.363 110.498 266.363L111.417 265.261C111.233 265.078 110.957 264.986 110.682 264.986C110.314 264.986 105.997 267.281 102.507 269.301Z" fill="#292C2D"/>
<path fill-rule="evenodd" clip-rule="evenodd" d="M112.886 264.802L117.754 263.15C117.662 263.15 117.662 263.15 117.571 263.15L111.6 247.815C109.488 247.907 105.813 247.081 106.181 248.091C107.191 250.754 110.131 257.548 112.886 264.802Z" fill="#A3A5A7"/>
<path fill-rule="evenodd" clip-rule="evenodd" d="M214.75 248.183C215.301 249.376 220.629 264.252 220.629 264.252L218.792 264.894C218.792 264.894 213.372 250.019 212.913 248.917L214.75 248.183Z" fill="#B89C0A"/>
<path fill-rule="evenodd" clip-rule="evenodd" d="M206.208 192.63C206.667 192.722 208.688 193.915 209.974 195.935C210.709 197.129 211.26 198.507 211.076 200.159C210.801 204.016 209.055 212.096 208.596 214.208C208.504 214.484 208.504 214.575 208.504 214.759C208.412 215.126 207.769 215.677 206.851 216.412C205.473 217.514 203.544 218.983 203.361 220.085C202.993 221.921 210.158 239.368 210.249 239.459L209.331 239.827C209.331 239.735 201.983 222.013 202.442 219.901C202.718 218.432 204.83 216.779 206.3 215.677C207.035 215.126 207.586 214.667 207.586 214.667C207.586 214.667 207.586 214.484 207.678 214.116C208.137 212.004 209.882 203.924 210.158 200.159C210.249 198.69 209.79 197.496 209.239 196.486C208.137 194.742 206.484 193.732 206.116 193.64L206.208 192.63Z" fill="#B89C0A"/>
<path fill-rule="evenodd" clip-rule="evenodd" d="M209.515 247.356L214.842 245.428V245.336C214.842 245.336 215.393 244.326 215.393 244.051C215.393 243.683 215.118 243.041 214.934 242.949C214.75 242.857 214.015 242.949 214.015 242.949C214.015 242.949 213.832 242.582 213.74 242.49C213.648 242.398 213.372 242.398 213.372 242.398C213.372 242.398 213.281 242.306 213.189 242.214C213.097 242.031 213.281 241.939 213.281 241.939C213.281 241.939 212.729 240.745 212.638 240.745C212.454 240.745 211.995 240.745 211.995 240.745L208.229 242.214C208.229 242.214 207.678 242.49 207.586 242.582C207.402 242.765 207.678 243.316 207.769 243.592C207.861 243.775 208.137 243.867 208.137 243.867V244.143C208.137 244.143 208.045 244.234 207.953 244.234C207.953 244.326 208.045 244.693 208.045 244.785C208.137 244.877 208.229 244.877 208.229 244.877L208.321 245.153C208.321 245.153 207.586 245.704 207.769 246.254C207.861 246.897 208.321 247.081 208.78 247.265C209.239 247.356 209.515 247.356 209.515 247.356Z" fill="#CCCCCC"/>
<path fill-rule="evenodd" clip-rule="evenodd" d="M206.208 205.577L206.3 204.567C205.841 204.842 205.381 205.118 205.198 205.21C204.738 205.301 204.096 204.842 203.728 204.383C204.738 203.74 206.208 202.639 206.484 202.455C206.392 201.996 207.218 200.435 206.208 199.7C205.29 198.874 204.187 198.782 204.187 198.139C205.565 198.231 204.738 191.161 203.544 191.069C201.799 190.977 199.227 190.977 198.676 191.069C197.85 191.161 197.207 191.712 197.207 191.712C197.207 191.712 179.755 192.905 179.571 192.997C179.387 192.997 178.836 193.273 178.377 194.466C177.918 195.66 178.377 198.047 179.295 198.782C180.214 199.517 184.072 198.69 184.072 198.69C184.072 198.69 180.03 199.425 179.755 199.517C179.479 199.608 179.204 199.976 179.02 201.353C178.836 202.73 179.847 203.74 180.214 203.924C180.581 204.108 194.727 201.537 194.727 201.537C194.727 201.537 187.562 207.597 187.011 208.148C186.46 208.699 186.093 209.709 186.552 210.352C187.011 210.994 187.93 210.719 188.389 210.076C188.94 209.433 188.297 208.791 188.573 208.24C188.848 207.689 196.288 202.822 197.298 202.639C197.574 202.639 197.941 202.73 198.401 202.914C198.401 203.189 198.493 203.373 198.401 203.465C198.125 203.924 187.47 212.188 187.195 213.106C186.827 214.025 186.735 215.035 187.562 215.035C188.389 215.035 188.113 213.933 188.481 213.29C188.848 212.647 196.655 206.954 197.574 206.495C198.493 206.036 198.584 206.311 199.595 207.138C200.605 207.872 201.707 208.791 202.626 208.24C203.361 207.781 204.83 206.587 206.208 205.577ZM206.208 204.567L206.3 202.455C206.484 203.006 206.208 204.567 206.208 204.567Z" fill="#2F3031"/>
<path fill-rule="evenodd" clip-rule="evenodd" d="M111.692 248.366L107.467 248.55C107.467 248.55 107.743 249.651 107.467 250.845C107.375 251.212 106.548 251.58 105.354 251.855C103.885 251.855 102.599 250.845 102.415 249.56C102.048 250.111 101.313 250.753 99.8433 251.121C98.6492 251.396 97.4551 251.488 96.6284 251.396C96.1692 251.396 95.8018 251.304 95.5262 251.121C95.1588 250.937 94.9751 250.662 94.9751 250.294C94.9751 250.111 94.9751 250.019 95.067 249.835C95.1588 249.651 95.3425 249.468 95.5262 249.376C94.6077 248.733 94.424 248.182 94.6995 247.723C94.7914 247.631 94.7914 247.54 94.9751 247.448C94.6077 247.172 94.424 246.805 94.3321 246.53C94.2403 246.07 94.3321 245.795 94.6995 245.519C94.8833 245.336 95.1588 245.244 95.5262 245.152C91.4847 243.683 87.5351 242.489 87.1677 241.571C86.7084 240.469 85.2388 234.501 88.3618 232.572C91.4847 230.736 106.181 232.572 112.243 232.205C118.306 231.838 121.612 230.093 123.909 229.818C126.205 229.542 126.664 229.726 126.664 229.726C127.307 230.001 129.328 232.022 130.43 234.317C131.532 236.613 131.716 236.796 131.165 237.255C130.614 237.715 115.917 247.172 113.07 247.999C112.519 248.182 112.06 248.274 111.692 248.366ZM102.691 247.907C101.956 247.723 101.221 247.54 100.578 247.264C100.762 247.448 100.762 247.723 100.578 247.999C100.394 248.274 100.119 248.458 99.8433 248.55C100.027 248.55 100.119 248.55 100.303 248.55C100.762 248.641 101.037 248.825 100.945 249.192C100.945 249.376 100.762 249.468 100.578 249.56C99.9351 249.927 99.1084 250.111 98.1899 250.111C97.4551 250.111 96.7203 250.019 96.1692 249.743C95.8936 249.835 95.7099 250.019 95.7099 250.111C95.7099 250.202 95.7099 250.202 95.7099 250.294C95.7099 250.386 95.8018 250.386 95.8936 250.478C96.0773 250.57 96.3529 250.662 96.6284 250.662C97.4551 250.753 98.4655 250.662 99.6596 250.386C101.864 249.927 102.048 248.641 102.048 248.641L102.415 248.55C102.415 248.366 102.507 248.091 102.691 247.907ZM99.4759 246.805C99.384 246.713 99.2922 246.713 99.1084 246.621C98.3736 246.254 97.547 245.979 96.7203 245.611C96.3529 245.611 96.0773 245.703 95.8018 245.703C95.4344 245.795 95.1588 245.887 94.9751 245.979C94.8833 246.07 94.7914 246.162 94.8833 246.254C94.9751 246.438 95.1588 246.713 95.5262 246.989C96.0773 246.805 96.8121 246.713 97.547 246.621C98.1899 246.713 98.9247 246.713 99.4759 246.805ZM96.261 249.009C96.5366 248.917 96.904 248.825 97.1796 248.733C96.8121 248.641 96.3529 248.458 95.9855 248.274C95.8018 248.182 95.5262 247.999 95.4344 247.907C95.3425 247.999 95.2507 247.999 95.2507 248.09C95.1588 248.274 95.4344 248.458 96.1692 248.917L96.261 249.009ZM99.1084 249.284C98.741 249.284 98.3736 249.284 98.0062 249.376C98.0981 249.376 98.0981 249.376 98.1899 249.376C98.4655 249.376 98.8329 249.376 99.1084 249.284ZM97.547 247.448C97.1796 247.448 96.7203 247.54 96.3529 247.54C96.9959 247.907 97.7307 248.09 98.4655 248.09C99.0166 248.09 99.4759 247.907 99.8433 247.54C99.384 247.54 98.4655 247.448 97.547 247.448Z" fill="#2F3031"/>
<path fill-rule="evenodd" clip-rule="evenodd" d="M142.922 346.984C149.351 346.984 154.587 341.75 154.587 335.322C154.587 328.895 149.351 323.661 142.922 323.661C136.492 323.661 131.256 328.895 131.256 335.322C131.256 341.75 136.492 346.984 142.922 346.984Z" fill="#B89C0A"/>
<path d="M142.922 339.454C145.205 339.454 147.055 337.604 147.055 335.322C147.055 333.04 145.205 331.19 142.922 331.19C140.639 331.19 138.789 333.04 138.789 335.322C138.789 337.604 140.639 339.454 142.922 339.454Z" fill="#A3A5A7"/>
<path d="M142.922 338.352C144.596 338.352 145.953 336.996 145.953 335.322C145.953 333.649 144.596 332.292 142.922 332.292C141.248 332.292 139.891 333.649 139.891 335.322C139.891 336.996 141.248 338.352 142.922 338.352Z" fill="#E4E8EA"/>
<path fill-rule="evenodd" clip-rule="evenodd" d="M235.049 278.759C234.59 278.943 229.263 281.698 229.079 281.789C228.895 281.881 227.793 279.953 228.16 279.769C228.528 279.586 233.763 276.923 234.039 276.831C234.131 276.831 235.233 278.668 235.049 278.759Z" fill="#2F3031" stroke="#060204" stroke-width="0.216" stroke-miterlimit="2.6131"/>
<path fill-rule="evenodd" clip-rule="evenodd" d="M224.946 263.976C224.67 263.333 223.935 263.793 224.119 264.16C224.119 264.16 224.211 264.343 224.303 264.711L223.568 264.986L223.935 265.813C223.935 265.813 224.211 265.721 224.578 265.629C225.497 268.843 227.518 276.097 228.069 276.556C228.803 277.107 228.987 276.831 229.263 277.199C229.63 277.566 230.824 281.973 231.375 282.433C232.018 282.892 233.212 282.8 233.763 281.973C234.223 281.147 232.661 276.28 232.018 275.913C231.375 275.546 230.732 276.005 229.814 275.821C228.895 275.638 228.712 275.454 228.712 275.454C228.436 274.628 226.415 268.108 225.405 265.354C225.68 265.262 225.864 265.17 226.14 265.078L226.232 265.354L227.15 264.986L227.058 264.803C227.15 264.711 227.242 264.711 227.242 264.711L226.875 263.793C226.875 263.793 226.783 263.793 226.691 263.884L226.507 263.517L225.497 263.793C225.497 263.793 225.589 263.976 225.68 264.252L225.037 264.527C225.037 264.16 224.946 263.976 224.946 263.976Z" fill="#2F3031"/>
<path fill-rule="evenodd" clip-rule="evenodd" d="M247.266 249.56H216.955L217.23 250.57H247.266V249.56Z" fill="#292C2D"/>
<path fill-rule="evenodd" clip-rule="evenodd" d="M206.575 222.289L217.23 250.57H218.332L207.586 221.921L206.575 222.289Z" fill="#292C2D"/>
<path fill-rule="evenodd" clip-rule="evenodd" d="M235.692 249.835C242.03 249.743 248.46 249.651 251.399 249.56C253.42 249.56 253.512 247.172 253.787 245.428C254.706 239.735 257.921 220.176 260.676 216.779C262.789 214.116 208.688 214.116 210.801 216.779C213.556 220.268 216.771 239.735 217.689 245.428C217.965 247.172 217.965 249.56 220.078 249.56C222.925 249.651 229.263 249.743 235.692 249.835Z" fill="#A37275"/>
<path d="M235.692 249.835C242.03 249.743 248.46 249.651 251.399 249.56C253.42 249.56 253.512 247.172 253.787 245.428C254.706 239.735 257.921 220.176 260.676 216.779C262.789 214.116 208.688 214.116 210.801 216.779C213.556 220.268 216.771 239.735 217.689 245.428C217.965 247.172 217.965 249.56 220.078 249.56C222.925 249.651 229.263 249.743 235.692 249.835Z" fill="#A6A9AD"/>
<path d="M261.044 218.432H208.963V219.258H261.044V218.432Z" fill="#292C2D"/>
<path d="M261.044 219.258H208.963V220.085H261.044V219.258Z" fill="#AF603E"/>
<path d="M261.044 220.084H208.963V220.911H261.044V220.084Z" fill="#292C2D"/>
<path d="M261.044 220.819H208.963V221.646H261.044V220.819Z" fill="#AF603E"/>
<path d="M261.044 221.646H208.963V222.472H261.044V221.646Z" fill="#292C2D"/>
<path d="M261.044 222.38H208.963V223.207H261.044V222.38Z" fill="#AF603E"/>
<path d="M261.044 223.207H208.963V224.033H261.044V223.207Z" fill="#292C2D"/>
<path d="M261.044 224.033H208.963V224.86H261.044V224.033Z" fill="#AF603E"/>
<path d="M261.044 224.768H208.963V225.594H261.044V224.768Z" fill="#292C2D"/>
<path d="M261.044 225.594H208.963V226.42H261.044V225.594Z" fill="#AF603E"/>
<path d="M261.044 226.329H208.963V227.155H261.044V226.329Z" fill="#292C2D"/>
<path d="M261.044 227.155H208.963V227.981H261.044V227.155Z" fill="#AF603E"/>
<path d="M261.044 227.89H208.963V228.716H261.044V227.89Z" fill="#292C2D"/>
<path d="M261.044 228.716H208.963V229.542H261.044V228.716Z" fill="#AF603E"/>
<path d="M261.044 229.542H208.963V230.369H261.044V229.542Z" fill="#292C2D"/>
<path d="M261.044 230.277H208.963V231.103H261.044V230.277Z" fill="#AF603E"/>
<path d="M261.044 231.104H208.963V231.93H261.044V231.104Z" fill="#292C2D"/>
<path d="M261.044 231.838H208.963V232.664H261.044V231.838Z" fill="#AF603E"/>
<path d="M261.044 232.664H208.963V233.49H261.044V232.664Z" fill="#292C2D"/>
<path d="M261.044 233.491H208.963V234.317H261.044V233.491Z" fill="#AF603E"/>
<path d="M261.044 234.225H208.963V235.052H261.044V234.225Z" fill="#292C2D"/>
<path d="M261.044 235.052H208.963V235.878H261.044V235.052Z" fill="#AF603E"/>
<path d="M261.044 235.786H208.963V236.613H261.044V235.786Z" fill="#292C2D"/>
<path d="M261.044 236.613H208.963V237.439H261.044V236.613Z" fill="#AF603E"/>
<path d="M261.044 237.439H208.963V238.265H261.044V237.439Z" fill="#292C2D"/>
<path d="M261.044 238.174H208.963V239H261.044V238.174Z" fill="#AF603E"/>
<path d="M261.044 239H208.963V239.826H261.044V239Z" fill="#292C2D"/>
<path d="M261.044 239.734H208.963V240.561H261.044V239.734Z" fill="#AF603E"/>
<path d="M261.044 240.561H208.963V241.387H261.044V240.561Z" fill="#292C2D"/>
<path d="M261.044 241.387H208.963V242.214H261.044V241.387Z" fill="#AF603E"/>
<path d="M261.044 242.122H208.963V242.948H261.044V242.122Z" fill="#292C2D"/>
<path d="M261.044 242.948H208.963V243.775H261.044V242.948Z" fill="#AF603E"/>
<path d="M261.044 243.683H208.963V244.51H261.044V243.683Z" fill="#292C2D"/>
<path d="M261.044 244.509H208.963V245.336H261.044V244.509Z" fill="#AF603E"/>
<path d="M261.044 245.336H208.963V246.162H261.044V245.336Z" fill="#292C2D"/>
<path d="M261.044 246.07H208.963V246.897H261.044V246.07Z" fill="#AF603E"/>
<path d="M261.044 246.897H208.963V247.723H261.044V246.897Z" fill="#292C2D"/>
<path d="M261.044 247.631H208.963V248.458H261.044V247.631Z" fill="#AF603E"/>
<path d="M261.044 248.458H208.963V249.284H261.044V248.458Z" fill="#292C2D"/>
<path d="M261.044 249.284H208.963V250.111H261.044V249.284Z" fill="#AF603E"/>
<path fill-rule="evenodd" clip-rule="evenodd" d="M211.076 214.667H259.666C260.768 214.667 261.686 215.585 261.686 216.687C261.686 217.789 260.768 218.707 259.666 218.707H211.076C209.974 218.707 209.055 217.789 209.055 216.687C209.147 215.585 209.974 214.667 211.076 214.667Z" fill="#AF603E"/>
<path fill-rule="evenodd" clip-rule="evenodd" d="M261.686 216.687H209.055C209.055 217.789 209.974 218.707 211.076 218.707H259.666C260.768 218.707 261.686 217.789 261.686 216.687Z" fill="#934F31"/>
<path fill-rule="evenodd" clip-rule="evenodd" d="M199.87 199.241C199.87 199.241 206.943 197.772 216.771 207.138C222.006 212.188 223.843 222.931 223.384 234.501C222.833 248.274 219.159 263.058 214.383 270.312C213.74 271.23 213.188 272.148 212.546 273.066C206.208 282.8 201.156 290.421 192.246 299.511C188.205 303.643 182.877 308.51 177.642 313.101C170.477 319.345 163.588 324.854 161.108 326.599C156.883 329.537 156.791 329.629 156.791 329.629L156.516 328.895C156.516 328.895 156.424 328.895 160.649 325.956C163.129 324.212 169.926 318.702 177.091 312.458C182.234 307.959 187.562 303.092 191.603 298.96C200.421 289.962 205.473 282.249 211.811 272.607C212.362 271.689 213.005 270.771 213.648 269.853C218.332 262.782 222.006 248.091 222.557 234.501C223.017 223.207 221.271 212.555 216.22 207.689C206.667 198.598 199.962 199.976 199.962 199.976L199.87 199.241Z" fill="#B8BABC"/>
<path fill-rule="evenodd" clip-rule="evenodd" d="M59.9795 325.681L125.194 330.547C125.194 330.547 125.378 330.823 125.286 331.098C125.286 331.374 124.827 331.465 124.827 331.465L60.0713 326.507L59.9795 325.681Z" fill="#A3A5A7"/>
<path d="M59.9794 328.987C61.6534 328.987 63.0105 327.63 63.0105 325.956C63.0105 324.283 61.6534 322.926 59.9794 322.926C58.3053 322.926 56.9482 324.283 56.9482 325.956C56.9482 327.63 58.3053 328.987 59.9794 328.987Z" fill="#E4E8EA"/>
<path fill-rule="evenodd" clip-rule="evenodd" d="M144.208 332.108L145.218 332.935L146.137 333.853V334.771L170.477 343.954L169.283 346.984L145.034 337.801L144.391 338.444H143.105L141.82 338.536L140.809 337.618L139.891 336.7L139.799 335.414V334.037L140.717 333.118L141.636 332.108H142.922H144.208Z" fill="#68696B"/>
<path d="M142.922 337.159C143.937 337.159 144.759 336.337 144.759 335.322C144.759 334.308 143.937 333.486 142.922 333.486C141.907 333.486 141.085 334.308 141.085 335.322C141.085 336.337 141.907 337.159 142.922 337.159Z" fill="#A6A9AD"/>
<path fill-rule="evenodd" clip-rule="evenodd" d="M163.864 342.852H175.897C176.448 342.852 176.907 343.311 176.907 343.862V346.892C176.907 347.443 176.448 347.902 175.897 347.902H163.864C163.313 347.902 162.854 347.443 162.854 346.892V343.862C162.854 343.311 163.313 342.852 163.864 342.852Z" fill="#292C2D"/>
<path d="M169.834 347.626C171.052 347.626 172.039 346.64 172.039 345.423C172.039 344.205 171.052 343.219 169.834 343.219C168.617 343.219 167.63 344.205 167.63 345.423C167.63 346.64 168.617 347.626 169.834 347.626Z" fill="#68696B"/>
<path d="M59.9796 327.793C60.9942 327.793 61.8167 326.971 61.8167 325.957C61.8167 324.942 60.9942 324.12 59.9796 324.12C58.965 324.12 58.1426 324.942 58.1426 325.957C58.1426 326.971 58.965 327.793 59.9796 327.793Z" fill="#A6A9AD"/>
<path fill-rule="evenodd" clip-rule="evenodd" d="M2.66365 300.705C3.94958 301.164 54.0089 323.936 54.1927 324.028L53.7334 324.946C53.5497 324.854 3.49032 302.174 2.20439 301.623C1.74513 301.256 2.20439 300.43 2.66365 300.705Z" fill="#B89C0A"/>
<path fill-rule="evenodd" clip-rule="evenodd" d="M217.138 268.016L222.374 266.271C222.741 266.18 223.201 266.363 223.293 266.731C223.384 267.098 223.201 267.557 222.833 267.649L217.598 269.393C217.23 269.485 216.771 269.302 216.679 268.934C216.587 268.567 216.771 268.2 217.138 268.016Z" fill="#292C2D"/>
<path fill-rule="evenodd" clip-rule="evenodd" d="M210.066 257.824C209.239 259.018 208.78 259.661 208.321 260.303C198.217 274.719 184.531 294.278 139.615 316.591L138.697 314.754C183.153 292.717 196.655 273.342 206.667 259.11C207.402 258.1 208.137 257.089 208.412 256.63L210.066 257.824Z" fill="#B89C0A"/>
<path fill-rule="evenodd" clip-rule="evenodd" d="M214.842 265.445C202.625 286.381 182.602 309.795 155.597 327.15L154.679 325.405C178.56 311.356 201.707 284.82 213.188 264.343L214.842 265.445Z" fill="#B89C0A"/>
<path d="M120.49 271.518L118.607 272.252L133.578 310.571L135.46 309.836L120.49 271.518Z" fill="#B89C0A"/>
<path fill-rule="evenodd" clip-rule="evenodd" d="M223.476 273.434C223.476 273.525 232.57 297.858 235.876 303.368C239.183 308.877 253.971 324.671 254.063 324.762L253.328 325.405C253.328 325.405 238.448 309.52 235.05 303.827C231.651 298.226 222.558 273.801 222.558 273.709L223.476 273.434Z" fill="#B89C0A"/>
<path fill-rule="evenodd" clip-rule="evenodd" d="M142.922 323.202C115.366 322.008 87.8105 320.814 60.2549 319.621C58.326 319.621 58.5097 317.692 60.3468 317.601C87.9024 318.794 115.458 319.988 143.014 321.182C146.228 321.549 145.126 323.477 142.922 323.202Z" fill="#B89C0A"/>
<path d="M109.991 269.819L68.1655 315.697L68.9123 316.377L110.737 270.5L109.991 269.819Z" fill="#B89C0A"/>
<path d="M110.953 249.005L109.059 249.709L113.862 262.619L115.756 261.915L110.953 249.005Z" fill="#B8BABC"/>
<path fill-rule="evenodd" clip-rule="evenodd" d="M162.762 322.834C162.945 323.11 164.048 324.763 164.415 324.671C164.691 324.579 166.068 323.569 166.068 323.294C166.068 323.11 166.068 323.018 165.977 322.926C165.885 322.834 164.599 321.273 164.599 321.273L162.762 322.834Z" fill="#D4BA35"/>
<path fill-rule="evenodd" clip-rule="evenodd" d="M189.95 298.226C190.134 298.501 191.236 300.154 191.604 300.062C191.879 299.971 193.257 298.961 193.257 298.685C193.257 298.501 193.257 298.41 193.165 298.318C193.073 298.226 191.787 296.665 191.787 296.665L189.95 298.226Z" fill="#D4BA35"/>
<path fill-rule="evenodd" clip-rule="evenodd" d="M209.056 226.053L202.718 228.257C202.442 228.349 202.35 228.624 202.442 228.808L202.626 229.45C202.718 229.726 202.993 229.818 203.177 229.726L209.515 227.522C209.79 227.43 209.882 227.155 209.79 226.971L209.607 226.328C209.607 226.053 209.331 225.961 209.056 226.053Z" fill="#292C2D"/>
<path fill-rule="evenodd" clip-rule="evenodd" d="M212.546 235.603L206.208 237.806C205.932 237.898 205.841 238.174 205.932 238.357L206.116 239C206.208 239.275 206.483 239.367 206.667 239.275L213.005 237.072C213.281 236.98 213.372 236.704 213.281 236.521L213.097 235.878C213.005 235.694 212.729 235.511 212.546 235.603Z" fill="#292C2D"/>
<path d="M17.8611 316.712H309.139C311.266 316.712 313 314.984 313 312.848C313 310.728 311.266 309 309.139 309H17.8611C15.718 309 14.0001 310.728 14.0001 312.848C13.9838 314.984 15.718 316.712 17.8611 316.712Z" fill="#0A609E"/>
<path d="M17.8609 316.712H98.386C100.529 316.712 102.247 314.984 102.247 312.864C102.247 310.728 100.513 309.016 98.386 309.016H17.8609C15.7177 309.016 13.9999 310.744 13.9999 312.864C13.9835 314.984 15.7177 316.712 17.8609 316.712Z" fill="#074978"/>
<path d="M30.0495 316.435H304.82V327.115H30.0495V316.435Z" fill="#074978"/>
<path d="M23.8325 316.435H94.6396V327.115H23.8325V316.435Z" fill="#06416B"/>
<path d="M229.186 327.131H299.257V409H229.186V327.131Z" fill="#0A609E"/>
<path d="M193.227 327.131H249.98V409H193.227V327.131Z" fill="#074978"/>
<path d="M193.227 327.131H249.866L193.227 356.986V327.131Z" fill="#064069"/>
<path d="M66.0091 327.131H136.08V409H66.0091V327.131Z" fill="#0A609E"/>
<path d="M30.0495 327.131H86.8032V409H30.0495V327.131Z" fill="#074978"/>
<path d="M30.0493 327.131H86.6885L30.0493 356.986V327.131Z" fill="#074470"/>
<path d="M162 195.802H115V205.633H162V195.802Z" fill="#E2E7ED"/>
<path d="M151.791 238H124.479L117.585 205.633H159.414L151.791 238Z" fill="#C3CAD6"/>
<path d="M129.791 238H124.479L117.585 205.633H128.414L129.791 238Z" fill="#A3B1C8"/>
<path d="M126 195.8H115V205.63H126V195.8Z" fill="#C6CFD9"/>
<path d="M131.572 135.013C129.186 135.615 126.733 134.412 124.678 133.007C123.286 132.071 122.027 131.068 120.767 129.931C119.507 128.794 118.314 127.523 117.917 125.852C117.85 125.651 117.784 125.383 117.85 125.183C117.983 124.648 118.579 124.38 119.176 124.38C120.9 124.247 122.424 125.517 123.684 126.721C126.335 129.262 128.921 131.87 131.373 134.545" fill="#2FA453"/>
<path d="M131.771 134.411C129.782 131.402 128.722 127.724 128.921 124.113C128.921 123.845 128.987 123.578 129.12 123.377C129.385 122.976 130.048 122.909 130.445 123.11C130.909 123.377 131.175 123.778 131.373 124.246C132.964 127.456 132.699 131.201 132.368 134.746" fill="#53D47B"/>
<path d="M135.881 149.257C138.068 141.834 143.637 135.548 150.664 132.606C151.393 132.271 152.321 132.004 152.984 132.472C153.58 132.873 153.779 133.676 153.912 134.411C154.509 138.558 153.315 142.837 151.26 146.449C149.205 150.127 146.355 153.203 143.305 156.079C141.648 157.617 139.726 159.222 137.472 159.489" fill="#53D47B"/>
<path d="M135.55 150.929C132.434 146.716 128.457 143.038 124.015 140.229C123.087 139.628 122.093 139.093 120.966 139.159C119.441 139.226 118.248 140.497 117.784 141.968C117.32 143.439 117.519 144.978 117.85 146.449C119.971 156.614 127.794 165.374 137.538 168.651" fill="#2FA453"/>
<path d="M138.599 172.731C141.98 167.381 146.421 162.633 151.592 159.021C152.984 158.018 154.707 157.082 156.298 157.617C158.287 158.286 158.95 160.76 158.95 162.9C158.95 168.718 156.033 174.269 152.122 178.549C148.211 182.829 143.306 186.039 138.466 189.249" fill="#53D47B"/>
<path d="M138.533 181.29C136.611 174.068 130.578 168.116 123.419 166.377C122.027 166.043 120.369 165.909 119.375 166.912C118.911 167.38 118.646 167.982 118.447 168.584C117.121 172.797 118.712 177.411 121.099 181.156C125.01 187.242 131.241 191.923 138.268 193.528" fill="#2FA453"/>
<path d="M138.002 195.134C139.925 174.737 137.737 153.872 131.506 134.345" stroke="#2FA453" stroke-width="2" stroke-miterlimit="10" stroke-linecap="round" stroke-linejoin="round"/>
<path d="M152.785 132.806C147.614 139.694 142.245 146.449 136.61 152.869C136.146 153.404 136.942 154.206 137.406 153.671C143.173 147.251 148.542 140.363 153.117 132.94C153.315 132.739 152.984 132.606 152.785 132.806Z" fill="#2FA453"/>
<path d="M156.299 159.556C151.26 167.314 145.692 174.469 140.323 181.959C139.991 182.427 140.787 183.029 141.184 182.628C147.349 175.94 152.454 167.782 156.63 159.757C156.696 159.489 156.431 159.355 156.299 159.556Z" fill="#2FA453"/>
<path d="M119.242 140.163C123.485 148.522 129.451 155.811 137.074 161.362C137.803 161.897 138.466 160.693 137.737 160.158C130.313 154.741 124.147 148.054 119.507 139.962C119.441 139.828 119.176 139.962 119.242 140.163Z" fill="#1B823B"/>
<path d="M119.11 167.782C123.286 175.205 129.982 182.294 136.611 187.51C137.34 188.045 138.334 187.108 137.605 186.507C134.357 183.564 131.042 180.755 127.993 177.545C125.01 174.335 122.424 170.791 119.574 167.514C119.309 167.18 118.911 167.514 119.11 167.782Z" fill="#1B823B"/>
<path d="M62.4425 237H121.698V308.903H62.4425V237Z" fill="#8E602F"/>
<path d="M119.581 237H170.209V308.903H119.581V237Z" fill="#BE9157"/>
<path d="M131.769 275.578L143.095 278.587L138.316 296.467L126.991 293.457L131.769 275.578Z" fill="#E6E7E8"/>
<path d="M78.2332 280.012H107.21V282.609H78.2332V280.012Z" fill="#2D3235"/>
<path d="M78.2327 284.72H107.209V287.317H78.2327V284.72Z" fill="#2D3235"/>
<path d="M78.2327 293.809H107.209V296.406H78.2327V293.809Z" fill="#2D3235"/>
<path d="M78.2327 298.516H107.209V301.113H78.2327V298.516Z" fill="#2D3235"/>
<path d="M90.9304 303.061H107.209V305.658H90.9304V303.061Z" fill="#2D3235"/>
<path opacity="0.5" d="M141.884 237H152.303V252.744H141.884V237Z" fill="#754C29"/>
<path d="M79.7399 254H93.9995V309H79.7399V254Z" fill="#F25A5A"/>
<path d="M42.9996 254H79.9219V309H42.9996V254Z" fill="#B24040"/>
<path d="M85.0876 268.103H89.2891V292.59H85.0876V268.103Z" fill="white"/>
<path d="M79.7399 299H93.9995V306.564H79.7399V299Z" fill="#36353D"/>
<path d="M46.6375 299H79.7402V306.564H46.6375V299Z" fill="#2D3235"/>
</svg>
