<svg width="322" height="386" viewBox="0 0 322 386" fill="none" xmlns="http://www.w3.org/2000/svg">
<path d="M77.4471 24.5756C77.7043 22.9598 78.3633 21.2481 79.7617 20.5922C81.0314 19.9843 82.5263 20.4482 83.8121 21.0401C82.4137 18.5445 82.3494 15.249 83.6835 12.6894C84.005 12.0815 84.4068 11.4896 84.9855 11.1856C85.5641 10.8657 86.3356 10.8817 86.7857 11.3776C86.4963 9.12195 86.8339 6.80232 87.6697 4.72264C87.9751 3.74679 88.3769 2.80294 88.8591 1.92308C89.3734 0.979223 90.2092 0.00337549 91.1736 0.083363C91.2219 0.0673655 91.254 0.051368 91.3022 0.0353705C92.347 -0.204592 93.2632 0.819248 93.8096 1.81109C94.4044 2.86693 94.8705 3.98675 95.208 5.15457C95.9474 7.10627 96.2528 9.26593 96.0117 11.3776C96.4617 10.8817 97.2332 10.8497 97.8119 11.1536C98.3905 11.4576 98.8084 12.0335 99.1299 12.6414C100.48 15.169 100.464 18.4645 99.0977 20.9921C100.384 20.3842 101.862 19.9043 103.148 20.4962C104.547 21.1361 105.238 22.8478 105.511 24.4476C106.363 29.4068 104.466 34.574 101.412 38.3974C99.9818 40.2051 98.1976 41.8209 96.0438 42.3808H87.1071C84.9533 41.8529 83.1531 40.2531 81.6904 38.4774C78.6044 34.67 76.6435 29.5348 77.4471 24.5756Z" fill="#3BBF64"/>
<path d="M104.418 43.0207C106.524 42.0448 108.709 41.005 110.156 39.1973C111.603 37.3896 112.053 34.558 110.51 32.8303C113.548 31.9504 116.007 29.3588 116.714 26.3033C117.132 24.5116 116.746 22.2239 115.042 21.488C116.891 20.4482 117.55 18.1446 117.839 16.0489C118.016 14.7851 118.112 13.4893 117.775 12.2575C117.437 11.0257 116.601 9.87384 115.412 9.42591C114.399 9.05797 113.258 9.23394 112.246 9.61788C109.143 10.7537 106.781 13.6972 106.363 16.9607C105.527 15.505 103.421 14.9451 101.959 15.7769C100.416 16.6568 99.8853 18.6085 99.7406 20.3842C99.5799 22.1599 99.6764 23.9676 99.9817 25.7274C99.371 24.6555 97.9244 24.2396 96.751 24.6075C95.5777 24.9755 94.6776 25.9673 94.1793 27.0872C93.681 28.207 93.5364 29.4548 93.4721 30.6866C93.2471 34.766 93.8096 38.9253 95.4973 42.6527" fill="#2FA453"/>
<path d="M115.075 10.9615C113.435 12.8812 112.037 14.9609 110.606 17.0406C109.192 19.1203 107.777 21.1999 106.475 23.3436C103.823 27.6629 101.766 32.2382 100.094 37.0055C99.1621 39.6611 98.3906 42.3646 97.4744 45.0202C97.3619 45.3402 96.8636 45.2122 96.944 44.8763C97.6191 42.4446 98.4227 40.029 99.2585 37.6294C100.078 35.2458 100.978 32.8781 102.023 30.5585C104.097 25.9192 106.829 21.6319 109.754 17.4885C111.362 15.2009 112.921 12.7693 114.898 10.7696C115.01 10.6576 115.187 10.8336 115.075 10.9615Z" fill="#1B823B"/>
<path d="M79.4241 43.3885C77.1899 42.3487 74.8754 41.2449 73.3323 39.3252C71.8054 37.4055 71.3232 34.3979 72.9466 32.5582C69.7319 31.6304 67.112 28.8628 66.3565 25.6153C65.9065 23.6956 66.3244 21.28 68.1407 20.4961C66.1797 19.3923 65.4725 16.9446 65.1671 14.721C64.9903 13.3772 64.8778 12.0014 65.2314 10.7056C65.585 9.40982 66.453 8.17802 67.7388 7.71409C68.8158 7.31415 70.0212 7.52212 71.0981 7.90606C74.3932 9.10587 76.9006 12.2414 77.3346 15.7128C78.2186 14.1611 80.4528 13.5692 82.0119 14.465C83.6513 15.4089 84.2139 17.4886 84.3746 19.3603C84.5354 21.248 84.455 23.1677 84.1175 25.0394C84.7604 23.9036 86.3034 23.4556 87.5571 23.8396C88.8108 24.2235 89.7591 25.2794 90.2896 26.4792C90.82 27.679 90.9646 28.9908 91.0289 30.3026C91.27 34.6379 90.6753 39.0532 88.8912 43.0046" fill="#53D47B"/>
<path d="M68.2692 9.13791C70.1337 11.0256 71.6124 13.2813 73.1394 15.4409C74.6985 17.6486 76.2254 19.8562 77.6559 22.1599C80.5009 26.7352 82.719 31.5984 84.5192 36.6696C85.5318 39.5332 86.5123 42.4447 87.332 45.3723C87.4285 45.7082 86.9141 45.8362 86.8016 45.5162C85.9336 43.0046 85.1943 40.461 84.3424 37.9654C83.4744 35.4218 82.5261 32.8942 81.4332 30.4306C79.2793 25.5674 76.4183 21.072 73.4287 16.6727C71.7249 14.1771 70.0533 11.6335 68.0763 9.32988C67.9799 9.2019 68.1567 9.00993 68.2692 9.13791Z" fill="#2DA151"/>
<path d="M77 42H108V52H77V42Z" fill="#00B4EC"/>
<path d="M81.413 73H102.587L105 52H79L81.413 73Z" fill="#0093C2"/>
<path d="M103 42H108V52H103V42Z" fill="#049DCD"/>
<path d="M97.7156 73H102.783L105 52H97L97.7156 73Z" fill="#046B8C"/>
<path d="M240.605 300H181.349V363.788H240.605V300Z" fill="#895029"/>
<path d="M183.628 300H133V363.788H183.628V300Z" fill="#E36B15"/>
<path d="M240.93 312.985H183.465V342.526H240.93V312.985Z" fill="#999B97"/>
<path d="M183.628 312.985H133V342.526H183.628V312.985Z" fill="#E6E7E8"/>
<path d="M173.209 320.938H144.233V323.534H173.209V320.938Z" fill="#2D3235"/>
<path d="M173.209 325.482H144.232V328.079H173.209V325.482Z" fill="#2D3235"/>
<path d="M164.907 306.817C164.907 308.602 163.279 310.063 161.163 310.063H153.837C151.721 310.063 150.093 308.602 150.093 306.817C150.093 305.031 151.721 303.571 153.837 303.571H161.163C163.279 303.571 164.907 305.031 164.907 306.817Z" fill="#36353D"/>
<path d="M177.899 351.178L167.83 353.848L169.504 360.122L179.572 357.452L177.899 351.178Z" fill="#E6E7E8"/>
<path d="M321.605 322H262.349V385.788H321.605V322Z" fill="#895029"/>
<path d="M264.628 322H214V385.788H264.628V322Z" fill="#E36B15"/>
<path d="M321.93 334.985H264.465V364.526H321.93V334.985Z" fill="#999B97"/>
<path d="M264.628 334.985H214V364.526H264.628V334.985Z" fill="#E6E7E8"/>
<path d="M254.209 342.938H225.233V345.534H254.209V342.938Z" fill="#2D3235"/>
<path d="M254.209 347.482H225.232V350.079H254.209V347.482Z" fill="#2D3235"/>
<path d="M245.907 328.817C245.907 330.602 244.279 332.063 242.163 332.063H234.837C232.721 332.063 231.093 330.602 231.093 328.817C231.093 327.031 232.721 325.571 234.837 325.571H242.163C244.279 325.571 245.907 327.031 245.907 328.817Z" fill="#36353D"/>
<path d="M258.899 373.178L248.83 375.848L250.504 382.122L260.572 379.452L258.899 373.178Z" fill="#E6E7E8"/>
<path d="M125.605 180H66.3489V243.788H125.605V180Z" fill="#895029"/>
<path d="M68.6279 180H18V243.788H68.6279V180Z" fill="#E36B15"/>
<path d="M125.93 192.985H68.4651V222.526H125.93V192.985Z" fill="#999B97"/>
<path d="M68.6279 192.985H18V222.526H68.6279V192.985Z" fill="#E6E7E8"/>
<path d="M58.2094 200.938H29.2327V203.534H58.2094V200.938Z" fill="#2D3235"/>
<path d="M58.2091 205.482H29.2324V208.079H58.2091V205.482Z" fill="#2D3235"/>
<path d="M49.9067 186.817C49.9067 188.602 48.2788 190.063 46.1625 190.063H38.8369C36.7207 190.063 35.0928 188.602 35.0928 186.817C35.0928 185.031 36.7207 183.571 38.8369 183.571H46.1625C48.2788 183.571 49.9067 185.031 49.9067 186.817Z" fill="#36353D"/>
<path d="M62.8986 231.178L52.8301 233.848L54.5036 240.122L64.5721 237.452L62.8986 231.178Z" fill="#E6E7E8"/>
<path d="M142.233 231H124V300.631H142.233V231Z" fill="#F25A5A"/>
<path d="M189.209 231H142V300.631H189.209V231Z" fill="#B24040"/>
<path d="M135.395 248.854H130.023V279.855H135.395V248.854Z" fill="white"/>
<path d="M142.233 287.971H124V297.547H142.233V287.971Z" fill="#36353D"/>
<path d="M184.558 287.971H142.232V297.547H184.558V287.971Z" fill="#2D3235"/>
<path d="M107.767 314H48.5107V385.903H107.767V314Z" fill="#8E602F"/>
<path d="M50.6279 314H0V385.903H50.6279V314Z" fill="#BE9157"/>
<path d="M38.4397 352.578L27.1138 355.587L31.8925 373.467L43.2184 370.458L38.4397 352.578Z" fill="#E6E7E8"/>
<path d="M91.9755 357.012H62.9988V359.609H91.9755V357.012Z" fill="#2D3235"/>
<path d="M91.9762 361.72H62.9995V364.317H91.9762V361.72Z" fill="#2D3235"/>
<path d="M91.9762 370.809H62.9995V373.406H91.9762V370.809Z" fill="#2D3235"/>
<path d="M91.9762 375.516H62.9995V378.113H91.9762V375.516Z" fill="#2D3235"/>
<path d="M79.2786 380.061H62.9995V382.658H79.2786V380.061Z" fill="#2D3235"/>
<path opacity="0.5" d="M28.3251 314H17.9065V329.744H28.3251V314Z" fill="#754C29"/>
<path d="M135.767 243H76.5107V314.903H135.767V243Z" fill="#8E602F"/>
<path d="M78.6279 243H28V314.903H78.6279V243Z" fill="#BE9157"/>
<path d="M66.4397 281.578L55.1138 284.587L59.8925 302.467L71.2184 299.458L66.4397 281.578Z" fill="#E6E7E8"/>
<path d="M119.976 286.012H90.9988V288.609H119.976V286.012Z" fill="#2D3235"/>
<path d="M119.976 290.72H90.9995V293.317H119.976V290.72Z" fill="#2D3235"/>
<path d="M119.976 299.809H90.9995V302.406H119.976V299.809Z" fill="#2D3235"/>
<path d="M119.976 304.516H90.9995V307.113H119.976V304.516Z" fill="#2D3235"/>
<path d="M107.279 309.061H90.9995V311.658H107.279V309.061Z" fill="#2D3235"/>
<path opacity="0.5" d="M56.3251 243H45.9065V258.744H56.3251V243Z" fill="#754C29"/>
<path d="M99.2325 316H81V385.631H99.2325V316Z" fill="#F25A5A"/>
<path d="M146.209 316H99V385.631H146.209V316Z" fill="#B24040"/>
<path d="M92.395 333.854H87.0229V364.855H92.395V333.854Z" fill="white"/>
<path d="M99.2325 372.971H81V382.547H99.2325V372.971Z" fill="#36353D"/>
<path d="M141.558 372.971H99.2322V382.547H141.558V372.971Z" fill="#2D3235"/>
<path d="M227.802 317.149L230.827 300.851C230.827 298.731 232.547 297 234.653 297H265.821C267.942 297 269.647 298.731 269.647 300.851L266.622 316.418" stroke="#ABDCF8" stroke-width="2" stroke-miterlimit="10" stroke-linecap="round"/>
<path d="M233.363 317.149L231.154 300.851C231.154 298.731 232.874 297 234.979 297H266.148C268.268 297 269.973 298.731 269.973 300.851L272.183 316.418" stroke="#ABDCF8" stroke-width="2" stroke-miterlimit="10" stroke-linecap="round"/>
<path d="M237.9 308.865V298" stroke="#00AAE8" stroke-miterlimit="10" stroke-linecap="round"/>
<path d="M237.9 314.194C239.366 314.194 240.555 312.998 240.555 311.522C240.555 310.047 239.366 308.851 237.9 308.851C236.434 308.851 235.246 310.047 235.246 311.522C235.246 312.998 236.434 314.194 237.9 314.194Z" fill="#CBE9FB"/>
<path d="M239.531 309.418C239.872 309.866 240.08 310.433 240.08 311.045C240.08 312.522 238.894 313.716 237.426 313.716C236.818 313.716 236.254 313.508 235.81 313.164C236.299 313.791 237.055 314.209 237.915 314.209C239.383 314.209 240.569 313.015 240.569 311.537C240.555 310.657 240.154 309.896 239.531 309.418Z" fill="#AADCF8"/>
<path d="M237.085 311.522C237.658 311.522 238.123 311.055 238.123 310.478C238.123 309.901 237.658 309.433 237.085 309.433C236.512 309.433 236.047 309.901 236.047 310.478C236.047 311.055 236.512 311.522 237.085 311.522Z" fill="white"/>
<path d="M238.108 312.702C238.337 312.702 238.523 312.514 238.523 312.284C238.523 312.053 238.337 311.866 238.108 311.866C237.879 311.866 237.693 312.053 237.693 312.284C237.693 312.514 237.879 312.702 238.108 312.702Z" fill="white"/>
<path d="M273.428 322H232.132C231.272 322 230.561 321.299 230.561 320.418V316.164H275V320.418C275 321.299 274.303 322 273.428 322Z" fill="#0093C2"/>
<path d="M267.868 322H226.572C225.712 322 225 321.299 225 320.418V316.164H269.44V320.418C269.44 321.299 268.728 322 267.868 322Z" fill="#00B4EC"/>
<path d="M238.078 314.522C239.602 314.522 240.836 313.28 240.836 311.746C240.836 310.213 239.602 308.97 238.078 308.97C236.555 308.97 235.32 310.213 235.32 311.746C235.32 313.28 236.555 314.522 238.078 314.522Z" fill="#CBE9FB"/>
<path d="M239.769 309.552C240.125 310.015 240.347 310.612 240.347 311.254C240.347 312.791 239.116 314.03 237.589 314.03C236.951 314.03 236.373 313.806 235.899 313.448C236.403 314.104 237.189 314.537 238.078 314.537C239.606 314.537 240.836 313.299 240.836 311.761C240.851 310.851 240.421 310.06 239.769 309.552Z" fill="#AADCF8"/>
<path d="M237.218 311.746C237.816 311.746 238.301 311.258 238.301 310.657C238.301 310.055 237.816 309.567 237.218 309.567C236.62 309.567 236.136 310.055 236.136 310.657C236.136 311.258 236.62 311.746 237.218 311.746Z" fill="white"/>
<path d="M238.301 312.985C238.546 312.985 238.746 312.785 238.746 312.537C238.746 312.29 238.546 312.09 238.301 312.09C238.055 312.09 237.856 312.29 237.856 312.537C237.856 312.785 238.055 312.985 238.301 312.985Z" fill="white"/>
<path d="M244.173 308.97V298" stroke="#00AAE8" stroke-miterlimit="10" stroke-linecap="round"/>
<path d="M244.173 314.523C245.696 314.523 246.931 313.28 246.931 311.747C246.931 310.213 245.696 308.97 244.173 308.97C242.649 308.97 241.415 310.213 241.415 311.747C241.415 313.28 242.649 314.523 244.173 314.523Z" fill="#CBE9FB"/>
<path d="M245.863 309.552C246.219 310.015 246.441 310.612 246.441 311.254C246.441 312.791 245.21 314.03 243.683 314.03C243.045 314.03 242.467 313.806 241.993 313.448C242.497 314.105 243.283 314.538 244.172 314.538C245.7 314.538 246.93 313.299 246.93 311.761C246.945 310.851 246.515 310.06 245.863 309.552Z" fill="#AADCF8"/>
<path d="M243.313 311.746C243.91 311.746 244.395 311.259 244.395 310.657C244.395 310.055 243.91 309.567 243.313 309.567C242.715 309.567 242.23 310.055 242.23 310.657C242.23 311.259 242.715 311.746 243.313 311.746Z" fill="white"/>
<path d="M244.395 312.985C244.641 312.985 244.84 312.785 244.84 312.538C244.84 312.29 244.641 312.09 244.395 312.09C244.149 312.09 243.95 312.29 243.95 312.538C243.95 312.785 244.149 312.985 244.395 312.985Z" fill="white"/>
<path d="M250.282 308.97V298" stroke="#00AAE8" stroke-miterlimit="10" stroke-linecap="round"/>
<path d="M250.282 314.523C251.805 314.523 253.04 313.28 253.04 311.747C253.04 310.213 251.805 308.97 250.282 308.97C248.759 308.97 247.524 310.213 247.524 311.747C247.524 313.28 248.759 314.523 250.282 314.523Z" fill="#CBE9FB"/>
<path d="M251.958 309.552C252.313 310.015 252.536 310.612 252.536 311.254C252.536 312.791 251.305 314.03 249.778 314.03C249.14 314.03 248.562 313.806 248.087 313.448C248.592 314.105 249.377 314.538 250.267 314.538C251.794 314.538 253.025 313.299 253.025 311.761C253.04 310.851 252.61 310.06 251.958 309.552Z" fill="#AADCF8"/>
<path d="M249.407 311.746C250.005 311.746 250.49 311.259 250.49 310.657C250.49 310.055 250.005 309.567 249.407 309.567C248.809 309.567 248.325 310.055 248.325 310.657C248.325 311.259 248.809 311.746 249.407 311.746Z" fill="white"/>
<path d="M250.49 312.985C250.735 312.985 250.934 312.785 250.934 312.538C250.934 312.29 250.735 312.09 250.49 312.09C250.244 312.09 250.045 312.29 250.045 312.538C250.045 312.785 250.244 312.985 250.49 312.985Z" fill="white"/>
<path d="M256.376 308.97V298" stroke="#00AAE8" stroke-miterlimit="10" stroke-linecap="round"/>
<path d="M256.376 314.523C257.899 314.523 259.134 313.28 259.134 311.747C259.134 310.213 257.899 308.97 256.376 308.97C254.853 308.97 253.618 310.213 253.618 311.747C253.618 313.28 254.853 314.523 256.376 314.523Z" fill="#CBE9FB"/>
<path d="M258.067 309.552C258.423 310.015 258.645 310.612 258.645 311.254C258.645 312.791 257.414 314.03 255.887 314.03C255.249 314.03 254.671 313.806 254.197 313.448C254.701 314.105 255.487 314.538 256.376 314.538C257.904 314.538 259.134 313.299 259.134 311.761C259.134 310.851 258.719 310.06 258.067 309.552Z" fill="#AADCF8"/>
<path d="M255.516 311.746C256.114 311.746 256.598 311.259 256.598 310.657C256.598 310.055 256.114 309.567 255.516 309.567C254.918 309.567 254.434 310.055 254.434 310.657C254.434 311.259 254.918 311.746 255.516 311.746Z" fill="white"/>
<path d="M256.584 312.985C256.829 312.985 257.028 312.785 257.028 312.538C257.028 312.29 256.829 312.09 256.584 312.09C256.338 312.09 256.139 312.29 256.139 312.538C256.139 312.785 256.338 312.985 256.584 312.985Z" fill="white"/>
<path d="M262.47 308.97V298" stroke="#00AAE8" stroke-miterlimit="10" stroke-linecap="round"/>
<path d="M262.47 314.523C263.994 314.523 265.228 313.28 265.228 311.747C265.228 310.213 263.994 308.97 262.47 308.97C260.947 308.97 259.712 310.213 259.712 311.747C259.712 313.28 260.947 314.523 262.47 314.523Z" fill="#CBE9FB"/>
<path d="M264.161 309.552C264.517 310.015 264.739 310.612 264.739 311.254C264.739 312.791 263.508 314.03 261.981 314.03C261.343 314.03 260.765 313.806 260.291 313.448C260.795 314.105 261.581 314.538 262.47 314.538C263.998 314.538 265.228 313.299 265.228 311.761C265.228 310.851 264.813 310.06 264.161 309.552Z" fill="#AADCF8"/>
<path d="M261.611 311.746C262.208 311.746 262.693 311.259 262.693 310.657C262.693 310.055 262.208 309.567 261.611 309.567C261.013 309.567 260.528 310.055 260.528 310.657C260.528 311.259 261.013 311.746 261.611 311.746Z" fill="white"/>
<path d="M262.693 312.985C262.938 312.985 263.137 312.785 263.137 312.538C263.137 312.29 262.938 312.09 262.693 312.09C262.447 312.09 262.248 312.29 262.248 312.538C262.248 312.785 262.447 312.985 262.693 312.985Z" fill="white"/>
<path d="M239.605 364.162H132V385.912H239.605V364.162Z" fill="#90B228"/>
<path d="M242.698 364.162H184.419V385.912H242.698V364.162Z" fill="#5C7535"/>
<path d="M183.117 378.446H176.117V383.315H183.117V378.446Z" fill="#E6E7E8"/>
<path d="M213.07 371.466C219.907 371.466 225.768 368.545 229.024 364H196.954C200.372 368.545 206.233 371.466 213.07 371.466Z" fill="#A7A9AC"/>
<path d="M167.325 372.765H145.674V375.362H167.325V372.765Z" fill="#2D3235"/>
<path d="M84.2893 111.984H83.846H41V180H83.846H84.2893H136V111.984H84.2893Z" fill="#683E55"/>
<path d="M84.2893 158.164H41V180H84.2893V158.164Z" fill="#B26689"/>
<path d="M136 158.164H83.8459V180H136V158.164Z" fill="#914D6F"/>
<path d="M84.2893 132.934H41V154.77H84.2893V132.934Z" fill="#B26689"/>
<path d="M136 132.934H83.8459V154.77H136V132.934Z" fill="#914D6F"/>
<path d="M84.2893 108H41V129.836H84.2893V108Z" fill="#B26689"/>
<path d="M136 108H83.8459V129.836H136V108Z" fill="#914D6F"/>
<path opacity="0.5" d="M66.4121 132.934H41V180H66.4121V132.934Z" fill="#914D6F"/>
<path d="M81.0387 123.049H69.6624V127.77H81.0387V123.049Z" fill="#BAB9AF"/>
<path d="M81.0387 147.246H69.6624V151.967H81.0387V147.246Z" fill="#BAB9AF"/>
<path d="M81.0387 173.213H69.6624V177.934H81.0387V173.213Z" fill="#BAB9AF"/>
<path d="M78.5 73H46V107.7H78.5V73Z" fill="#D5C827"/>
<path d="M111.2 73H78.7V107.7H111.2V73Z" fill="#9B9138"/>
<path d="M71.5 80.7H51.8V88.8H71.5V80.7Z" fill="white"/>
</svg>
