<svg width="160" height="88" viewBox="0 0 160 88" fill="none" xmlns="http://www.w3.org/2000/svg">
<mask id="mask0" mask-type="alpha" maskUnits="userSpaceOnUse" x="0" y="0" width="160" height="89">
<path d="M0 4.00006C0 1.79092 1.79086 6.10352e-05 4 6.10352e-05H156C158.209 6.10352e-05 160 1.79092 160 4.00006V88.0001H0V4.00006Z" fill="#F2F2F2"/>
</mask>
<g mask="url(#mask0)">
<path d="M56.8999 9.60004H51.8999V16.3H56.8999V9.60004Z" fill="#1A2026"/>
<path d="M56.8999 89.2C56.8999 90.1 57.7999 90.8 58.8999 90.8H91.8999C92.9999 90.8 93.8999 90.1 93.8999 89.2C93.8999 88.3 92.9999 87.6 91.8999 87.6H58.8999C57.7999 87.6 56.8999 88.3 56.8999 89.2Z" fill="#282B33"/>
<path d="M64.9999 38.4001H62.3999V41.0001H64.9999V38.4001Z" fill="#33373B"/>
<path d="M64.9999 12.3H62.3999V14.9H64.9999V12.3Z" fill="#33373B"/>
<path d="M54.7 88.9001H93.8V77.4001L89.9 54.4001L82.6999 47.8H54.7V88.9001Z" fill="#DF5914"/>
<path d="M75.8 88.9001H90.9001V77.4001L86.9001 54.4001L79.7 47.8H75.8V88.9001Z" fill="#F27532"/>
<path d="M76 56.8V47.8H82.7L89.9 54.4001L90.3 56.8H76Z" fill="#33373B"/>
<path d="M72.8999 56.8V47.8H79.6999L86.7999 54.4001L87.1999 56.8H72.8999Z" fill="#45454C"/>
<path d="M84.5 77.4001H95.8V89.1H54.7V47.8H79.8L84.5 77.4001Z" fill="#45454C"/>
<path d="M73.2 47.8H62.5V51H73.2V47.8Z" fill="#F27532"/>
<path d="M91.7513 40.2862L83.48 50.444L85.1859 51.8331L93.4572 41.6753L91.7513 40.2862Z" fill="#33373B"/>
<path d="M89.7 38.6C87 41.8 86.1 45.5 87.6 46.8C89.1 48.1 92.6 46.5 95.3 43.3L89.7 38.6Z" stroke="#33373B" stroke-width="1.5111" stroke-miterlimit="10"/>
<path d="M62.4 -0.999939H54.7V89.1001H62.4V-0.999939Z" fill="#282B33"/>
<path d="M73.7 84.4001H62.5V83.2001H72.6V51.0001H73.7V84.4001Z" fill="#282B33"/>
<path d="M95.8 77.4001H92.7V88.9001H95.8V77.4001Z" fill="#33373B"/>
<path d="M73.2 49.2001H62.5V51.0001H73.2V49.2001Z" fill="#DF5914"/>
<path d="M50.1 12.9V4.10004H54.9V16.8H49.6H15V12.9H50.1Z" fill="#33373B"/>
<path d="M69.882 74.3074L64.0557 77.6159L64.4507 78.3116L70.277 75.0031L69.882 74.3074Z" fill="#1E2026"/>
<path d="M69.8871 72.7122L64.0608 76.0206L64.4558 76.7163L70.2821 73.4078L69.8871 72.7122Z" fill="#1E2026"/>
<path d="M69.8886 71.114L64.0623 74.4218L64.4572 75.1174L70.2835 71.8096L69.8886 71.114Z" fill="#1E2026"/>
<path d="M69.8969 69.5222L64.0706 72.8307L64.4656 73.5264L70.2919 70.2179L69.8969 69.5222Z" fill="#1E2026"/>
<path d="M64.4999 71.9L64.0999 71.2L69.9999 67.8L70.2999 68.5L64.4999 71.9Z" fill="#1E2026"/>
<path d="M64.4999 70.2001L64.0999 69.6001L69.9999 66.2001L70.3999 66.9001L64.4999 70.2001Z" fill="#1E2026"/>
<path fill-rule="evenodd" clip-rule="evenodd" d="M107.1 11.5C108.3 12.4 112.2 13.4 110 11.7C107.8 10.1 104.6 8.50004 104.1 9.10004C103.7 9.80004 107.1 11.5 107.1 11.5Z" fill="#632525"/>
<path d="M115 87.2C115.7 87.3 115.3 90.7 115.3 90.7H104.2C104.2 90.7 103.5 89.8001 104.1 88.9001C104.5 88.4001 107.6 87.2 108.5 87.1C109.5 87 111.1 87.6 112.4 87.6C113.7 87.7 114.3 87.1 115 87.2Z" fill="#C6C5DD" stroke="#4E4C68" stroke-width="0.8022" stroke-miterlimit="10" stroke-linejoin="round"/>
<path opacity="0.4" d="M111.3 87.5C111.3 87.5 107.5 88.7 106.6 89.1C105.7 89.5 106.4 90.7 106.6 90.7H104.5C104.5 90.7 103.4 89.2 104.8 88.5C106.1 87.8 108.1 87.3 108.1 87.3H111.3V87.5Z" fill="#4E4C68"/>
<path fill-rule="evenodd" clip-rule="evenodd" d="M108.9 11.2001C108.9 11.2001 108 10.1001 107.6 9.20008C107.6 9.20008 115.4 6.20008 117.8 12.0001C117.8 12.0001 118.4 14.0001 117.1 17.3001C116.2 19.7001 114.1 20.0001 114.1 20.0001L108.9 11.2001Z" fill="#632525" stroke="#632525" stroke-width="0.8022" stroke-miterlimit="10" stroke-linejoin="round"/>
<path opacity="0.6" fill-rule="evenodd" clip-rule="evenodd" d="M114.5 19.6001C114.5 19.6001 116.2 17.3001 114.4 15.6001C112.7 13.9001 113 16.6001 113 16.6001L114.5 19.6001Z" fill="#632525"/>
<path opacity="0.6" fill-rule="evenodd" clip-rule="evenodd" d="M107.3 9.1001C109.8 9.8001 112.2 12.2001 112.3 13.4001C112.3 13.4001 111.1 13.0001 109.6 12.5001L108.3 11.3001C108.3 11.2001 106.9 9.3001 107.3 9.1001Z" fill="#632525"/>
<path fill-rule="evenodd" clip-rule="evenodd" d="M109.5 24.3C109.4 24.3 109.3 24.3 109.3 24.2C109.2 24.1 109.2 24 109.2 23.9L109.4 22.3C109.3 22.3 109.3 22.3 109.2 22.3C108.5 22.3 107.4 22.1 106.9 21.3C106.1 20.1 106.1 18.2 106.4 16.8C106.1 16.6 105.5 16.2 105.5 15.7C105.5 15.1 106.1 14.7 106.5 14.5C106.7 14.4 107 14.2 107 14.2C107 14.1 107.1 13.9 107.2 13.7C107.5 13 107.9 11.8 108.7 11.2C108.8 11.1 108.8 11.1 108.9 11.1H109C109.1 11.1 110.8 11.6 111.9 13.1C112 13.2 112 13.3 111.9 13.4L111 15.4L111.6 15.7C111.9 15.3 112.4 15 113 15C114 15 114.8 15.8 114.8 16.8C114.8 17.4 114.5 17.9 114.1 18.2C114.3 20 114.5 21 114.6 21.8C114.7 22.5 114.8 22.9 114.8 23.5C114.8 23.7 114.7 23.8 114.5 23.8C114.4 23.8 109.5 24.3 109.5 24.3Z" fill="#EFC49B"/>
<path d="M108.9 11.4C108.9 11.4 110.6 11.8 111.6 13.2C111.6 13.2 110.8 15 110.6 15.4L111.7 16C111.9 15.5 112.4 15.2 113 15.2C113.8 15.2 114.4 15.8 114.4 16.6C114.4 17.1 114.1 17.6 113.7 17.9V18C114.1 21.6 114.4 22.2 114.4 23.3L109.5 24L109.8 22C109.8 22 109.6 22 109.2 22C108.6 22 107.6 21.9 107.1 21.1C106.3 19.9 106.3 17.9 106.7 16.6C106.7 16.6 105.8 16.2 105.7 15.7C105.6 15 107 14.8 107.2 14.3C107.5 13.9 108 12.2 108.9 11.4ZM108.9 10.8C108.7 10.8 108.6 10.9 108.5 11C107.7 11.7 107.2 12.9 107 13.7C106.9 13.9 106.9 14 106.8 14.1C106.7 14.2 106.5 14.3 106.4 14.3C105.9 14.6 105.1 15 105.2 15.8C105.2 16.4 105.7 16.8 106.1 17C105.8 18.3 105.8 20.2 106.7 21.5C107.2 22.2 108.1 22.6 109.1 22.7L108.9 23.9C108.9 24.1 108.9 24.3 109.1 24.4C109.2 24.5 109.4 24.6 109.6 24.6C109.6 24.6 109.6 24.6 109.7 24.6L114.6 24.1C114.9 24.1 115.2 23.8 115.2 23.4C115.2 22.8 115.1 22.4 115 21.7C114.9 21 114.7 20 114.5 18.3C114.9 17.9 115.2 17.4 115.2 16.8C115.2 15.7 114.3 14.7 113.1 14.7C112.6 14.7 112 14.9 111.7 15.3L111.6 15.2C111.9 14.5 112.4 13.5 112.4 13.5C112.5 13.3 112.5 13 112.3 12.9C111.1 11.3 109.3 10.8 109.2 10.8C109 10.8 108.9 10.8 108.9 10.8Z" fill="#A87756"/>
<path d="M113.3 18.8001C113.3 18.8001 113.2 18.8001 113.1 18.8001H112.7V18.2001H113.1C113.3 18.2001 113.3 18.2001 113.5 18.1001L113.8 18.0001L114.1 18.6001L113.8 18.7001C113.6 18.8001 113.5 18.8001 113.3 18.8001Z" fill="#BC8A68"/>
<path d="M108.8 15.4001C109.076 15.4001 109.3 15.1762 109.3 14.9001C109.3 14.6239 109.076 14.4001 108.8 14.4001C108.524 14.4001 108.3 14.6239 108.3 14.9001C108.3 15.1762 108.524 15.4001 108.8 15.4001Z" fill="#231212"/>
<path fill-rule="evenodd" clip-rule="evenodd" d="M108.9 13.5001C109.2 13.7001 109.4 13.8001 109.7 14.0001C109.8 14.1001 109.9 14.2001 109.8 14.3001C109.7 14.4001 109.6 14.5001 109.5 14.4001C109.3 14.2001 109 14.0001 108.7 13.9001C108.4 13.7001 108.7 13.3001 108.9 13.5001Z" fill="#632525"/>
<g opacity="0.7">
<path opacity="0.7" fill-rule="evenodd" clip-rule="evenodd" d="M107.3 14.3001C107.5 13.8001 108 12.2001 108.9 11.4001C108.9 11.4001 109.6 11.6001 110.4 12.1001C110.1 12.6001 116.2 16.3001 114.8 17.8001C114.7 17.9001 109.4 13.8001 109.3 13.9001C108.5 15.4001 108.3 16.5001 108.3 18.8001C108.2 22.0001 111.8 21.3001 111.8 21.3001L112.1 22.0001L114.3 21.4001L114.6 22.4001L111.9 23.1001C111.9 23.1001 110.7 23.4001 109.6 23.6001L109.8 22.0001C109.8 22.0001 107.9 22.3001 107.1 21.2001C106.3 20.0001 106.3 18.0001 106.7 16.7001C106.7 16.7001 105.8 16.3001 105.7 15.8001C105.7 15.0001 107.1 14.8001 107.3 14.3001Z" fill="#C9976F"/>
</g>
<path fill-rule="evenodd" clip-rule="evenodd" d="M106.2 18.9001C106.7 19.1001 107.2 19.2001 107.7 19.0001C108 18.9001 108.1 19.4001 107.8 19.5001C107.2 19.7001 106.6 19.6001 106 19.4001C105.8 19.3001 105.9 18.9001 106.2 18.9001Z" fill="#A87756"/>
<path fill-rule="evenodd" clip-rule="evenodd" d="M107.4 28.1001C107.4 28.1001 107.7 27.5001 109.2 26.8001C110.7 26.1001 110.9 25.9001 110.9 25.9001C110.9 25.9001 110.9 25.4001 111.6 24.5001C111.8 24.2001 112.8 23.9001 113.6 23.7001C114.7 23.5001 115.4 23.9001 115.4 23.9001C116 23.8001 115.5 23.5001 114.8 23.3001C113.3 22.8001 109.1 24.3001 108.9 24.4001L107.4 28.1001Z" fill="#13658E"/>
<path fill-rule="evenodd" clip-rule="evenodd" d="M115.2 85.2001L108.2 85.5001L115.2 85.2001Z" fill="#47595F" stroke="#334144" stroke-width="0.8023" stroke-miterlimit="10"/>
<path fill-rule="evenodd" clip-rule="evenodd" d="M107.2 29C107.6 27.3 107.8 25.3 109 24.1C109 24.1 110.9 23.6 112.2 23.2C114.8 22.4 116 23.6 116.5 24.9C116.6 25 116.6 25.2 116.7 25.4C117 26.3 117 27 117 27C117.1 27.3 116.9 35.4 116.8 41.5V41.8C116.8 41.8 116.8 41.8 116.8 41.9C116.8 43.6 116.7 46.1 116.6 47.9C116.6 48.4 116.5 48.9 116.5 49.3C115.7 60.4 114.4 66 114.9 71.8C115.5 77.6 115.2 86.8 115.2 86.8H108.5C108.3 86 106.5 75.2 106.5 67.5L106.2 53.3C106.1 51.2 106.5 34.5 106.8 32.9L107.2 29Z" fill="#B57518" stroke="#915813" stroke-width="0.8022" stroke-miterlimit="10" stroke-linejoin="round"/>
<path d="M96.1999 39.4H94.3999C94.3999 38.8 93.8999 38.3 93.2999 38.3C92.6999 38.3 92.1999 38.8 92.1999 39.4H90.3999C90.3999 37.8 91.6999 36.5 93.2999 36.5C94.7999 36.4 96.1999 37.7 96.1999 39.4Z" fill="#EFC49B"/>
<path fill-rule="evenodd" clip-rule="evenodd" d="M106.1 53.3001C106 51.2001 106.4 34.5001 106.7 32.9001L106.8 32.4001C108.9 31.8001 111.5 33.2001 111.5 33.2001C111.5 33.2001 109.3 46.2001 110.1 65.3001C110.9 82.8001 111.5 86.6001 111.6 87.1001L108.5 86.5001C108.3 85.7001 106.5 75.2001 106.5 67.6001L106.1 53.3001Z" fill="#915813"/>
<path fill-rule="evenodd" clip-rule="evenodd" d="M109.5 24.0001L110.8 23.7001L110.6 26.0001L107.7 29.1001C107.7 29.1001 107.2 28.8001 107.2 28.6001C107.2 28.5001 108 27.0001 108 26.8001C108 26.6001 108.4 24.9001 108.6 24.6001C108.9 24.3001 109.5 24.0001 109.5 24.0001Z" fill="#915813"/>
<path fill-rule="evenodd" clip-rule="evenodd" d="M108.1 29.7C108.1 29.7 109.3 25.6 112.2 24.6C116.2 23.3 116.6 27.3 115.9 34.6C115.3 41.9 115.2 43.5 115.2 43.5L108.1 43.4V29.7Z" fill="#ADCDD8" stroke="#67767A" stroke-width="0.8022" stroke-miterlimit="10" stroke-linejoin="round"/>
<path opacity="0.4" fill-rule="evenodd" clip-rule="evenodd" d="M108.1 32.3C109.8 32.4 111.5 33.2001 111.5 33.2001C111.5 33.2001 110.9 37.2001 110.4 43.2001L108.4 43.3L108.1 32.3Z" fill="#4D5E63"/>
<path fill-rule="evenodd" clip-rule="evenodd" d="M113.9 26.3001C112.7 24.2001 110 26.1001 110 26.1001C108.2 27.4001 105.6 31.9001 103.2 33.6001C98.8999 36.5001 95.3999 36.7001 95.3999 36.7001L95.9999 40.0001C99.9999 40.6001 103.2 40.3001 105.5 39.3001C110.3 37.1001 112.1 32.5001 112.1 32.5001L113.9 26.3001Z" fill="#ADCDD8" stroke="#67767A" stroke-width="0.8022" stroke-miterlimit="10" stroke-linejoin="round"/>
<path fill-rule="evenodd" clip-rule="evenodd" d="M107.5 10.6001C109.5 11.7001 112.6 12.6001 110.3 11.0001C108.1 9.40009 104.9 7.80009 104.4 8.40009C104.3 8.50009 104 9.10009 104 9.10009C104 9.10009 105.5 9.60009 107.5 10.6001Z" fill="#A04D24"/>
<path fill-rule="evenodd" clip-rule="evenodd" d="M107 9.90007C107.9 8.50007 109.3 7.40007 111 6.90007C114.6 6.00007 118.2 8.10007 119.1 11.7001C119.7 14.1001 118.9 16.5001 117.3 18.2001C115.4 16.3001 112.2 12.8001 107 9.90007Z" fill="#CE6824" stroke="#A04D24" stroke-width="0.8022" stroke-miterlimit="10" stroke-linejoin="round"/>
<path opacity="0.4" fill-rule="evenodd" clip-rule="evenodd" d="M95.8001 38.1001C103.6 38.7001 110.7 34.1001 111.8 33.4001C111.2 34.4001 110.1 36.2001 108.2 37.7001C106.4 38.6001 104.2 39.5001 102.2 40.2001C100.4 40.4001 98.4001 40.4001 96.1001 40.0001L95.8001 38.1001C95.7001 38.1001 95.7001 38.1001 95.8001 38.1001Z" fill="#4D5E63"/>
<path opacity="0.3" fill-rule="evenodd" clip-rule="evenodd" d="M111.1 7.00009C113.2 6.50009 115.3 7.00009 116.8 8.20009C114.8 8.50009 112.7 9.80009 111.3 12.6001C111.3 12.6001 111.3 12.7001 111.2 12.7001C110 11.8001 108.6 10.8001 107 10.0001C107.9 8.50009 109.3 7.40009 111.1 7.00009Z" fill="#A04D24"/>
</g>
</svg>
