<svg width="160" height="88" viewBox="0 0 160 88" fill="none" xmlns="http://www.w3.org/2000/svg">
<mask id="mask0" mask-type="alpha" maskUnits="userSpaceOnUse" x="0" y="0" width="160" height="89">
<path d="M0 4.00006C0 1.79092 1.79086 6.10352e-05 4 6.10352e-05H156C158.209 6.10352e-05 160 1.79092 160 4.00006V88.0001H0V4.00006Z" fill="#F2F2F2"/>
</mask>
<g mask="url(#mask0)">
<path d="M100.48 3.55481H84.2173V34.6203H100.48V3.55481Z" fill="#2D2C26"/>
<path d="M114.265 8.80969H96.0916V40.751H114.265V8.80969Z" fill="#989C94"/>
<path d="M127.74 45.4391H38.3201V76.7622H127.74V45.4391Z" fill="#2D2C26"/>
<path d="M54.5829 6.64594H38.3201V37.7114H54.5829V6.64594Z" fill="#2D2C26"/>
<path d="M115.71 8.80969H113.077V40.751H115.71V8.80969Z" fill="#63685E"/>
<path opacity="0.7" d="M112.2 27.4078V20.5043H111.27V19.9891H111.477V13.0857H107.192H97.0727H93.0457H76.4215V19.9891H77.1443V20.5043V26.1713V27.4078V27.923H74.7178V34.7749H76.1634V35.2901V40.648V42.1935H92.7875H111.27V35.2901H109.825V34.7749V33.693V27.923H109.773V27.4078H112.2Z" fill="#63685E"/>
<path d="M85.6627 47.1908H50.7622V74.8561H85.6627V47.1908Z" fill="#63685E"/>
<path d="M29.1819 151V4.79126H33.467V151" fill="#2B4173"/>
<path d="M127.74 151V4.79126H131.818V151" fill="#4E80B7"/>
<path d="M131.663 151V4.79126H136V151" fill="#2B4173"/>
<path d="M25 151V4.79126H29.2851V151" fill="#4E80B7"/>
<path d="M136 74.8561H25V81.2959H136V74.8561Z" fill="#4E80B7"/>
<path d="M135.948 74.8561H89.3799V81.2959H135.948V74.8561Z" fill="#2B4173"/>
<path d="M136 40.8026H25V47.2423H136V40.8026Z" fill="#4E80B7"/>
<path d="M135.948 40.8026H89.3799V47.2423H135.948V40.8026Z" fill="#2B4173"/>
<path d="M58.4034 52.7548H52.6211V74.8562H58.4034V52.7548Z" fill="#F25A5A"/>
<path d="M73.3754 52.7548H58.4033V74.8561H73.3754V52.7548Z" fill="#B24040"/>
<path d="M56.235 58.4218H54.5312V68.2617H56.235V58.4218Z" fill="white"/>
<path d="M58.4032 70.8376H52.6208V73.8772H58.4032V70.8376Z" fill="#36353D"/>
<path d="M71.8266 70.8376H58.4033V73.8772H71.8266V70.8376Z" fill="#2D3235"/>
<path d="M65.5279 52.7548H59.7456V74.8561H65.5279V52.7548Z" fill="#F25A5A"/>
<path d="M80.4999 52.7548H65.5278V74.8561H80.4999V52.7548Z" fill="#B24040"/>
<path d="M34.861 41.7814L30.3693 42.0905L27.6331 15.3525L32.1247 15.0434L34.861 41.7814Z" fill="#F25A5A"/>
<path d="M48.4157 13.3535L32.1348 15.0176L34.8809 41.7703L51.1619 40.1062L48.4157 13.3535Z" fill="#B24040"/>
<path d="M63.3595 58.4218H61.6558V68.2617H63.3595V58.4218Z" fill="white"/>
<path d="M65.5279 70.8376H59.7456V73.8772H65.5279V70.8376Z" fill="#36353D"/>
<path d="M78.9511 70.8376H65.5278V73.8772H78.9511V70.8376Z" fill="#2D3235"/>
<path d="M48.0752 16.172L35.5435 17.4517L36.2004 23.858L48.7321 22.5783L48.0752 16.172Z" fill="#A7A9AC"/>
<path d="M50.814 47.1908H47.7163V74.8561H50.814V47.1908Z" fill="#989C94"/>
<path d="M109.825 47.1908H74.9241V74.8561H109.825V47.1908Z" fill="#63685E"/>
<path d="M74.9758 47.1908H71.8782V74.8561H74.9758V47.1908Z" fill="#989C94"/>
<path d="M85.6627 8.80969H50.7622V40.751H85.6627V8.80969Z" fill="#63685E"/>
<path d="M71.8782 15.8162H54.1182V25.6046H71.8782V15.8162Z" fill="#895029"/>
<path d="M50.814 8.80969H47.7163V40.8025H50.814V8.80969Z" fill="#B0B5AA"/>
<path d="M111.786 51.9305H92.9939V74.7531H111.786V51.9305Z" fill="#8E602F"/>
<path d="M93.6652 51.9305H77.6089V74.7531H93.6652V51.9305Z" fill="#BE9157"/>
<path d="M82.7413 65.485L82.0286 71.3146L85.7183 71.7638L86.431 65.9342L82.7413 65.485Z" fill="#E6E7E8"/>
<path d="M129.753 51.9305H110.96V74.7531H129.753V51.9305Z" fill="#8E602F"/>
<path d="M111.632 51.9305H95.5754V74.7531H111.632V51.9305Z" fill="#BE9157"/>
<path d="M88.2442 20.8134H69.4517V40.8025H88.2442V20.8134Z" fill="#895029"/>
<path d="M70.1554 20.7981L54.0991 20.8288L54.1375 40.8179L70.1938 40.7872L70.1554 20.7981Z" fill="#E36B15"/>
<path d="M88.2442 6.10352e-05H69.4517V20.2467H88.2442V6.10352e-05Z" fill="#895029"/>
<path d="M70.1744 6.10352e-05H54.1182V20.2467H70.1744V6.10352e-05Z" fill="#E36B15"/>
<path d="M88.3475 4.12152H70.1228V13.4978H88.3475V4.12152Z" fill="#999B97"/>
<path d="M70.1744 4.12152H54.1182V13.4978H70.1744V4.12152Z" fill="#E6E7E8"/>
<path d="M66.8702 6.64594H57.6804V7.47023H66.8702V6.64594Z" fill="#2D3235"/>
<path d="M66.8702 8.08844H57.6804V8.91273H66.8702V8.08844Z" fill="#2D3235"/>
<path d="M64.2372 2.16385C64.2372 2.73055 63.7209 3.19421 63.0498 3.19421H60.7265C60.0553 3.19421 59.5391 2.73055 59.5391 2.16385C59.5391 1.59715 60.0553 1.13348 60.7265 1.13348H63.0498C63.7209 1.13348 64.2372 1.59715 64.2372 2.16385Z" fill="#36353D"/>
<path d="M68.3575 16.2443L65.1643 17.0917L65.695 19.0832L68.8882 18.2358L68.3575 16.2443Z" fill="#E6E7E8"/>
<path d="M96.1431 8.80969H74.9241V40.8025H96.1431V8.80969Z" fill="#63685E"/>
<path d="M72.2395 24.9349H70.1228V34.3112H72.2395V24.9349Z" fill="#999B97"/>
<path opacity="0.5" d="M86.8501 51.9305H83.5459V56.9277H86.8501V51.9305Z" fill="#754C29"/>
<path d="M109.36 24.7804V16.2283H75.2341V24.7804V32.2505H74.2532V39.2055H107.915V32.2505H107.863V24.7804H109.36Z" fill="#47512D"/>
<path d="M106.366 33.8475H74.2532V40.751H106.366V33.8475Z" fill="#90B228"/>
<path d="M109.36 33.8475H90.8772V40.751H109.36V33.8475Z" fill="#5C7535"/>
<path d="M90.5159 38.4327H88.2959V39.9782H90.5159V38.4327Z" fill="#E6E7E8"/>
<path d="M99.9637 36.2174C102.132 36.2174 103.991 35.29 105.023 33.8475H94.8525C95.9367 35.29 97.847 36.2174 99.9637 36.2174Z" fill="#A7A9AC"/>
<path d="M85.4564 36.6296H78.5898V37.4539H85.4564V36.6296Z" fill="#2D3235"/>
<path d="M103.939 26.4804H72.8076V33.3839H103.939V26.4804Z" fill="#90B228"/>
<path d="M107.915 26.4804H89.4319V33.3839H107.915V26.4804Z" fill="#5C7535"/>
<path d="M89.0703 31.0656H86.8503V32.6111H89.0703V31.0656Z" fill="#E6E7E8"/>
<path d="M98.5181 28.7987C100.687 28.7987 102.545 27.8714 103.578 26.4289H93.407C94.4912 27.8714 96.4014 28.7987 98.5181 28.7987Z" fill="#A7A9AC"/>
<path d="M84.0108 29.2109H77.1443V30.0352H84.0108V29.2109Z" fill="#2D3235"/>
<path d="M108.173 19.0618H75.9568V25.9653H108.173V19.0618Z" fill="#90B228"/>
<path d="M111.012 19.0618H92.5295V25.9653H111.012V19.0618Z" fill="#5C7535"/>
<path d="M91.4451 23.6469H89.2251V25.1925H91.4451V23.6469Z" fill="#E6E7E8"/>
<path d="M100.945 21.4317C103.113 21.4317 104.972 20.5043 106.004 19.0618H95.8335C96.9177 20.5043 98.7763 21.4317 100.945 21.4317Z" fill="#A7A9AC"/>
<path d="M86.4373 21.7923H79.5708V22.6166H86.4373V21.7923Z" fill="#2D3235"/>
<path d="M108.637 11.6947H74.5112V18.5981H108.637V11.6947Z" fill="#90B228"/>
<path d="M109.618 11.6947H91.1355V18.5981H109.618V11.6947Z" fill="#5C7535"/>
<path d="M90.7224 16.2283H88.5024V17.7739H90.7224V16.2283Z" fill="#E6E7E8"/>
<path d="M100.222 14.013C102.39 14.013 104.249 13.0857 105.282 11.6432H95.1108C96.195 13.0857 98.0536 14.013 100.222 14.013Z" fill="#A7A9AC"/>
<path d="M85.7144 14.4252H78.8479V15.2495H85.7144V14.4252Z" fill="#2D3235"/>
<path d="M94.9042 20.4528H76.8861L75.9568 19.0618H92.5294L94.9042 20.4528Z" fill="#5C7535"/>
<path d="M93.2521 35.0325L74.5112 34.8264L74.3047 33.8475H90.8772L93.2521 35.0325Z" fill="#5C7535"/>
<path d="M74.9758 8.80969H71.8782V40.8025H74.9758V8.80969Z" fill="#B0B5AA"/>
<path d="M85.1982 151V4.79126H89.535V151" fill="#4E80B7"/>
<path d="M89.3799 151V4.79126H93.7166V151" fill="#2B4173"/>
<path d="M78.3317 47.1908H47.7163V49.097H78.3317V47.1908Z" fill="#63685E"/>
<path d="M136 42.5026H25V45.4392H136V42.5026Z" fill="#A7AEB7"/>
<path d="M136 76.6077H25V79.5443H136V76.6077Z" fill="#A7AEB7"/>
<path opacity="0.4" d="M44.567 40.8026L42.1405 47.1908H33.467L35.8419 41.6784L44.567 40.8026Z" fill="#2B4173"/>
<path d="M135.948 42.5026H89.3799V45.4392H135.948V42.5026Z" fill="#A7AEB7"/>
<path d="M135.948 76.6077H89.3799V79.5443H135.948V76.6077Z" fill="#A7AEB7"/>
<path d="M27.4782 43.3269H26.1875V44.6149H27.4782V43.3269Z" fill="#2D3235"/>
<path d="M31.0405 43.3269H29.7498V44.6149H31.0405V43.3269Z" fill="#2D3235"/>
<path d="M34.6545 43.3269H33.3638V44.6149H34.6545V43.3269Z" fill="#2D3235"/>
<path d="M38.2167 43.3269H36.926V44.6149H38.2167V43.3269Z" fill="#2D3235"/>
<path d="M41.8307 43.3269H40.54V44.6149H41.8307V43.3269Z" fill="#2D3235"/>
<path d="M45.393 43.3269H44.1023V44.6149H45.393V43.3269Z" fill="#2D3235"/>
<path d="M48.9555 43.3269H47.6648V44.6149H48.9555V43.3269Z" fill="#2D3235"/>
<path d="M52.5693 43.3269H51.2786V44.6149H52.5693V43.3269Z" fill="#2D3235"/>
<path d="M56.1318 43.3269H54.8411V44.6149H56.1318V43.3269Z" fill="#2D3235"/>
<path d="M59.7455 43.3269H58.4548V44.6149H59.7455V43.3269Z" fill="#2D3235"/>
<path d="M63.3078 43.3269H62.0171V44.6149H63.3078V43.3269Z" fill="#2D3235"/>
<path d="M66.8703 43.3269H65.5796V44.6149H66.8703V43.3269Z" fill="#2D3235"/>
<path d="M70.4843 43.3269H69.1936V44.6149H70.4843V43.3269Z" fill="#2D3235"/>
<path d="M74.0466 43.3269H72.7559V44.6149H74.0466V43.3269Z" fill="#2D3235"/>
<path d="M77.6088 43.3269H76.3181V44.6149H77.6088V43.3269Z" fill="#2D3235"/>
<path d="M81.2228 43.3269H79.9321V44.6149H81.2228V43.3269Z" fill="#2D3235"/>
<path d="M84.7851 43.3269H83.4944V44.6149H84.7851V43.3269Z" fill="#2D3235"/>
<path d="M88.3991 43.3269H87.1084V44.6149H88.3991V43.3269Z" fill="#2D3235"/>
<path d="M91.9614 43.3269H90.6707V44.6149H91.9614V43.3269Z" fill="#2D3235"/>
<path d="M95.5239 43.3269H94.2332V44.6149H95.5239V43.3269Z" fill="#2D3235"/>
<path d="M99.1376 43.3269H97.8469V44.6149H99.1376V43.3269Z" fill="#2D3235"/>
<path d="M102.7 43.3269H101.409V44.6149H102.7V43.3269Z" fill="#2D3235"/>
<path d="M106.314 43.3269H105.023V44.6149H106.314V43.3269Z" fill="#2D3235"/>
<path d="M109.876 43.3269H108.586V44.6149H109.876V43.3269Z" fill="#2D3235"/>
<path d="M113.439 43.3269H112.148V44.6149H113.439V43.3269Z" fill="#2D3235"/>
<path d="M117.053 43.3269H115.762V44.6149H117.053V43.3269Z" fill="#2D3235"/>
<path d="M120.615 43.3269H119.324V44.6149H120.615V43.3269Z" fill="#2D3235"/>
<path d="M124.229 43.3269H122.938V44.6149H124.229V43.3269Z" fill="#2D3235"/>
<path d="M127.791 43.3269H126.5V44.6149H127.791V43.3269Z" fill="#2D3235"/>
<path d="M131.353 43.3269H130.063V44.6149H131.353V43.3269Z" fill="#2D3235"/>
<path d="M134.967 43.3269H133.677V44.6149H134.967V43.3269Z" fill="#2D3235"/>
<path d="M27.4782 77.432H26.1875V78.72H27.4782V77.432Z" fill="#2D3235"/>
<path d="M31.0405 77.432H29.7498V78.72H31.0405V77.432Z" fill="#2D3235"/>
<path d="M34.6545 77.432H33.3638V78.72H34.6545V77.432Z" fill="#2D3235"/>
<path d="M38.2167 77.432H36.926V78.72H38.2167V77.432Z" fill="#2D3235"/>
<path d="M41.8307 77.432H40.54V78.72H41.8307V77.432Z" fill="#2D3235"/>
<path d="M45.393 77.432H44.1023V78.72H45.393V77.432Z" fill="#2D3235"/>
<path d="M48.9555 77.432H47.6648V78.72H48.9555V77.432Z" fill="#2D3235"/>
<path d="M52.5693 77.432H51.2786V78.72H52.5693V77.432Z" fill="#2D3235"/>
<path d="M56.1318 77.432H54.8411V78.72H56.1318V77.432Z" fill="#2D3235"/>
<path d="M59.7455 77.432H58.4548V78.72H59.7455V77.432Z" fill="#2D3235"/>
<path d="M63.3078 77.432H62.0171V78.72H63.3078V77.432Z" fill="#2D3235"/>
<path d="M66.8703 77.432H65.5796V78.72H66.8703V77.432Z" fill="#2D3235"/>
<path d="M70.4843 77.432H69.1936V78.72H70.4843V77.432Z" fill="#2D3235"/>
<path d="M74.0466 77.432H72.7559V78.72H74.0466V77.432Z" fill="#2D3235"/>
<path d="M77.6088 77.432H76.3181V78.72H77.6088V77.432Z" fill="#2D3235"/>
<path d="M81.2228 77.432H79.9321V78.72H81.2228V77.432Z" fill="#2D3235"/>
<path d="M84.7851 77.432H83.4944V78.72H84.7851V77.432Z" fill="#2D3235"/>
<path d="M88.3991 77.432H87.1084V78.72H88.3991V77.432Z" fill="#2D3235"/>
<path d="M91.9614 77.432H90.6707V78.72H91.9614V77.432Z" fill="#2D3235"/>
<path d="M95.5239 77.432H94.2332V78.72H95.5239V77.432Z" fill="#2D3235"/>
<path d="M99.1376 77.432H97.8469V78.72H99.1376V77.432Z" fill="#2D3235"/>
<path d="M102.7 77.432H101.409V78.72H102.7V77.432Z" fill="#2D3235"/>
<path d="M106.314 77.432H105.023V78.72H106.314V77.432Z" fill="#2D3235"/>
<path d="M109.876 77.432H108.586V78.72H109.876V77.432Z" fill="#2D3235"/>
<path d="M113.439 77.432H112.148V78.72H113.439V77.432Z" fill="#2D3235"/>
<path d="M117.053 77.432H115.762V78.72H117.053V77.432Z" fill="#2D3235"/>
<path d="M120.615 77.432H119.324V78.72H120.615V77.432Z" fill="#2D3235"/>
<path d="M124.229 77.432H122.938V78.72H124.229V77.432Z" fill="#2D3235"/>
<path d="M127.791 77.432H126.5V78.72H127.791V77.432Z" fill="#2D3235"/>
<path d="M131.353 77.432H130.063V78.72H131.353V77.432Z" fill="#2D3235"/>
<path d="M134.967 77.432H133.677V78.72H134.967V77.432Z" fill="#2D3235"/>
<path d="M107.766 64.1752L104.175 65.1304L105.69 70.8055L109.282 69.8504L107.766 64.1752Z" fill="#E6E7E8"/>
<path d="M124.745 65.5828H115.555V66.4071H124.745V65.5828Z" fill="#2D3235"/>
<path d="M124.745 67.0768H115.555V67.9011H124.745V67.0768Z" fill="#2D3235"/>
<path d="M124.745 69.9619H115.555V70.7861H124.745V69.9619Z" fill="#2D3235"/>
<path d="M124.745 71.4559H115.555V72.2802H124.745V71.4559Z" fill="#2D3235"/>
<path d="M120.718 72.8984H115.555V73.7227H120.718V72.8984Z" fill="#2D3235"/>
<path opacity="0.5" d="M104.559 51.9305H101.254V56.9277H104.559V51.9305Z" fill="#754C29"/>
<path d="M47.768 60.1219H31.3503V74.9076H47.768V60.1219Z" fill="#3D3C44"/>
<path d="M47.768 60.1219H45.0317V74.9076H47.768V60.1219Z" fill="#2D3235"/>
<path d="M40.0754 67.592H36.5647V69.7043H40.0754V67.592Z" fill="#E6E7E8"/>
<path d="M70.1744 24.9349H54.1182V34.3112H70.1744V24.9349Z" fill="#E6E7E8"/>
<path d="M66.8702 27.4078H57.6804V28.2321H66.8702V27.4078Z" fill="#2D3235"/>
<path d="M66.8702 28.9018H57.6804V29.7261H66.8702V28.9018Z" fill="#2D3235"/>
<path d="M64.2372 22.9772C64.2372 23.5439 63.7209 24.0076 63.0498 24.0076H60.7265C60.0553 24.0076 59.5391 23.5439 59.5391 22.9772C59.5391 22.4105 60.0553 21.9468 60.7265 21.9468H63.0498C63.7209 21.8953 64.2372 22.359 64.2372 22.9772Z" fill="#36353D"/>
<path d="M68.3511 37.0067L65.158 37.8541L65.6887 39.8456L68.8819 38.9982L68.3511 37.0067Z" fill="#E6E7E8"/>
<path d="M77.1441 26.4805H72.8074V33.3839H77.1441V26.4805Z" fill="#90B228"/>
<path d="M115.71 2.16382H96.0916V8.80967H115.71V40.6995H119.324V2.16382H115.71Z" fill="#8E602F"/>
<path d="M119.376 2.16382H96.0916V8.80967H119.376V2.16382Z" fill="#BE9157"/>
<path d="M119.324 8.50055H118.137V40.8025H119.324V8.50055Z" fill="#BE9157"/>
<path d="M119.324 8.60364H115.71V9.58248H119.324V8.60364Z" fill="#BE9157"/>
<path d="M129.701 2.16382H119.324V40.6995H129.701V2.16382Z" fill="#8E602F"/>
</g>
</svg>
