<svg width="160" height="88" viewBox="0 0 160 88" fill="none" xmlns="http://www.w3.org/2000/svg">
<mask id="mask0" mask-type="alpha" maskUnits="userSpaceOnUse" x="0" y="0" width="160" height="89">
<path d="M0 4.00006C0 1.79092 1.79086 6.10352e-05 4 6.10352e-05H156C158.209 6.10352e-05 160 1.79092 160 4.00006V88.0001H0V4.00006Z" fill="#F2F2F2"/>
</mask>
<g mask="url(#mask0)">
<path d="M134.827 40.0107V14.0196H34.2108V40.0107V62.8515H28.3892V84.2745H130.438V62.8515V40.0107H134.827Z" fill="#47512D"/>
<path d="M125.892 67.8921H28.3894V89.0001H125.892V67.8921Z" fill="#90B228"/>
<path d="M134.984 67.8921H78.865V89.0001H134.984V67.8921Z" fill="#5C7535"/>
<path d="M77.6111 81.9116H70.8706V86.6373H77.6111V81.9116Z" fill="#E6E7E8"/>
<path d="M106.454 74.9806C113.038 74.9806 118.681 72.1452 121.816 67.7346H90.9353C94.2272 72.1452 99.8704 74.9806 106.454 74.9806Z" fill="#A7A9AC"/>
<path d="M62.4055 76.2408H41.5569V78.7612H62.4055V76.2408Z" fill="#2D3235"/>
<path d="M118.524 45.2089H24V66.3169H118.524V45.2089Z" fill="#90B228"/>
<path d="M130.595 45.2089H74.4756V66.3169H130.595V45.2089Z" fill="#5C7535"/>
<path d="M73.3782 59.2285H66.6377V63.9541H73.3782V59.2285Z" fill="#E6E7E8"/>
<path d="M102.065 52.4549C108.649 52.4549 114.292 49.6195 117.427 45.2089H86.7026C89.8378 49.6195 95.481 52.4549 102.065 52.4549Z" fill="#A7A9AC"/>
<path d="M58.0161 53.5576H37.1675V56.0779H58.0161V53.5576Z" fill="#2D3235"/>
<path d="M131.221 22.6832H33.4053V43.7911H131.221V22.6832Z" fill="#90B228"/>
<path d="M140 22.6832H83.8809V43.7911H140V22.6832Z" fill="#5C7535"/>
<path d="M80.5892 36.5452H73.8486V41.2709H80.5892V36.5452Z" fill="#E6E7E8"/>
<path d="M109.276 29.7717C115.86 29.7717 121.503 26.9363 124.638 22.5257H93.9136C97.0487 26.9363 102.849 29.7717 109.276 29.7717Z" fill="#A7A9AC"/>
<path d="M65.2268 31.0319H44.3782V33.5523H65.2268V31.0319Z" fill="#2D3235"/>
<path d="M132.632 6.10352e-05H29.0161V21.108H132.632V6.10352e-05Z" fill="#90B228"/>
<path d="M135.611 6.10352e-05H79.4917V21.108H135.611V6.10352e-05Z" fill="#5C7535"/>
<path d="M78.3944 14.0196H71.6538V18.7453H78.3944V14.0196Z" fill="#E6E7E8"/>
<path d="M107.081 7.24608C113.665 7.24608 119.308 4.41068 122.443 6.10352e-05H91.7188C94.8539 4.25316 100.654 7.24608 107.081 7.24608Z" fill="#A7A9AC"/>
<path d="M63.0322 8.34869H42.1836V10.869H63.0322V8.34869Z" fill="#2D3235"/>
<path d="M91.092 26.9363H36.3839L33.4055 22.5257H83.7244L91.092 26.9363Z" fill="#5C7535"/>
<path d="M86.0756 71.5151L29.1729 70.7275L28.3892 67.8921H78.8648L86.0756 71.5151Z" fill="#5C7535"/>
<path d="M100.537 40.0001H88V88.0001H100.537V40.0001Z" fill="#F25A5A"/>
<path d="M133 40.0001H100.537V88.0001H133V40.0001Z" fill="#B24040"/>
<path d="M95.8359 52.3077H92.1418V73.6784H95.8359V52.3077Z" fill="white"/>
<path d="M100.537 79.1609H88V85.7623H100.537V79.1609Z" fill="#36353D"/>
<path d="M129.642 79.1609H100.537V85.7623H129.642V79.1609Z" fill="#2D3235"/>
</g>
</svg>
