<svg width="160" height="88" viewBox="0 0 160 88" fill="none" xmlns="http://www.w3.org/2000/svg">
<mask id="mask0" mask-type="alpha" maskUnits="userSpaceOnUse" x="0" y="0" width="160" height="89">
<path d="M0 4.00006C0 1.79092 1.79086 6.10352e-05 4 6.10352e-05H156C158.209 6.10352e-05 160 1.79092 160 4.00006V88.0001H0V4.00006Z" fill="#F2F2F2"/>
</mask>
<g mask="url(#mask0)">
<path d="M58.9553 74.5496L57.5739 204L84.5679 204L83.1865 74.5496L58.9553 74.5496Z" fill="#FFEEA6"/>
<path d="M81.2302 15.0847C82.2662 15.2563 91.763 28.4643 91.3601 33.3244C90.9572 38.1274 88.655 47.9619 88.655 47.9619L82.554 66.8306L67.3591 74.5496L58.9559 74.5496C58.9559 74.5496 57.4594 67.4024 56.5961 57.3391C55.7327 47.2758 56.3658 40.1286 56.3658 40.1286C56.3658 40.1286 59.3588 25.7198 59.9343 23.6042C60.5674 21.4887 72.5967 21.3171 72.5967 21.3171C72.5967 21.3171 77.7192 14.4558 81.2302 15.0847Z" fill="#FFEEA6"/>
<path d="M61.1427 74.5496C57.6317 66.316 56.5382 44.9887 63.042 56.1383C65.5745 60.4838 84.3379 60.8269 84.3379 60.8269L62.9269 22.2319C61.3729 22.575 60.1642 23.0324 59.9915 23.6614C59.3584 25.777 56.4231 40.1857 56.4231 40.1857C56.4231 40.1857 55.7899 47.333 56.6533 57.3962C57.5166 67.4595 59.0131 74.6067 59.0131 74.6067L61.1427 74.6067L61.1427 74.5496Z" fill="#EAC088"/>
<path d="M89.7984 63.5524L118 17.4844L95.7724 4.05566L67.5707 50.1237L89.7984 63.5524Z" fill="#86D670"/>
<path d="M72.9994 51.1067L86.4675 59.226C87.1582 58.0824 88.8849 57.9109 90.3238 58.7685L113.979 20.0592C112.541 19.2015 111.965 17.6006 112.656 16.457L99.1299 8.33777C98.4393 9.48132 96.7126 9.65286 95.2737 8.79519L71.618 47.4473C73.0569 48.3622 73.69 49.9632 72.9994 51.1067Z" fill="#44843A"/>
<path d="M89.5379 39.1104C92.4983 40.8989 96.3576 39.9647 98.1579 37.0238C99.9582 34.0829 99.0178 30.249 96.0575 28.4605C93.0971 26.672 89.2378 27.6062 87.4375 30.5471C85.6372 33.488 86.5775 37.3219 89.5379 39.1104Z" fill="#86D670"/>
<path opacity="0.4" d="M67.5891 50.0775L86.8705 61.7418C89.7483 58.3111 93.1441 53.6797 93.2017 51.3355C93.2592 47.4474 89.7483 42.816 89.7483 42.816L94.583 5.93634L67.5891 50.0775Z" fill="black"/>
<path d="M87.6363 56.5323L93.8726 2.96954L68.0288 2.76284e-05L61.7925 53.5628L87.6363 56.5323Z" fill="#86D670"/>
<path d="M67.1291 52.1931L82.7844 53.9656C82.9571 52.6506 84.396 51.7357 86.0651 51.9644L91.3027 7.02272C89.6336 6.85118 88.4249 5.59327 88.54 4.33536L72.9422 2.50568C72.7696 3.82076 71.3307 4.73561 69.6615 4.5069L64.4239 49.4486C66.0355 49.6773 67.3017 50.878 67.1291 52.1931Z" fill="#44843A"/>
<path d="M77.1099 34.4393C80.5519 34.8348 83.6649 32.3835 84.063 28.9642C84.4611 25.5449 81.9935 22.4524 78.5516 22.0569C75.1096 21.6614 71.9966 24.1127 71.5985 27.532C71.2004 30.9513 73.6679 34.0438 77.1099 34.4393Z" fill="#86D670"/>
<path opacity="0.35" d="M61.776 53.5082L87.6188 56.4814L89.1152 43.5593C87.9065 42.0155 83.9927 37.1554 82.2085 36.1262C80.712 35.2685 72.4239 15.0848 67.6467 3.24896L61.776 53.5082Z" fill="black"/>
<path d="M87.5402 51.9261L65.8462 2.50433L42.0004 12.8343L63.6944 62.2561L87.5402 51.9261Z" fill="#86D670"/>
<path d="M67.647 58.4255L82.0361 52.1931C81.5181 50.9924 82.3239 49.4486 83.8779 48.8196L65.6901 7.30857C64.1361 7.9947 62.467 7.53728 61.9489 6.33655L47.5023 12.5689C48.0203 13.7697 47.2145 15.3135 45.6605 15.9424L63.9059 57.4534C65.4023 56.7673 67.0715 57.2247 67.647 58.4255Z" fill="#44843A"/>
<path d="M59.0311 34.8975C60.416 38.0524 64.1133 39.4947 67.2891 38.119C70.465 36.7432 71.9169 33.0703 70.532 29.9153C69.1471 26.7603 65.4499 25.318 62.274 26.6938C59.0981 28.0696 57.6462 31.7425 59.0311 34.8975Z" fill="#86D670"/>
<path opacity="0.3" d="M87.5615 51.9072L81.403 37.9559L79.6187 38.5848C79.6187 38.5848 77.374 39.6712 78.7554 45.389C80.1368 51.1068 76.2805 50.2491 73.748 57.8537L87.5615 51.9072Z" fill="black"/>
<path d="M83.187 74.5496C83.187 74.5496 87.9066 69.8039 89.8635 66.1445C91.8204 62.4851 93.7774 55.5095 93.2593 51.3355C92.6838 47.1615 85.6619 39.8427 82.3812 38.0702C79.9638 36.7552 78.4098 39.7284 78.9278 42.5301C79.5034 45.3318 83.0719 50.9924 83.0719 50.9924C83.0719 50.9924 81.7481 57.3963 77.604 58.3112C73.8053 59.1688 64.8841 59.7406 64.3085 74.5496L83.187 74.5496Z" fill="#FFEEA6"/>
<path d="M81.115 37.7844C81.4604 37.7844 81.8633 37.8415 82.2662 38.0703C83.2446 38.5849 84.5684 39.6712 86.0073 40.9863C86.0073 40.9863 85.8922 43.5021 83.8777 44.0167C82.5539 44.3026 79.5035 42.3586 80.1941 40.243C80.5395 39.2138 80.8848 38.299 81.115 37.7844Z" fill="#FFF5E6"/>
<path d="M79.676 44.8172C79.676 44.8172 82.266 48.7625 83.9927 50.4206C85.7194 52.0788 80.5393 58.8829 79.3882 59.6834C78.2371 60.4839 72.3087 58.4827 67.3589 63.6859C70.4669 59.3975 75.0714 58.9401 77.5464 58.4255C81.6904 57.5107 83.0142 51.1068 83.0142 51.1068C83.0142 51.1068 80.8846 47.6189 79.676 44.8172Z" fill="#EAC088"/>
<path d="M82.5539 43.3306C83.1871 43.6736 84.108 43.9024 84.1655 43.9024C84.0504 43.9595 83.9929 43.9595 83.8777 44.0167C82.8417 44.2454 80.8273 43.159 80.2517 41.6724C81.2302 42.7588 81.8633 42.9875 82.5539 43.3306Z" fill="#EFD9BB"/>
<path d="M66.2075 204C62.639 183.53 61.603 81.0679 61.2577 75.7504C61.2577 75.3501 61.2001 74.9499 61.1426 74.5496L58.9554 74.5496L57.5741 204L66.2075 204Z" fill="#EAC088"/>
<path d="M66.7836 76.0363C66.7836 76.0363 66.7261 77.6372 66.7836 82.0971C66.8412 86.557 66.3232 90.1592 66.3232 90.1592C66.3232 90.1592 65.69 88.2151 65.69 85.2419C65.69 82.2686 65.3447 78.4377 66.7836 76.0363Z" fill="#EAC088"/>
</g>
</svg>
