<svg width="160" height="88" viewBox="0 0 160 88" fill="none" xmlns="http://www.w3.org/2000/svg">
<mask id="mask0" mask-type="alpha" maskUnits="userSpaceOnUse" x="0" y="0" width="160" height="89">
<path d="M0 4.00006C0 1.79092 1.79086 6.10352e-05 4 6.10352e-05H156C158.209 6.10352e-05 160 1.79092 160 4.00006V88.0001H0V4.00006Z" fill="#F2F2F2"/>
</mask>
<g mask="url(#mask0)">
<path d="M54.4655 94.0001L52.1154 93.6121L26 89.5868V2.00006L54.4655 6.3891L80.1584 2.36379L105.904 6.3891L134 2.00006V89.5868L105.904 93.9758L80.1848 89.9505L56.8156 93.6121L54.4655 94.0001Z" fill="white"/>
<mask id="mask1" mask-type="alpha" maskUnits="userSpaceOnUse" x="28" y="4" width="104" height="88">
<path d="M131.65 4.5462L105.904 8.57151L80.1848 4.5462H80.1584L54.4655 8.57151L28.3501 4.5462V87.7439L54.4655 91.7934L80.1848 87.7681L105.904 91.7934L131.65 87.7439V4.5462Z" fill="white"/>
</mask>
<g mask="url(#mask1)">
<path d="M25.8678 74.407L24.8115 92.0117L54.3333 93.8303L25.8678 74.407Z" fill="#2097B7"/>
<path d="M133.973 2.50934L135.716 93.0059L105.851 94.0244L132.495 89.0534L133.973 2.50934Z" fill="#2097B7"/>
<path d="M54.4655 94.0001L52.1154 93.6121L26 89.5868V2.00006L54.4655 6.3891L80.1584 2.36379L105.904 6.3891L134 2.00006V89.5868L105.904 93.9758L80.1848 89.9505L56.8156 93.6121L54.4655 94.0001Z" fill="white"/>
<g style="mix-blend-mode:multiply">
<path d="M54.4655 91.7934L28.3501 87.7439V4.5462L54.4655 8.57151V91.7934Z" fill="#F4F1ED"/>
</g>
<g style="mix-blend-mode:multiply">
<path d="M80.1846 87.7439L54.4653 91.7934V8.57151L80.1846 4.5462V87.7439Z" fill="#EDE6DD"/>
</g>
<g style="mix-blend-mode:multiply">
<path d="M105.904 91.7934L80.1582 87.7439V4.5462L105.904 8.57151V91.7934Z" fill="#F4F1ED"/>
</g>
<g style="mix-blend-mode:multiply">
<path d="M131.65 87.7439L105.904 91.7934V8.57151L131.65 4.5462V87.7439Z" fill="#EDE6DD"/>
</g>
<path d="M53.6213 18.756L53.146 23.7028L54.4663 23.1693C54.4663 23.1693 60.6189 22.4661 61.5695 22.0781C62.8105 21.5931 68.0917 20.4534 68.3294 20.3564C68.567 20.2595 69.0951 17.5436 71.2076 16.6221L53.6213 18.756Z" fill="#90B228"/>
<path d="M131.571 62.5736L117.523 64.7318V72.2004L120.507 71.7639L134.265 69.8725L131.571 62.5736Z" fill="#90B228"/>
<path d="M84.754 63.592V75.377L88.0019 76.2499L96.663 78.4081C96.663 78.4081 96.8479 79.3538 97.0855 79.7903C97.3232 80.2267 96.9007 81.0997 96.9007 81.0997L95.9237 83.3306C95.9237 83.3306 89.9559 92.2541 87.7642 92.2541C85.5726 92.2541 78.443 88.3016 78.443 88.3016C78.443 88.3016 77.4131 86.1434 77.5716 84.9068C77.73 83.6943 78.2053 75.474 77.5716 71.3032C76.9378 67.1324 77.1755 63.1313 77.1755 63.1313L80.1065 62.6706L84.754 63.592Z" fill="#90B228"/>
<path d="M93.1773 44.775L93.1245 40.9437C93.1245 40.9437 96.2404 40.8952 96.8213 41.0407C97.4023 41.2104 102.868 42.9806 104.769 42.9806C106.644 42.9806 114.698 42.1076 115.411 41.7924C116.124 41.4771 118.765 40.4344 118.765 40.4344L118.342 44.7992L105.984 46.9574L93.1773 44.775Z" fill="#90B228"/>
<path d="M52.3008 17.5677H51.5879V30.5894H52.3008V17.5677Z" fill="white" stroke="#CED0D6" stroke-miterlimit="10"/>
<path d="M47.3629 16.5736H46.6499V29.5952H47.3629V16.5736Z" fill="white" stroke="#CED0D6" stroke-miterlimit="10"/>
<path d="M115.464 46.8604V53.0438L106.116 54.5473L106.222 55.1777L124.627 52.2194V45.5752H123.914V51.6859L116.177 52.9226V46.8604H115.464Z" fill="white" stroke="#CED0D6" stroke-miterlimit="10"/>
<path d="M86.1793 9.95361H85.4663V15.6763H86.1793V9.95361Z" fill="white" stroke="#CED0D6" stroke-miterlimit="10"/>
<path d="M71.5508 80.251L57.0276 82.8214V64.9015H56.3146V82.9426L56.1826 82.9669L56.3146 83.6216V83.5973V93.9516H57.0276V83.4761L71.6829 80.8815L71.5508 80.251Z" fill="white" stroke="#CED0D6" stroke-miterlimit="10"/>
<path d="M57.397 7.14075H56.6841V17.6405H57.397V7.14075Z" fill="white" stroke="#CED0D6" stroke-miterlimit="10"/>
<path d="M85.0176 30.1287H84.3047V43.9505H85.0176V30.1287Z" fill="white" stroke="#CED0D6" stroke-miterlimit="10"/>
<path d="M71.5246 48.388L71.4718 47.7333L64.6327 48.3153V42.9805L71.0757 42.3986L70.9965 41.7438L56.4469 43.0775V42.9805H54.4929L38.7021 38.4218V51.7344H39.4151V39.3432L54.3344 43.6352L54.3872 43.6595H55.7603V49.7459L71.5246 48.388ZM63.8933 43.0533V48.388L56.4205 49.0185V43.7322L63.8933 43.0533Z" fill="white" stroke="#CED0D6" stroke-miterlimit="10"/>
<path d="M59.8531 29.9104H59.1401V37.573H59.8531V29.9104Z" fill="white" stroke="#CED0D6" stroke-miterlimit="10"/>
<path d="M42.3463 51.5161H41.6333V62.4281H42.3463V51.5161Z" fill="white" stroke="#CED0D6" stroke-miterlimit="10"/>
<path d="M48.5249 37.282L34.213 33.9842V26.3458H33.5V34.4934L48.3665 37.9125L48.5249 37.282Z" fill="white" stroke="#CED0D6" stroke-miterlimit="10"/>
<path d="M125.868 70.9637L117.576 72.1518V64.4407H116.863V72.2488L108.651 73.437V73.3643H107.938V73.534L105.825 73.9705L95.9496 71.7154V77.5351L85.2553 74.795V58.8635L100.069 63.0585L100.28 62.4281L84.5423 57.9905V62.8888L80.0797 61.9916L71.6562 63.6163L71.7883 64.2467L80.0797 62.6463L84.5423 63.5678V75.3042L96.6362 78.3838V72.5641L105.799 74.6252L107.938 74.1887V94.6547H108.651V74.0918L116.863 72.9036V92.0844H117.576V72.8066L125.973 71.5941L125.868 70.9637Z" fill="white" stroke="#CED0D6" stroke-miterlimit="10"/>
<path d="M48.3668 63.1798C48.3933 63.3253 50.9018 78.9416 43.9835 86.8224C41.5805 89.5625 38.3326 91.066 34.2661 91.3085L34.3189 91.9632C38.5967 91.6964 42.0294 90.1203 44.538 87.2346C51.6148 79.1355 49.159 63.7375 49.0534 63.0828L48.3668 63.1798Z" fill="white" stroke="#CED0D6" stroke-miterlimit="10"/>
<path d="M68.9631 27.2431C68.9367 27.1703 67.3788 19.1682 74.3235 16.0886L74.0066 15.5067C66.5602 18.8045 68.2237 27.2916 68.2501 27.3643L68.9631 27.2431Z" fill="white" stroke="#CED0D6" stroke-miterlimit="10"/>
<path d="M133.287 33.1598L133.155 32.5293L119.451 34.8572C119.398 33.0385 119.292 31.0986 119.081 29.086C118.262 20.8656 115.807 9.92941 108.677 4.59467L108.228 5.10389C113.298 8.91095 115.965 15.6764 117.338 22.1993L105.931 24.6969L102.234 23.7997V6.82556H101.521V24.7939L92.5694 22.369L92.3582 22.9995L102.208 25.6669V24.4787L105.878 25.3759L117.417 22.854C117.84 25.0364 118.157 27.1946 118.342 29.183C118.553 31.2199 118.658 33.184 118.711 35.0269L105.878 37.3063L92.3582 33.9842L92.1733 34.6147L105.878 37.9125L118.764 35.6332C118.896 41.4044 118.447 45.6237 118.447 45.6964L119.16 45.7692C119.16 45.7207 119.609 41.4044 119.477 35.5362L129.934 33.7417V43.32H130.647V33.6205L133.287 33.1598Z" fill="white" stroke="#CED0D6" stroke-miterlimit="10"/>
<path d="M70.8901 69.7239L61.8032 71.7386L61.9706 72.375L71.0574 70.3604L70.8901 69.7239Z" fill="white" stroke="#CED0D6" stroke-miterlimit="10"/>
<path d="M133.842 60.4155L105.852 64.9985L101.548 64.2953V48.0971L105.799 48.7518L133.367 44.2658L133.05 42.5683L105.799 47.0059L93.0716 44.8235V16.9858L80.1591 13.7365L54.387 17.0586L26.9777 11.1904L26.5552 12.8635L54.3077 18.8045L80.0535 15.5067L91.1967 18.3195V44.484L80.1063 42.4228L72.4222 43.9505V25.1819L54.3342 30.3227L28.5884 23.7028L28.0867 25.3517L54.3606 32.1171L70.5473 27.5341V45.0417V46.1329V61.1187L54.2285 63.98L27.2945 58.1118L26.872 59.8092L53.9909 65.7017L54.1757 65.7502L70.5473 62.8888V92.2057H72.4222V62.5494V61.8461V45.7207L80.1327 44.193L99.673 47.7576V65.7017L105.826 66.7444L134.159 62.1129L133.842 60.4155Z" fill="#F27532" stroke="#CED0D6" stroke-miterlimit="10"/>
<path d="M38.9924 29.9832L38.8604 33.0628L47.2574 34.6147L51.5616 33.7418L50.6902 31.9716L38.9924 29.9832Z" fill="#90B228"/>
<path d="M31.0705 35.5604L30.6216 45.5024L35.5595 46.0117L37.6719 38.8825L31.0705 35.5604Z" fill="#90B228"/>
<path d="M34.9258 63.7133L46.8084 66.3079C46.8084 66.3079 49.2906 86.1677 32.9453 90.6052H26.6079L27.0832 62.3068L34.9258 63.7133Z" fill="#90B228"/>
<path d="M75.9605 47.9516L75.9077 58.2331L80.1327 57.2389L83.5126 57.6026L85.3874 52.5589L92.2265 51.7587L92.0681 48.1699L79.895 46.8604L75.9605 47.9516Z" fill="#90B228"/>
<path d="M113.22 75.2557L113.167 79.3053L114.566 80.3965L115.992 76.8804L115.808 74.2858L113.22 75.2557Z" fill="#90B228"/>
<path d="M117.682 11.3601C117.682 11.3601 122.382 18.7075 121.907 32.0928L129.433 30.9046L129.195 19.7744L133.895 19.338L134.371 6.48608L117.682 11.3601Z" fill="#90B228"/>
<path d="M95.1573 31.0986L104.32 33.184V36.1181L95.1309 33.8145L95.1573 31.0986Z" fill="#D8D5CE"/>
<path d="M95.1573 36.2879L104.32 38.3733V41.2832L95.1309 38.9795L95.1573 36.2879Z" fill="#D8D5CE"/>
<path d="M91.9361 61.7249L97.3493 63.0586V65.9927L91.8833 64.562L91.9361 61.7249Z" fill="#D8D5CE"/>
<path d="M87.1036 70.3574L92.5432 71.7154V74.6252L87.0771 73.1945L87.1036 70.3574Z" fill="#D8D5CE"/>
<path d="M91.1968 57.8936L98.0359 59.6638V60.8035L91.1704 58.9848L91.1968 57.8936Z" fill="#D8D5CE"/>
<path d="M97.9302 74.0433L103.343 75.377V78.2869L97.8774 76.8562L97.9302 74.0433Z" fill="#D8D5CE"/>
<path d="M42.9268 57.3601L48.3664 58.718V61.6279L42.9004 60.1972L42.9268 57.3601Z" fill="#D8D5CE"/>
<path d="M42.9796 54.5715L48.3928 55.9052V57.8451L42.9268 56.4144L42.9796 54.5715Z" fill="#D8D5CE"/>
<path d="M40.4713 40.4587L45.8845 41.9136V43.8293L40.4185 42.3986L40.4713 40.4587Z" fill="#D8D5CE"/>
<path d="M48.1554 43.2473L53.5686 44.581V47.5879L48.1025 45.066L48.1554 43.2473Z" fill="#D8D5CE"/>
<path d="M40.2598 45.8904L45.6995 47.2241L45.673 49.1398L40.207 47.7091L40.2598 45.8904Z" fill="#D8D5CE"/>
<path d="M46.2013 49.7945L51.6145 52.4134L51.5881 54.3533L46.1221 52.9226L46.2013 49.7945Z" fill="#D8D5CE"/>
<path d="M68.8307 30.3954L63.4175 31.7291L63.4439 33.6448L68.9099 32.2141L68.8307 30.3954Z" fill="#D8D5CE"/>
<path d="M68.1442 49.6005L62.7046 50.0854L62.731 52.8741L68.197 51.4434L68.1442 49.6005Z" fill="#D8D5CE"/>
<path d="M67.9332 58.524L62.52 59.009V61.7976L68.0124 60.367L67.9332 58.524Z" fill="#D8D5CE"/>
<path d="M61.1999 50.522L55.7603 51.0069L55.7867 53.7956L61.2527 52.3649L61.1999 50.522Z" fill="#D8D5CE"/>
<path d="M61.1999 59.6153L55.7603 60.1003L55.7867 62.8889L61.2527 61.4582L61.1999 59.6153Z" fill="#D8D5CE"/>
<path d="M124.811 53.2863L119.266 54.135L119.002 56.0749L124.6 55.1535L124.811 53.2863Z" fill="#D8D5CE"/>
<path d="M67.4314 72.8793L61.8861 73.7038L61.6221 75.6437L67.2201 74.7222L67.4314 72.8793Z" fill="#D8D5CE"/>
<path d="M67.4314 66.2594L60.9355 67.6416L61.6221 70.7939L67.2201 69.533L67.4314 66.2594Z" fill="#D8D5CE"/>
<path d="M41.8707 36.9669L47.3103 38.3248L47.2839 40.2404L41.8179 38.8098L41.8707 36.9669Z" fill="#D8D5CE"/>
<path d="M88.4507 61.9431L93.8903 63.2768V66.1867L88.4243 64.756L88.4507 61.9431Z" fill="#D8D5CE"/>
<path d="M37.3555 52.5588V58.3058L39.732 58.9605V53.1651L37.3555 52.5588Z" fill="#D8D5CE"/>
<path d="M95.9761 52.4133V58.1603L98.379 58.815V53.0196L95.9761 52.4133Z" fill="#D8D5CE"/>
<path d="M73.3994 79.5962V85.3432L75.8023 84.6642V78.8688L73.3994 79.5962Z" fill="#D8D5CE"/>
<path d="M73.3994 72.3943V78.1413L75.8023 77.4623V71.6669L73.3994 72.3943Z" fill="#D8D5CE"/>
<path d="M73.3994 65.1925V70.9395L75.8023 70.2605V64.465L73.3994 65.1925Z" fill="#D8D5CE"/>
<path d="M86.7344 19.8714V25.6426L89.1109 26.2973V20.5019L86.7344 19.8714Z" fill="#D8D5CE"/>
<path d="M81.083 30.5409V36.2879L83.4859 36.9426V31.1471L81.083 30.5409Z" fill="#D8D5CE"/>
<path d="M86.021 35.1482V40.8952L88.4239 41.5499V35.7544L86.021 35.1482Z" fill="#D8D5CE"/>
<path d="M33.3945 72.2004C33.3945 72.2004 33.6322 75.0133 34.794 75.5468C35.9823 76.0802 38.3324 75.4498 39.6263 73.6069C40.9202 71.764 41.1579 70.2605 39.9696 69.3876C38.7813 68.5146 37.1442 67.1082 35.375 68.5146C33.6322 69.9453 33.3945 72.2004 33.3945 72.2004Z" fill="#6FADB2"/>
<path d="M124.97 15.4339C125.26 16.0886 125.868 16.5493 126.633 16.6463C126.95 16.6948 127.241 16.6463 127.452 16.4766C128.033 15.9431 128.376 14.9246 128.376 14.6579C128.376 14.3912 128.561 12.524 127.716 12.233C126.871 11.942 125.075 12.2088 124.785 12.6695C124.495 13.106 124.362 14.3184 124.653 14.7791C124.759 14.9489 124.891 15.1914 124.97 15.4339Z" fill="#6FADB2"/>
<path d="M126.739 19.8472C126.501 19.1925 125.92 18.659 125.181 18.5135C124.864 18.4408 124.574 18.465 124.362 18.6105C123.729 19.0955 123.28 21.5689 123.253 21.8356C123.227 22.1024 122.884 23.9453 123.702 24.309C124.521 24.6727 126.343 24.503 126.66 24.0908C127.003 23.6785 127.214 22.4903 126.977 22.0054C126.897 21.8356 126.818 20.0897 126.739 19.8472Z" fill="#6FADB2"/>
<path d="M36.5101 12.4998L34.2656 12.0633V8.11078L36.5101 8.54726V12.4998Z" fill="#D8D5CE"/>
<path d="M36.3245 7.31054L32.1523 6.51033V-0.885559L36.3245 -0.0853482V7.31054Z" fill="#D8D5CE"/>
<path d="M40.7352 13.4697L38.5171 13.0332V9.08069L40.7352 9.51717V13.4697Z" fill="#D8D5CE"/>
<path d="M35.6919 24.1877L31.335 23.3632V15.6279L35.6919 16.4766V24.1877Z" fill="#D8D5CE"/>
<path d="M43.7979 26.0791L39.4409 25.2547V17.5193L43.7979 18.368V26.0791Z" fill="#D8D5CE"/>
<path d="M44.9867 14.4397L42.7422 14.0032V10.0507L44.9867 10.4871V14.4397Z" fill="#D8D5CE"/>
<path d="M49.2113 15.4096L46.9668 14.9974V11.0206L49.2113 11.457V15.4096Z" fill="#D8D5CE"/>
<path d="M58.6122 28.3585L56.3677 28.989V25.0364L58.6122 24.4059V28.3585Z" fill="#D8D5CE"/>
<path d="M62.8367 27.1218L60.6187 27.7523V23.7755L62.8367 23.145V27.1218Z" fill="#D8D5CE"/>
<path d="M67.0887 25.8609L64.8442 26.4914V22.5388L67.0887 21.9083V25.8609Z" fill="#D8D5CE"/>
<path d="M75.7757 37.961L73.5576 38.5915V34.639L75.7757 34.0085V37.961Z" fill="#D8D5CE"/>
<path d="M112.058 63.3981L109.021 63.883V60.6822L112.058 60.1972V63.3981Z" fill="#D8D5CE"/>
<path d="M116.757 62.6463L113.747 63.1313V59.9304L116.757 59.4212V62.6463Z" fill="#D8D5CE"/>
<path d="M121.458 61.8703L118.447 62.3796V59.1787L121.458 58.6695V61.8703Z" fill="#D8D5CE"/>
<path d="M126.712 82.2394L118.315 83.4761V73.6311L126.712 72.3944V82.2394Z" fill="#D8D5CE"/>
<path d="M129.908 91.0902L121.511 92.3269V82.4819L129.908 81.2694V91.0902Z" fill="#D8D5CE"/>
<path d="M110.869 35.8272L107.859 36.3364V30.1287L110.869 29.6437V35.8272Z" fill="#D8D5CE"/>
<path d="M112.506 21.4961L107.964 22.2721V12.9605L112.506 12.2088V21.4961Z" fill="#D8D5CE"/>
<path d="M115.015 93.1999L110.473 93.9516V84.6643L115.015 83.9126V93.1999Z" fill="#D8D5CE"/>
<path d="M64.0779 93.9273L59.5361 94.679V85.3917L64.0779 84.6158V93.9273Z" fill="#D8D5CE"/>
<path d="M115.042 35.0512L112.031 35.5362V29.3527L115.042 28.8435V35.0512Z" fill="#D8D5CE"/>
<path d="M76.5679 31.0744L73.5576 31.5836V25.4002L76.5679 24.8909V31.0744Z" fill="#D8D5CE"/>
<path d="M117.893 39.7554L114.883 40.2404V36.9911L117.893 36.5061V39.7554Z" fill="#D8D5CE"/>
<path d="M122.356 39.1735L120.507 39.4887V36.2394L122.356 35.9241V39.1735Z" fill="#D8D5CE"/>
<path d="M125.155 38.7855L123.307 39.1007V35.8514L125.155 35.5361V38.7855Z" fill="#D8D5CE"/>
<path d="M127.954 38.3732L126.132 38.7127V35.4634L127.954 35.1239V38.3732Z" fill="#D8D5CE"/>
<path d="M113.589 40.4586L110.552 40.9679V37.7185L113.589 37.2093V40.4586Z" fill="#D8D5CE"/>
<path d="M109.258 41.1861L106.248 41.6953V38.446L109.258 37.9368V41.1861Z" fill="#D8D5CE"/>
<path d="M126.158 61.1187L123.148 61.6279V58.4271L126.158 57.9178V61.1187Z" fill="#D8D5CE"/>
<path d="M94.313 22.1508V19.5562L100.518 21.2536V23.7997L94.313 22.1508Z" fill="#D8D5CE"/>
<path d="M56.3149 4.32791C56.3149 4.32791 62.2034 11.6753 66.1907 12.9605C70.178 14.2457 75.9609 12.9605 77.1228 12.0875C78.311 11.2146 79.8162 10.5841 79.8162 10.5841C79.8162 10.5841 81.5854 9.17768 86.2328 9.17768C90.8802 9.17768 98.3531 9.00793 98.8812 7.55301C99.4093 6.09808 96.7687 0.472351 96.7687 0.472351L56.3149 4.32791Z" fill="#90B228"/>
<path d="M35.8763 74.407C35.8763 74.407 35.8763 76.5651 35.4538 77.9231C35.0313 79.281 34.4504 80.6147 33.5262 81.3664C32.5756 82.1181 31.3609 82.9426 30.4103 83.2578C29.4597 83.573 26.2382 83.6943 25.7629 84.1308C25.2876 84.5672 25.0499 85.5372 25.2876 85.5857C25.5252 85.6342 26.8191 84.7855 27.0568 84.6642C27.2944 84.5672 27.1096 84.6157 28.9316 84.446C30.7536 84.2763 30.8592 84.2278 31.8098 83.9125C32.7604 83.5973 33.3942 83.1123 33.8167 82.7728C34.2392 82.4576 35.5859 81.3664 35.8235 80.8814C36.0612 80.3965 36.3516 79.5962 36.4572 78.9415C36.5629 78.2868 37.4079 76.5409 37.5135 76.0559C37.6191 75.5709 37.6983 73.8978 37.6983 73.8978L35.8763 74.407Z" fill="#6FADB2"/>
<path d="M32.8394 66.4776C32.8394 66.4776 31.6248 68.1023 32.2057 68.2478C32.7866 68.3933 34.3974 67.8113 34.7406 67.5204C34.7935 67.4719 34.8463 67.3991 34.8727 67.3264C35.0575 66.8414 34.5822 66.3322 34.0277 66.3807L32.8394 66.4776Z" fill="#6FADB2"/>
<path d="M131.651 87.7439L105.905 91.7934V8.57151L131.651 4.5462V87.7439Z" fill="url(#paint0_linear)"/>
<path opacity="0.5" d="M79.7645 87.8698L105.742 91.9215V8.65444L79.7645 4.62695V87.8698Z" fill="url(#paint1_linear)"/>
<path d="M79.7646 87.7469L54.48 91.7927V8.6485L79.7646 4.62695V87.7469Z" fill="url(#paint2_linear)"/>
<path opacity="0.5" d="M28.8083 87.8744L54.3208 91.9224V8.73308L28.8083 4.70935V87.8744Z" fill="url(#paint3_linear)"/>
</g>
</g>
<defs>
<linearGradient id="paint0_linear" x1="131.645" y1="48.1673" x2="105.917" y2="48.1673" gradientUnits="userSpaceOnUse">
<stop stop-color="#DADBDC" stop-opacity="0"/>
<stop offset="0.281768" stop-color="#BBBCBC" stop-opacity="0.0287293"/>
<stop offset="0.756906" stop-color="#6C6C6D" stop-opacity="0.10119"/>
<stop offset="0.939227" stop-color="#333434" stop-opacity="0.152841"/>
<stop offset="1" stop-opacity="0.2"/>
</linearGradient>
<linearGradient id="paint1_linear" x1="79.7702" y1="48.2717" x2="105.73" y2="48.2717" gradientUnits="userSpaceOnUse">
<stop stop-color="white"/>
<stop offset="1" stop-color="white" stop-opacity="0"/>
</linearGradient>
<linearGradient id="paint2_linear" x1="79.7591" y1="48.2073" x2="54.4915" y2="48.2073" gradientUnits="userSpaceOnUse">
<stop stop-color="#DADBDC" stop-opacity="0"/>
<stop offset="0.281768" stop-color="#BBBCBC" stop-opacity="0.0287293"/>
<stop offset="0.756906" stop-color="#6C6C6D" stop-opacity="0.10119"/>
<stop offset="0.939227" stop-color="#333434" stop-opacity="0.152841"/>
<stop offset="1" stop-opacity="0.2"/>
</linearGradient>
<linearGradient id="paint3_linear" x1="28.8139" y1="48.3133" x2="54.3092" y2="48.3133" gradientUnits="userSpaceOnUse">
<stop stop-color="#DADBDC" stop-opacity="0"/>
<stop offset="0.281768" stop-color="#BBBCBC" stop-opacity="0.0287293"/>
<stop offset="0.756906" stop-color="#6C6C6D" stop-opacity="0.10119"/>
<stop offset="0.939227" stop-color="#333434" stop-opacity="0.152841"/>
<stop offset="1" stop-opacity="0.2"/>
</linearGradient>
</defs>
</svg>
