<svg width="160" height="88" viewBox="0 0 160 88" fill="none" xmlns="http://www.w3.org/2000/svg">
<mask id="mask0" mask-type="alpha" maskUnits="userSpaceOnUse" x="0" y="0" width="160" height="89">
<path d="M0 4.00006C0 1.79092 1.79086 6.10352e-05 4 6.10352e-05H156C158.209 6.10352e-05 160 1.79092 160 4.00006V88.0001H0V4.00006Z" fill="#F2F2F2"/>
</mask>
<g mask="url(#mask0)">
<path d="M79.9635 80.1429V154H-9.927V66.0001H52.4088V80.1429H79.9635Z" fill="#33281D"/>
<path d="M79.9999 80.1429H53.613V153.963H79.9999V80.1429Z" fill="#BE9157"/>
<path d="M52.4088 66.0001H26.022V154H52.4088V66.0001Z" fill="#BE9157"/>
<path d="M26.0219 66.0001H8.64966V154H26.0219V66.0001Z" fill="#8E602F"/>
<path d="M7.44526 66.0001H-9.927V154H7.44526V66.0001Z" fill="#8E602F"/>
<path d="M79.9636 79.8506H26.022V80.4353H79.9636V79.8506Z" fill="#8E602F"/>
<path d="M25.9489 79.8506H-10V80.4353H25.9489V79.8506Z" fill="#5B422C"/>
<path opacity="0.5" d="M18.3942 66.0001H14.927V69.4353H18.3942V66.0001Z" fill="#754C29"/>
<path opacity="0.7" d="M51.0583 76.123H46.6057V78.937H51.0583V76.123Z" fill="#E6E7E8"/>
<path opacity="0.5" d="M18.3942 80.3987H14.927V83.834H18.3942V80.3987Z" fill="#754C29"/>
<path opacity="0.5" d="M0.474478 66.0001H-2.99268V69.4353H0.474478V66.0001Z" fill="#754C29"/>
<path opacity="0.5" d="M0.474478 80.3987H-2.99268V83.834H0.474478V80.3987Z" fill="#754C29"/>
<path d="M124.964 14.1429V88.0001H35.073V6.10352e-05H97.4088V14.1429H124.964Z" fill="#33281D"/>
<path d="M125 14.1429H98.613V87.9635H125V14.1429Z" fill="#BE9157"/>
<path d="M97.4088 6.10352e-05H71.022V88.0001H97.4088V6.10352e-05Z" fill="#BE9157"/>
<path d="M71.0219 6.10352e-05H53.6497V88.0001H71.0219V6.10352e-05Z" fill="#8E602F"/>
<path d="M52.4453 6.10352e-05H35.073V88.0001H52.4453V6.10352e-05Z" fill="#8E602F"/>
<path d="M124.964 71.8837H71.022V72.4684H124.964V71.8837Z" fill="#8E602F"/>
<path d="M70.9489 71.8838H35V72.4685H70.9489V71.8838Z" fill="#5B422C"/>
<path d="M124.964 57.3754H71.022V57.9601H124.964V57.3754Z" fill="#8E602F"/>
<path d="M70.9489 57.3754H35V57.9601H70.9489V57.3754Z" fill="#5B422C"/>
<path d="M124.964 42.8671H71.022V43.4518H124.964V42.8671Z" fill="#8E602F"/>
<path d="M70.9489 42.8671H35V43.4518H70.9489V42.8671Z" fill="#5B422C"/>
<path d="M124.964 28.3589H71.022V28.9436H124.964V28.3589Z" fill="#8E602F"/>
<path d="M70.9489 28.3589H35V28.9436H70.9489V28.3589Z" fill="#5B422C"/>
<path d="M124.964 13.8506H71.022V14.4353H124.964V13.8506Z" fill="#8E602F"/>
<path d="M70.9489 13.8506H35V14.4353H70.9489V13.8506Z" fill="#5B422C"/>
<path opacity="0.5" d="M63.3942 6.10352e-05H59.927V3.43528H63.3942V6.10352e-05Z" fill="#754C29"/>
<path opacity="0.7" d="M96.0583 10.123H91.6057V12.937H96.0583V10.123Z" fill="#E6E7E8"/>
<path opacity="0.7" d="M96.0583 24.3389H91.6057V27.1528H96.0583V24.3389Z" fill="#E6E7E8"/>
<path opacity="0.7" d="M96.0583 38.7375H91.6057V41.5515H96.0583V38.7375Z" fill="#E6E7E8"/>
<path opacity="0.7" d="M96.0583 53.5017H91.6057V56.3157H96.0583V53.5017Z" fill="#E6E7E8"/>
<path opacity="0.7" d="M104.343 59.824H99.8904V62.6379H104.343V59.824Z" fill="#E6E7E8"/>
<path opacity="0.7" d="M106.533 24.3389H102.08V27.1528H106.533V24.3389Z" fill="#E6E7E8"/>
<path opacity="0.7" d="M100.812 38.4819L100.456 41.273L104.836 41.8333L105.192 39.0421L100.812 38.4819Z" fill="#E6E7E8"/>
<path opacity="0.7" d="M123.248 53.5017H118.796V56.3157H123.248V53.5017Z" fill="#E6E7E8"/>
<path opacity="0.7" d="M77.5548 67.8638H73.1023V70.6778H77.5548V67.8638Z" fill="#E6E7E8"/>
<path opacity="0.7" d="M75.4357 82.1052L74.3184 84.6873L78.404 86.4599L79.5214 83.8779L75.4357 82.1052Z" fill="#E6E7E8"/>
<path opacity="0.7" d="M104.343 84.2725H99.8904V87.0864H104.343V84.2725Z" fill="#E6E7E8"/>
<path opacity="0.5" d="M63.3942 14.3987H59.927V17.834H63.3942V14.3987Z" fill="#754C29"/>
<path opacity="0.5" d="M63.3942 28.907H59.927V32.3423H63.3942V28.907Z" fill="#754C29"/>
<path opacity="0.5" d="M63.3942 43.4519H59.927V46.8871H63.3942V43.4519Z" fill="#754C29"/>
<path opacity="0.5" d="M63.3942 57.7775H59.927V61.2127H63.3942V57.7775Z" fill="#754C29"/>
<path opacity="0.5" d="M63.3942 72.5416H59.927V75.9768H63.3942V72.5416Z" fill="#754C29"/>
<path opacity="0.5" d="M45.4745 6.10352e-05H42.0073V3.43528H45.4745V6.10352e-05Z" fill="#754C29"/>
<path opacity="0.5" d="M45.4745 14.3987H42.0073V17.834H45.4745V14.3987Z" fill="#754C29"/>
<path opacity="0.5" d="M45.4745 28.907H42.0073V32.3423H45.4745V28.907Z" fill="#754C29"/>
<path opacity="0.5" d="M45.4745 43.4519H42.0073V46.8871H45.4745V43.4519Z" fill="#754C29"/>
<path opacity="0.5" d="M45.4745 57.7775H42.0073V61.2127H45.4745V57.7775Z" fill="#754C29"/>
<path opacity="0.5" d="M45.4745 72.5416H42.0073V75.9768H45.4745V72.5416Z" fill="#754C29"/>
<path d="M176.964 70.1429V144H87.073V56.0001H149.409V70.1429H176.964Z" fill="#33281D"/>
<path d="M177 70.1429H150.613V143.963H177V70.1429Z" fill="#BE9157"/>
<path d="M149.409 56.0001H123.022V144H149.409V56.0001Z" fill="#BE9157"/>
<path d="M123.022 56.0001H105.65V144H123.022V56.0001Z" fill="#8E602F"/>
<path d="M104.445 56.0001H87.073V144H104.445V56.0001Z" fill="#8E602F"/>
<path d="M176.964 84.3589H123.022V84.9436H176.964V84.3589Z" fill="#8E602F"/>
<path d="M122.949 84.3589H87V84.9436H122.949V84.3589Z" fill="#5B422C"/>
<path d="M176.964 69.8506H123.022V70.4353H176.964V69.8506Z" fill="#8E602F"/>
<path d="M122.949 69.8506H87V70.4353H122.949V69.8506Z" fill="#5B422C"/>
<path opacity="0.5" d="M115.394 56.0001H111.927V59.4353H115.394V56.0001Z" fill="#754C29"/>
<path opacity="0.7" d="M148.058 66.123H143.606V68.937H148.058V66.123Z" fill="#E6E7E8"/>
<path opacity="0.7" d="M148.058 80.3389H143.606V83.1528H148.058V80.3389Z" fill="#E6E7E8"/>
<path opacity="0.7" d="M158.533 80.3389H154.08V83.1528H158.533V80.3389Z" fill="#E6E7E8"/>
<path opacity="0.5" d="M115.394 70.3987H111.927V73.834H115.394V70.3987Z" fill="#754C29"/>
<path opacity="0.5" d="M115.394 84.907H111.927V88.3423H115.394V84.907Z" fill="#754C29"/>
<path opacity="0.5" d="M97.4745 56.0001H94.0073V59.4353H97.4745V56.0001Z" fill="#754C29"/>
<path opacity="0.5" d="M97.4745 70.3987H94.0073V73.834H97.4745V70.3987Z" fill="#754C29"/>
<path opacity="0.5" d="M97.4745 84.907H94.0073V88.3423H97.4745V84.907Z" fill="#754C29"/>
</g>
</svg>
