<svg width="24" height="24" viewBox="0 0 24 24" fill="none" xmlns="http://www.w3.org/2000/svg">
<path d="M21.8604 14.1538C22.0029 13.4662 22.0913 12.7343 22.0913 12.0025C22.0913 6.42755 17.5773 1.91851 12.0073 1.91851C11.2755 1.91851 10.5485 2.00201 9.85598 2.14936C8.92274 1.42733 7.76355 1 6.50122 1C3.46572 1 1 3.46573 1 6.50123C1 7.76356 1.42733 8.92275 2.14445 9.85108C2.00201 10.5387 1.9136 11.2706 1.9136 12.0025C1.9136 17.5774 6.42754 22.0864 11.9975 22.0864C12.7294 22.0864 13.4563 22.0029 14.1489 21.8555C15.0821 22.5727 16.2413 23 17.4987 23C20.5342 23 23 20.5343 23 17.4988C23.0049 16.2413 22.5775 15.0822 21.8604 14.1538V14.1538ZM12.3021 18.6481C9.07991 18.6481 6.38333 17.2139 6.38333 15.4555C6.38333 14.6696 6.8254 13.9524 7.83232 13.9524C9.3648 13.9524 9.50724 16.1578 12.1596 16.1578C13.4219 16.1578 14.2373 15.5979 14.2373 14.866C14.2373 13.9475 13.4514 13.8051 12.1743 13.4907C9.10447 12.7343 6.38825 12.4101 6.38825 9.20764C6.38825 6.29984 9.26656 5.22416 11.747 5.22416C14.4534 5.22416 17.1893 6.29984 17.1893 7.9453C17.1893 8.7754 16.6294 9.50726 15.701 9.50726C14.311 9.50726 14.2668 7.8618 12.0172 7.8618C10.7548 7.8618 9.95421 8.20563 9.95421 8.96696C9.95421 9.9395 10.9759 10.0377 13.3483 10.5879C15.3818 11.0447 17.8033 11.9042 17.8033 14.3994C17.8033 17.3023 14.9986 18.6481 12.3021 18.6481V18.6481Z" fill="#00AEF3"/>
</svg>
