<svg width="24" height="24" viewBox="0 0 24 24" fill="none" xmlns="http://www.w3.org/2000/svg">
<path fill-rule="evenodd" clip-rule="evenodd" d="M12 0C18.6274 0 24 5.37258 24 12C24 18.6274 18.6274 24 12 24C5.37258 24 0 18.6274 0 12C0 5.37258 5.37258 0 12 0Z" fill="#7F4DA0"/>
<path fill-rule="evenodd" clip-rule="evenodd" d="M15.1969 10.4792C15.1386 10.005 14.9928 9.63274 14.734 9.30296C14.398 8.87832 13.9685 8.62405 13.3326 8.4732C12.9183 8.37267 12.7509 8.38421 12.601 8.5211C12.4614 8.64936 12.4341 8.90648 12.5408 9.07299C12.6158 9.19383 12.7024 9.23713 12.9431 9.28438C13.2637 9.34336 13.4852 9.4199 13.6867 9.53512C14.1144 9.78209 14.3136 10.1686 14.3349 10.7942C14.3449 11.088 14.3703 11.1783 14.4729 11.2825C14.6631 11.473 15.0015 11.4359 15.1451 11.208C15.1978 11.1221 15.2058 11.0847 15.2114 10.8852C15.215 10.7617 15.2097 10.5779 15.1969 10.4792Z" fill="white"/>
<path fill-rule="evenodd" clip-rule="evenodd" d="M16.8726 11.0138C16.7882 9.56114 16.22 8.39239 15.2031 7.57008C14.6301 7.10802 13.9376 6.7903 13.1785 6.63578C12.9004 6.58052 12.3884 6.53573 12.3006 6.56135C12.2177 6.58508 12.1004 6.67482 12.0482 6.75598C11.9929 6.84399 11.9805 7.0405 12.0276 7.15416C12.1037 7.34417 12.2452 7.4113 12.6416 7.44598C13.2527 7.49944 13.8829 7.71412 14.3591 8.03195C14.9028 8.39381 15.335 8.88876 15.6145 9.47037C15.8561 9.97009 16.0047 10.6902 16.0005 11.3351C15.9992 11.5684 16.0352 11.7001 16.129 11.7964C16.2706 11.9445 16.477 11.9768 16.6591 11.8785C16.861 11.7723 16.9082 11.586 16.8726 11.0138Z" fill="white"/>
<path fill-rule="evenodd" clip-rule="evenodd" d="M18.7261 16.6082C18.6976 16.5251 18.6313 16.3971 18.584 16.3235C18.2855 15.8729 16.6822 14.6181 15.8817 14.2078C15.4246 13.973 15.0859 13.8947 14.8349 13.9682C14.5649 14.0441 14.4228 14.1698 13.9704 14.732C13.7881 14.9573 13.601 15.1684 13.5512 15.2016C13.4281 15.287 13.1865 15.3558 13.016 15.3558C12.6205 15.3534 11.9029 15.0972 11.351 14.7604C10.9224 14.4995 10.3729 14.0323 9.95136 13.5697C9.45398 13.0266 9.11535 12.5474 8.8477 12.0066C8.50194 11.3117 8.41431 10.8871 8.55876 10.5763C8.59429 10.4981 8.64167 10.4151 8.66296 10.3889C8.68429 10.3653 8.90692 10.1826 9.1532 9.98335C9.63637 9.59912 9.71451 9.51136 9.80451 9.24807C9.91819 8.91361 9.88742 8.57206 9.71215 8.22814C9.57715 7.96722 9.22427 7.39796 8.9685 7.03032C8.62982 6.54646 7.78669 5.5123 7.61851 5.37232C7.31537 5.12566 6.927 5.08294 6.49829 5.24901C6.04597 5.42454 5.19808 6.10765 4.83571 6.58441C4.50888 7.01609 4.3834 7.32206 4.36443 7.72529C4.34787 8.05734 4.37628 8.19492 4.55154 8.61951C5.92281 11.9497 7.96903 14.6086 10.7803 16.7197C12.2486 17.8226 13.7715 18.6623 15.3512 19.2363C16.2724 19.5707 16.6727 19.5873 17.144 19.3122C17.3429 19.1936 17.8356 18.6884 18.1103 18.3207C18.565 17.7087 18.7332 17.4265 18.7805 17.2012C18.8137 17.047 18.7876 16.779 18.7261 16.6082Z" fill="white"/>
<path fill-rule="evenodd" clip-rule="evenodd" d="M18.5773 11.3475C18.547 10.5257 18.4087 9.85174 18.1202 9.10027C17.8354 8.36108 17.5471 7.87872 17.0027 7.22631C16.488 6.6146 16.0883 6.26532 15.4543 5.87653C14.5697 5.33483 13.4932 4.97636 12.2868 4.8256C11.8754 4.77291 11.7823 4.77667 11.6561 4.86089C11.4115 5.02044 11.4148 5.41837 11.6601 5.57552C11.7413 5.62551 11.8134 5.64373 12.1425 5.6868C12.6477 5.75482 12.9725 5.81891 13.358 5.92408C14.8695 6.33727 16.0319 7.18185 16.809 8.43558C17.4593 9.48057 17.7292 10.5256 17.6909 11.8604C17.6776 12.3116 17.6872 12.391 17.7562 12.4994C17.8883 12.7015 18.2367 12.7415 18.4154 12.5738C18.5266 12.4716 18.5475 12.3949 18.5694 12.0087C18.5799 11.8072 18.5822 11.5098 18.5773 11.3475Z" fill="white"/>
</svg>
