<svg width="24" height="24" viewBox="0 0 24 24" fill="none" xmlns="http://www.w3.org/2000/svg">
<path fill-rule="evenodd" clip-rule="evenodd" d="M12 24C18.6274 24 24 18.6274 24 12C24 5.37258 18.6274 0 12 0C5.37258 0 0 5.37258 0 12C0 18.6274 5.37258 24 12 24Z" fill="#25D366"/>
<path fill-rule="evenodd" clip-rule="evenodd" d="M12.3957 18.6763H12.3928C11.1985 18.6758 10.0251 18.3762 8.98287 17.8077L5.2002 18.8L6.2125 15.1024C5.58806 14.0203 5.25948 12.7927 5.26002 11.5351C5.26159 7.60085 8.4626 4.4 12.3957 4.4C14.3045 4.40083 16.0961 5.14393 17.4433 6.49271C18.7905 7.84141 19.532 9.63417 19.5313 11.5408C19.5297 15.4741 16.3299 18.6747 12.3957 18.6763ZM15.9907 13.2376C15.9461 13.1632 15.8273 13.1186 15.649 13.0293C15.4707 12.9401 14.5941 12.5088 14.4306 12.4492C14.2672 12.3898 14.1483 12.36 14.0295 12.5385C13.9106 12.7169 13.569 13.1186 13.4649 13.2376C13.3609 13.3565 13.2569 13.3715 13.0787 13.2822C12.9004 13.193 12.3259 13.0047 11.6449 12.3972C11.1148 11.9245 10.757 11.3406 10.653 11.1621C10.549 10.9836 10.6419 10.8872 10.7312 10.7983C10.8114 10.7184 10.9095 10.59 10.9986 10.4859C11.0878 10.3818 11.1175 10.3074 11.1769 10.1885C11.2364 10.0694 11.2066 9.96536 11.1621 9.87611C11.1175 9.78686 10.7609 8.90926 10.6124 8.55226C10.4676 8.2046 10.3206 8.25169 10.2112 8.2462C10.1073 8.24098 9.98833 8.23988 9.86948 8.23988C9.75063 8.23988 9.55746 8.28451 9.39403 8.46301C9.23061 8.64151 8.77002 9.07286 8.77002 9.95039C8.77002 10.828 9.40888 11.6758 9.49804 11.7948C9.58718 11.9138 10.7553 13.7147 12.5438 14.4869C12.9692 14.6707 13.3013 14.7804 13.5602 14.8625C13.9873 14.9983 14.3761 14.9791 14.6832 14.9332C15.0258 14.882 15.7381 14.5019 15.8867 14.0854C16.0352 13.6689 16.0352 13.3119 15.9907 13.2376Z" fill="#FDFDFD"/>
</svg>
